<svg width="189" height="30" viewBox="0 0 189 30" fill="none" xmlns="http://www.w3.org/2000/svg">
<rect width="189" height="30" rx="15" fill="#EDEDED"/>
<path d="M0 15C0 6.71573 6.71573 0 15 0H140V30H15C6.71573 30 0 23.2843 0 15Z" fill="#2BDE73"/>
<path d="M13.92 12.976H13.032C13.056 12.552 13.18 12.16 13.404 11.8C13.804 11.176 14.424 10.864 15.264 10.864C15.976 10.864 16.528 11.076 16.92 11.5C17.32 11.924 17.52 12.432 17.52 13.024C17.52 13.864 17.176 14.456 16.488 14.8C16.592 14.84 16.692 14.896 16.788 14.968C16.892 15.032 17.016 15.136 17.16 15.28C17.304 15.424 17.42 15.624 17.508 15.88C17.596 16.128 17.64 16.412 17.64 16.732C17.64 17.46 17.404 18.044 16.932 18.484C16.468 18.924 15.884 19.144 15.18 19.144C14.708 19.144 14.268 19.036 13.86 18.82C13.452 18.596 13.148 18.244 12.948 17.764C12.844 17.508 12.784 17.228 12.768 16.924H13.656C13.696 17.252 13.792 17.52 13.944 17.728C14.216 18.128 14.628 18.328 15.18 18.328C15.62 18.328 15.992 18.172 16.296 17.86C16.6 17.54 16.752 17.156 16.752 16.708C16.752 16.052 16.488 15.604 15.96 15.364C15.696 15.236 15.392 15.18 15.048 15.196V14.404C15.392 14.428 15.696 14.372 15.96 14.236C16.408 14.004 16.632 13.608 16.632 13.048C16.632 12.656 16.52 12.332 16.296 12.076C16.072 11.812 15.728 11.68 15.264 11.68C14.816 11.68 14.472 11.832 14.232 12.136C14.048 12.376 13.944 12.656 13.92 12.976ZM19.7683 18.94C19.6483 18.82 19.5883 18.68 19.5883 18.52C19.5883 18.36 19.6483 18.22 19.7683 18.1C19.8883 17.98 20.0283 17.92 20.1883 17.92C20.3483 17.92 20.4883 17.98 20.6083 18.1C20.7283 18.22 20.7883 18.36 20.7883 18.52C20.7883 18.68 20.7283 18.82 20.6083 18.94C20.4883 19.06 20.3483 19.12 20.1883 19.12C20.0283 19.12 19.8883 19.06 19.7683 18.94ZM25.5828 10.804L26.2548 11.308L24.4188 13.864C24.6508 13.792 24.8868 13.756 25.1268 13.756C25.8868 13.756 26.5068 14.008 26.9868 14.512C27.4748 15.016 27.7188 15.644 27.7188 16.396C27.7188 17.196 27.4588 17.856 26.9388 18.376C26.4268 18.888 25.7708 19.144 24.9708 19.144C24.3788 19.144 23.8628 19.004 23.4228 18.724C22.9908 18.436 22.6788 18.092 22.4868 17.692C22.2948 17.284 22.1988 16.86 22.1988 16.42C22.1988 15.812 22.4188 15.2 22.8588 14.584L25.5828 10.804ZM24.9588 18.328C25.5028 18.328 25.9508 18.148 26.3028 17.788C26.6548 17.42 26.8308 16.964 26.8308 16.42C26.8308 15.884 26.6508 15.444 26.2908 15.1C25.9388 14.748 25.4908 14.572 24.9468 14.572C24.4028 14.572 23.9548 14.748 23.6028 15.1C23.2588 15.452 23.0868 15.892 23.0868 16.42C23.0868 16.964 23.2588 17.42 23.6028 17.788C23.9548 18.148 24.4068 18.328 24.9588 18.328ZM28.3711 21.04L34.5391 9.892L35.2351 10.252L29.0671 21.376L28.3711 21.04ZM41.2207 10.996V11.812H38.6527L38.1367 13.54C38.2727 13.508 38.4407 13.492 38.6407 13.492C39.4327 13.492 40.0687 13.756 40.5487 14.284C41.0367 14.812 41.2807 15.472 41.2807 16.264C41.2807 17.128 40.9967 17.824 40.4287 18.352C39.8687 18.88 39.1807 19.144 38.3647 19.144C37.6767 19.144 37.0807 18.936 36.5767 18.52C36.2887 18.272 36.0567 18 35.8807 17.704L36.5887 17.2C36.7087 17.44 36.8887 17.656 37.1287 17.848C37.5207 18.168 37.9527 18.328 38.4247 18.328C38.9847 18.328 39.4527 18.128 39.8287 17.728C40.2047 17.328 40.3927 16.844 40.3927 16.276C40.3927 15.7 40.2047 15.228 39.8287 14.86C39.4607 14.492 38.9927 14.308 38.4247 14.308C37.9207 14.308 37.4047 14.492 36.8767 14.86L38.0407 10.996H41.2207ZM47.0978 10.12L47.8538 10.468C47.5898 11.164 47.3858 11.856 47.2418 12.544C47.0418 13.512 46.9418 14.52 46.9418 15.568C46.9418 16.608 47.0378 17.584 47.2298 18.496C47.3738 19.2 47.5818 19.932 47.8538 20.692L47.0978 21.04C46.7298 20.072 46.4658 19.168 46.3058 18.328C46.1378 17.44 46.0538 16.512 46.0538 15.544C46.0538 14.44 46.1658 13.4 46.3898 12.424C46.5658 11.672 46.8018 10.904 47.0978 10.12ZM49.6531 10.996H50.9371C51.8011 10.996 52.4491 11.144 52.8811 11.44C53.4651 11.832 53.7571 12.424 53.7571 13.216C53.7571 13.832 53.5691 14.344 53.1931 14.752C52.8251 15.16 52.3411 15.384 51.7411 15.424L54.2851 19H53.2051L50.7691 15.496H50.5411V19H49.6531V10.996ZM50.5411 11.836V14.704H51.1051C51.6571 14.704 52.0891 14.576 52.4011 14.32C52.7131 14.064 52.8691 13.704 52.8691 13.24C52.8691 12.696 52.6571 12.304 52.2331 12.064C51.9611 11.912 51.5771 11.836 51.0811 11.836H50.5411ZM59.1593 14.728V14.02H60.0233V19H59.1593V18.304C58.7273 18.864 58.1593 19.144 57.4553 19.144C56.7833 19.144 56.2113 18.912 55.7393 18.448C55.2673 17.984 55.0313 17.336 55.0313 16.504C55.0313 15.688 55.2633 15.052 55.7273 14.596C56.1993 14.132 56.7753 13.9 57.4553 13.9C58.1753 13.9 58.7433 14.176 59.1593 14.728ZM57.5513 14.668C57.0953 14.668 56.7073 14.832 56.3873 15.16C56.0753 15.48 55.9193 15.928 55.9193 16.504C55.9193 17.056 56.0633 17.508 56.3513 17.86C56.6473 18.204 57.0473 18.376 57.5513 18.376C58.0553 18.376 58.4553 18.196 58.7513 17.836C59.0553 17.476 59.2073 17.036 59.2073 16.516C59.2073 15.924 59.0393 15.468 58.7033 15.148C58.3673 14.828 57.9833 14.668 57.5513 14.668ZM61.6598 19V14.02H62.5238V14.596C62.8758 14.132 63.3518 13.9 63.9518 13.9C64.5918 13.9 65.0678 14.128 65.3798 14.584C65.5718 14.864 65.6678 15.308 65.6678 15.916V19H64.8038V15.94C64.8038 15.532 64.7278 15.228 64.5758 15.028C64.3918 14.788 64.1198 14.668 63.7598 14.668C63.3918 14.668 63.0998 14.796 62.8838 15.052C62.6438 15.332 62.5238 15.78 62.5238 16.396V19H61.6598ZM67.2965 10.252H68.1605V15.868L69.9845 14.02H71.1125L68.9765 16.156L71.4965 19H70.3685L68.3765 16.732L68.1605 16.948V19H67.2965V10.252ZM79.0718 19H78.1958L78.5798 16.516H76.9478L76.5638 19H75.6878L76.0718 16.516H74.7518L74.8718 15.724H76.1918L76.4318 14.128H75.1118L75.2318 13.336H76.5518L76.9118 10.996H77.7878L77.4277 13.336H79.0598L79.4198 10.996H80.2958L79.9358 13.336H81.2558L81.1358 14.128H79.8158L79.5758 15.724H80.8958L80.7758 16.516H79.4558L79.0718 19ZM78.6998 15.724L78.9398 14.128H77.3078L77.0678 15.724H78.6998ZM86.7711 10.552V16.672H87.7551V17.488H86.7711V19H85.8831V17.488H81.7791L86.7711 10.552ZM83.3511 16.672H85.8831V13.132L83.3511 16.672ZM93.0034 14.836C93.8114 15.196 94.2154 15.848 94.2154 16.792C94.2154 17.456 93.9994 18.016 93.5674 18.472C93.1434 18.92 92.5434 19.144 91.7674 19.144C90.9914 19.144 90.3874 18.92 89.9554 18.472C89.5314 18.016 89.3194 17.456 89.3194 16.792C89.3194 15.848 89.7234 15.196 90.5314 14.836C89.8834 14.46 89.5594 13.876 89.5594 13.084C89.5594 12.476 89.7554 11.956 90.1474 11.524C90.5394 11.084 91.0794 10.864 91.7674 10.864C92.4554 10.864 92.9954 11.084 93.3874 11.524C93.7794 11.956 93.9754 12.476 93.9754 13.084C93.9754 13.876 93.6514 14.46 93.0034 14.836ZM90.7834 14.08C91.0474 14.344 91.3754 14.476 91.7674 14.476C92.1594 14.476 92.4834 14.344 92.7394 14.08C93.0034 13.816 93.1354 13.488 93.1354 13.096C93.1354 12.672 92.9994 12.332 92.7274 12.076C92.4634 11.812 92.1434 11.68 91.7674 11.68C91.3914 11.68 91.0674 11.812 90.7954 12.076C90.5314 12.332 90.3994 12.672 90.3994 13.096C90.3994 13.488 90.5274 13.816 90.7834 14.08ZM90.6394 17.896C90.9274 18.184 91.3034 18.328 91.7674 18.328C92.2314 18.328 92.6074 18.184 92.8954 17.896C93.1834 17.6 93.3274 17.224 93.3274 16.768C93.3274 16.32 93.1794 15.956 92.8834 15.676C92.5954 15.388 92.2234 15.244 91.7674 15.244C91.3114 15.244 90.9354 15.388 90.6394 15.676C90.3514 15.956 90.2074 16.32 90.2074 16.768C90.2074 17.224 90.3514 17.6 90.6394 17.896ZM95.9477 10.468L96.7037 10.12C96.9997 10.904 97.2357 11.672 97.4117 12.424C97.6357 13.4 97.7477 14.44 97.7477 15.544C97.7477 16.512 97.6637 17.44 97.4957 18.328C97.3357 19.168 97.0717 20.072 96.7037 21.04L95.9477 20.692C96.2197 19.932 96.4277 19.2 96.5717 18.496C96.7637 17.584 96.8597 16.608 96.8597 15.568C96.8597 14.52 96.7597 13.512 96.5597 12.544C96.4157 11.856 96.2117 11.164 95.9477 10.468Z" fill="white"/>
</svg>
