<svg width="18" height="16" viewBox="0 0 18 16" fill="none" xmlns="http://www.w3.org/2000/svg">
<path fillRule="evenodd" clipRule="evenodd" d="M12.2077 0.0841174C12.7335 0.0841174 13.2585 0.158284 13.7577 0.325784C16.8335 1.32578 17.9419 4.70078 17.016 7.65078C16.491 9.15828 15.6327 10.5341 14.5085 11.6583C12.8994 13.2166 11.1335 14.5999 9.2327 15.7916L9.02436 15.9174L8.8077 15.7833C6.9002 14.5999 5.12436 13.2166 3.5002 11.65C2.38353 10.5258 1.52436 9.15828 0.991029 7.65078C0.0493627 4.70078 1.1577 1.32578 4.26686 0.308284C4.50853 0.224951 4.7577 0.166617 5.0077 0.134117H5.1077C5.34186 0.0999508 5.57436 0.0841174 5.8077 0.0841174H5.89936C6.42436 0.0999508 6.9327 0.191617 7.4252 0.359117H7.47436C7.5077 0.374951 7.5327 0.392451 7.54936 0.408284C7.73353 0.467451 7.9077 0.534117 8.07436 0.625784L8.39103 0.767451C8.46755 0.80826 8.55343 0.870617 8.62766 0.924508C8.67469 0.958654 8.71704 0.989401 8.74936 1.00912C8.76296 1.01714 8.77679 1.02521 8.79072 1.03335C8.86217 1.07505 8.9366 1.1185 8.99936 1.16662C9.9252 0.459117 11.0494 0.0757841 12.2077 0.0841174ZM14.4244 6.08412C14.766 6.07495 15.0577 5.80078 15.0827 5.44995V5.35078C15.1077 4.18328 14.4002 3.12578 13.3244 2.71745C12.9827 2.59995 12.6077 2.78412 12.4827 3.13412C12.366 3.48412 12.5494 3.86745 12.8994 3.99162C13.4335 4.19162 13.791 4.71745 13.791 5.29995V5.32578C13.7752 5.51662 13.8327 5.70078 13.9494 5.84245C14.066 5.98412 14.241 6.06662 14.4244 6.08412Z" fill="#E74C3C"/>
</svg>
