<svg width="116" height="102" viewBox="0 0 116 102" fill="none" xmlns="http://www.w3.org/2000/svg">
<g clip-path="url(#clip0_184_2959)">
<g clip-path="url(#clip1_184_2959)">
<g clip-path="url(#clip2_184_2959)">
<path d="M62.6642 18.4604L62.6684 18.4529C65.664 13.064 73.2383 13.1038 76.3516 18.2335L91.2963 44.156C94.4056 49.8916 90.2075 55.9324 84.6022 55.9324H53.1509C47.6057 55.9324 44.2126 50.076 46.9659 45.4319L46.9676 45.4289L62.6642 18.4604Z" stroke="#4169E1" stroke-width="0.864198"/>
<path d="M70.1121 45.9586L69.1912 44.3491C68.3284 42.853 66.4313 39.6341 66.4313 39.6341L53.7822 17.6682C50.5052 12.7817 42.7426 12.378 39.4656 18.5311L24.7453 44.0035C21.6977 49.3518 25.3205 56.3069 31.9326 56.3649H63.2124H76.5528H84.4868C76.3814 56.423 73.7929 52.2251 70.1121 45.9586Z" fill="#4169E1"/>
</g>
</g>
</g>
<defs>
<clipPath id="clip0_184_2959">
<rect width="115" height="70" fill="white" transform="translate(0.720703 0.189941)"/>
</clipPath>
<clipPath id="clip1_184_2959">
<rect width="115" height="70" fill="white" transform="translate(0.720703 0.189941)"/>
</clipPath>
<clipPath id="clip2_184_2959">
<rect width="69.1358" height="70" fill="white" transform="translate(23.6523 0.189941)"/>
</clipPath>
</defs>
</svg>
