<svg width="116" height="102" viewBox="0 0 116 102" fill="none" xmlns="http://www.w3.org/2000/svg">
<g clip-path="url(#clip0_184_3011)">
<g clip-path="url(#clip1_184_3011)">
<g clip-path="url(#clip2_184_3011)">
<path d="M57.0071 1.53638C58.6596 2.97492 60.5306 5.58226 62.033 8.96852C63.6634 12.6432 64.8418 17.1956 64.8418 22.0827C64.8418 24.6499 63.8221 27.1965 62.2621 29.8029C60.9393 32.0129 59.252 34.2286 57.5138 36.511C57.2 36.9231 56.8846 37.3373 56.5693 37.7541C52.4815 43.1581 48.4108 48.9933 49.0386 55.6643C49.5416 60.9457 51.7443 64.8812 53.0861 67.2784C53.1254 67.3486 53.164 67.4175 53.2017 67.4851C53.5364 68.084 53.7974 68.56 53.9582 68.932C54.0384 69.1174 54.0855 69.2588 54.1065 69.3639C54.1156 69.4095 54.1184 69.4412 54.1188 69.4617C54.0744 69.4741 53.9888 69.4869 53.8409 69.4814C53.491 69.4681 52.9422 69.36 52.126 69.1323C46.4256 67.5462 40.728 62.4162 37.9835 55.6768C35.2492 48.9625 35.4523 40.6646 41.5278 32.7133C42.6353 31.2821 43.9268 29.9257 45.2998 28.4837C45.5752 28.1945 45.8538 27.9019 46.1349 27.6044C47.8107 25.8316 49.5577 23.906 51.1465 21.5903C54.2857 17.0148 56.7854 10.9496 57.0071 1.53638Z" stroke="#4169E1" stroke-width="0.864198"/>
<path d="M71.6775 28.6387C71.6267 28.5879 71.525 28.5879 71.4234 28.6387L71.3726 28.6895C71.1693 31.0781 68.5267 36.2617 65.2234 40.9879C53.9922 57.047 60.3955 64.7717 64.0037 68.9388C66.0873 71.3782 64.0037 68.9388 69.2382 66.4487C69.6447 66.2454 79.4022 61.0617 80.4694 49.3224C81.5366 37.8879 74.2694 30.7223 71.6775 28.6387Z" fill="#4169E1"/>
</g>
</g>
</g>
<defs>
<clipPath id="clip0_184_3011">
<rect width="115" height="70" fill="white" transform="translate(0.720703 0.379883)"/>
</clipPath>
<clipPath id="clip1_184_3011">
<rect width="115" height="70" fill="white" transform="translate(0.720703 0.379883)"/>
</clipPath>
<clipPath id="clip2_184_3011">
<rect width="44.9383" height="70" fill="white" transform="translate(35.752 0.379883)"/>
</clipPath>
</defs>
</svg>
