<svg width="116" height="102" viewBox="0 0 116 102" fill="none" xmlns="http://www.w3.org/2000/svg">
<g clip-path="url(#clip0_184_2728)">
<g clip-path="url(#clip1_184_2728)">
<path fill-rule="evenodd" clip-rule="evenodd" d="M46.6155 35.008L67.0935 55.4888L80.0192 42.5632C82.3311 40.4836 85.8653 40.5748 88.0638 42.7734C90.2623 44.9719 90.3563 48.5089 88.274 50.818L71.2168 67.8779C68.9242 70.1318 65.2517 70.1318 62.9592 67.8779L38.3524 43.2628V57.892C38.3524 61.122 35.7363 63.7381 32.5063 63.7381C29.2763 63.7381 26.6602 61.122 26.6602 57.892V12.1019C26.6602 8.87469 29.2763 6.25584 32.5063 6.25584C35.7363 6.25584 38.3524 8.87469 38.3524 12.1019V26.7311L62.9564 2.12152C65.2462 -0.132304 68.9242 -0.132304 71.214 2.12152L88.2823 19.1787C90.3619 21.4906 90.2706 25.0248 88.0721 27.2233C85.8736 29.4219 82.3366 29.5159 80.0275 27.4335L67.1018 14.5079L46.6155 35.008ZM67.1018 29.1536C64.7346 29.1536 62.5997 30.5778 61.6926 32.7653C60.7856 34.9527 61.2861 37.4693 62.9592 39.1451C64.6323 40.821 67.1516 41.3215 69.3391 40.4172C71.5265 39.5101 72.9535 37.378 72.9535 35.008C72.9535 33.4566 72.3396 31.9688 71.2417 30.8682C70.1466 29.7703 68.656 29.1536 67.1046 29.1536H67.1018Z" fill="#4169E1"/>
</g>
</g>
<defs>
<clipPath id="clip0_184_2728">
<rect width="115" height="70" fill="white" transform="translate(0.720703)"/>
</clipPath>
<clipPath id="clip1_184_2728">
<rect width="63.9506" height="70" fill="white" transform="translate(26.2461)"/>
</clipPath>
</defs>
</svg>
