<svg width="116" height="102" viewBox="0 0 116 102" fill="none" xmlns="http://www.w3.org/2000/svg">
<g clip-path="url(#clip0_184_2712)">
<path d="M32.2994 28.3046C31.1351 30.9898 32.3962 34.1286 35.0814 35.2624C35.8253 35.586 36.6356 35.716 37.4763 35.6828H39.354L44.6941 17.0078H35.5681L32.2994 28.3046Z" fill="#4169E1"/>
<path d="M82.7255 24.2285C80.267 19.3088 75.9612 16.9472 69.8773 16.9472H58.5501L53.2432 35.7189H61.3017C62.5959 35.5253 63.8597 36.2056 64.3768 37.4031C64.9603 39.2144 64.894 41.1889 64.2164 43.0031C63.6993 45.2043 62.6319 47.2425 61.1081 48.9266C59.9743 50.1241 58.4229 50.8043 56.7719 50.7712C55.4113 50.9316 54.1171 50.1572 53.6 48.8934C53.0828 46.9521 53.2128 44.8808 53.9567 43.0031L63.8293 8.17799C64.4764 6.33345 64.2192 4.32574 63.1186 2.70797C62.0179 1.18698 60.2066 0.346287 58.3288 0.443077H47.3584L34.3415 46.2995C27.2205 71.3819 52.4329 69.5374 52.4329 69.5374C52.4329 69.5374 75.3805 70.0545 82.9523 43.4511C85.1535 35.6194 85.0872 29.1455 82.7255 24.2285Z" fill="#4169E1"/>
<path d="M82.9504 43.3541C85.1849 35.586 85.1186 29.1453 82.7237 24.2588C80.2652 19.3723 75.9594 17.041 69.8755 17.041H61.3303L56.0234 35.716H61.2667C62.5609 35.5224 63.822 36.2027 64.3419 37.3669C64.9254 39.1783 64.859 41.1224 64.1815 42.9006" fill="#4169E1"/>
</g>
<defs>
<clipPath id="clip0_184_2712">
<rect width="115" height="70" fill="white" transform="translate(0.720703)"/>
</clipPath>
</defs>
</svg>
