<svg width="116" height="102" viewBox="0 0 116 102" fill="none" xmlns="http://www.w3.org/2000/svg">
<g clip-path="url(#clip0_184_2742)">
<g clip-path="url(#clip1_184_2742)">
<mask id="mask0_184_2742" style="mask-type:luminance" maskUnits="userSpaceOnUse" x="23" y="0" width="70" height="70">
<path d="M92.7881 0.432129H23.6523V69.5679H92.7881V0.432129Z" fill="white"/>
</mask>
<g mask="url(#mask0_184_2742)">
<path d="M23.6523 35C23.6523 41.8272 25.6832 48.5247 29.4857 54.2068C33.2881 59.8889 38.6894 64.3179 44.998 66.9321C51.3067 69.5463 58.2635 70.2377 64.961 68.8982C71.6585 67.5587 77.8159 64.2747 82.6554 59.4352C87.4949 54.5957 90.7789 48.4599 92.1184 41.7624C93.4579 35.0648 92.7665 28.1081 90.1523 21.7994C87.5381 15.4908 83.1091 10.0895 77.427 6.28707C71.7449 2.4846 65.0474 0.432129 58.2202 0.432129C49.0598 0.432129 40.2665 4.08336 33.7851 10.5648C27.3036 17.0463 23.6523 25.8395 23.6523 35Z" fill="#4169E1"/>
<path d="M89.6548 36.9009C89.3307 36.5336 88.6609 36.0799 87.7535 35.6046C87.6671 35.5614 87.5591 35.5182 87.4727 35.4534C86.0683 34.7404 84.1671 34.0059 82.2227 33.3793H82.2443C82.6764 31.0244 83.0004 28.583 82.6332 26.2281C82.2443 22.5769 80.9912 21.475 77.2319 22.404C76.6702 22.5336 76.0653 22.7281 75.4387 22.9441C75.0066 22.2312 74.5745 21.5614 74.164 20.9781C70.2103 15.2312 61.4387 4.06141 57.9171 4.06141C55.3677 3.93178 54.1578 4.62314 52.127 5.81141C51.9325 5.91944 51.7165 6.04907 51.5004 6.1787C50.0529 6.99968 48.9511 7.79907 47.7628 8.64166C46.8554 9.28982 45.8832 9.95957 44.6949 10.7157C44.5869 10.7806 44.4788 10.8454 44.3924 10.9102C44.1116 11.083 43.8091 11.2775 43.5282 11.4719C42.7288 11.9688 41.9511 12.5306 41.1949 13.1355C40.8924 13.3948 40.5899 13.6756 40.3307 13.9781C40.2659 14.0645 40.1362 14.2157 40.0714 14.3454C39.2288 14.1293 37.5004 14.583 37.5004 14.583C37.5004 14.583 36.3986 12.0985 35.5776 12.2065C34.7566 12.3361 34.9078 14.9503 34.9078 14.9503C34.9078 14.9503 32.272 15.1448 32.0776 15.7929C31.9047 16.441 34.4541 17.5213 34.4541 17.5213C34.4541 17.5213 33.806 20.2003 34.4109 20.5028C34.9943 20.8052 36.8091 18.7744 36.8091 18.7744C36.8091 18.7744 39.1856 20.2435 39.5961 19.7682C40.0066 19.2929 38.6887 16.938 38.6887 16.938C38.6887 16.938 39.877 16.0306 40.3523 15.296C40.4387 15.3824 40.5467 15.4904 40.6548 15.5769C41.6702 16.2682 42.7288 16.8515 43.8523 17.3701C43.8523 17.3701 43.8523 17.3701 43.8523 17.3917C43.7875 17.5213 43.2906 18.4071 42.6856 19.509C42.664 19.5522 42.6424 19.5954 42.5992 19.6386C42.3832 20.0275 42.1455 20.438 41.9295 20.8485C41.7566 21.1509 41.6054 21.4318 41.4541 21.7127C41.3461 21.9071 41.2597 22.0799 41.1517 22.2528C41.0437 22.4472 40.9572 22.6201 40.8492 22.7929C40.3739 22.6417 39.9202 22.512 39.5097 22.404C35.7504 21.475 34.4974 22.5769 34.1085 26.2281C33.7412 28.583 34.0653 31.0028 34.4974 33.3577C32.2937 34.0275 30.3708 34.8485 29.0097 35.5398C28.9881 35.5614 28.9664 35.5614 28.9448 35.583C27.8862 36.1448 27.1732 36.6201 27.0004 36.8793C26.6547 37.3978 27.6918 37.8948 29.1609 38.3052C29.2041 38.3269 29.2473 38.3269 29.2905 38.3485C30.2195 38.5861 31.2998 38.8022 32.3153 38.975C32.7906 39.0398 33.5467 39.1262 34.5406 39.1911C34.2813 40.3793 34.1517 41.6108 34.1517 42.8639C34.1517 44.2466 34.3245 45.5861 34.627 46.8824C33.2659 47.1201 31.9479 47.4657 30.6516 47.9627C30.522 48.0059 30.4356 48.0707 30.3708 48.2003C30.306 48.3299 30.2843 48.438 30.3276 48.5676C30.3708 48.6972 30.4356 48.7836 30.5436 48.8485C30.6516 48.9133 30.7813 48.9349 30.9109 48.8917C32.1856 48.3948 33.5251 48.0491 34.8862 47.8114C35.1671 48.762 35.5344 49.6911 35.9665 50.5769C35.8369 50.6201 35.6856 50.6633 35.556 50.7065C34.4325 51.0522 33.2011 51.5059 32.3153 52.3269C31.8615 52.7373 32.5313 53.4287 32.985 52.9966C33.7196 52.3269 34.8646 51.8948 35.8585 51.6139C36.0529 51.5491 36.2257 51.5059 36.4202 51.4627C36.8523 52.2404 37.3492 53.0182 37.9109 53.7312C37.7813 53.8176 37.6517 53.8824 37.522 53.9688C36.6362 54.509 35.8585 55.2219 35.2103 56.0429C35.1455 56.1509 35.1239 56.2806 35.1671 56.4102C35.1887 56.5398 35.2751 56.6478 35.3832 56.7127C35.4912 56.7775 35.6208 56.7991 35.7504 56.7559C35.8801 56.7343 35.9881 56.6478 36.0529 56.5398C36.593 55.8052 37.3708 55.2219 38.127 54.725C38.2566 54.6386 38.3862 54.5738 38.5159 54.4873C42.9017 59.7806 50.2257 63.2373 58.4788 63.2373C66.7967 63.2373 74.1208 59.759 78.5282 54.4225C78.6795 54.509 78.8307 54.5954 78.9819 54.7034C79.7597 55.2003 80.5591 55.8052 81.0992 56.5614C81.164 56.6694 81.272 56.7559 81.4016 56.7775C81.5312 56.7991 81.6609 56.7991 81.769 56.7343C81.877 56.6694 81.9634 56.5614 81.985 56.4318C82.0066 56.3022 82.0065 56.1725 81.9417 56.0645C81.2071 55.0491 80.2133 54.2929 79.1331 53.6448C79.6732 52.9318 80.1486 52.1756 80.5807 51.4194C80.7967 51.4843 81.0344 51.5491 81.2504 51.6139C81.8122 51.7651 82.3523 51.9812 82.8708 52.2188C83.3245 52.4133 83.7566 52.6725 84.1239 52.9966C84.5776 53.4071 85.2474 52.7373 84.7936 52.3269C83.9078 51.5059 82.698 51.0522 81.5529 50.7065C81.3801 50.6417 81.1856 50.5985 81.0128 50.5552C81.4449 49.6694 81.8122 48.7404 82.093 47.7898C83.4974 48.0059 84.8585 48.3731 86.198 48.8917C86.3276 48.9349 86.4572 48.9133 86.5653 48.8485C86.6733 48.7836 86.7597 48.6756 86.7813 48.5676C86.8029 48.438 86.8029 48.3083 86.7381 48.2003C86.6733 48.0923 86.5653 48.0059 86.4572 47.9843C85.1177 47.4657 83.7566 47.0985 82.3523 46.8824C82.6548 45.5861 82.8276 44.2682 82.8276 42.9071C82.8276 41.5676 82.6763 40.2497 82.3738 38.975C82.9355 38.9102 83.4109 38.867 83.7781 38.8022C84.2318 38.7157 84.664 38.6509 85.1177 38.5861C85.8307 38.4781 86.5004 38.3485 87.1054 38.2404C87.2134 38.2188 87.3214 38.1972 87.4295 38.1756C87.8399 38.0892 88.2071 38.0028 88.5312 37.9164C89.4818 37.6139 90.0004 37.3114 89.6548 36.9009ZM42.2751 25.5799L44.3924 21.7343C44.8029 20.9997 45.2134 20.2651 45.5159 19.7034C45.6887 19.3793 45.8399 19.0985 45.948 18.904C45.9912 18.8176 46.056 18.7312 46.0776 18.6664C46.0992 18.6448 46.1208 18.6015 46.1208 18.5583C46.1208 18.5367 46.1424 18.5151 46.164 18.4719C46.164 18.4503 46.2072 18.3855 46.2288 18.2991C46.2504 18.2775 46.2937 18.1262 46.3369 17.9318C46.3585 17.8022 46.4017 17.4349 46.4017 17.1972C46.3153 16.7219 45.6455 15.7065 44.8461 15.1231L44.8893 15.0151C44.5004 14.8423 44.1332 14.6478 43.7443 14.4534C44.1116 14.1941 44.5004 13.9349 44.8893 13.6756L44.9109 13.654L44.9325 13.6324C45.1918 13.4596 45.4511 13.3083 45.7319 13.1139C45.8399 13.0491 45.948 12.9843 46.0776 12.8978C47.3307 12.0985 48.3461 11.3855 49.2535 10.7373C49.4048 10.6293 49.5344 10.5429 49.664 10.4349C50.6795 9.72191 51.6301 9.07377 52.7751 8.404C53.0344 8.25277 53.2504 8.12314 53.4665 7.99351C54.3523 7.47499 54.8924 7.17252 55.4757 6.93487C56.0375 6.71882 56.664 6.58919 57.7443 6.6324H57.7875C57.8307 6.65401 57.9603 6.67561 58.1764 6.80524C58.5653 7.02129 59.0622 7.36697 59.6887 7.86388C60.9202 8.87932 62.3677 10.3485 63.9017 12.0552C66.9912 15.512 70.1023 19.6602 72.0467 22.4688C72.8245 23.6139 73.7103 25.083 74.5961 26.6386C71.3554 26.1201 65.7813 25.4935 58.2844 25.4935C50.3338 25.4935 44.8029 26.2281 41.627 26.8114C41.8214 26.3793 42.0375 25.9688 42.2751 25.5799ZM43.5498 47.5306C40.7412 45.975 40.5251 41.3948 40.5251 41.3948C40.5251 41.3948 45.4078 41.0707 48.2597 42.3238C52.5159 44.2034 53.056 48.4812 53.056 48.4812C53.056 48.4812 46.8554 49.367 43.5498 47.5306ZM58.6517 52.3269C57.8739 52.3269 57.2474 52.046 57.2474 51.7219C57.2474 51.3762 57.8739 51.117 58.6517 51.117C59.4294 51.117 60.056 51.3978 60.056 51.7219C60.056 52.046 59.4294 52.3269 58.6517 52.3269ZM73.5807 47.5522C70.2535 49.3886 64.0961 48.4812 64.0961 48.4812V48.4596C64.0961 48.4596 64.6146 44.2034 68.8924 42.3454C71.7443 41.0923 76.627 41.4164 76.627 41.4164C76.627 41.4164 76.3893 45.9534 73.5807 47.5522ZM73.8183 36.8361C69.2813 36.9873 63.7936 37.0738 58.414 37.117C53.056 37.1602 47.2443 37.0738 42.4264 36.9441C38.1702 36.8361 34.8862 36.6633 33.3091 36.4904C34.3677 36.1015 35.556 35.7127 36.7875 35.3886L38.127 35.0429L38.5807 33.7466C38.7319 33.3145 38.9048 32.8824 39.056 32.4503C42.8585 31.9318 50.0313 31.1324 58.4356 31.1324C64.8955 31.154 71.3338 31.6293 77.7288 32.5367C78.0529 33.1849 78.3338 33.725 78.5498 34.1787L79.0899 35.2373L80.235 35.5182C80.4943 35.583 80.7103 35.6478 80.9048 35.691C81.5097 35.8639 82.1146 36.0799 82.6979 36.2744C81.0559 36.512 77.8801 36.6849 73.8183 36.8361Z" fill="#F6F9FC"/>
</g>
</g>
</g>
<defs>
<clipPath id="clip0_184_2742">
<rect width="115" height="70" fill="white" transform="translate(0.720703)"/>
</clipPath>
<clipPath id="clip1_184_2742">
<rect width="69.1358" height="70" fill="white" transform="translate(23.6523)"/>
</clipPath>
</defs>
</svg>
