<svg width="295" height="62" viewBox="0 0 295 62" fill="none" xmlns="http://www.w3.org/2000/svg">
<g clipPath="url(#clip0_2946_5649)">
<path d="M28.5862 60.7885C28.5138 60.7179 28.2038 60.4512 27.9488 60.2028C26.345 58.7463 23.72 54.947 22.9188 52.9585C22.79 52.6565 22.5175 51.893 22.5 51.485C22.5 51.0941 22.59 50.7215 22.7725 50.3659C23.0275 49.9227 23.4287 49.5671 23.9025 49.3723C24.2313 49.2468 25.215 49.052 25.2325 49.052C26.3088 48.8572 28.0575 48.75 29.99 48.75C31.8313 48.75 33.5087 48.8572 34.6012 49.0167C34.6187 49.0349 35.8413 49.2298 36.26 49.4429C37.025 49.8338 37.5 50.5973 37.5 51.4144V51.485C37.4812 52.0172 37.0062 53.1363 36.9887 53.1363C36.1862 55.0177 33.69 58.7293 32.0312 60.221C32.0312 60.221 31.605 60.6411 31.3387 60.8238C30.9563 61.1087 30.4825 61.25 30.0087 61.25C29.48 61.25 28.9875 61.0905 28.5862 60.7885Z" fill="#FF4581"/>
<path d="M0 19.981C0 10.1873 7.08975 1.77604 16.8341 0.794488C21.329 0.341714 26.0349 0 30 0C33.9651 0 38.671 0.341714 43.1659 0.794487C52.9103 1.77604 60 10.1873 60 19.981V32.3322C60 41.5337 53.7267 49.6212 44.6413 51.0784C39.716 51.8684 34.4016 52.5 30 52.5C25.5984 52.5 20.284 51.8684 15.3587 51.0784C6.27325 49.6212 0 41.5337 0 32.3322V19.981Z" fill="url(#paint0_linear_2946_5649)"/>
<path d="M23.4641 34.1146C23.4641 33.4538 23.4495 32.7931 23.4678 32.1323C23.5265 29.7755 25.351 27.7051 27.6857 27.349C28.0235 27.2976 28.3722 27.2683 28.7136 27.2683C29.8957 27.2646 31.0814 27.2095 32.2524 27.3013C34.3118 27.4628 35.7472 28.5641 36.5768 30.451C36.8558 31.0824 36.9476 31.7578 36.9513 32.448C36.9549 33.7071 36.9513 34.9626 36.9549 36.2217C36.9549 36.3759 36.9109 36.4604 36.7677 36.5264C35.7325 37.022 34.6312 37.2973 33.5042 37.4772C30.9639 37.881 28.4456 37.7342 25.9494 37.1725C25.1748 37 24.4149 36.7687 23.6477 36.5705C23.5008 36.5338 23.4531 36.4604 23.4531 36.3062C23.4605 35.5756 23.4568 34.8451 23.4568 34.1146C23.4605 34.1146 23.4605 34.1146 23.4641 34.1146Z" fill="white"/>
<path d="M26.7604 26.5673C23.552 27.8081 22.2745 30.2126 22.5278 33.5642C22.4176 33.5642 22.3369 33.5678 22.2561 33.5642C20.3472 33.4283 18.4934 33.0282 16.6652 32.4702C16.5404 32.4335 16.5037 32.3748 16.5037 32.25C16.5074 30.8807 16.489 29.5078 16.511 28.1385C16.5588 25.6459 18.4236 23.5681 20.8942 23.2377C21.1732 23.201 21.4522 23.19 21.7348 23.19C22.8581 23.1864 23.9851 23.1937 25.1084 23.19C25.2369 23.19 25.3104 23.2084 25.3214 23.3662C25.4021 24.552 25.8573 25.5798 26.6796 26.4425C26.7053 26.4682 26.7273 26.4939 26.7494 26.5233C26.7567 26.5306 26.7567 26.549 26.7604 26.5673Z" fill="white"/>
<path d="M33.614 26.5744C33.7755 26.3835 33.9297 26.2146 34.0692 26.0347C34.6602 25.2712 35.0053 24.4085 35.064 23.4393C35.0751 23.2485 35.1301 23.1787 35.3357 23.1787C36.4039 23.1897 37.4722 23.1677 38.5405 23.1897C41.0477 23.2411 43.1181 25.106 43.4485 27.5875C43.4816 27.8225 43.4963 28.0648 43.4963 28.2997C43.4999 29.5845 43.4963 30.8694 43.4999 32.1579C43.4999 32.2974 43.4632 32.3671 43.3347 32.4295C42.4427 32.859 41.5029 33.1417 40.5301 33.2996C39.7262 33.428 38.9149 33.4941 38.1073 33.5932C37.9347 33.6153 37.8944 33.5602 37.887 33.3913C37.8723 32.7379 37.9017 32.0771 37.8026 31.4384C37.4722 29.3276 36.2975 27.8225 34.3849 26.8864C34.1463 26.7726 33.893 26.6882 33.614 26.5744Z" fill="white"/>
<path d="M30.1888 26.993C27.9935 26.982 26.2351 25.2163 26.2461 23.0284C26.2572 20.8368 28.0302 19.0711 30.2108 19.0821C32.3913 19.0894 34.1754 20.8809 34.1607 23.0504C34.1497 25.2383 32.3693 27.004 30.1888 26.993Z" fill="white"/>
<path d="M23.2513 15C25.4171 14.9963 27.1865 16.7437 27.2159 18.9059C27.2196 19.0895 27.1682 19.2179 27.025 19.3391C26.166 20.0696 25.6264 20.991 25.4098 22.0997C25.3804 22.2538 25.307 22.3383 25.1675 22.4117C23.009 23.5901 20.3586 22.5879 19.5252 20.2789C18.6002 17.7202 20.5201 15.0073 23.2513 15Z" fill="white"/>
<path d="M36.7784 22.9181C36.2241 22.8961 35.7248 22.8116 35.2439 22.6097C35.1301 22.562 35.0714 22.507 35.0494 22.3748C34.8291 20.9468 34.1243 19.8161 32.9312 18.9975C32.8248 18.9241 32.7917 18.8433 32.7991 18.7185C32.9055 16.6261 34.752 14.9264 36.8445 15.0035C39.1388 15.0916 40.8275 16.9454 40.699 19.2398C40.5925 21.1377 39.0177 22.7382 37.0978 22.8997C36.9803 22.9034 36.8592 22.9108 36.7784 22.9181Z" fill="white"/>
</g>
<path d="M79.3497 40.56C77.2964 40.56 75.4297 40.2133 73.7497 39.52C72.0964 38.8 70.723 37.7733 69.6297 36.44L73.9497 31.32C74.6964 32.28 75.4697 33.0133 76.2697 33.52C77.0697 34 77.9097 34.24 78.7897 34.24C81.1364 34.24 82.3097 32.88 82.3097 30.16V18.12H72.6297V12H90.1497V29.68C90.1497 33.3333 89.2297 36.0667 87.3897 37.88C85.5497 39.6667 82.8697 40.56 79.3497 40.56ZM106.495 40.36C103.935 40.36 101.695 39.88 99.7753 38.92C97.882 37.9333 96.402 36.6 95.3353 34.92C94.2953 33.2133 93.7753 31.28 93.7753 29.12C93.7753 26.96 94.282 25.04 95.2953 23.36C96.3353 21.6533 97.762 20.3333 99.5753 19.4C101.389 18.44 103.429 17.96 105.695 17.96C107.829 17.96 109.775 18.4 111.535 19.28C113.295 20.1333 114.695 21.4 115.735 23.08C116.775 24.76 117.295 26.8 117.295 29.2C117.295 29.4667 117.282 29.7733 117.255 30.12C117.229 30.4667 117.202 30.7867 117.175 31.08H100.015V27.08H113.135L110.255 28.2C110.282 27.2133 110.095 26.36 109.695 25.64C109.322 24.92 108.789 24.36 108.095 23.96C107.429 23.56 106.642 23.36 105.735 23.36C104.829 23.36 104.029 23.56 103.335 23.96C102.669 24.36 102.149 24.9333 101.775 25.68C101.402 26.4 101.215 27.2533 101.215 28.24V29.4C101.215 30.4667 101.429 31.3867 101.855 32.16C102.309 32.9333 102.949 33.5333 103.775 33.96C104.602 34.36 105.589 34.56 106.735 34.56C107.802 34.56 108.709 34.4133 109.455 34.12C110.229 33.8 110.989 33.32 111.735 32.68L115.735 36.84C114.695 37.9867 113.415 38.8667 111.895 39.48C110.375 40.0667 108.575 40.36 106.495 40.36ZM130.479 40.36C127.706 40.36 125.546 39.68 123.999 38.32C122.453 36.9333 121.679 34.8533 121.679 32.08V13.48H129.279V32C129.279 32.7733 129.493 33.3867 129.919 33.84C130.346 34.2667 130.893 34.48 131.559 34.48C132.466 34.48 133.239 34.2533 133.879 33.8L135.759 39.12C135.119 39.5467 134.333 39.8533 133.399 40.04C132.466 40.2533 131.493 40.36 130.479 40.36ZM118.519 24.8V19.12H134.239V24.8H118.519ZM159.938 40.32C157.805 40.32 155.765 40 153.818 39.36C151.871 38.6933 150.338 37.84 149.218 36.8L150.698 33.68C151.765 34.6133 153.125 35.3867 154.778 36C156.431 36.6133 158.151 36.92 159.938 36.92C161.565 36.92 162.885 36.7333 163.898 36.36C164.911 35.9867 165.658 35.48 166.138 34.84C166.618 34.1733 166.858 33.4267 166.858 32.6C166.858 31.64 166.538 30.8667 165.898 30.28C165.285 29.6933 164.471 29.2267 163.458 28.88C162.471 28.5067 161.378 28.1867 160.178 27.92C158.978 27.6533 157.765 27.3467 156.538 27C155.338 26.6267 154.231 26.16 153.218 25.6C152.231 25.04 151.431 24.2933 150.818 23.36C150.205 22.4 149.898 21.1733 149.898 19.68C149.898 18.24 150.271 16.92 151.018 15.72C151.791 14.4933 152.965 13.52 154.538 12.8C156.138 12.0533 158.165 11.68 160.618 11.68C162.245 11.68 163.858 11.8933 165.458 12.32C167.058 12.7467 168.445 13.36 169.618 14.16L168.298 17.36C167.098 16.56 165.831 15.9867 164.498 15.64C163.165 15.2667 161.871 15.08 160.618 15.08C159.045 15.08 157.751 15.28 156.738 15.68C155.725 16.08 154.978 16.6133 154.498 17.28C154.045 17.9467 153.818 18.6933 153.818 19.52C153.818 20.5067 154.125 21.2933 154.738 21.88C155.378 22.4667 156.191 22.9333 157.178 23.28C158.191 23.6267 159.298 23.9467 160.498 24.24C161.698 24.5067 162.898 24.8133 164.098 25.16C165.325 25.5067 166.431 25.96 167.418 26.52C168.431 27.08 169.245 27.8267 169.858 28.76C170.471 29.6933 170.778 30.8933 170.778 32.36C170.778 33.7733 170.391 35.0933 169.618 36.32C168.845 37.52 167.645 38.4933 166.018 39.24C164.418 39.96 162.391 40.32 159.938 40.32ZM185.142 40.24C183.009 40.24 181.115 39.7733 179.462 38.84C177.809 37.9067 176.502 36.6267 175.542 35C174.582 33.3467 174.102 31.48 174.102 29.4C174.102 27.2933 174.582 25.4267 175.542 23.8C176.502 22.1733 177.809 20.9067 179.462 20C181.115 19.0667 183.009 18.6 185.142 18.6C187.249 18.6 189.129 19.0667 190.782 20C192.462 20.9067 193.769 22.1733 194.702 23.8C195.662 25.4 196.142 27.2667 196.142 29.4C196.142 31.5067 195.662 33.3733 194.702 35C193.769 36.6267 192.462 37.9067 190.782 38.84C189.129 39.7733 187.249 40.24 185.142 40.24ZM185.142 36.88C186.502 36.88 187.715 36.5733 188.782 35.96C189.875 35.3467 190.729 34.48 191.342 33.36C191.955 32.2133 192.262 30.8933 192.262 29.4C192.262 27.88 191.955 26.5733 191.342 25.48C190.729 24.36 189.875 23.4933 188.782 22.88C187.715 22.2667 186.502 21.96 185.142 21.96C183.782 21.96 182.569 22.2667 181.502 22.88C180.435 23.4933 179.582 24.36 178.942 25.48C178.302 26.5733 177.982 27.88 177.982 29.4C177.982 30.8933 178.302 32.2133 178.942 33.36C179.582 34.48 180.435 35.3467 181.502 35.96C182.569 36.5733 183.782 36.88 185.142 36.88ZM210.693 40.24C208.533 40.24 206.599 39.7733 204.893 38.84C203.213 37.9067 201.893 36.6267 200.933 35C199.973 33.3733 199.493 31.5067 199.493 29.4C199.493 27.2933 199.973 25.4267 200.933 23.8C201.893 22.1733 203.213 20.9067 204.893 20C206.599 19.0667 208.533 18.6 210.693 18.6C212.613 18.6 214.319 18.9867 215.813 19.76C217.333 20.5067 218.506 21.6267 219.333 23.12L216.413 25C215.719 23.96 214.866 23.2 213.853 22.72C212.866 22.2133 211.799 21.96 210.653 21.96C209.266 21.96 208.026 22.2667 206.933 22.88C205.839 23.4933 204.973 24.36 204.333 25.48C203.693 26.5733 203.373 27.88 203.373 29.4C203.373 30.92 203.693 32.24 204.333 33.36C204.973 34.48 205.839 35.3467 206.933 35.96C208.026 36.5733 209.266 36.88 210.653 36.88C211.799 36.88 212.866 36.64 213.853 36.16C214.866 35.6533 215.719 34.88 216.413 33.84L219.333 35.68C218.506 37.1467 217.333 38.28 215.813 39.08C214.319 39.8533 212.613 40.24 210.693 40.24ZM224.031 40V18.8H227.871V40H224.031ZM225.951 14.72C225.204 14.72 224.577 14.48 224.071 14C223.591 13.52 223.351 12.9333 223.351 12.24C223.351 11.52 223.591 10.92 224.071 10.44C224.577 9.96 225.204 9.72 225.951 9.72C226.697 9.72 227.311 9.96 227.791 10.44C228.297 10.8933 228.551 11.4667 228.551 12.16C228.551 12.88 228.311 13.4933 227.831 14C227.351 14.48 226.724 14.72 225.951 14.72ZM244.643 40.24C242.376 40.24 240.376 39.7733 238.643 38.84C236.936 37.9067 235.603 36.6267 234.643 35C233.709 33.3733 233.243 31.5067 233.243 29.4C233.243 27.2933 233.696 25.4267 234.603 23.8C235.536 22.1733 236.803 20.9067 238.403 20C240.029 19.0667 241.856 18.6 243.883 18.6C245.936 18.6 247.749 19.0533 249.323 19.96C250.896 20.8667 252.123 22.1467 253.003 23.8C253.909 25.4267 254.363 27.3333 254.363 29.52C254.363 29.68 254.349 29.8667 254.323 30.08C254.323 30.2933 254.309 30.4933 254.283 30.68H236.243V27.92H252.283L250.723 28.88C250.749 27.52 250.469 26.3067 249.883 25.24C249.296 24.1733 248.483 23.3467 247.443 22.76C246.429 22.1467 245.243 21.84 243.883 21.84C242.549 21.84 241.363 22.1467 240.323 22.76C239.283 23.3467 238.469 24.1867 237.883 25.28C237.296 26.3467 237.003 27.5733 237.003 28.96V29.6C237.003 31.0133 237.323 32.28 237.963 33.4C238.629 34.4933 239.549 35.3467 240.723 35.96C241.896 36.5733 243.243 36.88 244.763 36.88C246.016 36.88 247.149 36.6667 248.163 36.24C249.203 35.8133 250.109 35.1733 250.883 34.32L253.003 36.8C252.043 37.92 250.843 38.7733 249.403 39.36C247.989 39.9467 246.403 40.24 244.643 40.24ZM266.975 40.24C264.841 40.24 263.188 39.6667 262.015 38.52C260.841 37.3733 260.255 35.7333 260.255 33.6V14.16H264.095V33.44C264.095 34.5867 264.375 35.4667 264.935 36.08C265.521 36.6933 266.348 37 267.415 37C268.615 37 269.615 36.6667 270.415 36L271.615 38.76C271.028 39.2667 270.321 39.64 269.495 39.88C268.695 40.12 267.855 40.24 266.975 40.24ZM256.655 21.96V18.8H270.175V21.96H256.655ZM276.787 48C275.773 48 274.787 47.8267 273.827 47.48C272.867 47.16 272.04 46.68 271.347 46.04L272.987 43.16C273.52 43.6667 274.107 44.0533 274.747 44.32C275.387 44.5867 276.067 44.72 276.787 44.72C277.72 44.72 278.493 44.48 279.107 44C279.72 43.52 280.293 42.6667 280.827 41.44L282.147 38.52L282.547 38.04L290.867 18.8H294.627L284.347 42.12C283.733 43.6133 283.04 44.7867 282.267 45.64C281.52 46.4933 280.693 47.0933 279.787 47.44C278.88 47.8133 277.88 48 276.787 48ZM281.827 40.68L272.147 18.8H276.147L284.387 37.68L281.827 40.68Z" fill="#333333"/>
<defs>
<linearGradient id="paint0_linear_2946_5649" x1="30" y1="0" x2="30" y2="52.5" gradientUnits="userSpaceOnUse">
<stop stop-color="#7F4DEA"/>
<stop offset="1" stop-color="#FF4581"/>
</linearGradient>
<clipPath id="clip0_2946_5649">
<rect width="60" height="61.25" fill="white"/>
</clipPath>
</defs>
</svg>
