<svg width="574" height="1197" viewBox="0 0 574 1197" fill="none" xmlns="http://www.w3.org/2000/svg">
<path d="M230.988 276.005C280.616 233.169 321 242.408 334.988 252.382" stroke="url(#paint0_linear_628_852)" strokeWidth="10"/>
<path d="M304.988 133.005C416.909 133.005 391.896 80.3381 365.4 54.0048" stroke="url(#paint1_linear_628_852)" strokeWidth="10"/>
<path opacity="0.72" d="M49.3798 87.6544C52.8633 21.1849 20.4403 34.3814 3.7934 49.2884" stroke="url(#paint2_linear_628_852)" strokeWidth="10"/>
<path opacity="0.71" d="M195.858 42.2206C146.368 -14.7113 130.324 21.5731 128.489 46.8318" stroke="url(#paint3_linear_628_852)" strokeWidth="10"/>
<path opacity="0.94" d="M168.558 243.622C142.481 207.761 151.107 181.19 158.679 172.388" stroke="url(#paint4_linear_628_852)" strokeWidth="10"/>
<path opacity="0.84" d="M433.249 219.3C548.781 167.862 498.473 124.356 458.878 109.033" stroke="url(#paint5_linear_628_852)" strokeWidth="10"/>
<path opacity="0.79" d="M105.805 192.287C50.4108 202.077 24.911 177.465 19.0853 163.935" stroke="url(#paint6_linear_628_852)" strokeWidth="10"/>
<path opacity="0.73" d="M55.5485 332.392C3.68297 365.105 27.2317 394.387 45.4893 404.938" stroke="url(#paint7_linear_628_852)" strokeWidth="10"/>
<path opacity="0.98" d="M206.872 607.413C220.412 536.869 176.518 533.569 152.879 540.737" stroke="url(#paint8_linear_628_852)" strokeWidth="10"/>
<path opacity="0.75" d="M372.401 607.088C396.501 552.613 361.65 541.758 341.212 543.14" stroke="url(#paint9_linear_628_852)" strokeWidth="10"/>
<path opacity="0.82" d="M491.049 405.07C506.807 314.449 450.537 311.205 420.432 320.911" stroke="url(#paint10_linear_628_852)" strokeWidth="10"/>
<path opacity="0.79" d="M489.188 546.834C562.387 554.353 561.836 509.265 552.41 485.781" stroke="url(#paint11_linear_628_852)" strokeWidth="10"/>
<path d="M74.8116 921.651C65.6183 846.778 32.0277 867.887 16.3815 887.801" stroke="url(#paint12_linear_628_852)" strokeWidth="10"/>
<path opacity="0.7" d="M87.0879 660.506C-30.3453 710.353 19.6303 755.12 59.2973 771.273" stroke="url(#paint13_linear_628_852)" strokeWidth="10"/>
<path opacity="0.97" d="M249.035 680.077C267.591 638.353 295.73 632.365 307.48 634.586" stroke="url(#paint14_linear_628_852)" strokeWidth="10"/>
<path opacity="0.78" d="M521.217 700.24C445.777 680.059 428.134 634.132 428.743 613.691" stroke="url(#paint15_linear_628_852)" strokeWidth="10"/>
<path opacity="0.83" d="M423.421 943.852C451.596 1010.23 476.899 981.98 486.028 959.56" stroke="url(#paint16_linear_628_852)" strokeWidth="10"/>
<path opacity="0.74" d="M196.85 968.073C98.8002 1005.98 128.744 1063.01 155.973 1086.79" stroke="url(#paint17_linear_628_852)" strokeWidth="10"/>
<path opacity="0.71" d="M364.243 982.026C348.175 1057.77 303.615 1077.62 283.343 1078.08" stroke="url(#paint18_linear_628_852)" strokeWidth="10"/>
<path opacity="0.91" d="M474.801 1196.49C477.898 1107.8 434.981 1126.15 413.136 1146.41" stroke="url(#paint19_linear_628_852)" strokeWidth="10"/>
<path opacity="0.84" d="M161.849 1109.08C140.402 1175.17 98.7694 1188.71 80.6337 1187.22" stroke="url(#paint20_linear_628_852)" strokeWidth="10"/>
<defs>
<linearGradient id="paint0_linear_628_852" x1="282.988" y1="244.005" x2="282.988" y2="276.005" gradientUnits="userSpaceOnUse">
<stop stop-color="#5C27D1"/>
<stop offset="1" stop-color="#F2FDFF"/>
</linearGradient>
<linearGradient id="paint1_linear_628_852" x1="346.488" y1="54.0048" x2="346.488" y2="133.005" gradientUnits="userSpaceOnUse">
<stop stop-color="#F9137D"/>
<stop offset="1" stop-color="#F69A2B"/>
</linearGradient>
<linearGradient id="paint2_linear_628_852" x1="3.20477" y1="60.52" x2="50.6715" y2="63.0076" gradientUnits="userSpaceOnUse">
<stop stop-color="#F9137D"/>
<stop offset="1" stop-color="#F69A2B"/>
</linearGradient>
<linearGradient id="paint3_linear_628_852" x1="136.851" y1="56.4518" x2="177.507" y2="21.1103" gradientUnits="userSpaceOnUse">
<stop stop-color="#F9137D"/>
<stop offset="1" stop-color="#F69A2B"/>
</linearGradient>
<linearGradient id="paint4_linear_628_852" x1="149.954" y1="206.81" x2="171.613" y2="208.704" gradientUnits="userSpaceOnUse">
<stop stop-color="#5C27D1"/>
<stop offset="1" stop-color="#F2FDFF"/>
</linearGradient>
<linearGradient id="paint5_linear_628_852" x1="439.356" y1="117.724" x2="476.088" y2="200.227" gradientUnits="userSpaceOnUse">
<stop stop-color="#F9137D"/>
<stop offset="1" stop-color="#F69A2B"/>
</linearGradient>
<linearGradient id="paint6_linear_628_852" x1="53.4824" y1="193.027" x2="67.6885" y2="169.384" gradientUnits="userSpaceOnUse">
<stop stop-color="#5C27D1"/>
<stop offset="1" stop-color="#F2FDFF"/>
</linearGradient>
<linearGradient id="paint7_linear_628_852" x1="32.6692" y1="403.161" x2="42.7284" y2="330.614" gradientUnits="userSpaceOnUse">
<stop stop-color="#5C27D1"/>
<stop offset="1" stop-color="#F9137D"/>
</linearGradient>
<linearGradient id="paint8_linear_628_852" x1="164.662" y1="531.196" x2="218.655" y2="597.872" gradientUnits="userSpaceOnUse">
<stop stop-color="#5C27D1"/>
<stop offset="1" stop-color="#F9137D"/>
</linearGradient>
<linearGradient id="paint9_linear_628_852" x1="352.512" y1="537.629" x2="383.702" y2="601.576" gradientUnits="userSpaceOnUse">
<stop stop-color="#5C27D1"/>
<stop offset="1" stop-color="#F9137D"/>
</linearGradient>
<linearGradient id="paint10_linear_628_852" x1="435.304" y1="308.432" x2="505.921" y2="392.591" gradientUnits="userSpaceOnUse">
<stop stop-color="#5C27D1"/>
<stop offset="1" stop-color="#F9137D"/>
</linearGradient>
<linearGradient id="paint11_linear_628_852" x1="563.199" y1="496.954" x2="499.977" y2="558.006" gradientUnits="userSpaceOnUse">
<stop stop-color="#5C27D1"/>
<stop offset="1" stop-color="#F9137D"/>
</linearGradient>
<linearGradient id="paint12_linear_628_852" x1="17.9349" y1="900.453" x2="71.4028" y2="893.888" gradientUnits="userSpaceOnUse">
<stop stop-color="#F9137D"/>
<stop offset="1" stop-color="#F69A2B"/>
</linearGradient>
<linearGradient id="paint13_linear_628_852" x1="79.1404" y1="762.85" x2="43.5438" y2="678.989" gradientUnits="userSpaceOnUse">
<stop stop-color="#F9137D"/>
<stop offset="1" stop-color="#F69A2B"/>
</linearGradient>
<linearGradient id="paint14_linear_628_852" x1="272.288" y1="644.529" x2="281.75" y2="664.822" gradientUnits="userSpaceOnUse">
<stop stop-color="#5C27D1"/>
<stop offset="1" stop-color="#F2FDFF"/>
</linearGradient>
<linearGradient id="paint15_linear_628_852" x1="454.952" y1="670.475" x2="486.697" y2="649.062" gradientUnits="userSpaceOnUse">
<stop stop-color="#5C27D1"/>
<stop offset="1" stop-color="#F2FDFF"/>
</linearGradient>
<linearGradient id="paint16_linear_628_852" x1="481.267" y1="948.344" x2="433.868" y2="968.464" gradientUnits="userSpaceOnUse">
<stop stop-color="#F9137D"/>
<stop offset="1" stop-color="#F69A2B"/>
</linearGradient>
<linearGradient id="paint17_linear_628_852" x1="134.994" y1="1079.56" x2="175.871" y2="960.85" gradientUnits="userSpaceOnUse">
<stop stop-color="#5C27D1"/>
<stop offset="1" stop-color="#F9137D"/>
</linearGradient>
<linearGradient id="paint18_linear_628_852" x1="338.209" y1="1049.18" x2="315.36" y2="1018.86" gradientUnits="userSpaceOnUse">
<stop stop-color="#5C27D1"/>
<stop offset="1" stop-color="#F2FDFF"/>
</linearGradient>
<linearGradient id="paint19_linear_628_852" x1="412.612" y1="1161.39" x2="475.949" y2="1163.61" gradientUnits="userSpaceOnUse">
<stop stop-color="#F9137D"/>
<stop offset="1" stop-color="#F69A2B"/>
</linearGradient>
<linearGradient id="paint20_linear_628_852" x1="132.313" y1="1166.57" x2="114.764" y2="1137.37" gradientUnits="userSpaceOnUse">
<stop stop-color="#5C27D1"/>
<stop offset="1" stop-color="#F2FDFF"/>
</linearGradient>
</defs>
</svg>
