<svg width="295" height="62" viewBox="0 0 295 62" fill="none" xmlns="http://www.w3.org/2000/svg">
<g clipPath="url(#clip0_29_20241)">
<path d="M28.5862 60.7885C28.5138 60.7179 28.2038 60.4512 27.9488 60.2028C26.345 58.7463 23.72 54.947 22.9188 52.9585C22.79 52.6565 22.5175 51.893 22.5 51.485C22.5 51.0941 22.59 50.7215 22.7725 50.3659C23.0275 49.9227 23.4287 49.5671 23.9025 49.3723C24.2313 49.2468 25.215 49.052 25.2325 49.052C26.3088 48.8572 28.0575 48.75 29.99 48.75C31.8313 48.75 33.5087 48.8572 34.6012 49.0167C34.6187 49.0349 35.8413 49.2298 36.26 49.4429C37.025 49.8338 37.5 50.5973 37.5 51.4144V51.485C37.4812 52.0172 37.0062 53.1363 36.9887 53.1363C36.1862 55.0177 33.69 58.7293 32.0312 60.221C32.0312 60.221 31.605 60.6411 31.3387 60.8238C30.9563 61.1087 30.4825 61.25 30.0087 61.25C29.48 61.25 28.9875 61.0905 28.5862 60.7885Z" fill="#FF4581"/>
<path d="M0 19.981C0 10.1873 7.08975 1.77604 16.8341 0.794488C21.329 0.341714 26.0349 0 30 0C33.9651 0 38.671 0.341714 43.1659 0.794487C52.9103 1.77604 60 10.1873 60 19.981V32.3322C60 41.5337 53.7267 49.6212 44.6413 51.0784C39.716 51.8684 34.4016 52.5 30 52.5C25.5984 52.5 20.284 51.8684 15.3587 51.0784C6.27325 49.6212 0 41.5337 0 32.3322V19.981Z" fill="url(#paint0_linear_29_20241)"/>
<path d="M23.4638 34.1147C23.4638 33.454 23.4491 32.7932 23.4674 32.1324C23.5262 29.7756 25.3506 27.7052 27.6854 27.3491C28.0231 27.2977 28.3719 27.2684 28.7133 27.2684C29.8953 27.2647 31.081 27.2096 32.2521 27.3014C34.3115 27.4629 35.7468 28.5642 36.5765 30.4511C36.8555 31.0825 36.9472 31.758 36.9509 32.4481C36.9546 33.7072 36.9509 34.9627 36.9546 36.2219C36.9546 36.376 36.9105 36.4605 36.7674 36.5265C35.7321 37.0221 34.6308 37.2975 33.5039 37.4773C30.9636 37.8811 28.4453 37.7343 25.949 37.1726C25.1744 37.0001 24.4146 36.7688 23.6473 36.5706C23.5005 36.5339 23.4528 36.4605 23.4528 36.3063C23.4601 35.5758 23.4564 34.8452 23.4564 34.1147C23.4601 34.1147 23.4601 34.1147 23.4638 34.1147Z" fill="white"/>
<path d="M26.7604 26.5672C23.552 27.808 22.2745 30.2125 22.5278 33.5641C22.4176 33.5641 22.3369 33.5677 22.2561 33.5641C20.3472 33.4282 18.4934 33.0281 16.6652 32.4701C16.5404 32.4334 16.5037 32.3747 16.5037 32.2498C16.5074 30.8806 16.489 29.5076 16.511 28.1384C16.5588 25.6458 18.4236 23.568 20.8942 23.2376C21.1732 23.2009 21.4522 23.1899 21.7348 23.1899C22.8581 23.1862 23.9851 23.1936 25.1084 23.1899C25.2369 23.1899 25.3104 23.2083 25.3214 23.3661C25.4021 24.5518 25.8573 25.5797 26.6796 26.4424C26.7053 26.4681 26.7273 26.4938 26.7494 26.5231C26.7567 26.5305 26.7567 26.5488 26.7604 26.5672Z" fill="white"/>
<path d="M33.614 26.5745C33.7755 26.3836 33.9297 26.2147 34.0692 26.0348C34.6602 25.2713 35.0053 24.4086 35.064 23.4395C35.0751 23.2486 35.1301 23.1788 35.3357 23.1788C36.4039 23.1898 37.4722 23.1678 38.5405 23.1898C41.0477 23.2412 43.1181 25.1061 43.4485 27.5877C43.4816 27.8226 43.4963 28.0649 43.4963 28.2998C43.4999 29.5847 43.4963 30.8695 43.4999 32.158C43.4999 32.2975 43.4632 32.3673 43.3347 32.4297C42.4427 32.8592 41.5029 33.1418 40.5301 33.2997C39.7262 33.4282 38.9149 33.4942 38.1073 33.5934C37.9347 33.6154 37.8944 33.5603 37.887 33.3915C37.8723 32.738 37.9017 32.0773 37.8026 31.4385C37.4722 29.3277 36.2975 27.8226 34.3849 26.8865C34.1463 26.7727 33.893 26.6883 33.614 26.5745Z" fill="white"/>
<path d="M30.1891 26.993C27.9939 26.982 26.2355 25.2163 26.2465 23.0284C26.2575 20.8368 28.0306 19.0711 30.2112 19.0821C32.3917 19.0894 34.1758 20.8809 34.1611 23.0504C34.1501 25.2383 32.3697 27.004 30.1891 26.993Z" fill="white"/>
<path d="M23.2509 15C25.4168 14.9963 27.1862 16.7437 27.2156 18.9059C27.2192 19.0895 27.1678 19.2179 27.0247 19.3391C26.1657 20.0696 25.626 20.991 25.4094 22.0997C25.3801 22.2538 25.3066 22.3383 25.1672 22.4117C23.0086 23.5901 20.3582 22.5879 19.5249 20.2789C18.5998 17.7202 20.5197 15.0073 23.2509 15Z" fill="white"/>
<path d="M36.7784 22.9182C36.2241 22.8962 35.7248 22.8118 35.2439 22.6099C35.1301 22.5621 35.0714 22.5071 35.0494 22.3749C34.8291 20.9469 34.1243 19.8163 32.9312 18.9976C32.8248 18.9242 32.7917 18.8435 32.7991 18.7186C32.9055 16.6262 34.752 14.9265 36.8445 15.0036C39.1388 15.0917 40.8275 16.9456 40.699 19.2399C40.5925 21.1378 39.0177 22.7383 37.0978 22.8999C36.9803 22.9035 36.8592 22.9109 36.7784 22.9182Z" fill="white"/>
</g>
<path d="M79.213 40.56C75.133 40.56 71.653 39.12 69.493 36.44L73.813 31.32C75.293 33.24 76.853 34.24 78.653 34.24C80.933 34.24 82.173 32.84 82.173 30.16V18.12H72.493V12H90.013V29.68C90.013 36.96 86.253 40.56 79.213 40.56ZM117.159 29.2C117.159 29.76 117.079 30.48 117.039 31.08H101.279C101.919 33.28 103.799 34.56 106.599 34.56C108.719 34.56 110.119 33.96 111.599 32.68L115.599 36.84C113.519 39.16 110.479 40.36 106.359 40.36C98.6386 40.36 93.6386 35.6 93.6386 29.12C93.6386 22.6 98.7186 17.96 105.559 17.96C111.959 17.96 117.159 22.04 117.159 29.2ZM105.599 23.36C103.239 23.36 101.599 24.8 101.159 27.08H110.039C109.639 24.8 107.959 23.36 105.599 23.36ZM133.743 33.8L135.623 39.12C134.303 39.96 132.343 40.36 130.343 40.36C124.783 40.36 121.543 37.64 121.543 32.08V24.8H118.383V19.12H121.543V13.48H129.143V19.12H134.103V24.8H129.143V32C129.143 33.6 130.063 34.48 131.423 34.48C132.263 34.48 133.103 34.24 133.743 33.8ZM159.801 40.32C155.521 40.32 151.321 38.88 149.081 36.8L150.561 33.68C152.641 35.56 156.201 36.92 159.801 36.92C164.641 36.92 166.721 35.04 166.721 32.6C166.721 25.76 149.761 30.08 149.761 19.68C149.761 15.36 153.121 11.68 160.481 11.68C163.761 11.68 167.161 12.56 169.481 14.16L168.161 17.36C165.721 15.8 162.961 15.08 160.481 15.08C155.721 15.08 153.681 17.08 153.681 19.52C153.681 26.36 170.641 22.08 170.641 32.36C170.641 36.64 167.201 40.32 159.801 40.32ZM185.005 40.24C178.645 40.24 173.965 35.72 173.965 29.4C173.965 23.08 178.645 18.6 185.005 18.6C191.365 18.6 196.005 23.08 196.005 29.4C196.005 35.72 191.365 40.24 185.005 40.24ZM185.005 36.88C189.085 36.88 192.125 33.92 192.125 29.4C192.125 24.88 189.085 21.96 185.005 21.96C180.925 21.96 177.845 24.88 177.845 29.4C177.845 33.92 180.925 36.88 185.005 36.88ZM210.556 40.24C204.036 40.24 199.356 35.72 199.356 29.4C199.356 23.08 204.036 18.6 210.556 18.6C214.356 18.6 217.516 20.16 219.196 23.12L216.276 25C214.916 22.92 212.836 21.96 210.516 21.96C206.356 21.96 203.236 24.88 203.236 29.4C203.236 34 206.356 36.88 210.516 36.88C212.836 36.88 214.916 35.92 216.276 33.84L219.196 35.68C217.516 38.64 214.356 40.24 210.556 40.24ZM226.087 14.72C224.607 14.72 223.487 13.64 223.487 12.24C223.487 10.84 224.607 9.72 226.087 9.72C227.567 9.72 228.687 10.8 228.687 12.16C228.687 13.6 227.607 14.72 226.087 14.72ZM224.167 40V18.8H228.007V40H224.167ZM254.499 29.52C254.499 29.84 254.459 30.32 254.419 30.68H237.219C237.699 34.4 240.699 36.88 244.899 36.88C247.379 36.88 249.459 36.04 251.019 34.32L253.139 36.8C251.219 39.04 248.299 40.24 244.779 40.24C237.939 40.24 233.379 35.72 233.379 29.4C233.379 23.12 237.899 18.6 244.019 18.6C250.139 18.6 254.499 23 254.499 29.52ZM244.019 21.84C240.339 21.84 237.619 24.32 237.219 27.92H250.819C250.419 24.36 247.739 21.84 244.019 21.84ZM270.551 36L271.751 38.76C270.591 39.76 268.831 40.24 267.111 40.24C262.831 40.24 260.391 37.88 260.391 33.6V21.96H256.791V18.8H260.391V14.16H264.231V18.8H270.311V21.96H264.231V33.44C264.231 35.72 265.431 37 267.551 37C268.671 37 269.751 36.64 270.551 36ZM291.003 18.8H294.763L284.483 42.12C282.603 46.6 280.163 48 276.923 48C274.883 48 272.803 47.32 271.483 46.04L273.123 43.16C274.163 44.16 275.483 44.72 276.923 44.72C278.763 44.72 279.923 43.88 280.963 41.44L281.643 39.96L272.283 18.8H276.283L283.683 35.76L291.003 18.8Z" fill="#333333"/>
<defs>
<linearGradient id="paint0_linear_29_20241" x1="30" y1="0" x2="30" y2="52.5" gradientUnits="userSpaceOnUse">
<stop stop-color="#7F4DEA"/>
<stop offset="1" stop-color="#FF4581"/>
</linearGradient>
<clipPath id="clip0_29_20241">
<rect width="60" height="61.25" fill="white"/>
</clipPath>
</defs>
</svg>
