<svg width="50" height="50" viewBox="0 0 50 50" fill="none" xmlns="http://www.w3.org/2000/svg">
<circle cx="25" cy="25" r="25" fill="url(#paint0_linear_2090_7198)"/>
<path d="M18.3773 32.8515C18.3773 32.2138 18.3632 31.5762 18.3809 30.9386C18.4375 28.6645 20.1981 26.6666 22.4509 26.323C22.7768 26.2734 23.1134 26.2451 23.4428 26.2451C24.5834 26.2416 25.7276 26.1884 26.8575 26.277C28.8448 26.4328 30.2298 27.4955 31.0304 29.3163C31.2996 29.9255 31.3881 30.5773 31.3917 31.2433C31.3952 32.4583 31.3917 33.6697 31.3952 34.8847C31.3952 35.0335 31.3527 35.115 31.2146 35.1787C30.2156 35.6569 29.1529 35.9226 28.0655 36.0962C25.6142 36.4858 23.1842 36.3441 20.7755 35.8022C20.028 35.6357 19.2948 35.4125 18.5544 35.2212C18.4127 35.1858 18.3667 35.115 18.3667 34.9662C18.3738 34.2613 18.3702 33.5564 18.3702 32.8515C18.3738 32.8515 18.3738 32.8515 18.3773 32.8515Z" fill="white"/>
<path d="M21.5584 25.5685C18.4625 26.7658 17.2298 29.086 17.4742 32.3201C17.3679 32.3201 17.29 32.3236 17.212 32.3201C15.3701 32.189 13.5812 31.8029 11.8171 31.2645C11.6967 31.2291 11.6613 31.1724 11.6613 31.052C11.6648 29.7307 11.6471 28.4059 11.6684 27.0846C11.7144 24.6794 13.5139 22.6745 15.8979 22.3557C16.1671 22.3202 16.4363 22.3096 16.709 22.3096C17.793 22.3061 18.8805 22.3132 19.9644 22.3096C20.0884 22.3096 20.1592 22.3273 20.1699 22.4796C20.2478 23.6238 20.687 24.6156 21.4805 25.4481C21.5053 25.4729 21.5265 25.4977 21.5478 25.526C21.5549 25.5331 21.5549 25.5508 21.5584 25.5685Z" fill="white"/>
<path d="M28.1719 25.5754C28.3277 25.3912 28.4765 25.2283 28.6111 25.0547C29.1814 24.3179 29.5144 23.4855 29.5711 22.5503C29.5817 22.3661 29.6348 22.2988 29.8332 22.2988C30.864 22.3095 31.8948 22.2882 32.9256 22.3095C35.345 22.359 37.3428 24.1585 37.6616 26.5531C37.6935 26.7798 37.7077 27.0136 37.7077 27.2403C37.7112 28.4801 37.7077 29.7199 37.7112 30.9632C37.7112 31.0979 37.6758 31.1652 37.5518 31.2254C36.6911 31.6398 35.7842 31.9126 34.8455 32.0649C34.0698 32.1889 33.2869 32.2526 32.5076 32.3483C32.3411 32.3695 32.3022 32.3164 32.2951 32.1535C32.2809 31.5229 32.3093 30.8853 32.2136 30.269C31.8948 28.2321 30.7613 26.7798 28.9158 25.8765C28.6855 25.7667 28.4411 25.6852 28.1719 25.5754Z" fill="white"/>
<path d="M24.867 25.9794C22.7487 25.9687 21.0519 24.2649 21.0625 22.1537C21.0732 20.039 22.7841 18.3351 24.8882 18.3458C26.9923 18.3528 28.7139 20.0815 28.6997 22.175C28.6891 24.2862 26.9711 25.99 24.867 25.9794Z" fill="white"/>
<path d="M18.172 14.4067C20.2619 14.4032 21.9693 16.0893 21.9976 18.1757C22.0012 18.3528 21.9516 18.4768 21.8135 18.5937C20.9846 19.2986 20.4638 20.1877 20.2548 21.2575C20.2265 21.4063 20.1557 21.4878 20.0211 21.5586C17.9382 22.6957 15.3807 21.7286 14.5766 19.5005C13.6839 17.0316 15.5365 14.4138 18.172 14.4067Z" fill="white"/>
<path d="M31.2251 22.0473C30.6902 22.0261 30.2084 21.9446 29.7444 21.7498C29.6346 21.7037 29.5779 21.6506 29.5566 21.5231C29.3441 20.1451 28.664 19.0541 27.5127 18.2642C27.41 18.1933 27.3781 18.1154 27.3852 17.9949C27.4879 15.9758 29.2697 14.3358 31.2888 14.4101C33.5027 14.4952 35.1322 16.284 35.0082 18.4979C34.9055 20.3293 33.3858 21.8737 31.5332 22.0296C31.4199 22.0331 31.303 22.0402 31.2251 22.0473Z" fill="white"/>
<defs>
<linearGradient id="paint0_linear_2090_7198" x1="25" y1="0" x2="25" y2="50" gradientUnits="userSpaceOnUse">
<stop stop-color="#FF4581"/>
<stop offset="1" stop-color="#7F4DEA"/>
</linearGradient>
</defs>
</svg>
