<svg width="325" height="426" viewBox="0 0 325 426" fill="none" xmlns="http://www.w3.org/2000/svg">
<path d="M319.023 171.294H325V426H319.023V171.294Z" fill="#112121" fill-opacity="0.4"/>
<path d="M28.3908 171.294H34.3678V426H28.3908V171.294Z" fill="#112121" fill-opacity="0.4"/>
<path d="M304.828 171.294H310.805V426H304.828V171.294Z" fill="#112121" fill-opacity="0.4"/>
<path d="M14.1954 171.294H20.1724V426H14.1954V171.294Z" fill="#112121" fill-opacity="0.4"/>
<path d="M290.632 171.294H296.609V426H290.632V171.294Z" fill="#112121" fill-opacity="0.4"/>
<path d="M0 171.294H5.97701V426H0V171.294Z" fill="#112121" fill-opacity="0.4"/>
<path d="M276.437 83.4126H282.414V426H276.437V83.4126Z" fill="#112121" fill-opacity="0.4"/>
<path d="M41.8391 83.4126H47.8161V426H41.8391V83.4126Z" fill="#112121" fill-opacity="0.4"/>
<path d="M262.241 69.2622H268.218V426H262.241V69.2622Z" fill="#112121" fill-opacity="0.4"/>
<path d="M55.2874 69.2622H61.2644V426H55.2874V69.2622Z" fill="#112121" fill-opacity="0.4"/>
<path d="M248.046 55.1119H254.023V426H248.046V55.1119Z" fill="#112121" fill-opacity="0.4"/>
<path d="M70.2299 55.1119H76.2069V426H70.2299V55.1119Z" fill="#112121" fill-opacity="0.4"/>
<path d="M235.345 39.472H241.322V256.941H235.345V39.472Z" fill="#112121" fill-opacity="0.4"/>
<path d="M82.931 39.472H88.9081V256.941H82.931V39.472Z" fill="#112121" fill-opacity="0.4"/>
<path d="M82.931 333.65H88.9081V426H82.931V333.65Z" fill="#112121" fill-opacity="0.4"/>
<path d="M221.149 26.0664H227.126V256.941H221.149V26.0664Z" fill="#112121" fill-opacity="0.4"/>
<path d="M97.8736 26.0664H103.851V256.941H97.8736V26.0664Z" fill="#112121" fill-opacity="0.4"/>
<path d="M97.8736 333.65H103.851V426H97.8736V333.65Z" fill="#112121" fill-opacity="0.4"/>
<path d="M206.954 10.4266H212.931V256.941H206.954V10.4266Z" fill="#112121" fill-opacity="0.4"/>
<path d="M110.575 10.4266H116.552V256.941H110.575V10.4266Z" fill="#112121" fill-opacity="0.4"/>
<path d="M110.575 333.65H116.552V426H110.575V333.65Z" fill="#112121" fill-opacity="0.4"/>
<path d="M194.253 171.294H200.23V256.941H194.253V171.294Z" fill="#112121" fill-opacity="0.4"/>
<path d="M194.253 333.65H200.23V426H194.253V333.65Z" fill="#112121" fill-opacity="0.4"/>
<path d="M206.954 333.65H212.931V426H206.954V333.65Z" fill="#112121" fill-opacity="0.4"/>
<path d="M221.149 333.65H227.126V426H221.149V333.65Z" fill="#112121" fill-opacity="0.4"/>
<path d="M235.345 333.65H241.322V426H235.345V333.65Z" fill="#112121" fill-opacity="0.4"/>
<path d="M194.253 0H200.23V97.5629H194.253V0Z" fill="#112121" fill-opacity="0.4"/>
<path d="M180.057 0H186.034V97.5629H180.057V0Z" fill="#112121" fill-opacity="0.4"/>
<path d="M165.862 0H171.839V97.5629H165.862V0Z" fill="#112121" fill-opacity="0.4"/>
<path d="M151.667 0H157.644V97.5629H151.667V0Z" fill="#112121" fill-opacity="0.4"/>
<path d="M137.471 0H143.448V97.5629H137.471V0Z" fill="#112121" fill-opacity="0.4"/>
<path d="M123.276 0H129.253V97.5629H123.276V0Z" fill="#112121" fill-opacity="0.4"/>
<path d="M180.805 171.294H186.782V256.941H180.805V171.294Z" fill="#112121" fill-opacity="0.4"/>
<path d="M180.805 333.65H186.782V426H180.805V333.65Z" fill="#112121" fill-opacity="0.4"/>
<path d="M167.356 171.294H173.333V256.941H167.356V171.294Z" fill="#112121" fill-opacity="0.4"/>
<path d="M167.356 333.65H173.333V426H167.356V333.65Z" fill="#112121" fill-opacity="0.4"/>
<path d="M152.414 171.294H158.391V256.941H152.414V171.294Z" fill="#112121" fill-opacity="0.4"/>
<path d="M152.414 333.65H158.391V426H152.414V333.65Z" fill="#112121" fill-opacity="0.4"/>
<path d="M138.966 171.294H144.943V256.941H138.966V171.294Z" fill="#112121" fill-opacity="0.4"/>
<path d="M138.966 333.65H144.943V426H138.966V333.65Z" fill="#112121" fill-opacity="0.4"/>
<path d="M124.77 171.294H130.747V256.941H124.77V171.294Z" fill="#112121" fill-opacity="0.4"/>
<path d="M124.77 333.65H130.747V426H124.77V333.65Z" fill="#112121" fill-opacity="0.4"/>
</svg>
