<svg width="154" height="27" viewBox="0 0 154 27" fill="none" xmlns="http://www.w3.org/2000/svg">
<g clipPath="url(#clip0_154_862)">
<g clipPath="url(#clip1_154_862)">
<mask id="mask0_154_862" style="mask-type:luminance" maskUnits="userSpaceOnUse" x="0" y="0" width="28" height="27">
<path d="M27.2391 0H0.539062V26.7H27.2391V0Z" fill="white"/>
</mask>
<g mask="url(#mask0_154_862)">
<path d="M26.8027 10.4102C26.7787 10.3361 26.7344 10.2702 26.6748 10.22C26.6152 10.1698 26.5427 10.1373 26.4655 10.1261L18.035 8.90085L14.2658 1.26131C14.2275 1.19617 14.1729 1.14216 14.1072 1.10463C14.0417 1.0671 13.9674 1.04736 13.8918 1.04736C13.8162 1.04736 13.7419 1.0671 13.6764 1.10463C13.6107 1.14216 13.5561 1.19617 13.5177 1.26131L9.74555 8.90085L1.31462 10.1261C1.23758 10.1373 1.16519 10.1697 1.10563 10.2198C1.04607 10.2699 1.00172 10.3357 0.977588 10.4097C0.953456 10.4837 0.950508 10.563 0.969077 10.6386C0.987645 10.7142 1.02699 10.783 1.08266 10.8374L7.18444 16.7844L5.74432 25.1812C5.73122 25.2579 5.73983 25.3366 5.76915 25.4087C5.79847 25.4807 5.84734 25.5431 5.91026 25.5888C5.97317 25.6346 6.0476 25.6618 6.12518 25.6675C6.20274 25.6732 6.28036 25.657 6.34924 25.6209L13.8903 21.6568L21.4314 25.62C21.5003 25.6562 21.5779 25.6723 21.6554 25.6666C21.733 25.6609 21.8075 25.6337 21.8704 25.588C21.9333 25.5422 21.9821 25.4799 22.0115 25.4079C22.0409 25.3358 22.0494 25.257 22.0364 25.1803L20.5962 16.7844L26.698 10.8374C26.7535 10.7831 26.7927 10.7142 26.8112 10.6388C26.8298 10.5633 26.8267 10.4841 26.8027 10.4102Z" fill="#9351E8"/>
</g>
<mask id="mask1_154_862" style="mask-type:luminance" maskUnits="userSpaceOnUse" x="32" y="0" width="27" height="27">
<path d="M58.7938 0H32.0938V26.7H58.7938V0Z" fill="white"/>
</mask>
<g mask="url(#mask1_154_862)">
<path d="M58.3574 10.4102C58.3333 10.3361 58.289 10.2702 58.2294 10.22C58.1699 10.1698 58.0974 10.1373 58.0202 10.1261L49.5897 8.90085L45.8205 1.26131C45.7821 1.19617 45.7275 1.14216 45.6619 1.10463C45.5963 1.0671 45.5221 1.04736 45.4465 1.04736C45.3708 1.04736 45.2966 1.0671 45.231 1.10463C45.1654 1.14216 45.1108 1.19617 45.0724 1.26131L41.3002 8.90085L32.8693 10.1261C32.7922 10.1373 32.7199 10.1697 32.6603 10.2198C32.6007 10.2699 32.5564 10.3357 32.5323 10.4097C32.5081 10.4837 32.5052 10.563 32.5238 10.6386C32.5423 10.7142 32.5817 10.783 32.6374 10.8374L38.7392 16.7844L37.2989 25.1812C37.2858 25.2579 37.2945 25.3366 37.3238 25.4087C37.3532 25.4807 37.402 25.5431 37.465 25.5888C37.5278 25.6346 37.6022 25.6618 37.6798 25.6675C37.7575 25.6732 37.835 25.657 37.9039 25.6209L45.445 21.6568L52.986 25.62C53.055 25.6562 53.1325 25.6723 53.2101 25.6666C53.2876 25.6609 53.3622 25.6337 53.425 25.588C53.488 25.5422 53.5368 25.4799 53.5662 25.4079C53.5955 25.3358 53.604 25.257 53.591 25.1803L52.1508 16.7844L58.2526 10.8374C58.3082 10.7831 58.3474 10.7142 58.3659 10.6388C58.3844 10.5633 58.3814 10.4841 58.3574 10.4102Z" fill="#9351E8"/>
</g>
<mask id="mask2_154_862" style="mask-type:luminance" maskUnits="userSpaceOnUse" x="63" y="0" width="28" height="27">
<path d="M90.3484 0H63.6484V26.7H90.3484V0Z" fill="white"/>
</mask>
<g mask="url(#mask2_154_862)">
<path d="M89.9121 10.4102C89.888 10.3361 89.8437 10.2702 89.7841 10.22C89.7245 10.1698 89.6521 10.1373 89.5749 10.1261L81.1444 8.90085L77.3752 1.26131C77.3368 1.19617 77.2822 1.14216 77.2166 1.10463C77.151 1.0671 77.0768 1.04736 77.0011 1.04736C76.9255 1.04736 76.8513 1.0671 76.7857 1.10463C76.7201 1.14216 76.6655 1.19617 76.6271 1.26131L72.8549 8.90085L64.424 10.1261C64.3469 10.1373 64.2746 10.1697 64.215 10.2198C64.1554 10.2699 64.1111 10.3357 64.087 10.4097C64.0628 10.4837 64.0599 10.563 64.0785 10.6386C64.097 10.7142 64.1364 10.783 64.1921 10.8374L70.2939 16.7844L68.8536 25.1812C68.8405 25.2579 68.8491 25.3366 68.8785 25.4087C68.9079 25.4807 68.9567 25.5431 69.0197 25.5888C69.0825 25.6346 69.1569 25.6618 69.2345 25.6675C69.3122 25.6732 69.3897 25.657 69.4586 25.6209L76.9997 21.6568L84.5407 25.62C84.6097 25.6562 84.6872 25.6723 84.7648 25.6666C84.8423 25.6609 84.9168 25.6337 84.9797 25.588C85.0427 25.5422 85.0915 25.4799 85.1209 25.4079C85.1502 25.3358 85.1587 25.257 85.1457 25.1803L83.7055 16.7844L89.8073 10.8374C89.8629 10.7831 89.9021 10.7142 89.9205 10.6388C89.9391 10.5633 89.9361 10.4841 89.9121 10.4102Z" fill="#9351E8"/>
</g>
<mask id="mask3_154_862" style="mask-type:luminance" maskUnits="userSpaceOnUse" x="95" y="0" width="27" height="27">
<path d="M121.903 0H95.2031V26.7H121.903V0Z" fill="white"/>
</mask>
<g mask="url(#mask3_154_862)">
<path d="M121.467 10.4102C121.443 10.3361 121.398 10.2702 121.339 10.22C121.279 10.1698 121.207 10.1373 121.13 10.1261L112.699 8.90085L108.93 1.26131C108.892 1.19617 108.837 1.14216 108.771 1.10463C108.706 1.0671 108.631 1.04736 108.556 1.04736C108.48 1.04736 108.406 1.0671 108.34 1.10463C108.275 1.14216 108.22 1.19617 108.182 1.26131L104.41 8.90085L95.9787 10.1261C95.9016 10.1373 95.8293 10.1697 95.7697 10.2198C95.7101 10.2699 95.6658 10.3357 95.6416 10.4097C95.6175 10.4837 95.6146 10.563 95.6331 10.6386C95.6517 10.7142 95.691 10.783 95.7468 10.8374L101.849 16.7844L100.408 25.1812C100.395 25.2579 100.404 25.3366 100.433 25.4087C100.463 25.4807 100.511 25.5431 100.574 25.5888C100.637 25.6346 100.712 25.6618 100.789 25.6675C100.867 25.6732 100.944 25.657 101.013 25.6209L108.554 21.6568L116.095 25.62C116.164 25.6562 116.242 25.6723 116.319 25.6666C116.397 25.6609 116.472 25.6337 116.534 25.588C116.597 25.5422 116.646 25.4799 116.676 25.4079C116.705 25.3358 116.713 25.257 116.7 25.1803L115.26 16.7844L121.362 10.8374C121.418 10.7831 121.457 10.7142 121.475 10.6388C121.494 10.5633 121.491 10.4841 121.467 10.4102Z" fill="#9351E8"/>
</g>
<mask id="mask4_154_862" style="mask-type:luminance" maskUnits="userSpaceOnUse" x="126" y="0" width="28" height="27">
<path d="M153.458 0H126.758V26.7H153.458V0Z" fill="white"/>
</mask>
<g mask="url(#mask4_154_862)">
<path d="M153.022 10.4102C152.997 10.3361 152.953 10.2702 152.893 10.22C152.834 10.1698 152.762 10.1373 152.684 10.1261L144.254 8.90085L140.485 1.26131C140.446 1.19617 140.391 1.14216 140.326 1.10463C140.26 1.0671 140.186 1.04736 140.111 1.04736C140.035 1.04736 139.961 1.0671 139.895 1.10463C139.829 1.14216 139.775 1.19617 139.736 1.26131L135.964 8.90085L127.533 10.1261C127.456 10.1373 127.384 10.1697 127.324 10.2198C127.265 10.2699 127.221 10.3357 127.197 10.4097C127.172 10.4837 127.169 10.563 127.188 10.6386C127.206 10.7142 127.245 10.783 127.301 10.8374L133.403 16.7844L131.963 25.1812C131.951 25.2579 131.959 25.3366 131.988 25.4087C132.017 25.4807 132.066 25.5431 132.129 25.5888C132.192 25.6346 132.266 25.6618 132.344 25.6675C132.421 25.6732 132.499 25.657 132.568 25.6209L140.109 21.6568L147.65 25.62C147.719 25.6562 147.797 25.6723 147.875 25.6666C147.952 25.6609 148.026 25.6337 148.089 25.588C148.153 25.5422 148.201 25.4799 148.23 25.4079C148.259 25.3358 148.268 25.257 148.255 25.1803L146.815 16.7844L152.917 10.8374C152.972 10.7831 153.012 10.7142 153.03 10.6388C153.048 10.5633 153.046 10.4841 153.022 10.4102Z" fill="#9351E8"/>
</g>
</g>
</g>
<defs>
<clipPath id="clip0_154_862">
<rect width="153" height="26.7" fill="white" transform="translate(0.5)"/>
</clipPath>
<clipPath id="clip1_154_862">
<rect width="152.918" height="26.7" fill="white" transform="translate(0.539062)"/>
</clipPath>
</defs>
</svg>
