<svg width="40" height="40" viewBox="0 0 40 40" fill="none" xmlns="http://www.w3.org/2000/svg">
<path d="M20.1663 35C19.6941 35 19.2986 34.84 18.9797 34.52C18.6608 34.2 18.5008 33.8045 18.4997 33.3333C18.4997 33.1389 18.5413 32.9372 18.6247 32.7283C18.708 32.5194 18.833 32.3322 18.9997 32.1667L26.708 24.4583L25.4997 23.25L17.833 30.9583C17.6663 31.125 17.4858 31.25 17.2913 31.3333C17.0969 31.4167 16.8886 31.4583 16.6663 31.4583C16.1941 31.4583 15.7986 31.2989 15.4797 30.98C15.1608 30.6611 15.0008 30.265 14.9997 29.7917C14.9997 29.5139 15.0413 29.2845 15.1247 29.1033C15.208 28.9222 15.3191 28.7628 15.458 28.625L23.1663 20.9167L21.9997 19.75L14.2913 27.4167C14.1247 27.5833 13.9441 27.7083 13.7497 27.7917C13.5552 27.875 13.333 27.9167 13.083 27.9167C12.6386 27.9167 12.2497 27.75 11.9163 27.4167C11.583 27.0833 11.4163 26.6945 11.4163 26.25C11.4163 26.0278 11.458 25.8195 11.5413 25.625C11.6247 25.4306 11.7497 25.25 11.9163 25.0833L19.6247 17.375L18.4163 16.2083L10.7497 23.9167C10.6108 24.0556 10.4441 24.1667 10.2497 24.25C10.0552 24.3333 9.81912 24.375 9.54134 24.375C9.06912 24.375 8.67301 24.215 8.35301 23.895C8.03301 23.575 7.87356 23.1795 7.87467 22.7083C7.87467 22.4861 7.91634 22.2778 7.99967 22.0833C8.08301 21.8889 8.20801 21.7083 8.37467 21.5417L17.6663 12.25L23.9163 18.5417C24.2219 18.8472 24.583 19.0906 24.9997 19.2717C25.4163 19.4528 25.833 19.5428 26.2497 19.5417C27.1386 19.5417 27.9163 19.2295 28.583 18.605C29.2497 17.9806 29.583 17.1817 29.583 16.2083C29.583 15.8195 29.5136 15.4167 29.3747 15C29.2358 14.5833 28.9858 14.1945 28.6247 13.8333L21.1663 6.37501C21.6386 5.93056 22.1663 5.59056 22.7497 5.35501C23.333 5.11945 23.9163 5.00112 24.4997 5.00001C25.2219 5.00001 25.8886 5.11834 26.4997 5.35501C27.1108 5.59167 27.6663 5.95945 28.1663 6.45834L35.208 13.5417C35.708 14.0417 36.0763 14.5972 36.313 15.2083C36.5497 15.8195 36.6674 16.5278 36.6663 17.3333C36.6663 17.8889 36.5413 18.4517 36.2913 19.0217C36.0413 19.5917 35.6802 20.1122 35.208 20.5833L21.333 34.5C21.1108 34.7222 20.9163 34.8611 20.7497 34.9167C20.583 34.9722 20.3886 35 20.1663 35ZM5.87467 21.6667L4.79134 20.5833C4.31912 20.1389 3.95801 19.6111 3.70801 19C3.45801 18.3889 3.33301 17.75 3.33301 17.0833C3.33301 16.3611 3.4719 15.6945 3.74967 15.0833C4.02745 14.4722 4.37467 13.9583 4.79134 13.5417L11.833 6.45834C12.2775 6.0139 12.8052 5.65945 13.4163 5.39501C14.0275 5.13056 14.6247 4.9989 15.208 5.00001C15.958 5.00001 16.6247 5.10445 17.208 5.31334C17.7913 5.52223 18.3608 5.9039 18.9163 6.45834L27.458 15C27.6247 15.1667 27.7497 15.3472 27.833 15.5417C27.9163 15.7361 27.958 15.9445 27.958 16.1667C27.958 16.6111 27.7913 17 27.458 17.3333C27.1247 17.6667 26.7358 17.8333 26.2913 17.8333C26.0413 17.8333 25.833 17.7989 25.6663 17.73C25.4997 17.6611 25.3191 17.5289 25.1247 17.3333L17.6247 9.91667L5.87467 21.6667Z" fill="#F2468C"/>
</svg>
