<svg width="630" height="652" viewBox="0 0 630 652" fill="none" xmlns="http://www.w3.org/2000/svg">
<path d="M624.776 0H626.343V650.896H624.776V0Z" fill="#112121" fill-opacity="0.12"/>
<path d="M620.597 650.896H630V651.94H620.597V650.896Z" fill="#112121" fill-opacity="0.12"/>
<path d="M605.97 0H607.537V650.896H605.97V0Z" fill="#112121" fill-opacity="0.12"/>
<path d="M601.791 650.896H611.194V651.94H601.791V650.896Z" fill="#112121" fill-opacity="0.12"/>
<path d="M587.164 0H588.731V650.896H587.164V0Z" fill="#112121" fill-opacity="0.12"/>
<path d="M582.985 650.896H592.388V651.94H582.985V650.896Z" fill="#112121" fill-opacity="0.12"/>
<path d="M568.358 0H569.925V650.896H568.358V0Z" fill="#112121" fill-opacity="0.12"/>
<path d="M564.179 650.896H573.582V651.94H564.179V650.896Z" fill="#112121" fill-opacity="0.12"/>
<path d="M549.552 0H551.119V650.896H549.552V0Z" fill="#112121" fill-opacity="0.12"/>
<path d="M545.373 650.896H554.776V651.94H545.373V650.896Z" fill="#112121" fill-opacity="0.12"/>
<path d="M530.746 0H532.313V650.896H530.746V0Z" fill="#112121" fill-opacity="0.12"/>
<path d="M526.567 650.896H535.97V651.94H526.567V650.896Z" fill="#112121" fill-opacity="0.12"/>
<path d="M511.94 0H513.507V650.896H511.94V0Z" fill="#112121" fill-opacity="0.12"/>
<path d="M507.761 650.896H517.164V651.94H507.761V650.896Z" fill="#112121" fill-opacity="0.12"/>
<path d="M493.134 0H494.701V650.896H493.134V0Z" fill="#112121" fill-opacity="0.12"/>
<path d="M488.955 650.896H498.358V651.94H488.955V650.896Z" fill="#112121" fill-opacity="0.12"/>
<path d="M474.328 0H475.896V650.896H474.328V0Z" fill="#112121" fill-opacity="0.12"/>
<path d="M470.149 650.896H479.552V651.94H470.149V650.896Z" fill="#112121" fill-opacity="0.12"/>
<path d="M455.522 0H457.09V650.896H455.522V0Z" fill="#112121" fill-opacity="0.12"/>
<path d="M451.343 650.896H460.746V651.94H451.343V650.896Z" fill="#112121" fill-opacity="0.12"/>
<path d="M436.716 0H438.284V650.896H436.716V0Z" fill="#112121" fill-opacity="0.12"/>
<path d="M432.537 650.896H441.94V651.94H432.537V650.896Z" fill="#112121" fill-opacity="0.12"/>
<path d="M417.91 0H419.478V650.896H417.91V0Z" fill="#112121" fill-opacity="0.12"/>
<path d="M413.731 650.896H423.134V651.94H413.731V650.896Z" fill="#112121" fill-opacity="0.12"/>
<path d="M399.104 0H400.672V650.896H399.104V0Z" fill="#112121" fill-opacity="0.12"/>
<path d="M394.925 650.896H404.328V651.94H394.925V650.896Z" fill="#112121" fill-opacity="0.12"/>
<path d="M380.298 0H381.866V650.896H380.298V0Z" fill="#112121" fill-opacity="0.12"/>
<path d="M376.119 650.896H385.522V651.94H376.119V650.896Z" fill="#112121" fill-opacity="0.12"/>
<path d="M361.493 0H363.06V650.896H361.493V0Z" fill="#112121" fill-opacity="0.12"/>
<path d="M357.313 650.896H366.716V651.94H357.313V650.896Z" fill="#112121" fill-opacity="0.12"/>
<path d="M342.687 0H344.254V650.896H342.687V0Z" fill="#112121" fill-opacity="0.12"/>
<path d="M338.507 650.896H347.91V651.94H338.507V650.896Z" fill="#112121" fill-opacity="0.12"/>
<path d="M323.881 0H325.448V650.896H323.881V0Z" fill="#112121" fill-opacity="0.12"/>
<path d="M319.701 650.896H329.104V651.94H319.701V650.896Z" fill="#112121" fill-opacity="0.12"/>
<path d="M305.075 0H306.642V650.896H305.075V0Z" fill="#112121" fill-opacity="0.12"/>
<path d="M300.896 650.896H310.298V651.94H300.896V650.896Z" fill="#112121" fill-opacity="0.12"/>
<path d="M286.269 0H287.836V650.896H286.269V0Z" fill="#112121" fill-opacity="0.12"/>
<path d="M282.09 650.896H291.493V651.94H282.09V650.896Z" fill="#112121" fill-opacity="0.12"/>
<path d="M267.463 0H269.03V650.896H267.463V0Z" fill="#112121" fill-opacity="0.12"/>
<path d="M263.284 650.896H272.687V651.94H263.284V650.896Z" fill="#112121" fill-opacity="0.12"/>
<path d="M248.657 0H250.224V650.896H248.657V0Z" fill="#112121" fill-opacity="0.12"/>
<path d="M244.478 650.896H253.881V651.94H244.478V650.896Z" fill="#112121" fill-opacity="0.12"/>
<path d="M229.851 0H231.418V650.896H229.851V0Z" fill="#112121" fill-opacity="0.12"/>
<path d="M225.672 650.896H235.075V651.94H225.672V650.896Z" fill="#112121" fill-opacity="0.12"/>
<path d="M211.045 0H212.612V650.896H211.045V0Z" fill="#112121" fill-opacity="0.12"/>
<path d="M206.866 650.896H216.269V651.94H206.866V650.896Z" fill="#112121" fill-opacity="0.12"/>
<path d="M192.239 0H193.806V650.896H192.239V0Z" fill="#112121" fill-opacity="0.12"/>
<path d="M188.06 650.896H197.463V651.94H188.06V650.896Z" fill="#112121" fill-opacity="0.12"/>
<path d="M173.433 0H175V650.896H173.433V0Z" fill="#112121" fill-opacity="0.12"/>
<path d="M169.254 650.896H178.657V651.94H169.254V650.896Z" fill="#112121" fill-opacity="0.12"/>
<path d="M154.627 0H156.194V650.896H154.627V0Z" fill="#112121" fill-opacity="0.12"/>
<path d="M150.448 650.896H159.851V651.94H150.448V650.896Z" fill="#112121" fill-opacity="0.12"/>
<path d="M135.821 0H137.388V650.896H135.821V0Z" fill="#112121" fill-opacity="0.12"/>
<path d="M131.642 650.896H141.045V651.94H131.642V650.896Z" fill="#112121" fill-opacity="0.12"/>
<path d="M117.015 0H118.582V650.896H117.015V0Z" fill="#112121" fill-opacity="0.12"/>
<path d="M112.836 650.896H122.239V651.94H112.836V650.896Z" fill="#112121" fill-opacity="0.12"/>
<path d="M98.209 0H99.7761V650.896H98.209V0Z" fill="#112121" fill-opacity="0.12"/>
<path d="M94.0298 650.896H103.433V651.94H94.0298V650.896Z" fill="#112121" fill-opacity="0.12"/>
<path d="M79.403 0H80.9701V650.896H79.403V0Z" fill="#112121" fill-opacity="0.12"/>
<path d="M75.2239 650.896H84.6269V651.94H75.2239V650.896Z" fill="#112121" fill-opacity="0.12"/>
<path d="M60.597 0H62.1642V650.896H60.597V0Z" fill="#112121" fill-opacity="0.12"/>
<path d="M56.4179 650.896H65.8209V651.94H56.4179V650.896Z" fill="#112121" fill-opacity="0.12"/>
<path d="M41.791 0H43.3582V650.896H41.791V0Z" fill="#112121" fill-opacity="0.12"/>
<path d="M37.6119 650.896H47.0149V651.94H37.6119V650.896Z" fill="#112121" fill-opacity="0.12"/>
<path d="M22.9851 0H24.5522V650.896H22.9851V0Z" fill="#112121" fill-opacity="0.12"/>
<path d="M18.806 650.896H28.209V651.94H18.806V650.896Z" fill="#112121" fill-opacity="0.12"/>
<path d="M4.1791 0H5.74627V650.896H4.1791V0Z" fill="#112121" fill-opacity="0.12"/>
<path d="M0 650.896H9.40298V651.94H0V650.896Z" fill="#112121" fill-opacity="0.12"/>
<path d="M453.003 175.523H460.157V238.209H453.003V175.523Z" fill="#112121" fill-opacity="0.4"/>
<path d="M453.003 335.373H460.157V504.627H453.003V335.373Z" fill="#112121" fill-opacity="0.4"/>
<path d="M473.443 385.523H480.597V453.433H473.443V385.523Z" fill="#112121" fill-opacity="0.4"/>
<path d="M434.607 142.09H441.761V238.209H434.607V142.09Z" fill="#112121" fill-opacity="0.4"/>
<path d="M434.607 316.567H441.761V523.433H434.607V316.567Z" fill="#112121" fill-opacity="0.4"/>
<path d="M415.19 123.284H422.343V238.209H415.19V123.284Z" fill="#112121" fill-opacity="0.4"/>
<path d="M415.19 304.03H422.343V537.015H415.19V304.03Z" fill="#112121" fill-opacity="0.4"/>
<path d="M395.772 110.747H402.926V238.209H395.772V110.747Z" fill="#112121" fill-opacity="0.4"/>
<path d="M395.772 293.582H402.926V545.373H395.772V293.582Z" fill="#112121" fill-opacity="0.4"/>
<path d="M376.354 103.433H383.508V238.209H376.354V103.433Z" fill="#112121" fill-opacity="0.4"/>
<path d="M376.354 286.269H383.508V551.642H376.354V286.269Z" fill="#112121" fill-opacity="0.4"/>
<path d="M356.936 98.2092H363.068V192.239H356.936V98.2092Z" fill="#112121" fill-opacity="0.4"/>
<path d="M357.958 281.045H364.09V385.523H357.958V281.045Z" fill="#112121" fill-opacity="0.4"/>
<path d="M339.562 95.0749H345.694V176.567H339.562V95.0749Z" fill="#112121" fill-opacity="0.4"/>
<path d="M339.562 276.866H345.694V376.12H339.562V276.866Z" fill="#112121" fill-opacity="0.4"/>
<path d="M321.166 92.9854H327.298V172.388H321.166V92.9854Z" fill="#112121" fill-opacity="0.4"/>
<path d="M321.166 479.552H327.298V558.955H321.166V479.552Z" fill="#112121" fill-opacity="0.4"/>
<path d="M340.584 477.463H346.716V557.911H340.584V477.463Z" fill="#112121" fill-opacity="0.4"/>
<path d="M358.98 471.194H365.112V555.821H358.98V471.194Z" fill="#112121" fill-opacity="0.4"/>
<path d="M321.166 271.642H327.298V369.851H321.166V271.642Z" fill="#112121" fill-opacity="0.4"/>
<path d="M302.77 92.9854H308.902V172.388H302.77V92.9854Z" fill="#112121" fill-opacity="0.4"/>
<path d="M302.77 479.552H308.902V558.955H302.77V479.552Z" fill="#112121" fill-opacity="0.4"/>
<path d="M302.77 267.463H308.902V364.627H302.77V267.463Z" fill="#112121" fill-opacity="0.4"/>
<path d="M284.374 94.0301H290.506V174.478H284.374V94.0301Z" fill="#112121" fill-opacity="0.4"/>
<path d="M284.374 476.418H290.506V557.911H284.374V476.418Z" fill="#112121" fill-opacity="0.4"/>
<path d="M284.374 268.508H290.506V358.358H284.374V268.508Z" fill="#112121" fill-opacity="0.4"/>
<path d="M265.979 97.1645H272.111V183.881H265.979V97.1645Z" fill="#112121" fill-opacity="0.4"/>
<path d="M265.979 468.06H272.111V555.821H265.979V468.06Z" fill="#112121" fill-opacity="0.4"/>
<path d="M265.979 249.702H272.111V353.135H265.979V249.702Z" fill="#112121" fill-opacity="0.4"/>
<path d="M247.583 106.567H253.715V344.776H247.583V106.567Z" fill="#112121" fill-opacity="0.4"/>
<path d="M247.583 401.194H253.715V553.732H247.583V401.194Z" fill="#112121" fill-opacity="0.4"/>
<path d="M228.165 107.612H234.297V338.508H228.165V107.612Z" fill="#112121" fill-opacity="0.4"/>
<path d="M228.165 401.194H234.297V549.552H228.165V401.194Z" fill="#112121" fill-opacity="0.4"/>
<path d="M208.747 118.06H214.879V328.06H208.747V118.06Z" fill="#112121" fill-opacity="0.4"/>
<path d="M208.747 401.194H214.879V539.105H208.747V401.194Z" fill="#112121" fill-opacity="0.4"/>
<path d="M189.329 133.732H195.461V312.388H189.329V133.732Z" fill="#112121" fill-opacity="0.4"/>
<path d="M189.329 401.194H195.461V526.567H189.329V401.194Z" fill="#112121" fill-opacity="0.4"/>
<path d="M170.933 158.806H177.065V289.403H170.933V158.806Z" fill="#112121" fill-opacity="0.4"/>
<path d="M170.933 401.194H177.065V507.761H170.933V401.194Z" fill="#112121" fill-opacity="0.4"/>
<path d="M152.537 401.194H158.669V479.552H152.537V401.194Z" fill="#112121" fill-opacity="0.4"/>
<path d="M152.537 192.239H159.691V260.15H152.537V192.239Z" fill="#112121" fill-opacity="0.4"/>
</svg>
