<svg width="116" height="102" viewBox="0 0 116 102" fill="none" xmlns="http://www.w3.org/2000/svg">
<g clip-path="url(#clip0_184_2719)">
<g clip-path="url(#clip1_184_2719)">
<path d="M68.099 23.6157H48.3639C47.5255 23.6157 46.8457 24.2953 46.8457 25.1337V44.8691C46.8457 45.7074 47.5255 46.3873 48.3639 46.3873H68.099C68.9373 46.3873 69.6171 45.7074 69.6171 44.8691V25.1337C69.6171 24.2953 68.9373 23.6157 68.099 23.6157Z" fill="#4169E1"/>
<path d="M45.3177 0.84375H25.5827C24.7443 0.84375 24.0645 1.52325 24.0645 2.36195V22.097C24.0645 22.9354 24.7443 23.6152 25.5827 23.6152H45.3177C46.1564 23.6152 46.8359 22.9354 46.8359 22.097V2.36195C46.8359 1.52325 46.1564 0.84375 45.3177 0.84375Z" fill="#4169E1"/>
<path d="M90.861 0.84375H71.1256C70.2872 0.84375 69.6074 1.52325 69.6074 2.36195V22.097C69.6074 22.9354 70.2872 23.6152 71.1256 23.6152H90.861C91.6994 23.6152 92.3789 22.9354 92.3789 22.097V2.36195C92.3789 1.52325 91.6994 0.84375 90.861 0.84375Z" fill="#4169E1"/>
<path d="M45.3177 46.3857H25.5827C24.7443 46.3857 24.0645 47.0653 24.0645 47.9037V67.639C24.0645 68.4774 24.7443 69.1572 25.5827 69.1572H45.3177C46.1564 69.1572 46.8359 68.4774 46.8359 67.639V47.9037C46.8359 47.0653 46.1564 46.3857 45.3177 46.3857Z" fill="#4169E1"/>
<path d="M90.861 46.3857H71.1256C70.2872 46.3857 69.6074 47.0653 69.6074 47.9037V67.639C69.6074 68.4774 70.2872 69.1572 71.1256 69.1572H90.861C91.6994 69.1572 92.3789 68.4774 92.3789 67.639V47.9037C92.3789 47.0653 91.6994 46.3857 90.861 46.3857Z" fill="#4169E1"/>
</g>
</g>
<defs>
<clipPath id="clip0_184_2719">
<rect width="115" height="70" fill="white" transform="translate(0.720703)"/>
</clipPath>
<clipPath id="clip1_184_2719">
<rect width="69.1139" height="70" fill="white" transform="translate(23.6641)"/>
</clipPath>
</defs>
</svg>
