<svg width="116" height="102" viewBox="0 0 116 102" fill="none" xmlns="http://www.w3.org/2000/svg">
<g clip-path="url(#clip0_184_3005)">
<g clip-path="url(#clip1_184_3005)">
<g clip-path="url(#clip2_184_3005)">
<path fill-rule="evenodd" clip-rule="evenodd" d="M58.2202 54.3923C47.7199 54.3923 39.2079 45.8803 39.2079 35.3799C39.2079 24.8796 47.7199 16.3676 58.2202 16.3676V0.812012C39.1277 0.812012 23.6523 16.2874 23.6523 35.3799C23.6523 54.4697 39.1277 69.9478 58.2202 69.9478C77.31 69.9478 92.7881 54.4725 92.7881 35.3799H77.2326C77.2326 45.8803 68.7206 54.3923 58.2202 54.3923Z" fill="#4169E1"/>
<path fill-rule="evenodd" clip-rule="evenodd" d="M58.2207 35.38H77.233V16.3677H58.2207V35.38Z" fill="#4169E1"/>
</g>
</g>
</g>
<defs>
<clipPath id="clip0_184_3005">
<rect width="115" height="70" fill="white" transform="translate(0.720703 0.379883)"/>
</clipPath>
<clipPath id="clip1_184_3005">
<rect width="115" height="70" fill="white" transform="translate(0.720703 0.379883)"/>
</clipPath>
<clipPath id="clip2_184_3005">
<rect width="69.1358" height="70" fill="white" transform="translate(23.6523 0.379883)"/>
</clipPath>
</defs>
</svg>
