<svg width="116" height="102" viewBox="0 0 116 102" fill="none" xmlns="http://www.w3.org/2000/svg">
<g clip-path="url(#clip0_184_2813)">
<g clip-path="url(#clip1_184_2813)">
<g clip-path="url(#clip2_184_2813)">
<mask id="mask0_184_2813" style="mask-type:luminance" maskUnits="userSpaceOnUse" x="23" y="0" width="70" height="70">
<path d="M92.7881 0.62207H23.6523V69.7579H92.7881V0.62207Z" fill="white"/>
</mask>
<g mask="url(#mask0_184_2813)">
<mask id="mask1_184_2813" style="mask-type:luminance" maskUnits="userSpaceOnUse" x="33" y="0" width="51" height="70">
<path d="M83.2023 0.62207H33.2402V69.7579H83.2023V0.62207Z" fill="white"/>
</mask>
<g mask="url(#mask1_184_2813)">
<path d="M57.7127 0.62207H57.7542L57.768 0.63221C59.7324 1.80014 61.7226 2.9349 63.6963 4.089C69.5294 7.47942 75.3627 10.8689 81.195 14.2594C75.3055 17.6526 69.4152 21.0604 63.5257 24.4555C61.5475 25.6077 59.5564 26.7379 57.5827 27.8966C49.7631 23.3474 41.9369 18.8048 34.1172 14.2566C41.9581 9.72216 49.8654 5.17581 57.6934 0.635897L57.7127 0.62207Z" fill="#4169E1"/>
<path d="M57.1547 31.9601C57.1615 33.3647 57.1684 34.7665 57.1578 36.1763C55.8032 35.3931 54.4481 34.6045 53.0925 33.8157C51.3017 32.7736 49.5099 31.731 47.7168 30.699L47.7047 30.6918L47.7017 30.69L47.6881 30.6817C47.157 30.3571 46.6053 30.0405 46.0598 29.7276C45.6803 29.5099 45.3039 29.294 44.9396 29.0783L44.9368 29.0766C43.3225 28.1377 41.7065 27.1988 40.0906 26.2599L40.0889 26.2589C38.4735 25.3203 36.8583 24.3819 35.2448 23.4434L35.2403 23.4408L35.2127 23.4252C34.9899 23.2992 34.7791 23.18 34.5774 23.0524C34.5642 22.8175 34.5531 22.5944 34.5535 22.3682C34.5804 21.6558 34.5723 20.9243 34.5643 20.2058C34.5593 19.7553 34.5544 19.3101 34.5581 18.8779C34.5637 18.1048 34.5588 17.3318 34.5539 16.5627L34.5537 16.5381C34.5504 16.0265 34.5471 15.5164 34.5469 15.0068C38.0567 17.0481 41.5671 19.0878 45.0775 21.1276C49.1015 23.4659 53.1257 25.8041 57.1489 28.1445C57.1424 29.4242 57.1486 30.6934 57.1547 31.9601Z" fill="#4169E1" stroke="#4169E1" stroke-width="0.864198"/>
<path d="M79.8117 23.6161C79.9038 23.5637 79.9989 23.5077 80.0968 23.4502C80.3135 23.3226 80.5435 23.1873 80.7829 23.0661C80.7977 22.8116 80.7917 22.5572 80.7853 22.2852C80.781 22.1091 80.7767 21.9257 80.7777 21.7299M79.8117 23.6161L81.2098 21.7315ZM79.8117 23.6161L79.8067 23.619C79.6449 23.7139 79.4776 23.8094 79.3079 23.9063C79.0507 24.0531 78.7881 24.2031 78.531 24.3585C78.1231 24.1209 77.7193 23.8813 77.3139 23.6407C76.9782 23.4416 76.6414 23.2418 76.3003 23.0419L76.2914 23.0368C76.2187 22.9965 76.1553 22.9563 76.0814 22.9094C76.0355 22.8803 75.9855 22.8485 75.9269 22.8128C75.7912 22.7298 75.6252 22.6361 75.4385 22.5758L75.3426 22.5448L75.2429 22.5595C75.076 22.5839 74.9138 22.6408 74.8009 22.6804C74.7864 22.6855 74.7727 22.6902 74.76 22.6946L74.754 22.6967C72.8539 23.3833 70.8764 24.1422 69.0733 25.128L69.0664 25.1319C66.8975 26.37 64.8663 27.8623 63.0103 29.5223C62.833 29.6751 62.6256 29.8563 62.4527 30.0888L62.3704 30.1993L62.3674 30.3371C62.3424 31.4572 62.3519 32.5813 62.3629 33.6949C61.5632 34.1484 60.7679 34.6091 59.9746 35.0687C59.3241 35.4456 58.6742 35.822 58.0232 36.1938C58.0337 34.7804 58.027 33.3575 58.0202 31.9377C58.0141 30.6678 58.0081 29.4004 58.0145 28.1449C59.0628 27.5308 60.112 26.9264 61.1629 26.3211C62.0218 25.8265 62.8818 25.3311 63.7433 24.8293C66.4845 23.2491 69.2249 21.6667 71.9652 20.0843C74.8978 18.391 77.8302 16.6977 80.7632 15.0073M79.8117 23.6161L81.1959 14.2593C81.0518 14.3423 80.9076 14.4254 80.7635 14.5084C80.7633 14.6748 80.7632 14.8411 80.7632 15.0073M80.7777 21.7299C80.7777 21.7302 80.7777 21.7297 80.7777 21.7299L81.2098 21.7315ZM80.7777 21.7299C80.7777 21.7302 80.7777 21.7297 80.7777 21.7299L81.2098 21.7315ZM80.7777 21.7299C80.7804 20.4858 80.7759 19.2422 80.7711 17.997L80.7709 17.9373C80.7672 16.9615 80.7635 15.9846 80.7632 15.0073M81.2098 21.7315C81.2126 20.4659 81.2078 19.2009 81.203 17.936C81.199 16.8769 81.195 15.8178 81.1954 14.7583C81.0514 14.8412 80.9073 14.9243 80.7632 15.0073" fill="#4169E1"/>
<path d="M79.8117 23.6161C79.9038 23.5637 79.9989 23.5077 80.0968 23.4502C80.3135 23.3226 80.5435 23.1873 80.7829 23.0661C80.7977 22.8116 80.7917 22.5572 80.7853 22.2852C80.781 22.1091 80.7767 21.9257 80.7777 21.7299M79.8117 23.6161L81.2098 21.7315M79.8117 23.6161L79.8067 23.619C79.6449 23.7139 79.4776 23.8094 79.3079 23.9063C79.0507 24.0531 78.7881 24.2031 78.531 24.3585C78.1231 24.1209 77.7193 23.8813 77.3139 23.6407C76.9782 23.4416 76.6414 23.2418 76.3003 23.0419L76.2914 23.0368C76.2187 22.9965 76.1553 22.9563 76.0814 22.9094C76.0355 22.8803 75.9855 22.8485 75.9269 22.8128C75.7912 22.7298 75.6252 22.6361 75.4385 22.5758L75.3426 22.5448L75.2429 22.5595C75.076 22.5839 74.9138 22.6408 74.8009 22.6804C74.7864 22.6855 74.7727 22.6902 74.76 22.6946L74.754 22.6967C72.8539 23.3833 70.8764 24.1422 69.0733 25.128L69.0664 25.1319C66.8975 26.37 64.8663 27.8623 63.0103 29.5223C62.833 29.6751 62.6256 29.8563 62.4527 30.0888L62.3704 30.1993L62.3674 30.3371C62.3424 31.4572 62.3519 32.5813 62.3629 33.6949C61.5632 34.1484 60.7679 34.6091 59.9746 35.0687C59.3241 35.4456 58.6742 35.822 58.0232 36.1938C58.0337 34.7804 58.027 33.3575 58.0202 31.9377C58.0141 30.6678 58.0081 29.4004 58.0145 28.1449C59.0628 27.5308 60.112 26.9264 61.1629 26.3211C62.0218 25.8265 62.8818 25.3311 63.7433 24.8293C66.4845 23.2491 69.2249 21.6667 71.9652 20.0843C74.8978 18.391 77.8302 16.6977 80.7632 15.0073M79.8117 23.6161L81.1959 14.2593C81.0518 14.3423 80.9076 14.4254 80.7635 14.5084C80.7633 14.6748 80.7632 14.8411 80.7632 15.0073M80.7777 21.7299C80.7777 21.7297 80.7777 21.7302 80.7777 21.7299ZM80.7777 21.7299L81.2098 21.7315M80.7777 21.7299C80.7804 20.4858 80.7759 19.2422 80.7711 17.997L80.7709 17.9373C80.7672 16.9615 80.7635 15.9846 80.7632 15.0073M81.2098 21.7315C81.2126 20.4659 81.2078 19.2009 81.203 17.936C81.199 16.8769 81.195 15.8178 81.1954 14.7583C81.0514 14.8412 80.9073 14.9243 80.7632 15.0073" stroke="#4169E1" stroke-width="0.864198"/>
<path d="M34.1229 22.3594C34.122 22.6728 34.1423 22.9807 34.1598 23.2941C34.44 23.4849 34.7341 23.65 35.0291 23.8168C38.2573 25.6945 41.4928 27.5722 44.7209 29.4499C44.1864 29.7293 43.672 30.05 43.1474 30.3478L43.1465 30.37C43.1142 32.7694 43.1355 35.1846 43.1124 37.5868C43.0986 37.9841 42.9668 38.339 42.8681 38.728C42.5077 40.1172 42.1408 41.5137 41.7739 42.902C41.6485 43.5186 41.738 44.1778 41.7066 44.8064C41.4826 44.6847 41.2559 44.5667 41.0291 44.4506C40.6383 44.1879 40.2152 43.9934 39.8151 43.75C39.2602 43.385 38.6721 43.0688 38.0959 42.7388C37.8397 42.5867 37.5843 42.4328 37.3244 42.2862C36.7676 41.9672 36.2228 41.6197 35.6513 41.3284C35.147 41.0592 34.7433 40.7163 34.1994 40.5209C34.1791 40.4038 34.1561 40.2877 34.1506 40.1688C34.1496 36.7609 34.1238 33.3446 34.1285 29.9358C34.0989 28.2461 34.134 26.5555 34.1044 24.8658C34.1165 24.0306 34.0805 23.1927 34.1229 22.3594Z" fill="#4169E1"/>
<mask id="mask2_184_2813" style="mask-type:luminance" maskUnits="userSpaceOnUse" x="34" y="22" width="11" height="23">
<path d="M34.1229 22.3594C34.122 22.6728 34.1423 22.9807 34.1598 23.2941C34.44 23.4849 34.7341 23.65 35.0291 23.8168C38.2573 25.6945 41.4928 27.5722 44.7209 29.4499C44.1864 29.7293 43.672 30.05 43.1474 30.3478L43.1465 30.37C43.1142 32.7694 43.1355 35.1846 43.1124 37.5868C43.0986 37.9841 42.9668 38.339 42.8681 38.728C42.5077 40.1172 42.1408 41.5137 41.7739 42.902C41.6485 43.5186 41.738 44.1778 41.7066 44.8064C41.4826 44.6847 41.2559 44.5667 41.0291 44.4506C40.6383 44.1879 40.2152 43.9934 39.8151 43.75C39.2602 43.385 38.6721 43.0688 38.0959 42.7388C37.8397 42.5867 37.5843 42.4328 37.3244 42.2862C36.7676 41.9672 36.2228 41.6197 35.6513 41.3284C35.147 41.0592 34.7433 40.7163 34.1994 40.5209C34.1791 40.4038 34.1561 40.2877 34.1506 40.1688C34.1496 36.7609 34.1238 33.3446 34.1285 29.9358C34.0989 28.2461 34.134 26.5555 34.1044 24.8658C34.1165 24.0306 34.0805 23.1927 34.1229 22.3594Z" fill="white"/>
</mask>
<g mask="url(#mask2_184_2813)">
<path d="M34.1236 22.3593L34.9878 22.3619L33.2605 22.3154L34.1236 22.3593ZM34.1605 23.294L33.2976 23.3423L33.3214 23.7682L33.6741 24.0084L34.1605 23.294ZM35.0298 23.8167L35.4643 23.0697L35.4552 23.0645L35.0298 23.8167ZM44.7216 29.4499L45.1219 30.2159L46.5103 29.4905L45.1562 28.7029L44.7216 29.4499ZM43.1481 30.3478L42.7215 29.5962L42.3047 29.8328L42.2847 30.3118L43.1481 30.3478ZM43.1472 30.3699L42.2837 30.3339L42.2832 30.3461L42.2831 30.3583L43.1472 30.3699ZM43.1131 37.5868L43.9768 37.6168L43.9771 37.6059L43.9772 37.595L43.1131 37.5868ZM42.8688 38.7279L43.7053 38.945L43.7066 38.9403L42.8688 38.7279ZM41.7746 42.9019L40.9391 42.6811L40.9327 42.7052L40.9277 42.7298L41.7746 42.9019ZM41.7073 44.8063L41.2948 45.5657L42.502 46.2216L42.5705 44.8494L41.7073 44.8063ZM41.0298 44.4506L40.5477 45.1677L40.5903 45.1964L40.6358 45.2197L41.0298 44.4506ZM39.8158 43.7499L39.3409 44.472L39.3536 44.4804L39.3666 44.4883L39.8158 43.7499ZM38.0966 42.7387L37.6555 43.4819L37.6612 43.4853L37.6671 43.4886L38.0966 42.7387ZM37.3251 42.2862L36.8955 43.036L36.9006 43.0389L37.3251 42.2862ZM35.652 41.3284L35.245 42.0908L35.2522 42.0946L35.2595 42.0983L35.652 41.3284ZM34.2001 40.5209L33.3486 40.6684L33.4344 41.164L33.9079 41.3342L34.2001 40.5209ZM34.1513 40.1687L33.2871 40.169V40.1889L33.288 40.2089L34.1513 40.1687ZM34.1292 29.9357L34.9934 29.9369V29.9288L34.9932 29.9206L34.1292 29.9357ZM34.1052 24.8658L33.241 24.8533L33.2409 24.8671L33.2411 24.8808L34.1052 24.8658ZM33.2594 22.3568C33.2584 22.7022 33.2809 23.0419 33.2976 23.3423L35.0234 23.2458C35.0051 22.9194 34.987 22.6433 34.9878 22.3619L33.2594 22.3568ZM33.6741 24.0084C33.9897 24.2233 34.3171 24.4064 34.6043 24.5689L35.4552 23.0645C35.1525 22.8933 34.8917 22.7465 34.6469 22.5797L33.6741 24.0084ZM34.5952 24.5637C36.2096 25.5028 37.8257 26.4417 39.4416 27.3806C41.0575 28.3194 42.6732 29.2582 44.2871 30.1969L45.1562 28.7029C43.5418 27.7639 41.9258 26.8249 40.3098 25.8861C38.6939 24.9472 37.0782 24.0085 35.4643 23.0697L34.5952 24.5637ZM44.3215 28.684C43.7733 28.9704 43.2003 29.3244 42.7215 29.5962L43.5748 31.0993C44.145 30.7756 44.6007 30.4881 45.1219 30.2159L44.3215 28.684ZM42.2847 30.3118L42.2837 30.3339L44.0107 30.4059L44.0116 30.3838L42.2847 30.3118ZM42.2831 30.3583C42.2511 32.7396 42.2716 35.2178 42.2489 37.5785L43.9772 37.595C44.0007 35.1512 43.9789 32.7991 44.0114 30.3815L42.2831 30.3583ZM42.2494 37.5567C42.2399 37.8306 42.159 38.0113 42.0311 38.5155L43.7066 38.9403C43.776 38.6665 43.9586 38.1375 43.9768 37.6168L42.2494 37.5567ZM42.0323 38.5109C41.6723 39.8984 41.3058 41.2936 40.9391 42.6811L42.6102 43.1227C42.9773 41.7337 43.3445 40.3358 43.7053 38.945L42.0323 38.5109ZM40.9277 42.7298C40.8464 43.13 40.8387 43.5229 40.8416 43.8571C40.8447 44.2207 40.8582 44.4824 40.8442 44.7633L42.5705 44.8494C42.5878 44.5017 42.5723 44.1195 42.5699 43.8422C42.5673 43.5355 42.5775 43.2905 42.6215 43.0741L40.9277 42.7298ZM42.1199 44.047C41.8872 43.9205 41.6535 43.799 41.4238 43.6813L40.6358 45.2197C40.8596 45.3344 41.0796 45.4488 41.2948 45.5657L42.1199 44.047ZM41.5119 43.7334C41.2814 43.5783 41.0482 43.4481 40.8408 43.3347C40.6239 43.2161 40.4429 43.1199 40.2649 43.0117L39.3666 44.4883C39.5887 44.6234 39.8193 44.7461 40.0117 44.8513C40.2136 44.9616 40.3874 45.06 40.5477 45.1677L41.5119 43.7334ZM40.2907 43.028C39.7062 42.6434 39.0752 42.3033 38.5261 41.9889L37.6671 43.4886C38.2703 43.8342 38.8155 44.1264 39.3409 44.472L40.2907 43.028ZM38.5377 41.9955C38.2885 41.8477 38.0204 41.6861 37.7495 41.5334L36.9006 43.0389C37.1496 43.1793 37.3922 43.3256 37.6555 43.4819L38.5377 41.9955ZM37.7547 41.5362C37.2485 41.2464 36.6381 40.861 36.0444 40.5584L35.2595 42.0983C35.8088 42.3783 36.288 42.688 36.8955 43.036L37.7547 41.5362ZM36.0589 40.566C35.8396 40.4489 35.6642 40.3286 35.3963 40.1625C35.1483 40.0088 34.8504 39.8363 34.4923 39.7076L33.9079 41.3342C34.0937 41.4009 34.2695 41.4975 34.4856 41.6315C34.6815 41.7529 34.9601 41.9387 35.245 42.0908L36.0589 40.566ZM35.0516 40.3734C35.026 40.2254 35.0169 40.1788 35.0145 40.1286L33.288 40.2089C33.2967 40.3964 33.3337 40.5821 33.3486 40.6684L35.0516 40.3734ZM35.0155 40.1685C35.0145 36.7447 34.9887 33.3523 34.9934 29.9369L33.265 29.9345C33.2603 33.3369 33.2862 36.7769 33.2871 40.169L35.0155 40.1685ZM34.9932 29.9206C34.9786 29.0854 34.98 28.2486 34.9814 27.4022C34.9827 26.5585 34.9841 25.7052 34.9693 24.8506L33.2411 24.8808C33.2556 25.716 33.2543 26.5528 33.253 27.3993C33.2516 28.243 33.2501 29.0964 33.2651 29.9508L34.9932 29.9206ZM34.9693 24.8781C34.9824 23.9647 34.9447 23.2277 34.9867 22.4032L33.2605 22.3154C33.2177 23.1577 33.2519 24.0965 33.241 24.8533L34.9693 24.8781Z" fill="#4169E1"/>
</g>
<path d="M75.305 22.9874C75.5788 23.0759 75.8286 23.275 76.0812 23.4151C76.9006 23.8954 77.7146 24.3867 78.5369 24.8624C79.4181 25.3878 80.3003 25.9105 81.1843 26.4286C81.8499 26.8258 82.5164 27.2223 83.1856 27.6122C81.1465 28.2906 79.0171 29.0096 77.1238 30.0356C75.706 30.8559 74.3398 31.7649 73.0567 32.7844C72.1893 33.426 71.3966 34.1496 70.5891 34.8612C67.9904 33.3606 65.4057 31.8313 62.7988 30.3471C62.9407 30.1563 63.115 30.0024 63.2947 29.8475C65.131 28.2048 67.1387 26.7299 69.28 25.5076C71.0517 24.5388 73.0023 23.7894 74.9004 23.1036C75.0312 23.0584 75.1667 23.0076 75.305 22.9874Z" fill="#4169E1"/>
<path d="M81.1919 23.3496C81.1689 24.3738 81.1965 25.4035 81.1846 26.4285C80.3005 25.9104 79.4183 25.3877 78.5371 24.8623C79.0248 24.5563 79.5281 24.2835 80.0249 23.9921C80.4139 23.7709 80.7826 23.5331 81.1919 23.3496Z" fill="#4169E1"/>
<path d="M71.0375 37.505C71.0366 37.1053 71.0331 36.7048 71.0294 36.3061C71.0257 35.8863 71.0219 35.4684 71.0215 35.0555C71.0904 34.9945 71.1592 34.9335 71.2279 34.8728C71.9172 34.2623 72.5886 33.6677 73.314 33.1311L73.3201 33.1267L73.3259 33.122C74.5885 32.1188 75.9349 31.2226 77.3353 30.4119C79.0186 29.5005 80.8982 28.8333 82.7588 28.2095C82.7601 28.5456 82.7594 28.8878 82.7585 29.2317C82.7572 29.7804 82.7558 30.3332 82.7631 30.872C82.6543 30.9033 82.5438 30.9345 82.4323 30.9661C81.9787 31.0945 81.5073 31.2279 81.057 31.3907C80.1792 31.6909 79.3212 32.0436 78.486 32.4457C77.3744 32.9757 76.3148 33.6077 75.295 34.2662C74.1914 34.9817 73.1293 35.7571 72.1111 36.588C71.7449 36.8832 71.3877 37.1953 71.0375 37.505Z" fill="#4169E1" stroke="#4169E1" stroke-width="0.864198"/>
<path d="M44.72 29.4492C45.6308 29.9885 46.56 30.4973 47.4633 31.0495C46.9637 31.3767 46.4392 31.6598 45.9267 31.9639C45.003 31.4192 44.0656 30.8993 43.1465 30.3471C43.6711 30.0493 44.1854 29.7285 44.72 29.4492Z" fill="#4169E1"/>
<path d="M62.7989 30.3466C65.4058 31.8306 67.9906 33.3599 70.5891 34.8607C70.5873 36.0627 70.6168 37.2639 70.6002 38.4659C70.1909 38.2557 69.8038 38.0133 69.4055 37.7838C69.3115 37.7284 69.2157 37.674 69.1197 37.6206C68.0827 37.015 67.042 36.4149 66.0059 35.8065C64.9338 35.1898 63.8664 34.5657 62.7971 33.9453C62.7851 32.747 62.7722 31.544 62.7989 30.3466Z" fill="#4169E1"/>
<path d="M47.4628 31.0503L47.4794 31.0604L47.4979 31.0715C47.4776 33.5419 47.4822 36.0087 47.4684 38.4791C50.821 42.5996 54.181 46.7165 57.5281 50.8406C57.5511 50.871 57.5751 50.9024 57.5981 50.9328C65.4658 46.3744 73.3492 41.841 81.2196 37.2872C81.3587 37.2753 81.4583 37.2836 81.5819 37.3563C82.0317 37.6062 82.4658 37.8827 82.9221 38.1224C74.482 42.9849 66.0419 47.865 57.6064 52.7377C57.1465 52.4686 56.6837 52.2049 56.2219 51.9404C55.9527 51.791 55.7831 51.5126 55.5858 51.2794C52.5255 47.5193 49.4632 43.7611 46.4028 40.001C46.2442 39.7964 46.0552 39.6065 45.9197 39.3862C45.8699 38.9152 45.9244 38.4293 45.9151 37.9556C45.905 35.958 45.9299 33.9623 45.9262 31.9647C46.4387 31.6605 46.9632 31.3775 47.4628 31.0503Z" fill="#4169E1"/>
<path d="M51.3692 42.5842C50.2131 41.1649 49.0572 39.7458 47.9023 38.3265C47.9076 37.3238 47.91 36.3241 47.9125 35.3252C47.9153 34.1556 47.9181 32.9869 47.9256 31.8159C49.5049 32.7271 51.0793 33.6433 52.6545 34.5599C54.0502 35.372 55.4464 36.1845 56.8474 36.9943C56.9452 37.0515 57.0427 37.1108 57.1406 37.1717C57.1233 37.6559 57.1304 38.1419 57.1373 38.6142C57.1396 38.7655 57.1417 38.9156 57.1431 39.0636C57.1431 41.1071 57.1495 43.1549 57.156 45.2016C57.1607 46.7056 57.1655 48.2091 57.1677 49.7098C55.2374 47.3332 53.3031 44.9585 51.3692 42.5842Z" fill="#4169E1" stroke="#4169E1" stroke-width="0.864198"/>
<path d="M63.6093 34.9176C64.1117 35.2098 64.6147 35.5023 65.1184 35.7937C64.9342 35.8987 64.7518 36.0061 64.5726 36.1115C64.3493 36.243 64.1314 36.3714 63.922 36.4878L63.9156 36.4914L63.9093 36.4952C63.7978 36.5623 63.6713 36.634 63.5389 36.709C63.3096 36.8388 63.0629 36.9785 62.8465 37.1218L62.6448 37.2553L62.6531 37.4971C62.6786 38.2269 62.6787 38.9593 62.6762 39.699C62.6759 39.7795 62.6756 39.86 62.6753 39.9407C62.6728 40.5983 62.6703 41.2622 62.6843 41.9257C62.6875 42.3855 62.687 42.8455 62.6864 43.3074V43.3526C62.6858 43.8001 62.6853 44.2493 62.688 44.6988L62.6924 45.44L63.3352 45.0709C64.3854 44.4678 65.4338 43.863 66.4812 43.2563C66.7922 43.0773 67.1016 42.8978 67.4102 42.7188C68.146 42.2919 68.8778 41.8674 69.6192 41.4559L69.8346 41.3363L69.8415 41.09C69.8597 40.4333 69.8523 39.7594 69.8448 39.0954C69.8428 38.9092 69.8408 38.7238 69.8393 38.5397C70.0239 38.647 70.2125 38.7531 70.4032 38.851L70.6631 38.9844L70.8838 38.7929C71.0786 38.6237 71.2684 38.4556 71.4562 38.2893C71.6219 38.1426 71.7861 37.9972 71.951 37.8535C71.9508 38.3491 71.9506 38.8447 71.9512 39.34L71.9521 40.0738L72.5933 39.7172C73.2533 39.3501 73.9112 38.968 74.5651 38.5884C74.96 38.3591 75.3534 38.1307 75.7448 37.907C76.1813 37.6566 76.6149 37.4057 77.0473 37.1555C77.6619 36.8 78.2749 36.4453 78.8938 36.0933L79.1152 35.9674L79.1123 35.7127C79.1054 35.1143 79.1057 34.5193 79.106 33.9213C79.1061 33.6514 79.1063 33.3809 79.1057 33.1091C79.652 32.8541 80.2079 32.621 80.7726 32.4106C80.7779 33.2827 80.7798 34.1538 80.7816 35.0258C80.7831 35.6961 80.7844 36.3669 80.7875 37.039C77.3218 39.0441 73.8525 41.0459 70.3829 43.0478C66.2657 45.4235 62.1481 47.7993 58.0359 50.1809C58.0357 50.1117 58.0344 50.0452 58.0332 49.9819C58.0329 49.9661 58.0326 49.9506 58.0323 49.9352C58.0303 48.355 58.0253 46.7753 58.0204 45.196C58.0139 43.1511 58.0075 41.1066 58.0075 39.062L58.0074 39.0581C58.0059 38.8988 58.0037 38.7411 58.0014 38.5846C57.9946 38.1146 57.9879 37.6562 58.0045 37.1993C58.8088 36.7434 59.6085 36.2801 60.4061 35.8179L60.4071 35.8174C61.2031 35.3563 61.997 34.8963 62.7947 34.444C63.0661 34.6016 63.3376 34.7596 63.6093 34.9176Z" fill="#4169E1" stroke="#4169E1" stroke-width="0.864198"/>
<path d="M78.6724 32.8353C78.6761 33.7959 78.6687 34.7564 78.6798 35.7169C77.6262 36.3161 76.5808 36.9282 75.53 37.531C75.5253 36.5641 75.5281 35.597 75.529 34.6291C76.5412 33.9756 77.5837 33.3543 78.6724 32.8353Z" fill="#4169E1"/>
<path d="M75.5293 34.6294C75.5285 35.5973 75.5257 36.5642 75.5303 37.5312C74.4804 38.1313 73.4406 38.7508 72.3832 39.3389C72.3823 38.5342 72.3832 37.7294 72.3832 36.9238C73.3899 36.1024 74.4389 35.3364 75.5293 34.6294Z" fill="#4169E1"/>
<path d="M66.0052 35.8069C67.0413 36.4153 68.0821 37.0154 69.1191 37.621C68.1577 38.151 67.2128 38.7152 66.2615 39.2637C66.267 40.4694 66.2606 41.6751 66.2642 42.8817C65.2171 43.4883 64.169 44.093 63.1191 44.6958C63.1135 43.7704 63.1218 42.8449 63.1154 41.9194C63.084 40.4408 63.1357 38.9595 63.084 37.4818C63.4223 37.2578 63.7836 37.0743 64.1312 36.8651C64.7571 36.5166 65.3637 36.124 66.0052 35.8069Z" fill="#4169E1"/>
<path d="M69.1194 37.6205C69.2152 37.674 69.311 37.7283 69.4051 37.7836C69.3977 38.8815 69.4392 39.9803 69.4088 41.0773C68.3524 41.6635 67.3116 42.2784 66.2645 42.8813C66.2608 41.6746 66.2672 40.4689 66.2617 39.2631C67.213 38.7146 68.1579 38.1505 69.1194 37.6205Z" fill="#4169E1"/>
<path d="M82.4965 38.8662C82.4969 38.9102 82.4973 38.9543 82.4977 38.9983C82.5039 39.6971 82.51 40.3919 82.5029 41.0875L82.5028 41.1031L82.5037 41.1188C82.5039 41.1219 82.5038 41.1234 82.5037 41.1236C82.5037 41.1237 82.5037 41.1238 82.5037 41.1236L82.5028 41.1265C82.5019 41.1287 82.5003 41.1324 82.4975 41.1379C82.4913 41.1498 82.481 41.1665 82.4622 41.193C82.4484 41.2124 82.4354 41.2297 82.4189 41.2517C82.4114 41.2617 82.4032 41.2727 82.3938 41.2853C82.0662 41.7004 81.7438 42.1227 81.4238 42.5418C81.274 42.738 81.1247 42.9336 80.9756 43.1274L80.9731 43.1306C80.9337 43.1828 80.8955 43.2335 80.8576 43.2829C80.6798 43.5105 80.5014 43.7398 80.3245 43.9704C80.2597 44.055 80.1947 44.1399 80.1301 44.2244C79.8372 44.6072 79.5453 44.989 79.2514 45.3695C79.1715 45.473 79.092 45.577 79.0133 45.6799C78.9344 45.783 78.8561 45.8853 78.7775 45.9873C78.4893 46.361 78.2008 46.7355 77.9131 47.1108C77.8825 47.0913 77.8519 47.0718 77.8212 47.052L77.4791 46.8321L77.2389 47.1602L77.1822 47.2376L77.1255 47.315L77.1231 47.3183C77.051 47.4189 76.9739 47.5237 76.8952 47.6309C76.7617 47.8125 76.6236 48.0004 76.4964 48.1848C76.2566 48.5318 76.01 48.8731 75.7603 49.2186C75.6763 49.3348 75.5919 49.4515 75.5074 49.5691L75.5048 49.5728C75.3134 49.8448 75.1206 50.1139 74.9264 50.3848C74.923 50.3897 74.9196 50.3944 74.9161 50.3993C74.9021 50.3869 74.8881 50.3747 74.8741 50.3625C74.8571 50.3478 74.8403 50.3331 74.8236 50.3185C74.7058 50.2158 74.5943 50.1187 74.4863 50.0179L74.1612 49.7147L73.8674 50.0483C73.8285 50.0925 73.7906 50.1377 73.7539 50.1838C73.6572 50.3054 73.569 50.4317 73.4885 50.5586L73.4876 50.5599C73.4511 50.618 73.4151 50.6754 73.3795 50.7322C73.2482 50.9418 73.1217 51.1438 72.9872 51.3431L72.9832 51.3492C72.9122 51.4582 72.8419 51.5706 72.7738 51.6793C72.7452 51.725 72.7169 51.7701 72.6893 51.8139C72.4676 52.1488 72.2491 52.488 72.0322 52.8246C71.9374 52.9718 71.843 53.1185 71.7487 53.264C71.5899 53.5079 71.4327 53.7518 71.2765 53.9978C71.2373 54.058 71.197 54.1195 71.1559 54.1819C71.0711 54.3111 70.9834 54.4445 70.8975 54.581C70.786 54.5396 70.6742 54.4963 70.5593 54.4516C70.464 54.4146 70.3664 54.3767 70.265 54.3384C69.8833 54.1907 69.5023 54.041 69.1201 53.8909L69.1173 53.8898C68.9702 53.8332 68.8222 53.7807 68.6801 53.7303C68.6508 53.7185 68.6206 53.7061 68.5894 53.6934C68.4308 53.6286 68.2507 53.555 68.0654 53.4983L67.7183 53.3921L67.5538 53.7156C67.4865 53.8479 67.417 53.9993 67.3524 54.1398C67.3129 54.2256 67.2753 54.3074 67.2412 54.3785C67.1911 54.4787 67.1509 54.5565 67.1097 54.6363C67.0705 54.712 67.0303 54.7897 66.9798 54.8904C66.9495 54.9501 66.9199 55.01 66.8907 55.0697C66.815 55.0519 66.7339 55.0323 66.651 55.0123C66.5156 54.9795 66.3751 54.9455 66.2445 54.9163C65.9015 54.8352 65.5587 54.7526 65.2149 54.6698C65.1056 54.6434 64.9961 54.6171 64.8865 54.5907C64.7503 54.5469 64.6076 54.5294 64.4631 54.5433L64.2786 54.5609L64.1642 54.7069C64.0902 54.8012 64.0277 54.9062 63.9796 55.0213C63.9513 55.0779 63.9233 55.133 63.8948 55.1877C63.8828 55.2096 63.8707 55.2314 63.8586 55.2534L63.5925 55.2203L63.5914 55.2201L63.5335 55.2131C63.0309 55.1271 62.5282 55.056 62.0299 54.9891C61.5477 54.915 61.0576 54.8448 60.5701 54.775C60.1961 54.7214 59.8236 54.6681 59.4576 54.6134L59.4492 54.6121C59.3647 54.6013 59.2824 54.5924 59.2029 54.5848L59.0793 54.5728L58.9682 54.6284C58.8041 54.7104 58.6465 54.8037 58.5032 54.8884C58.4727 54.9065 58.4429 54.9241 58.4138 54.9412C58.3489 54.9789 58.2831 55.0169 58.2168 55.0553C58.1579 55.0894 58.0986 55.1236 58.0391 55.1581C58.0464 54.6646 58.0439 54.1705 58.0415 53.6816C58.0403 53.4486 58.0391 53.2167 58.0391 52.9867C59.7551 51.9954 61.4713 51.0039 63.1877 50.0122C69.6227 46.2943 76.0596 42.5753 82.4965 38.8662Z" fill="#4169E1"/>
<path d="M82.5037 41.1236C82.5038 41.1234 82.5039 41.1219 82.5037 41.1188L82.5028 41.1031L82.5029 41.0875C82.51 40.3919 82.5039 39.6971 82.4977 38.9983C82.4973 38.9543 82.4969 38.9102 82.4965 38.8662C76.0596 42.5753 69.6227 46.2943 63.1877 50.0122C61.4713 51.0039 59.7551 51.9954 58.0391 52.9867C58.0391 53.2167 58.0403 53.4486 58.0415 53.6816C58.0439 54.1705 58.0464 54.6646 58.0391 55.1581C58.0986 55.1236 58.1579 55.0894 58.2168 55.0553C58.2831 55.0169 58.3489 54.9789 58.4138 54.9412C58.4429 54.9241 58.4727 54.9065 58.5032 54.8884C58.6465 54.8037 58.8041 54.7104 58.9682 54.6284L59.0793 54.5728L59.2029 54.5848C59.2824 54.5924 59.3647 54.6013 59.4492 54.6121L59.4576 54.6134C59.8236 54.6681 60.1961 54.7214 60.5701 54.775C61.0576 54.8448 61.5477 54.915 62.0299 54.9891C62.5282 55.056 63.0309 55.1271 63.5335 55.2131L63.5914 55.2201L63.5925 55.2203L63.8586 55.2534C63.8707 55.2314 63.8828 55.2096 63.8948 55.1877C63.9233 55.133 63.9513 55.0779 63.9796 55.0213C64.0277 54.9062 64.0902 54.8012 64.1642 54.7069L64.2786 54.5609L64.4631 54.5433C64.6076 54.5294 64.7503 54.5469 64.8865 54.5907C64.9961 54.6171 65.1056 54.6434 65.2149 54.6698C65.5587 54.7526 65.9015 54.8352 66.2445 54.9163C66.3751 54.9455 66.5156 54.9795 66.651 55.0123C66.7339 55.0323 66.815 55.0519 66.8907 55.0697C66.9199 55.01 66.9495 54.9501 66.9798 54.8904C67.0303 54.7897 67.0705 54.712 67.1097 54.6363C67.1509 54.5565 67.1911 54.4787 67.2412 54.3785C67.2753 54.3074 67.3129 54.2256 67.3524 54.1398C67.417 53.9993 67.4865 53.8479 67.5538 53.7156L67.7183 53.3921L68.0654 53.4983C68.2507 53.555 68.4308 53.6286 68.5894 53.6934C68.6206 53.7061 68.6508 53.7185 68.6801 53.7303C68.8222 53.7807 68.9702 53.8332 69.1173 53.8898L69.1201 53.8909C69.5023 54.041 69.8833 54.1907 70.265 54.3384C70.3664 54.3767 70.464 54.4146 70.5593 54.4516C70.6742 54.4963 70.786 54.5396 70.8975 54.581C70.9834 54.4445 71.0711 54.3111 71.1559 54.1819C71.197 54.1195 71.2373 54.058 71.2765 53.9978C71.4327 53.7518 71.5899 53.5079 71.7487 53.264C71.843 53.1185 71.9374 52.9718 72.0322 52.8246C72.2491 52.488 72.4676 52.1488 72.6893 51.8139C72.7169 51.7701 72.7452 51.725 72.7738 51.6793C72.8419 51.5706 72.9122 51.4582 72.9832 51.3492L72.9872 51.3431C73.1217 51.1438 73.2482 50.9418 73.3795 50.7322C73.4151 50.6754 73.4511 50.618 73.4876 50.5599L73.4885 50.5586C73.569 50.4317 73.6572 50.3054 73.7539 50.1838C73.7906 50.1377 73.8285 50.0925 73.8674 50.0483L74.1612 49.7147L74.4863 50.0179C74.5943 50.1187 74.7058 50.2158 74.8236 50.3185C74.8403 50.3331 74.8571 50.3478 74.8741 50.3625C74.8881 50.3747 74.9021 50.3869 74.9161 50.3993C74.9196 50.3944 74.923 50.3897 74.9264 50.3848C75.1206 50.1139 75.3134 49.8448 75.5048 49.5728L75.5074 49.5691C75.5919 49.4515 75.6763 49.3348 75.7603 49.2186C76.01 48.8731 76.2566 48.5318 76.4964 48.1848C76.6236 48.0004 76.7617 47.8125 76.8952 47.6309C76.9739 47.5237 77.051 47.4189 77.1231 47.3183L77.1255 47.315L77.1822 47.2376L77.2389 47.1602L77.4791 46.8321L77.8212 47.052C77.8519 47.0718 77.8825 47.0913 77.9131 47.1108C78.2008 46.7355 78.4893 46.361 78.7775 45.9873C78.8561 45.8853 78.9344 45.783 79.0133 45.6799C79.092 45.577 79.1715 45.473 79.2514 45.3695C79.5453 44.989 79.8372 44.6072 80.1301 44.2244C80.1947 44.1399 80.2597 44.055 80.3245 43.9704C80.5014 43.7398 80.6798 43.5105 80.8576 43.2829C80.8955 43.2335 80.9337 43.1828 80.9731 43.1306L80.9756 43.1274C81.1247 42.9336 81.274 42.738 81.4238 42.5418C81.7438 42.1227 82.0662 41.7004 82.3938 41.2853C82.4032 41.2727 82.4114 41.2617 82.4189 41.2517C82.4354 41.2297 82.4484 41.2124 82.4622 41.193C82.481 41.1665 82.4913 41.1498 82.4975 41.1379C82.5003 41.1324 82.5019 41.1287 82.5028 41.1265L82.5037 41.1236ZM82.5037 41.1236C82.5037 41.1238 82.5037 41.1237 82.5037 41.1236Z" stroke="#4169E1" stroke-width="0.864198"/>
<path d="M34.1992 40.521C34.7431 40.7165 35.1469 41.0594 35.6511 41.3285C35.5442 41.3958 35.44 41.4677 35.3349 41.5369C35.1487 41.6576 34.9607 41.7729 34.7698 41.8853C34.5846 41.5572 34.4694 41.2299 34.2296 40.9368C34.2269 40.7975 34.2177 40.6593 34.1992 40.521Z" fill="#4169E1"/>
<path d="M34.2283 40.9365C34.4679 41.2297 34.5832 41.5569 34.7685 41.8851C35.0164 42.358 35.2643 42.8318 35.4966 43.312C35.3196 43.4513 35.1418 43.5876 34.9537 43.7121C34.7021 43.2834 34.537 42.8022 34.231 42.4133C34.2328 41.921 34.2135 41.4288 34.2283 40.9365Z" fill="#4169E1"/>
<path d="M35.6501 41.3281C36.2217 41.6194 36.7665 41.9669 37.3232 42.2859C36.9149 42.5256 36.5425 42.7855 36.1018 42.9662C35.8041 42.5099 35.6105 42.0048 35.334 41.5365C35.4391 41.4673 35.5432 41.3954 35.6501 41.3281Z" fill="#4169E1"/>
<path d="M35.3345 41.5366C35.6111 42.0048 35.8047 42.51 36.1025 42.9663C36.543 42.7856 36.9155 42.5257 37.3238 42.2861C37.5838 42.4326 37.8392 42.5865 38.0954 42.7386C37.5635 43.0898 36.9966 43.3774 36.4527 43.7083C36.2582 43.8199 36.0638 43.9323 35.871 44.0475C35.7383 43.807 35.6166 43.5608 35.4977 43.3119C35.2654 42.8317 35.0175 42.3579 34.7695 41.885C34.9603 41.7725 35.1484 41.6573 35.3345 41.5366Z" fill="#4169E1"/>
<path d="M34.2317 42.4133C34.5377 42.8023 34.7026 43.2835 34.9543 43.7121L34.9681 43.7398C34.7184 43.8393 34.4731 43.9472 34.2307 44.0643C34.2307 43.514 34.2298 42.9637 34.2317 42.4133Z" fill="#4169E1"/>
<path d="M38.0958 42.7393C38.672 43.0692 39.26 43.3854 39.815 43.7505C39.8823 43.8712 39.9431 43.9956 40.0003 44.122C39.1356 44.5681 38.2977 45.0705 37.4413 45.5332L37.4091 45.5508C37.0957 44.935 36.7924 44.3118 36.4531 43.709C36.9971 43.3781 37.564 43.0905 38.0958 42.7393Z" fill="#4169E1"/>
<path d="M35.4981 43.312C35.617 43.5609 35.7386 43.807 35.8714 44.0476L35.8935 44.0891C35.6446 44.1758 35.4473 44.2283 35.3155 44.479L35.2741 44.3988C35.168 44.1813 35.074 43.9583 34.9689 43.7398L34.9551 43.7121C35.1431 43.5877 35.3211 43.4512 35.4981 43.312Z" fill="#4169E1"/>
<path d="M81.1979 43.5483C81.327 44.0562 81.3012 44.5586 81.2606 45.0749C81.0136 44.8268 80.8301 44.542 80.666 44.2342C80.8421 44.0046 81.02 43.776 81.1979 43.5483Z" fill="#4169E1"/>
<path d="M34.9685 43.7402C35.0736 43.9587 35.1676 44.1818 35.2737 44.3993C34.928 44.6021 34.5924 44.8168 34.2311 44.992C34.2293 44.6832 34.2321 44.3735 34.2311 44.0647C34.4735 43.9476 34.7188 43.8398 34.9685 43.7402Z" fill="#4169E1"/>
<path d="M36.4528 43.7085C36.792 44.3114 37.0952 44.9345 37.4087 45.5503C37.2096 45.6646 37.016 45.79 36.8224 45.9135L36.8049 45.8803C36.5044 45.2812 36.1984 44.6856 35.8932 44.0893L35.8711 44.0478C36.0637 43.9325 36.2583 43.8201 36.4528 43.7085Z" fill="#4169E1"/>
<path d="M39.8145 43.7501C40.2145 43.9935 40.6376 44.1879 41.0285 44.4506C40.8229 44.5715 40.622 44.6995 40.4136 44.8166C40.2357 44.5954 40.1094 44.3843 39.9997 44.1216C39.9425 43.9953 39.8817 43.8709 39.8145 43.7501Z" fill="#4169E1"/>
<path d="M35.8933 44.0894C36.1984 44.6857 36.5045 45.2813 36.805 45.8804C36.6096 46.0003 36.4224 46.1302 36.2344 46.2602C36.3137 46.4639 36.4031 46.6603 36.5119 46.8501C36.5764 46.8778 36.6409 46.9054 36.7045 46.934L36.7377 46.9773L36.6796 46.9912C36.5239 47.0234 36.3726 47.0484 36.2335 47.1313C35.8104 47.3728 35.3983 47.6346 34.9706 47.8696C34.8121 47.6594 34.7033 47.4355 34.6074 47.1922C35.1392 46.8797 35.6757 46.5736 36.2003 46.2473C35.9219 45.6509 35.6196 45.0627 35.3154 44.4792C35.4472 44.2285 35.6445 44.1759 35.8933 44.0894Z" fill="#4169E1"/>
<path d="M39.9984 44.1216C40.1081 44.3843 40.2344 44.5953 40.4123 44.8166C40.1671 44.954 39.9182 45.0848 39.6647 45.2084C39.4573 45.308 39.2554 45.4167 39.0554 45.532C39.0738 45.5808 39.0922 45.6296 39.1125 45.6776C38.9853 45.7172 38.8591 45.755 38.7319 45.7919C38.4028 45.8306 38.2203 45.9541 37.9898 46.1809C37.9556 46.2095 37.9216 46.238 37.8875 46.2666L37.7713 46.2399C37.6257 46.0195 37.5335 45.7781 37.4395 45.5328C38.2958 45.0701 39.1337 44.5677 39.9984 44.1216Z" fill="#4169E1"/>
<path d="M35.273 44.399L35.3145 44.4792C35.6187 45.0628 35.9211 45.6509 36.1995 46.2473C35.675 46.5736 35.1385 46.8797 34.6066 47.1922L34.5882 47.2023C34.496 46.9544 34.3863 46.7248 34.2434 46.5017C34.2434 45.9984 34.2415 45.4951 34.2305 44.9918C34.5919 44.8166 34.9274 44.6019 35.273 44.399Z" fill="#4169E1"/>
<path d="M41.0284 44.4507C41.2552 44.5668 41.482 44.6849 41.706 44.8066C41.7051 44.9384 41.7041 45.0711 41.7032 45.2038C41.1667 45.426 40.6505 45.6905 40.1205 45.9274C39.9582 45.6933 39.8061 45.4555 39.666 45.2084C39.9195 45.0849 40.1684 44.954 40.4136 44.8167C40.6219 44.6996 40.8229 44.5715 41.0284 44.4507Z" fill="#4169E1"/>
<path d="M39.666 45.2085C39.8061 45.4555 39.9582 45.6933 40.1205 45.9275L40.1389 45.9552C39.9056 46.0354 39.6826 46.1284 39.4632 46.2409L39.442 46.2511C39.3323 46.0602 39.2152 45.8731 39.1139 45.6777C39.0935 45.6297 39.0751 45.5809 39.0566 45.5321C39.2567 45.4168 39.4586 45.3081 39.666 45.2085Z" fill="#4169E1"/>
<path d="M41.7034 45.2031C41.6998 45.4917 41.6933 45.7793 41.697 46.0678C41.3107 46.2577 40.9117 46.4126 40.5374 46.6264C40.813 47.1103 41.1209 47.5796 41.4131 48.0533L41.4352 48.0912C41.2076 48.1787 40.9844 48.2746 40.766 48.3843L40.7438 48.3944C40.4747 47.9031 40.1696 47.433 39.8829 46.9518L39.8672 46.925C40.0801 46.8347 40.283 46.7342 40.483 46.62C40.3835 46.3904 40.2765 46.1645 40.1392 45.9544L40.1207 45.9267C40.6508 45.6898 41.1669 45.4253 41.7034 45.2031Z" fill="#4169E1"/>
<path d="M37.4085 45.5499L37.4408 45.5325C37.5348 45.7776 37.627 46.0192 37.7726 46.2395C37.5385 46.3491 37.3181 46.4432 37.1826 46.6774L37.1439 46.6985C37.0997 46.4036 36.9605 46.1703 36.8223 45.9131C37.0158 45.7897 37.2094 45.6643 37.4085 45.5499Z" fill="#4169E1"/>
<path d="M39.1133 45.6776C39.2148 45.8731 39.3318 46.0602 39.4415 46.251C39.2231 46.3598 38.9999 46.4566 38.7741 46.5497C38.6663 46.369 38.5667 46.1846 38.457 46.0049C38.5492 45.9339 38.6404 45.8629 38.7326 45.7919C38.8598 45.755 38.9861 45.7173 39.1133 45.6776Z" fill="#4169E1"/>
<path d="M79.593 45.6338C79.9203 46.0421 80.2079 46.4772 80.4724 46.9271C80.2429 47.0349 80.0115 47.1327 79.7727 47.2192C79.5552 46.8966 79.3395 46.5731 79.1191 46.2513C79.2777 46.0458 79.4344 45.8393 79.593 45.6338Z" fill="#4169E1"/>
<path d="M38.7343 45.7915C38.6421 45.8625 38.5508 45.9334 38.4586 46.0044C38.3047 46.0689 38.148 46.1234 37.9922 46.1805C38.2227 45.9537 38.4052 45.8302 38.7343 45.7915Z" fill="#4169E1"/>
<path d="M36.805 45.8801L36.8225 45.9133C36.9607 46.1705 37.1 46.4037 37.1442 46.6987C37.0004 46.7817 36.8529 46.8573 36.7045 46.9338C36.6409 46.9052 36.5763 46.8775 36.5119 46.8498C36.4031 46.66 36.3136 46.4636 36.2344 46.2599C36.4224 46.13 36.6095 46 36.805 45.8801Z" fill="#4169E1"/>
<path d="M38.4584 46.0044C38.5681 46.1841 38.6677 46.3685 38.7755 46.5492L38.7949 46.5805C38.1846 46.8192 37.6242 47.1576 37.0167 47.4028C36.9227 47.2617 36.8323 47.1179 36.7383 46.9769L36.7051 46.9336C36.8535 46.857 37.001 46.7815 37.1448 46.6985L37.1835 46.6773C37.4536 46.5907 37.6776 46.4542 37.8896 46.2662C37.9238 46.2376 37.9578 46.209 37.992 46.1804C38.1478 46.1233 38.3044 46.0689 38.4584 46.0044Z" fill="#4169E1"/>
<path d="M37.7736 46.2397L37.8897 46.2665C37.6777 46.4546 37.4537 46.591 37.1836 46.6776C37.3192 46.4435 37.5395 46.3495 37.7736 46.2397Z" fill="#4169E1"/>
<path d="M38.7935 46.5806C38.9253 46.7916 39.0553 47.0045 39.1816 47.2194C38.6183 47.5724 37.986 47.7697 37.4311 48.1366L37.397 48.155C37.2928 47.9015 37.172 47.6591 37.0015 47.4424C36.7785 47.5116 36.5737 47.6176 36.3682 47.7263L36.3194 47.7503C36.265 47.6129 36.2106 47.4756 36.1562 47.3383C36.3388 47.235 36.5065 47.1106 36.6789 46.9907L36.7369 46.9769C36.8309 47.1179 36.9213 47.2617 37.0153 47.4028C37.6228 47.1576 38.1833 46.8193 38.7935 46.5806Z" fill="#4169E1"/>
<path d="M81.2477 46.6118C81.2716 46.681 81.2956 46.7491 81.3177 46.8183C81.326 47.0257 81.3233 47.2331 81.3196 47.4414C81.1886 47.4802 81.0587 47.5198 80.9314 47.5668C80.7886 47.3502 80.6568 47.1262 80.5176 46.9077C80.7545 46.7925 80.9942 46.6865 81.2477 46.6118Z" fill="#4169E1"/>
<path d="M34.5873 47.202L34.6058 47.1919C34.7016 47.4353 34.8104 47.6593 34.9689 47.8694C34.7191 48.0049 34.4766 48.1515 34.2324 48.2963C34.2518 47.9976 34.2388 47.6943 34.2407 47.3947C34.3559 47.3302 34.4721 47.2656 34.5873 47.202Z" fill="#4169E1"/>
<path d="M43.2115 47.2324C43.4908 47.3909 43.7664 47.5541 44.0438 47.7172C43.3055 48.0676 42.5689 48.4307 41.8177 48.7515C41.6887 48.5322 41.5642 48.31 41.4342 48.0915L41.4121 48.0538C42.0251 47.8085 42.6132 47.5135 43.2115 47.2324Z" fill="#4169E1"/>
<path d="M36.1557 47.3384C36.2101 47.4758 36.2645 47.6131 36.3188 47.7504C35.869 47.9855 35.4044 48.1883 34.9536 48.4224C34.8863 48.3395 34.8181 48.2584 34.748 48.1773C35.1814 47.8509 35.6772 47.5928 36.1557 47.3384Z" fill="#4169E1"/>
<path d="M77.4738 47.5707C77.6176 47.7485 77.754 47.9302 77.884 48.1173C77.649 48.2261 77.4258 48.344 77.1825 48.4344C77.0718 48.4325 76.9622 48.4316 76.8516 48.4307C77.0525 48.1394 77.2673 47.8583 77.4738 47.5707Z" fill="#4169E1"/>
<path d="M36.3203 47.7506L36.3692 47.7266C36.4825 47.9543 36.5977 48.1792 36.7443 48.3885C36.9637 48.3147 37.1832 48.2446 37.3979 48.1552L37.432 48.1368C37.7067 48.6198 38.0017 49.0863 38.2487 49.5831C38.033 49.6716 37.8303 49.785 37.6284 49.9021L37.5869 49.9242C37.3288 49.4209 37.0559 48.9111 36.737 48.4438C36.2567 48.617 35.8151 48.8936 35.3533 49.1102L35.3082 49.1324C35.1984 48.8918 35.0933 48.6474 34.9551 48.4226C35.4058 48.1884 35.8704 47.9856 36.3203 47.7506Z" fill="#4169E1"/>
<path d="M80.2073 47.9155L80.2442 47.8989C80.3788 48.1192 80.5133 48.3414 80.6452 48.5635C80.0211 48.8696 79.3666 49.124 78.7592 49.4604C78.9915 49.8328 79.2394 50.1933 79.4533 50.5759C79.2311 50.7039 79.0099 50.833 78.7877 50.9603C78.5278 50.5795 78.3047 50.1739 78.0327 49.8015C77.0077 50.196 76.0416 50.7565 75.0148 51.1492L74.9844 51.0469C75.2756 50.6385 75.5697 50.232 75.8583 49.8218C75.9827 49.8209 76.0951 49.8264 76.2085 49.7674C76.6713 49.5545 77.1312 49.3332 77.594 49.1203L77.6207 49.1083C77.7415 49.3471 77.8743 49.5609 78.041 49.7702C78.2854 49.6761 78.5121 49.5673 78.7241 49.4125C78.5941 49.206 78.4623 48.9996 78.325 48.7977L78.3112 48.7774C78.9528 48.5119 79.575 48.2004 80.2073 47.9155Z" fill="#4169E1"/>
<path d="M77.8831 48.1176L77.9044 48.1084C78.0343 48.3352 78.1616 48.5619 78.3099 48.7776L78.3238 48.7979C78.0869 48.8965 77.8518 48.9989 77.6195 49.1086L77.5927 49.1205C77.4499 48.8957 77.319 48.6634 77.1816 48.4347C77.425 48.3444 77.6481 48.2264 77.8831 48.1176Z" fill="#4169E1"/>
<path d="M81.3207 48.2422C81.3207 48.6643 81.3355 49.0903 81.3087 49.5115C81.0645 49.211 80.87 48.881 80.6699 48.5511C80.8875 48.4496 81.1032 48.3445 81.3207 48.2422Z" fill="#4169E1"/>
<path d="M77.1821 48.4344C77.3194 48.663 77.4503 48.8953 77.5932 49.1202C77.1304 49.3331 76.6705 49.5544 76.2077 49.7673C76.0943 49.8263 75.9819 49.8207 75.8574 49.8217C76.1901 49.3589 76.5275 48.899 76.8511 48.4307C76.9617 48.4316 77.0714 48.4325 77.1821 48.4344Z" fill="#4169E1"/>
<path d="M34.2192 48.457C34.2303 48.5667 34.2441 48.6764 34.2671 48.7842C33.9306 48.9622 33.6089 49.0811 33.2402 49.1751V49.0082C33.5638 48.8193 33.8827 48.6202 34.2192 48.457Z" fill="#4169E1"/>
<path d="M33.3877 50.3369C33.6117 50.7592 33.8513 51.174 34.0707 51.5989C34.2007 51.8487 34.3436 52.0911 34.4818 52.3363C34.6459 52.6479 34.8156 52.9549 34.9889 53.2609C35.0736 53.402 35.105 53.5402 35.1188 53.7024C34.705 53.4656 34.292 53.2268 33.8809 52.9853C33.7748 52.471 33.585 52.14 33.2402 51.75V50.8108C33.2881 50.6522 33.3388 50.4945 33.3877 50.3369Z" fill="#4169E1"/>
<path d="M38.6805 50.2915C38.9542 50.7672 39.229 51.2428 39.5018 51.7194L39.5221 51.7544C39.2557 51.8826 38.9746 51.8955 38.8685 52.2107C38.84 52.2006 38.8104 52.1914 38.7819 52.1821C38.745 51.9747 38.6971 51.7821 38.5819 51.6023C38.3763 51.2687 38.1938 50.9313 38.0195 50.5801C38.2399 50.4841 38.4592 50.3855 38.6805 50.2915Z" fill="#4169E1"/>
<path d="M74.1914 50.3345C74.4514 50.5769 74.7297 50.7991 74.9842 51.0471L75.0146 51.1494L75.0284 51.188C74.7832 51.2858 74.5436 51.3909 74.3066 51.5061L74.29 51.5135C74.1638 51.2941 74.031 51.0775 73.8965 50.8627C74.0237 50.7945 74.1518 50.7272 74.279 50.659C74.2173 50.5898 74.1545 50.5207 74.0919 50.4534C74.1241 50.4129 74.1573 50.3732 74.1914 50.3345Z" fill="#4169E1"/>
<path d="M79.8176 50.3683C80.4195 50.7038 81.0077 51.0624 81.6078 51.4007C80.0499 52.2911 78.4976 53.2065 76.9453 54.1099C75.7359 54.757 74.5734 55.4944 73.3742 56.16C72.8671 56.4356 72.3952 56.7656 71.8781 57.0237C71.2798 56.6818 70.6899 56.3231 70.0879 55.9876C70.2004 55.9176 70.3091 55.8419 70.4207 55.77C70.5304 55.7092 70.6382 55.6493 70.748 55.5885C71.1636 55.3562 71.5794 55.1221 71.9933 54.8842C72.2302 54.7478 72.4671 54.6086 72.704 54.4712C73.3207 54.1154 73.9365 53.7596 74.5541 53.4047C74.78 53.2756 75.0048 53.1438 75.2298 53.0129C75.4814 52.8655 75.7359 52.7225 75.9903 52.5797C76.9185 52.0331 77.8542 51.4993 78.7871 50.9601C79.0092 50.8329 79.2304 50.7038 79.4526 50.5757C79.5743 50.5066 79.695 50.4365 79.8176 50.3683Z" fill="#4169E1"/>
<path d="M48.7874 50.5474L48.7902 50.5483C49.0851 50.7206 49.3737 50.9041 49.6659 51.082C49.1977 51.2958 48.7256 51.5024 48.2648 51.731C48.6906 52.5163 49.1774 53.2704 49.6254 54.0429L49.6493 54.0834C49.4189 54.1977 49.2041 54.3268 48.9792 54.4522L48.9515 54.4669C48.5312 53.6548 48.0325 52.8823 47.5762 52.0895C47.7946 51.9697 48.0076 51.8425 48.2168 51.7051C48.097 51.4848 47.979 51.2636 47.8647 51.0406C48.1873 50.8995 48.5044 50.7603 48.7874 50.5474Z" fill="#4169E1"/>
<path d="M74.0922 50.4536C74.1549 50.5209 74.2176 50.5901 74.2794 50.6592C74.1522 50.7274 74.024 50.7947 73.8968 50.8629L73.8535 50.791C73.9272 50.6748 74.0065 50.5615 74.0922 50.4536Z" fill="#4169E1"/>
<path d="M36.0985 50.6416C36.3466 50.7937 36.5853 50.9642 36.8379 51.1071C36.7383 51.1605 36.6415 51.2159 36.5438 51.2721C36.3327 51.3938 36.1151 51.5016 35.8939 51.6049L35.8571 51.6214C35.7326 51.3845 35.6128 51.1485 35.5391 50.8895C35.7252 50.8048 35.9114 50.7218 36.0985 50.6416Z" fill="#4169E1"/>
<path d="M73.8536 50.791L73.8969 50.8629C74.0315 51.0778 74.1643 51.2943 74.2905 51.5137C74.073 51.6216 73.8536 51.7202 73.6278 51.8078C73.5338 51.7332 73.4397 51.6594 73.3457 51.5856C73.5217 51.3247 73.6859 51.0574 73.8536 50.791Z" fill="#4169E1"/>
<path d="M41.3437 50.8578C41.4802 51.0735 41.6037 51.2993 41.7309 51.5205L41.7494 51.5529C41.1345 51.8192 40.5058 52.1013 39.9187 52.4221C40.0163 52.6184 40.1131 52.8203 40.2229 53.0093C40.0025 52.8803 39.7749 52.7622 39.5536 52.6341C39.6578 52.552 39.7619 52.47 39.867 52.3889C39.7638 52.1704 39.6477 51.9602 39.5223 51.7538L39.502 51.7188C40.1269 51.4542 40.7234 51.1306 41.3437 50.8578Z" fill="#4169E1"/>
<path d="M36.6055 51.2868C36.6865 51.2404 36.767 51.1947 36.8492 51.1504L36.8935 51.1522C37.1298 51.2958 37.3697 51.4326 37.6089 51.5693C37.6579 51.5972 37.7069 51.6252 37.7558 51.6532C38.0262 51.808 38.295 51.964 38.5573 52.1312C38.1831 52.3387 37.7921 52.5072 37.3963 52.6754C37.2805 52.4793 37.1707 52.28 37.0607 52.0801C37.0418 52.0459 37.023 52.0116 37.004 51.9773C36.876 51.7452 36.7462 51.5133 36.6055 51.2868Z" fill="#4169E1" stroke="#4169E1" stroke-width="0.0864198"/>
<path d="M75.0284 51.1875C75.1685 51.4438 75.3409 51.6817 75.4883 51.9342C75.6396 52.1757 75.7437 52.4173 75.9908 52.5795C75.7364 52.7223 75.4819 52.8653 75.2303 53.0127C74.9242 52.5085 74.6081 52.0116 74.3066 51.5055C74.5435 51.3903 74.7832 51.2852 75.0284 51.1875Z" fill="#4169E1"/>
<path d="M36.5444 51.272C36.8431 51.7467 37.091 52.2482 37.3778 52.7302L37.3999 52.7689C37.174 52.8676 36.95 52.9708 36.726 53.075L36.6817 53.0953C36.4366 52.5883 36.1388 52.1117 35.8945 51.6047C36.1158 51.5015 36.3333 51.3937 36.5444 51.272Z" fill="#4169E1"/>
<path d="M47.1558 51.3896C47.2839 51.6109 47.4092 51.834 47.5503 52.0478C46.5833 52.529 45.5942 52.9641 44.6217 53.4333L44.5857 53.4499C44.4595 53.2223 44.3332 52.9955 44.205 52.7696L44.1875 52.7374C45.1895 52.3198 46.1482 51.7953 47.1558 51.3896Z" fill="#4169E1"/>
<path d="M81.6084 51.4012C81.6167 53.5178 81.6295 55.6324 81.6231 57.7489C78.3857 59.6256 75.141 61.4877 71.9045 63.3655C71.8916 62.8824 71.8446 62.4059 71.8676 61.9219C71.9146 60.2893 71.8344 58.655 71.8786 57.0243C72.3958 56.7662 72.8678 56.4361 73.3747 56.1606C74.5741 55.495 75.7364 54.7575 76.9458 54.1104C78.4982 53.2071 80.0505 52.2917 81.6084 51.4012Z" fill="#4169E1"/>
<path d="M74.2907 51.5132L74.3073 51.5059C74.6087 52.0119 74.9249 52.5088 75.2309 53.013C75.0061 53.1439 74.7811 53.2757 74.5553 53.4048C74.2235 52.9005 73.9276 52.3742 73.5966 51.8699C73.4141 51.9272 73.2325 51.9861 73.0527 52.0488C73.1505 51.894 73.2463 51.7382 73.3459 51.5851C73.4399 51.6588 73.5339 51.7326 73.6279 51.8073C73.8538 51.7197 74.0732 51.6211 74.2907 51.5132Z" fill="#4169E1"/>
<path d="M35.4389 51.8791C35.584 51.8078 35.7297 51.7362 35.8745 51.6616C35.9923 51.903 36.1216 52.1375 36.2504 52.371L36.2529 52.3754C36.3807 52.6072 36.508 52.8381 36.6242 53.075C36.5266 53.1208 36.4285 53.1651 36.3305 53.2092C35.9773 53.3684 35.6246 53.5274 35.2998 53.7584C35.2853 53.75 35.2708 53.7415 35.2563 53.7329C35.224 53.7141 35.1919 53.6953 35.1598 53.6767C35.1446 53.5201 35.1112 53.3813 35.0261 53.2396C34.8598 52.9458 34.6969 52.6512 34.5391 52.3527C34.8293 52.1787 35.1331 52.0294 35.4389 51.8791Z" fill="#4169E1" stroke="#4169E1" stroke-width="0.0864198"/>
<path d="M33.2832 52.5921V51.8668C33.5559 52.1912 33.7184 52.484 33.8172 52.8994C33.7629 52.8683 33.7086 52.8378 33.6546 52.8074C33.5295 52.7371 33.4053 52.6672 33.2832 52.5921Z" fill="#4169E1" stroke="#4169E1" stroke-width="0.0864198"/>
<path d="M39.0449 52.3564C39.2164 52.4449 39.3851 52.539 39.5529 52.6339C39.7741 52.762 40.0018 52.88 40.2221 53.0091C40.2636 53.0478 40.3051 53.0865 40.3456 53.1252C40.518 53.5271 40.7484 53.8977 40.9356 54.2922C40.7217 54.3946 40.507 54.4959 40.2903 54.5937C39.8986 54.0074 39.5833 53.3722 39.2321 52.7602C39.1638 52.6283 39.103 52.4928 39.0449 52.3564Z" fill="#4169E1"/>
<path d="M37.4005 52.7695C37.5267 52.989 37.6456 53.2129 37.7581 53.4397C37.5304 53.5448 37.311 53.6655 37.0833 53.7724L37.0391 53.7927C36.9423 53.5503 36.8446 53.3088 36.7266 53.0755C36.9506 52.9714 37.1746 52.8681 37.4005 52.7695Z" fill="#4169E1"/>
<path d="M38.1151 53.3109C38.4766 53.1309 38.8327 52.9537 39.213 52.8138C39.3181 52.9979 39.4205 53.1846 39.5231 53.3716C39.7515 53.7881 39.981 54.2066 40.244 54.6021C39.7905 54.7729 39.354 54.9923 38.9232 55.2087C38.8898 55.2255 38.8563 55.2422 38.823 55.259C38.6858 55.0163 38.5512 54.7709 38.4163 54.5253C38.2201 54.1679 38.0235 53.8097 37.8184 53.4578C37.9181 53.409 38.0168 53.3599 38.1151 53.3109Z" fill="#4169E1" stroke="#4169E1" stroke-width="0.0864198"/>
<path d="M36.6807 53.095L36.725 53.0747C36.8429 53.308 36.9407 53.5494 37.0375 53.7919C36.6936 53.9412 36.3728 54.121 36.0097 54.2196C35.8732 54.1431 35.7377 54.0657 35.6032 53.9863C35.5017 53.9274 35.4013 53.8684 35.3008 53.8094C35.7294 53.4988 36.2069 53.3199 36.6807 53.095Z" fill="#4169E1"/>
<path d="M40.6732 53.6916C40.5894 53.5346 40.5074 53.3779 40.4336 53.2173C40.8473 53.4236 41.2482 53.6494 41.6274 53.9121C41.4801 53.9792 41.335 54.0505 41.1904 54.1215C41.1122 54.1599 41.0342 54.1981 40.9562 54.2357C40.8805 54.079 40.7985 53.9258 40.7171 53.7737C40.7024 53.7463 40.6878 53.7189 40.6732 53.6916Z" fill="#4169E1" stroke="#4169E1" stroke-width="0.0864198"/>
<path d="M37.7587 53.4395C38.121 54.058 38.4538 54.6931 38.8068 55.3162C38.6593 55.3964 38.5137 55.4803 38.3681 55.5651C38.2003 55.4739 38.0353 55.379 37.8694 55.283C37.6509 54.753 37.3394 54.2839 37.084 53.7723C37.3117 53.6653 37.531 53.5445 37.7587 53.4395Z" fill="#4169E1"/>
<path d="M44.5854 53.4502L44.6213 53.4336C44.8472 53.9212 45.1348 54.3655 45.3957 54.8347C45.6483 55.2643 45.8685 55.7021 46.1469 56.1123C46.1967 56.1888 46.2456 56.2654 46.2926 56.3428L46.3267 56.4073C46.2096 56.4147 46.0907 56.4304 45.9736 56.4239C45.7044 56.2267 45.5284 55.9897 45.1671 55.9685C45.1292 55.9049 45.0896 55.8413 45.0509 55.7777C44.684 55.0937 44.2692 54.4365 43.918 53.7442C44.1402 53.6446 44.3651 53.5534 44.5854 53.4502Z" fill="#4169E1"/>
<path d="M52.5727 53.457C52.722 53.6718 52.8621 53.8903 52.993 54.117C52.7625 54.2249 52.5348 54.3383 52.3035 54.4443L52.2648 54.4618C52.1403 54.2304 52.014 54.0009 51.8813 53.7741L51.8555 53.7308C52.0905 53.6267 52.3274 53.5354 52.5727 53.457Z" fill="#4169E1"/>
<path d="M72.1117 53.5C72.3201 53.8171 72.5109 54.1462 72.7053 54.4716C72.4684 54.6089 72.2316 54.7482 71.9946 54.8845C71.8969 54.6514 71.7836 54.4421 71.6406 54.2319C71.7964 53.9867 71.9531 53.7434 72.1117 53.5Z" fill="#4169E1"/>
<path d="M37.0562 53.8319L37.0633 53.8286C37.1571 54.014 37.258 54.1942 37.3581 54.3731C37.3895 54.4293 37.4209 54.4854 37.4519 54.5414C37.5688 54.7525 37.6819 54.9643 37.7798 55.1851C37.5044 55.0336 37.2331 54.8745 36.9614 54.7148L36.9418 54.7033C36.6707 54.544 36.3991 54.3845 36.123 54.232C36.3468 54.1612 36.5571 54.0626 36.7661 53.9646C36.8627 53.9193 36.959 53.8741 37.0562 53.8319Z" fill="#4169E1" stroke="#4169E1" stroke-width="0.0864198"/>
<path d="M41.7153 53.9199L41.7402 53.9089L41.7706 53.896C42.0287 54.061 42.2812 54.2316 42.5495 54.379L42.5854 54.3984C42.1854 54.5652 41.801 54.7643 41.4138 54.9579C41.1853 54.7764 41.0931 54.5302 40.9668 54.2786C41.2165 54.1587 41.4618 54.0325 41.7153 53.9199Z" fill="#4169E1"/>
<path d="M67.9386 53.912C68.1405 53.9737 68.3323 54.0567 68.5268 54.135C68.241 54.3498 67.971 54.4724 67.6289 54.5692C67.734 54.3507 67.829 54.1277 67.9386 53.912Z" fill="#4169E1"/>
<path d="M36.0266 59.1698C36.0159 57.691 36.024 56.2075 36.0326 54.7251C36.2557 54.8508 36.4778 54.9813 36.704 55.1142L36.7208 55.124C37.0257 55.3032 37.3381 55.4864 37.6578 55.6594C37.8219 55.7542 37.9896 55.8506 38.161 55.9439L38.1644 55.9457C38.4297 56.0869 38.6889 56.234 38.9393 56.3906L38.9418 56.3921C39.543 56.7624 40.1623 57.1151 40.7739 57.4635C41.0775 57.6364 41.3792 57.8082 41.6758 57.9806C42.0799 58.2247 42.4876 58.4609 42.8968 58.6926C42.9547 58.7282 43.0004 58.7574 43.0467 58.7872C43.0377 59.0768 43.0391 59.3634 43.0404 59.6413C43.0422 60.0048 43.0438 60.3539 43.0253 60.7005L43.0247 60.7093L43.0247 60.7181C43.0193 61.1376 43.0236 61.5447 43.0279 61.946C43.0324 62.3713 43.0368 62.79 43.0296 63.2102C40.6984 61.8584 38.3632 60.5122 36.0266 59.1698Z" fill="#4169E1" stroke="#4169E1" stroke-width="0.864198"/>
<path d="M52.9923 54.1172L53.0199 54.1052C53.1278 54.3458 53.2107 54.5818 53.3877 54.7837C53.1564 54.9155 52.9204 55.0289 52.6743 55.1302C52.5443 54.9044 52.4235 54.6749 52.3027 54.4444C52.5342 54.3385 52.7618 54.2251 52.9923 54.1172Z" fill="#4169E1"/>
<path d="M40.9363 54.293L40.9667 54.2792C41.093 54.5308 41.1852 54.777 41.4138 54.9585L41.3465 54.9889C41.1225 55.0857 40.8994 55.1843 40.6791 55.2886L40.6395 55.307C40.5252 55.0811 40.421 54.8507 40.3076 54.6249L40.291 54.5944C40.5077 54.4967 40.7224 54.3953 40.9363 54.293Z" fill="#4169E1"/>
<path d="M68.9629 54.2935C69.3455 54.4437 69.728 54.5939 70.1115 54.7423C70.1935 55.0263 70.3253 55.3987 70.577 55.5757L70.7494 55.5885C70.6397 55.6494 70.5318 55.7094 70.4221 55.7702C70.2285 55.831 70.0349 55.8891 69.8496 55.9739C69.5778 55.5462 69.327 55.1055 69.067 54.6704C68.9905 54.5515 68.9721 54.4326 68.9629 54.2935Z" fill="#4169E1"/>
<path d="M42.1724 56.3842C41.9204 55.9241 41.6679 55.4636 41.4062 55.0084L41.4301 54.9977L41.4317 54.9969C41.4887 54.9684 41.5457 54.9397 41.6027 54.9111C41.9262 54.7485 42.2483 54.5866 42.581 54.4468L42.6262 54.4724C42.7774 54.5562 42.9289 54.641 43.08 54.7257C43.2888 54.8427 43.4977 54.9597 43.7068 55.0746L43.7803 55.144C43.944 55.4685 44.1213 55.7852 44.2991 56.1006C44.3106 56.121 44.3221 56.1413 44.3335 56.1617C44.4936 56.4455 44.6533 56.7287 44.8037 57.0172C44.4977 57.147 44.198 57.2891 43.8997 57.4324C43.8609 57.4511 43.8222 57.4697 43.7834 57.4884C43.5215 57.6144 43.2604 57.7401 42.9954 57.8584C42.7225 57.3872 42.4603 56.9095 42.1981 56.4311C42.1896 56.4155 42.181 56.3999 42.1724 56.3842Z" fill="#4169E1" stroke="#4169E1" stroke-width="0.0864198"/>
<path d="M52.2641 54.4618L52.3028 54.4443C52.4236 54.6747 52.5443 54.9043 52.6743 55.1302L52.6881 55.1551C52.053 55.4205 51.4197 55.7155 50.8058 56.028C50.922 56.2861 51.0593 56.5303 51.2096 56.7701C50.9726 56.9028 50.7403 57.0438 50.5052 57.1821C50.3873 56.9046 50.2518 56.6364 50.0813 56.3865C49.9485 56.4225 49.8194 56.4686 49.695 56.5285C48.8211 56.9553 47.9316 57.3489 47.0568 57.7748C46.9268 57.5434 46.795 57.3139 46.6641 57.0834C47.6596 56.6022 48.6662 56.1451 49.6646 55.6703L49.6996 55.6537C49.8038 55.9045 49.9255 56.1331 50.096 56.3451C50.3237 56.2455 50.5449 56.1376 50.7624 56.0197C50.6454 55.7902 50.5218 55.5652 50.3873 55.3459L50.3772 55.3283C51.015 55.0591 51.6327 54.7439 52.2641 54.4618Z" fill="#4169E1"/>
<path d="M40.3076 54.6245C40.421 54.8503 40.5251 55.0808 40.6394 55.3066C40.1509 55.55 39.6531 55.7749 39.1682 56.0247C38.9073 55.8615 38.6391 55.7094 38.3672 55.5648C38.5128 55.4799 38.6584 55.3961 38.8059 55.3159C39.2972 55.0697 39.7914 54.8144 40.3076 54.6245Z" fill="#4169E1"/>
<path d="M53.3873 54.7837C53.5791 54.9791 53.6344 55.0814 53.6565 55.3598C53.4509 55.4713 53.2463 55.581 53.0463 55.7009C52.9219 55.5221 52.8002 55.3423 52.6877 55.1551L52.6738 55.1302C52.92 55.0289 53.156 54.9155 53.3873 54.7837Z" fill="#4169E1"/>
<path d="M41.3471 54.9888C41.9048 55.9557 42.4191 56.9485 42.9797 57.9136C43.0322 58.0473 43.0746 58.1837 43.117 58.3211C42.7067 58.0888 42.2994 57.8528 41.8965 57.6095C41.5306 56.814 41.0318 56.0885 40.6797 55.2883C40.9001 55.1842 41.1231 55.0856 41.3471 54.9888Z" fill="#4169E1"/>
<path d="M59.1609 55.015C59.2374 55.0224 59.3149 55.0307 59.3932 55.0409C59.5867 55.4999 59.82 55.9636 60.1371 56.3517C60.574 56.1516 61.0045 55.9378 61.4451 55.746C61.6359 55.6621 61.8038 55.5442 61.9678 55.417C62.4693 55.4843 62.9708 55.5552 63.4704 55.641C63.1016 55.8871 62.696 56.0401 62.2996 56.2309C61.6968 56.5166 61.0884 56.7914 60.4892 57.0855L60.456 57.1011C60.3713 56.8532 60.267 56.619 60.1149 56.4033C59.8633 56.4605 59.6357 56.5692 59.4034 56.6798L59.3655 56.6116C59.1075 56.1857 58.865 55.7543 58.6309 55.3146C58.8069 55.2114 58.9784 55.1063 59.1609 55.015Z" fill="#4169E1"/>
<path d="M64.504 54.9737C64.5907 54.9654 64.6791 54.9765 64.7676 55.0069C64.6598 55.1563 64.5666 55.2475 64.373 55.2005C64.4062 55.1175 64.4505 55.042 64.504 54.9737Z" fill="#4169E1"/>
<path d="M64.7664 55.0073C65.2264 55.1179 65.6863 55.2295 66.1464 55.3383C65.6255 55.5189 65.1277 55.7816 64.6346 56.0278C64.9388 56.6703 65.3333 57.2714 65.6762 57.8936L65.6901 57.9185C65.4402 58.0208 65.1932 58.1277 64.9507 58.2448C64.6254 57.6198 64.2668 56.9948 63.9073 56.3882C63.6842 56.4473 63.4805 56.5468 63.2749 56.6491C62.4794 57.0289 61.6747 57.3911 60.8819 57.7765C60.7492 57.5469 60.6173 57.3174 60.4883 57.0861C61.0874 56.792 61.6958 56.5172 62.2987 56.2315C62.6951 56.0407 63.1007 55.8877 63.4694 55.6416L63.5376 55.6499C63.6335 55.9043 63.7469 56.1356 63.922 56.3467C64.1479 56.2481 64.3672 56.1421 64.5829 56.0232C64.476 55.8148 64.3755 55.6038 64.2742 55.3927C64.3073 55.3291 64.3396 55.2655 64.3719 55.2009C64.5655 55.2479 64.6586 55.1567 64.7664 55.0073Z" fill="#4169E1"/>
<path d="M67.3656 55.0851C67.6928 55.6059 68.0007 56.1415 68.2956 56.6807C68.0726 56.771 67.8551 56.8761 67.6394 56.984C67.6744 57.1011 67.7085 57.2181 67.7435 57.3352C67.1361 57.6892 66.524 58.0367 65.9174 58.3934C65.8455 58.233 65.7727 58.0736 65.6916 57.9178L65.6777 57.8929C66.028 57.7463 66.37 57.5805 66.7138 57.4191C67.0116 57.2771 67.3139 57.1712 67.5804 56.9702C67.3729 56.6005 67.1572 56.2373 66.9397 55.8732C66.8613 55.7524 66.8383 55.6409 66.8282 55.4989C66.9295 55.5211 67.031 55.5432 67.1324 55.5645C67.2088 55.4041 67.2854 55.2437 67.3656 55.0851Z" fill="#4169E1"/>
<path d="M52.689 55.1553C52.8015 55.3425 52.9231 55.5222 53.0476 55.701C52.4844 56.0872 51.8612 56.361 51.286 56.727L51.2104 56.7703C51.0602 56.5306 50.9228 56.2863 50.8066 56.0283C51.4206 55.7158 52.0538 55.4208 52.689 55.1553Z" fill="#4169E1"/>
<path d="M41.2732 56.5235C41.4555 56.8472 41.6371 57.1696 41.7974 57.5029C41.5316 57.3492 41.265 57.1973 40.9985 57.0456C40.4136 56.7124 39.8293 56.3797 39.2559 56.0284C39.5129 55.8976 39.7721 55.7736 40.0319 55.6493C40.2402 55.5497 40.4488 55.4499 40.6569 55.3463C40.8303 55.7339 41.037 56.1041 41.2441 56.472C41.2538 56.4892 41.2635 56.5063 41.2732 56.5235Z" fill="#4169E1" stroke="#4169E1" stroke-width="0.0864198"/>
<path d="M64.2756 55.3923C64.377 55.6034 64.4775 55.8145 64.5844 56.0229C64.3687 56.1418 64.1493 56.2477 63.9235 56.3464C63.7483 56.1353 63.6349 55.9039 63.5391 55.6495C63.7243 55.6725 63.9096 55.6956 64.0949 55.7187C64.1548 55.6099 64.2156 55.5011 64.2756 55.3923Z" fill="#4169E1"/>
<path d="M70.4207 55.7705C70.3092 55.8424 70.2004 55.9179 70.088 55.988C69.6317 56.2535 69.1735 56.5162 68.7172 56.7835C68.3909 56.9642 68.0655 57.1477 67.7429 57.3357C67.7078 57.2186 67.6738 57.1015 67.6387 56.9845C67.8544 56.8767 68.072 56.7716 68.295 56.6812C68.8242 56.471 69.3376 56.224 69.8483 55.9742C70.0335 55.8893 70.2271 55.8313 70.4207 55.7705Z" fill="#4169E1"/>
<path d="M45.9727 56.4242C46.0897 56.4306 46.2086 56.4149 46.3257 56.4076C46.44 56.6352 46.5303 56.8667 46.6253 57.1027C46.4077 57.205 46.1874 57.2999 45.9689 57.4012C45.8261 57.1626 45.6906 56.9201 45.5559 56.6758C45.4279 56.4398 45.3034 56.201 45.166 55.9688C45.5274 55.99 45.7035 56.2269 45.9727 56.4242Z" fill="#4169E1"/>
<path d="M70.6423 58.4223L70.6424 58.4198C70.6424 58.3941 70.6426 58.367 70.6428 58.3389C70.6445 58.1617 70.6465 57.9414 70.5905 57.747L70.5723 57.6841L70.5172 57.6489C70.1786 57.4334 69.8252 57.2292 69.4758 57.0273C69.3357 56.9463 69.1963 56.8657 69.0586 56.7849C69.2464 56.6755 69.4343 56.5669 69.6222 56.4582C69.7781 56.368 69.9342 56.2778 70.0904 56.187C70.4117 56.3675 70.7268 56.5524 71.0436 56.7382C71.262 56.8664 71.4812 56.995 71.7036 57.1228C71.685 57.898 71.6932 58.6733 71.7013 59.4455L71.7017 59.4741C71.7103 60.2905 71.7185 61.1033 71.6952 61.9151C71.6794 62.2479 71.6962 62.5841 71.7125 62.9109C71.7151 62.9617 71.7176 63.0123 71.7201 63.0626C71.3624 62.8591 71.007 62.6512 70.6517 62.4416C70.6517 61.9337 70.6477 61.4278 70.6435 60.9227C70.6368 60.0888 70.6301 59.2572 70.6423 58.4223Z" fill="#4169E1" stroke="#4169E1" stroke-width="0.345679"/>
<path d="M50.0812 56.3872C50.2517 56.637 50.3872 56.9053 50.5051 57.1828C49.5502 57.7229 48.608 58.2871 47.6549 58.831C47.4438 58.4853 47.2558 58.1276 47.0566 57.7755C47.9315 57.3496 48.821 56.956 49.6949 56.5292C49.8193 56.4693 49.9484 56.4232 50.0812 56.3872Z" fill="#4169E1"/>
<path d="M45.5574 56.6758C45.692 56.9201 45.8275 57.1625 45.9703 57.4013C45.7463 57.5082 45.5233 57.6178 45.2947 57.7156L45.2541 57.734C45.1296 57.4999 45.0099 57.2648 44.8965 57.0252C45.1251 56.9237 45.3398 56.7975 45.5574 56.6758Z" fill="#4169E1"/>
<path d="M51.2101 56.7708L51.2857 56.7275L51.282 56.8427C51.283 57.2317 51.2857 57.6208 51.2866 58.0098C51.2848 58.4771 51.2802 58.9435 51.2913 59.41C49.9141 60.1954 48.5452 61.0001 47.1754 61.7984L47.1772 61.8657C46.9385 61.8859 46.7126 62.0731 46.5043 62.1856C45.4857 62.7728 44.4726 63.3747 43.4494 63.9536L43.4355 63.9462C43.4964 62.876 43.443 61.7966 43.4568 60.7245C43.4955 60.0018 43.4494 59.2791 43.489 58.5564C43.784 58.7131 44.0808 58.8661 44.3666 59.0394C44.8459 59.3243 45.3345 59.5934 45.8083 59.8865C45.9752 59.8073 46.1356 59.7197 46.2932 59.6229C46.5301 59.4782 46.7771 59.3519 47.0177 59.2145C47.2297 59.0855 47.4399 58.9546 47.6556 58.8311C48.6088 58.2872 49.5509 57.7231 50.5059 57.1829C50.741 57.0446 50.9733 56.9036 51.2101 56.7708Z" fill="#4169E1"/>
<path d="M68.7172 56.7832C69.2833 57.1243 69.8658 57.4396 70.4235 57.7945C69.1569 58.5319 67.8968 59.2795 66.6174 60.0022C66.2081 60.2806 65.7592 60.4843 65.337 60.7405C63.8086 61.6513 62.2591 62.5215 60.7178 63.4092C60.2854 63.1585 59.8494 62.9142 59.4236 62.6515C59.2512 62.5464 59.0852 62.4542 58.877 62.4515C58.9876 62.3887 59.1 62.327 59.2106 62.2643C59.8061 61.9177 60.4016 61.5711 61.0008 61.231C61.2322 61.0992 61.4626 60.9664 61.6922 60.8318C62.9034 60.1524 64.0898 59.4325 65.2992 58.7486C65.5047 58.6296 65.7103 58.5116 65.9168 58.3936C66.5234 58.0369 67.1354 57.6894 67.7429 57.3354C68.0655 57.1474 68.3909 56.9639 68.7172 56.7832Z" fill="#4169E1"/>
<path d="M44.8645 57.0392L44.895 57.0254C45.0083 57.265 45.1281 57.5001 45.2526 57.7343C44.6608 58.0071 44.0819 58.3316 43.4652 58.5427C43.3481 58.4699 43.2329 58.3933 43.1158 58.3214C43.0734 58.1841 43.0311 58.0476 42.9785 57.914C43.6127 57.6328 44.2248 57.3075 44.8645 57.0392Z" fill="#4169E1"/>
<path d="M58.69 57.0361L58.725 57.0195C58.8412 57.2592 58.961 57.496 59.0837 57.7321C58.6402 57.9523 58.1895 58.1579 57.7433 58.3746L57.6797 58.405C57.688 58.1036 57.6907 57.803 57.6871 57.5025C58.0217 57.3486 58.3554 57.191 58.69 57.0361Z" fill="#4169E1"/>
<path d="M46.6251 57.1019L46.6638 57.0835C46.7948 57.314 46.9265 57.5435 47.0565 57.7749C46.8233 57.8799 46.5117 57.9528 46.3919 58.197L46.3495 58.116C46.2287 57.8735 46.1126 57.6301 45.9688 57.4006C46.1872 57.2992 46.4076 57.2042 46.6251 57.1019Z" fill="#4169E1"/>
<path d="M45.9687 57.4009C46.1125 57.6304 46.2286 57.8738 46.3494 58.1162C46.1244 58.2148 45.9014 58.318 45.6783 58.4204L45.6285 58.4425C45.5087 58.2037 45.4036 57.9585 45.293 57.7152C45.5215 57.6174 45.7447 57.5078 45.9687 57.4009Z" fill="#4169E1"/>
<path d="M57.6852 57.502C57.689 57.8024 57.6862 58.1029 57.6779 58.4044C57.5101 58.4827 57.3423 58.5629 57.1764 58.6449L57.1294 58.668C57.0418 58.4071 56.9469 58.1509 56.8086 57.9121C57.1027 57.7785 57.3939 57.642 57.6852 57.502Z" fill="#4169E1"/>
<path d="M45.2541 57.7343L45.2947 57.7158C45.4054 57.9592 45.5105 58.2044 45.6302 58.4431C45.2053 58.6331 44.7868 58.8368 44.3674 59.0396C44.0816 58.8662 43.7848 58.7133 43.4898 58.5565L43.4668 58.5427C44.0835 58.3316 44.6623 58.0071 45.2541 57.7343Z" fill="#4169E1"/>
<path d="M59.0835 57.7324L59.1195 57.7158C59.219 57.9702 59.3195 58.2108 59.4964 58.4229C59.7204 58.3178 59.9491 58.2228 60.1749 58.1215L60.197 58.1113C60.5279 58.7437 60.8902 59.3604 61.2157 59.9955C60.9824 60.1089 60.7474 60.2177 60.5068 60.3153C60.139 59.7042 59.8597 59.0258 59.4403 58.4487C58.853 58.7299 58.2548 58.9907 57.6777 59.2921C57.7423 58.9889 57.7459 58.6837 57.7432 58.3749C58.1893 58.1583 58.6401 57.9528 59.0835 57.7324Z" fill="#4169E1"/>
<path d="M47.0572 57.7754C47.2563 58.1275 47.4444 58.4852 47.6554 58.8308C47.4397 58.9543 47.2296 59.0852 47.0176 59.2143C46.7576 58.9101 46.6129 58.5367 46.3926 58.1975C46.5124 57.9532 46.824 57.8805 47.0572 57.7754Z" fill="#4169E1"/>
<path d="M60.8821 57.7764C61.2296 58.3977 61.5762 59.02 61.9136 59.6468L61.9302 59.6762C61.6933 59.7758 61.4583 59.88 61.226 59.9897L61.2139 59.9952C60.8886 59.3601 60.5263 58.7434 60.1953 58.111C60.4248 57.9995 60.647 57.8778 60.8821 57.7764Z" fill="#4169E1"/>
<path d="M70.4234 57.7949C70.4797 57.9904 70.4686 58.2172 70.4686 58.4199C70.4483 59.7935 70.4797 61.1669 70.4778 62.5404C70.4603 63.0714 70.4705 63.6042 70.4705 64.1352C67.2312 66.0157 63.9828 67.886 60.7389 69.7582H60.6836L60.6882 69.7214C60.773 69.2983 60.6965 68.8926 60.7067 68.4677C60.761 66.7826 60.6873 65.0929 60.7177 63.4097C62.2589 62.522 63.8085 61.6518 65.3369 60.7411C65.7591 60.4848 66.208 60.281 66.6173 60.0027C67.8968 59.28 69.1569 58.5324 70.4234 57.7949Z" fill="#4169E1"/>
<path d="M46.3507 58.1167L46.3932 58.1978C46.6135 58.537 46.7582 58.9104 47.0182 59.2146C46.7776 59.3519 46.5305 59.4782 46.2936 59.6229C46.1627 59.363 46.0153 59.1132 45.8723 58.8597C45.8097 58.7131 45.747 58.5657 45.6797 58.4209C45.9027 58.3186 46.1259 58.2153 46.3507 58.1167Z" fill="#4169E1"/>
<path d="M64.9513 58.2446C65.0638 58.4152 65.1763 58.5848 65.2989 58.7489C64.0895 59.4329 62.9031 60.1528 61.6918 60.8322L61.6209 60.7114L61.5996 60.6754C61.8338 60.5759 62.0559 60.4644 62.2763 60.3372C62.1767 60.1077 62.0587 59.8901 61.9306 59.6763L61.914 59.6467C62.9408 59.2172 63.9383 58.7084 64.9513 58.2446Z" fill="#4169E1"/>
<path d="M45.6463 58.4818L45.657 58.4771C45.7131 58.5994 45.7662 58.7237 45.8194 58.848C45.8221 58.8545 45.8249 58.8609 45.8276 58.8673C45.8208 59.1358 45.8008 59.4003 45.7805 59.6677C45.7767 59.7157 45.7731 59.7637 45.7696 59.8118C45.5008 59.6471 45.2269 59.489 44.9536 59.3313C44.7874 59.2355 44.6215 59.1397 44.457 59.0426C44.4641 59.0392 44.4712 59.0358 44.4782 59.0324C44.8664 58.8446 45.2536 58.6572 45.6463 58.4818Z" fill="#4169E1" stroke="#4169E1" stroke-width="0.0864198"/>
<path d="M57.1305 58.6687L57.1775 58.6456C57.3287 58.8982 57.3895 59.1637 57.6771 59.2918L57.6403 59.3093C57.3932 59.4209 57.1425 59.525 56.8954 59.6357L56.853 59.655C56.7341 59.4255 56.6217 59.195 56.5156 58.9591C56.7222 58.8651 56.9268 58.7673 57.1305 58.6687Z" fill="#4169E1"/>
<path d="M45.8722 58.8594C46.0151 59.1128 46.1626 59.3627 46.2935 59.6226C46.1359 59.7194 45.9755 59.807 45.8086 59.8862C45.8335 59.5424 45.8639 59.2041 45.8722 58.8594Z" fill="#4169E1"/>
<path d="M54.6173 58.9707C54.7372 59.1983 54.8515 59.4288 54.9722 59.6556L54.9888 59.6888C54.7464 59.7865 54.5049 59.8851 54.2698 59.9985C54.1361 59.7773 54.0061 59.5542 53.8872 59.3247L53.8633 59.2777C54.1149 59.1762 54.3666 59.0739 54.6173 58.9707Z" fill="#4169E1"/>
<path d="M53.8887 59.3251C54.0076 59.5546 54.1376 59.7777 54.2712 59.999L54.1836 60.0413C53.861 60.2027 53.5347 60.3557 53.212 60.5152C52.9374 60.3585 52.6626 60.2009 52.3926 60.0349C52.8839 59.7814 53.3743 59.5297 53.8887 59.3251Z" fill="#4169E1"/>
<path d="M57.6413 59.3091C57.6625 59.4049 57.6837 59.4999 57.7049 59.5948C57.6671 60.0963 57.7215 60.6014 57.6422 61.0956C57.3721 60.6254 57.0744 60.1498 56.8965 59.6354C57.1436 59.5248 57.3943 59.4206 57.6413 59.3091Z" fill="#4169E1"/>
<path d="M53.2123 60.5146L52.9947 60.888L52.9964 60.889C53.2736 61.0506 53.5515 61.2125 53.8293 61.3735C54.0333 61.4937 54.2414 61.6138 54.4475 61.7327C54.5831 61.811 54.7178 61.8888 54.8498 61.9657C55.2585 62.2082 55.67 62.4466 56.0867 62.6791L56.1042 62.6902L56.1098 62.6936C56.2799 62.7977 56.4516 62.8987 56.6195 62.9973C56.6361 63.0071 56.6527 63.0168 56.6692 63.0266C56.8541 63.1352 57.0344 63.2418 57.2113 63.3519L57.2279 63.3622L57.2453 63.371C57.2586 63.3777 57.2716 63.3857 57.3053 63.4061L57.3072 63.4072C57.3346 63.4239 57.3839 63.4538 57.4404 63.4786C57.5827 63.5413 57.7657 63.5699 57.97 63.4865L58.0026 63.4731L58.0327 63.4547C58.2376 63.3288 58.4385 63.2069 58.6415 63.092L58.6464 63.0892C58.7162 63.0485 58.7775 63.0116 58.8361 62.9765C58.8799 62.9501 58.922 62.9248 58.9649 62.8995C59.0213 62.918 59.0912 62.9544 59.1985 63.0198C59.5191 63.2175 59.8475 63.4063 60.1691 63.5912C60.207 63.6129 60.245 63.6347 60.2826 63.6564C60.2744 64.3326 60.2809 65.009 60.2875 65.68C60.2882 65.7672 60.2891 65.8544 60.2899 65.9414C60.2978 66.7849 60.3025 67.6206 60.2756 68.4531L60.2755 68.4568C60.2716 68.6223 60.2799 68.7951 60.2872 68.9468C60.288 68.9621 60.2887 68.9772 60.2894 68.992C59.0701 68.2887 57.8547 67.5813 56.6384 66.8734C55.6241 66.283 54.6092 65.6922 53.591 65.1033C52.7424 64.6064 51.8941 64.1148 51.0467 63.6236C50.0204 63.0287 48.9953 62.4347 47.9727 61.8329C48.087 61.7661 48.2012 61.6994 48.3155 61.6327C49.3087 61.0528 50.3006 60.4736 51.2968 59.9038C51.3975 59.9599 51.4986 60.0182 51.6021 60.0783C51.6194 60.0883 51.6369 60.0984 51.6543 60.1085C51.8059 60.1965 51.9634 60.288 52.1239 60.3752L52.1594 60.398L52.1666 60.4025C52.4433 60.5725 52.7235 60.7333 52.9981 60.8899L53.2123 60.5146ZM53.2123 60.5146L53.2139 60.5157C53.4918 60.6775 53.7696 60.8395 54.0474 61.0005M53.2123 60.5146C52.9376 60.3579 52.6628 60.2003 52.3928 60.0344L54.0474 61.0005M54.0474 61.0005C54.251 61.1204 54.4554 61.2385 54.66 61.3565C54.7964 61.4352 54.9327 61.5139 55.0688 61.5931C55.479 61.8365 55.891 62.0753 56.3077 62.3076L54.0474 61.0005Z" fill="#4169E1"/>
<path d="M53.2123 60.5146L52.9947 60.888L52.9964 60.889C53.2736 61.0506 53.5515 61.2125 53.8293 61.3735C54.0333 61.4937 54.2414 61.6138 54.4475 61.7327C54.5831 61.811 54.7178 61.8888 54.8498 61.9657C55.2585 62.2082 55.67 62.4466 56.0867 62.6791L56.1042 62.6902L56.1098 62.6936C56.2799 62.7977 56.4516 62.8987 56.6195 62.9973C56.6361 63.0071 56.6527 63.0168 56.6692 63.0266C56.8541 63.1352 57.0344 63.2418 57.2113 63.3519L57.2279 63.3622L57.2453 63.371C57.2586 63.3777 57.2716 63.3857 57.3053 63.4061L57.3072 63.4072C57.3346 63.4239 57.3839 63.4538 57.4404 63.4786C57.5827 63.5413 57.7657 63.5699 57.97 63.4865L58.0026 63.4731L58.0327 63.4547C58.2376 63.3288 58.4385 63.2069 58.6415 63.092L58.6464 63.0892C58.7162 63.0485 58.7775 63.0116 58.8361 62.9765C58.8799 62.9501 58.922 62.9248 58.9649 62.8995C59.0213 62.918 59.0912 62.9544 59.1985 63.0198C59.5191 63.2175 59.8475 63.4063 60.1691 63.5912C60.207 63.6129 60.245 63.6347 60.2826 63.6564C60.2744 64.3326 60.2809 65.009 60.2875 65.68C60.2882 65.7672 60.2891 65.8544 60.2899 65.9414C60.2978 66.7849 60.3025 67.6206 60.2756 68.4531L60.2755 68.4568C60.2716 68.6223 60.2799 68.7951 60.2872 68.9468C60.288 68.9621 60.2887 68.9772 60.2894 68.992C59.0701 68.2887 57.8547 67.5813 56.6384 66.8734C55.6241 66.283 54.6092 65.6922 53.591 65.1033C52.7424 64.6064 51.8941 64.1148 51.0467 63.6236C50.0204 63.0287 48.9953 62.4347 47.9727 61.8329C48.087 61.7661 48.2012 61.6994 48.3155 61.6327C49.3087 61.0528 50.3006 60.4736 51.2968 59.9038C51.3975 59.9599 51.4986 60.0182 51.6021 60.0783C51.6194 60.0883 51.6369 60.0984 51.6543 60.1085C51.8059 60.1965 51.9634 60.288 52.1239 60.3752L52.1594 60.398L52.1666 60.4025C52.4433 60.5725 52.7235 60.7333 52.9981 60.8899L53.2123 60.5146ZM53.2123 60.5146L53.2139 60.5157C53.4918 60.6775 53.7696 60.8395 54.0474 61.0005M53.2123 60.5146C52.9376 60.3579 52.6628 60.2003 52.3928 60.0344L54.0474 61.0005M54.0474 61.0005C54.251 61.1204 54.4554 61.2385 54.66 61.3565C54.7964 61.4352 54.9327 61.5139 55.0688 61.5931C55.479 61.8365 55.891 62.0753 56.3077 62.3076L54.0474 61.0005Z" stroke="#4169E1" stroke-width="0.864198"/>
<path d="M51.2891 52.6724C53.0097 53.5627 54.4812 54.4288 55.3805 54.8497C56.2799 55.2707 56.7567 55.4623 57.5884 55.881V63.1209" stroke="#4169E1" stroke-width="0.864198"/>
<path d="M33.1504 49.1067L45.9125 56.2852V60.0168L33.1504 52.7463V49.1067Z" fill="#4169E1"/>
<path d="M41.2015 46.4119V46.658L41.4133 46.7836L51.2845 52.6378L45.9075 55.7871L34.0137 49.0969L40.9759 44.9697L41.2015 45.0796V46.4119Z" fill="#4169E1" stroke="#4169E1" stroke-width="0.864198"/>
<path d="M46.3438 56.5331L52.1277 53.1455L53.2078 53.8219V55.1463L46.3438 59.2549V56.5331Z" fill="#4169E1" stroke="#4169E1" stroke-width="0.864198"/>
<path d="M34.3535 40.5219L40.8913 44.5456L34.3535 48.3379V40.5219Z" fill="#4169E1" stroke="#4169E1" stroke-width="0.259259"/>
<path d="M81.6436 42.1626V49.5998L57.8328 63.359C57.7752 63.3924 57.7031 63.3507 57.7031 63.2842V55.6115" stroke="#4169E1" stroke-width="0.864198"/>
</g>
</g>
</g>
</g>
</g>
<defs>
<clipPath id="clip0_184_2813">
<rect width="115" height="70" fill="white" transform="translate(0.720703 0.189941)"/>
</clipPath>
<clipPath id="clip1_184_2813">
<rect width="115" height="70" fill="white" transform="translate(0.720703 0.189941)"/>
</clipPath>
<clipPath id="clip2_184_2813">
<rect width="69.1358" height="70" fill="white" transform="translate(23.6523 0.189941)"/>
</clipPath>
</defs>
</svg>
