<svg width="116" height="102" viewBox="0 0 116 102" fill="none" xmlns="http://www.w3.org/2000/svg">
<g clip-path="url(#clip0_184_3017)">
<g clip-path="url(#clip1_184_3017)">
<g clip-path="url(#clip2_184_3017)">
<path d="M51.7353 16.4713C50.9864 16.3552 50.9547 16.3414 51.3072 16.2874C51.9828 16.1834 53.5776 16.325 54.6768 16.5863C57.2427 17.1963 59.5776 18.7587 62.0699 21.5337L62.732 22.2709L63.6791 22.1186C67.6696 21.4773 71.729 21.9869 75.1243 23.5554C76.0583 23.9869 77.5311 24.846 77.715 25.0668C77.7738 25.137 77.8814 25.5899 77.9543 26.0731C78.2064 27.7448 78.0803 29.0263 77.5689 29.9833C77.2907 30.5042 77.2752 30.6692 77.4622 31.1149C77.6116 31.4707 78.0278 31.7338 78.4401 31.7334C79.2839 31.7321 80.1921 30.3681 80.6129 28.4703L80.7801 27.7165L81.1112 28.0915C82.9275 30.1493 84.354 32.9557 84.599 34.9533L84.6628 35.474L84.3577 35.0006C83.8321 34.1859 83.3042 33.6312 82.6282 33.1839C81.4096 32.3776 80.1211 32.1032 76.7087 31.9233C73.6267 31.7609 71.8824 31.4977 70.1527 30.9336C67.2101 29.9742 65.7266 28.6964 62.231 24.1102C60.6784 22.0732 59.7187 20.9461 58.7642 20.0384C56.5951 17.9762 54.4636 16.8945 51.7353 16.4713Z" fill="#4169E1"/>
<path d="M78.4096 21.0193C78.4871 19.6544 78.6722 18.7539 79.0444 17.9317C79.1917 17.6063 79.3298 17.3398 79.351 17.3398C79.3723 17.3398 79.3083 17.5801 79.2087 17.8737C78.9381 18.6717 78.8937 19.7631 79.0801 21.033C79.3167 22.6442 79.4512 22.8766 81.1541 24.6172C81.953 25.4335 82.882 26.4631 83.2188 26.9051L83.8312 27.7089L83.2188 27.1344C82.4698 26.432 80.7475 25.0622 80.367 24.8663C80.112 24.7349 80.0741 24.7372 79.9166 24.8938C79.7717 25.0382 79.7412 25.255 79.7211 26.2802C79.6898 27.8779 79.4719 28.9035 78.9464 29.9289C78.6621 30.4835 78.6173 30.3652 78.8745 29.7392C79.0666 29.2717 79.0861 29.0663 79.0847 27.5194C79.0817 24.4118 78.7127 23.6647 76.549 22.3847C76.0009 22.0605 75.0977 21.5928 74.542 21.3455C73.9863 21.0982 73.5449 20.8827 73.561 20.8667C73.6223 20.8057 75.7324 21.4216 76.5817 21.7482C77.845 22.2342 78.0536 22.2972 78.207 22.2386C78.3098 22.1994 78.3595 21.8998 78.4096 21.0193Z" fill="#4169E1"/>
<path d="M53.1896 26.336C51.669 24.2427 50.7283 21.033 50.9319 18.6336L50.9949 17.8911L51.341 17.9543C51.9911 18.0729 53.1116 18.49 53.6364 18.8087C55.0765 19.6833 55.6999 20.8348 56.3343 23.7917C56.52 24.6576 56.7637 25.6377 56.8759 25.9696C57.0565 26.5037 57.7388 27.7512 58.2936 28.5614C58.6931 29.1449 58.4277 29.4214 57.5445 29.3416C56.1956 29.2199 54.3683 27.9589 53.1896 26.336Z" fill="#4169E1"/>
<path d="M76.5657 41.9162C69.4598 39.0551 66.957 36.5716 66.957 32.3814C66.957 31.7647 66.9783 31.2601 67.0041 31.2601C67.03 31.2601 67.305 31.4637 67.615 31.7124C69.0561 32.8681 70.6697 33.3618 75.1368 34.0134C77.7653 34.397 79.2446 34.7067 80.6091 35.1593C84.9463 36.5977 87.6297 39.5168 88.2696 43.4927C88.4556 44.6479 88.3466 46.8144 88.045 47.9563C87.807 48.8581 87.0808 50.4837 86.8882 50.546C86.8346 50.5633 86.7824 50.3587 86.7686 50.0801C86.6956 48.5873 85.9411 47.1337 84.6741 46.0449C83.2335 44.8071 81.2981 43.8215 76.5657 41.9162Z" fill="#4169E1"/>
<path d="M71.5774 43.1053C71.4883 42.5756 71.3339 41.899 71.2342 41.6018L71.0529 41.0615L71.3897 41.4396C71.8557 41.9627 72.224 42.6321 72.5362 43.5236C72.7743 44.2041 72.8012 44.4064 72.7994 45.5122C72.7975 46.5977 72.7679 46.8254 72.5478 47.4377C72.2009 48.4035 71.7705 49.0884 71.0481 49.8235C69.7501 51.1445 68.0811 51.8759 65.673 52.1794C65.2543 52.2321 64.0342 52.3209 62.9616 52.3767C60.2582 52.5172 58.4791 52.8077 56.8805 53.369C56.6507 53.4498 56.4454 53.4988 56.4246 53.478C56.3599 53.4137 57.4484 52.7647 58.3475 52.3317C59.6151 51.7211 60.8769 51.3878 63.7044 50.917C65.1011 50.6843 66.5434 50.4022 66.9097 50.2899C70.3685 49.2295 72.1464 46.4928 71.5774 43.1053Z" fill="#4169E1"/>
<path d="M74.8353 48.8906C73.8912 46.861 73.6744 44.9015 74.1915 43.0739C74.2469 42.8786 74.3359 42.7188 74.3895 42.7188C74.443 42.7188 74.6658 42.8393 74.8845 42.9864C75.3196 43.2794 76.1921 43.7726 78.5168 45.0401C81.4178 46.6216 83.0716 47.8463 84.1964 49.2455C85.1814 50.4709 85.791 51.8665 86.0844 53.5683C86.2504 54.5324 86.1531 56.8518 85.9058 57.8225C85.1259 60.8833 83.3132 63.2874 80.7276 64.6902C80.3488 64.8958 80.0088 65.0646 79.972 65.0654C79.9353 65.066 80.0731 64.7151 80.2787 64.2854C81.1485 62.4673 81.2475 60.6988 80.59 58.7303C80.1873 57.525 79.3664 56.0544 77.7089 53.5687C75.7819 50.6788 75.3093 49.9097 74.8353 48.8906Z" fill="#4169E1"/>
<path d="M48.1445 59.8403C50.7815 57.6137 54.0625 56.032 57.0513 55.5466C58.3394 55.3372 60.485 55.4202 61.6777 55.7255C63.5897 56.2148 65.2998 57.3106 66.1893 58.6164C67.0586 59.8924 67.4316 61.0044 67.8198 63.4786C67.9729 64.4546 68.1395 65.4347 68.19 65.6566C68.4815 66.9388 69.049 67.9638 69.752 68.4785C70.8689 69.2959 72.792 69.3468 74.6837 68.6089C75.0049 68.4836 75.2835 68.397 75.3031 68.4166C75.3717 68.4847 74.4192 69.1225 73.7471 69.458C72.8429 69.9097 72.1239 70.0845 71.1684 70.0845C69.4358 70.0845 67.9972 69.2029 66.797 67.4057C66.5608 67.0521 66.0298 65.9926 65.6171 65.0517C64.3499 62.161 63.724 61.2804 62.2525 60.3168C60.972 59.4783 59.3205 59.3281 58.0781 59.9373C56.4463 60.7374 55.9908 62.8229 57.1597 64.1447C57.6242 64.6699 58.4906 65.1229 59.199 65.211C60.5242 65.3759 61.6631 64.3677 61.6631 63.0297C61.6631 62.1609 61.3292 61.6652 60.4885 61.2858C59.3405 60.7678 58.1064 61.3732 58.1123 62.4519C58.1148 62.9118 58.3151 63.2006 58.7761 63.4092C59.0719 63.543 59.0788 63.5537 58.8375 63.5035C57.7841 63.2851 57.5373 62.0152 58.3843 61.172C59.4011 60.1598 61.504 60.6065 62.2261 61.9881C62.5294 62.5684 62.5647 63.7241 62.3003 64.4219C61.7082 65.9839 59.9823 66.8053 58.2313 66.3583C57.0394 66.0539 56.554 65.7245 55.1168 64.244C52.6194 61.6715 51.6498 61.1729 48.0494 60.6108L47.3594 60.5032L48.1445 59.8403Z" fill="#4169E1"/>
<path fill-rule="evenodd" clip-rule="evenodd" d="M29.3103 2.21309C37.6507 12.3357 50.5088 28.096 51.1472 28.9784C51.6742 29.707 51.4759 30.3619 50.573 30.8752C50.0709 31.1607 49.0385 31.4499 48.5216 31.4499C47.937 31.4499 47.2784 31.1684 46.7989 30.7134C46.4598 30.3919 45.0917 28.349 41.9332 23.4482C39.5166 19.6984 37.4941 16.5877 37.439 16.5357C37.3114 16.4152 37.3136 16.4192 41.6868 24.2441C44.4329 29.1576 45.3598 30.8946 45.3598 31.1269C45.3598 31.5994 45.2309 31.8478 44.6481 32.498C43.6763 33.582 43.242 34.8 42.9284 37.3209C42.5768 40.1468 41.5884 42.143 38.849 45.5593C37.2455 47.5592 36.9831 47.9257 36.5785 48.7319C36.0688 49.7468 35.9287 50.3154 35.8719 51.5971C35.8119 52.9522 35.9288 53.8277 36.3429 55.1234C36.7053 56.2578 37.0836 57.0067 38.0509 58.505C38.8856 59.7978 39.3663 60.7587 39.3663 61.1343C39.3663 61.4335 39.4233 61.4338 40.7168 61.1418C43.8122 60.4428 46.3258 59.2133 47.7394 57.7067C48.6142 56.7742 48.8196 56.2592 48.8263 54.9813C48.8306 54.1455 48.8013 53.9705 48.5754 53.4896C48.2076 52.707 47.538 52.0562 46.0622 51.0474C44.1286 49.7256 43.3028 48.6614 43.0746 47.198C42.8874 45.9971 43.1045 45.1499 44.1742 42.9079C45.2814 40.5873 45.5559 39.5984 45.7415 37.2592C45.8613 35.7479 46.0273 35.1519 46.4615 34.6736C46.9143 34.1747 47.322 34.0058 48.4427 33.8526C50.2698 33.6031 51.4332 33.1304 52.3895 32.2492C53.2191 31.4847 53.5663 30.7481 53.6196 29.6391L53.66 28.7987L53.1964 28.2582C51.5176 26.3006 28.186 0.674316 28.0827 0.674316C28.0606 0.674316 28.6131 1.36682 29.3103 2.21309ZM40.3087 53.1304C40.6883 52.4583 40.4866 51.594 39.8517 51.1718C39.2517 50.7728 38.3196 50.9608 38.3196 51.4806C38.3196 51.6392 38.4075 51.7548 38.6052 51.8565C38.9379 52.0278 38.9622 52.2203 38.7003 52.614C38.4351 53.0128 38.4564 53.3633 38.7606 53.6015C39.2511 53.9854 39.9451 53.7742 40.3087 53.1304Z" fill="#4169E1"/>
<path fill-rule="evenodd" clip-rule="evenodd" d="M54.8137 34.2935C53.9561 34.557 53.1223 35.466 52.8641 36.4193C52.7067 37.0008 52.796 38.0209 53.0319 38.3359C53.4129 38.8447 53.7813 38.9788 54.7791 38.9717C56.7323 38.9581 58.4305 38.1204 58.6279 37.073C58.7898 36.2146 58.0439 35.0248 57.0167 34.5025C56.4866 34.2331 55.3592 34.1261 54.8137 34.2935ZM57.0972 36.0791C57.3985 35.6511 57.2666 35.1885 56.7544 34.8756C55.7788 34.2799 54.3034 34.7729 54.3034 35.6946C54.3034 36.1535 55.0727 36.6539 55.778 36.6539C56.2474 36.6539 56.8898 36.3741 57.0972 36.0791Z" fill="#4169E1"/>
</g>
</g>
</g>
<defs>
<clipPath id="clip0_184_3017">
<rect width="115" height="70" fill="white" transform="translate(0.720703 0.379883)"/>
</clipPath>
<clipPath id="clip1_184_3017">
<rect width="115" height="70" fill="white" transform="translate(0.720703 0.379883)"/>
</clipPath>
<clipPath id="clip2_184_3017">
<rect width="62.0253" height="70" fill="white" transform="translate(27.209 0.379883)"/>
</clipPath>
</defs>
</svg>
