<svg width="116" height="102" viewBox="0 0 116 102" fill="none" xmlns="http://www.w3.org/2000/svg">
<g clip-path="url(#clip0_184_2703)">
<g clip-path="url(#clip1_184_2703)">
<path d="M44.9405 29.5438L58.221 16.2638L71.5086 29.5509L79.2361 21.8233L58.221 0.807617L37.2129 21.8163L44.9405 29.5438Z" fill="#4169E1"/>
<path d="M39.4826 34.9994L31.7551 27.272L24.0273 34.9998L31.7548 42.7272L39.4826 34.9994Z" fill="#4169E1"/>
<path d="M44.9401 40.4567L58.2206 53.7367L71.5077 40.4502L79.2395 48.1734L79.2357 48.1778L58.2206 69.1929L37.212 48.1848L37.2012 48.174L44.9401 40.4567Z" fill="#4169E1"/>
<path d="M84.6864 42.7301L92.4142 35.0023L84.6868 27.2749L76.959 35.0027L84.6864 42.7301Z" fill="#4169E1"/>
<path d="M66.0585 34.9963H66.0617L58.2203 27.1548L52.4253 32.9497L51.7593 33.6157L50.3858 34.9893L50.375 35.0001L50.3858 35.0114L58.2203 42.8458L66.0617 35.0044L66.0655 35.0001L66.0585 34.9963Z" fill="#4169E1"/>
</g>
</g>
<defs>
<clipPath id="clip0_184_2703">
<rect width="115" height="70" fill="white" transform="translate(0.720703)"/>
</clipPath>
<clipPath id="clip1_184_2703">
<rect width="69.1358" height="70" fill="white" transform="translate(23.6523)"/>
</clipPath>
</defs>
</svg>
