<svg width="116" height="102" viewBox="0 0 116 102" fill="none" xmlns="http://www.w3.org/2000/svg">
<g clip-path="url(#clip0_184_2983)">
<g clip-path="url(#clip1_184_2983)">
<g clip-path="url(#clip2_184_2983)">
<mask id="mask0_184_2983" style="mask-type:luminance" maskUnits="userSpaceOnUse" x="23" y="0" width="70" height="70">
<path d="M92.7881 0.62207H23.6523V69.7579H92.7881V0.62207Z" fill="white"/>
</mask>
<g mask="url(#mask0_184_2983)">
<path d="M68.8339 0.62207C56.6711 0.62207 46.3456 9.97675 45.0439 22.0136C33.007 23.3153 23.6523 33.645 23.6523 45.8036C23.6569 52.1553 26.1821 58.2456 30.6734 62.7369C35.1647 67.2282 41.2549 69.7534 47.6066 69.7579C59.7694 69.7579 70.1355 60.4032 71.3966 48.3663C83.4335 47.0647 92.7881 36.7349 92.7881 24.5763C92.7837 18.2247 90.2585 12.1344 85.7671 7.64311C81.2758 3.15179 75.1856 0.626592 68.8339 0.62207ZM87.1847 27.2607C86.5843 31.1886 84.7443 34.8218 81.9332 37.6301C79.1222 40.4385 75.4873 42.275 71.5588 42.8717V27.2607H87.1847ZM29.2643 43.1192C29.8555 39.1845 31.6903 35.5421 34.5004 32.7251C37.3106 29.9081 40.9484 28.0642 44.8817 27.4634V43.0851H29.2643V43.1192ZM65.9468 48.5285C65.293 52.9255 63.0814 56.9413 59.7149 59.8442C56.3483 62.7472 52.0509 64.3442 47.6056 64.3442C43.1602 64.3442 38.8628 62.7472 35.4963 59.8442C32.1297 56.9413 29.9181 52.9255 29.2643 48.5285H65.9468ZM66.1495 27.2607V43.0851H50.291V27.2607H66.1495ZM87.1762 21.8514H50.4937C51.1475 17.4545 53.3591 13.4386 56.7257 10.5357C60.0922 7.6327 64.3896 6.03574 68.8349 6.03574C73.2803 6.03574 77.5777 7.6327 80.9442 10.5357C84.3108 13.4386 86.5224 17.4545 87.1762 21.8514Z" fill="#4169E1"/>
</g>
</g>
</g>
</g>
<defs>
<clipPath id="clip0_184_2983">
<rect width="115" height="70" fill="white" transform="translate(0.720703 0.189941)"/>
</clipPath>
<clipPath id="clip1_184_2983">
<rect width="115" height="70" fill="white" transform="translate(0.720703 0.189941)"/>
</clipPath>
<clipPath id="clip2_184_2983">
<rect width="69.1358" height="70" fill="white" transform="translate(23.6523 0.189941)"/>
</clipPath>
</defs>
</svg>
