<svg width="116" height="102" viewBox="0 0 116 102" fill="none" xmlns="http://www.w3.org/2000/svg">
<g clip-path="url(#clip0_184_2992)">
<g clip-path="url(#clip1_184_2992)">
<g clip-path="url(#clip2_184_2992)">
<path fill-rule="evenodd" clip-rule="evenodd" d="M92.7881 35.19C92.7881 16.103 77.3073 0.62207 58.2202 0.62207C39.1332 0.62207 23.6523 16.103 23.6523 35.19C23.6523 54.277 39.1332 69.7579 58.2202 69.7579C77.3073 69.7579 92.7881 54.277 92.7881 35.19ZM46.0801 35.19C46.0801 41.9044 51.5169 47.344 58.2314 47.344C64.2462 47.344 69.2295 42.9581 70.1919 37.2143H82.4455C81.414 49.6919 70.9717 59.4954 58.2314 59.4954C44.8135 59.4954 33.926 48.6078 33.926 35.19C33.926 21.7721 44.8135 10.8846 58.2314 10.8846C70.9717 10.8846 81.4112 20.688 82.4455 33.1657H70.2029C69.2406 27.4246 64.2462 23.0387 58.2314 23.0387C51.5197 23.0387 46.0801 28.4755 46.0801 35.19Z" fill="#4169E1"/>
</g>
</g>
</g>
<defs>
<clipPath id="clip0_184_2992">
<rect width="115" height="70" fill="white" transform="translate(0.720703 0.189941)"/>
</clipPath>
<clipPath id="clip1_184_2992">
<rect width="115" height="70" fill="white" transform="translate(0.720703 0.189941)"/>
</clipPath>
<clipPath id="clip2_184_2992">
<rect width="69.1358" height="70" fill="white" transform="translate(23.6523 0.189941)"/>
</clipPath>
</defs>
</svg>
