<svg width="116" height="102" viewBox="0 0 116 102" fill="none" xmlns="http://www.w3.org/2000/svg">
<g clip-path="url(#clip0_184_2752)">
<g clip-path="url(#clip1_184_2752)">
<path d="M56.2316 0.487871C73.2581 -0.496318 88.454 11.0777 92.0266 27.7499C93.001 32.3263 93.0403 37.0603 92.1448 41.6565C89.9106 52.9943 82.1749 62.4622 71.5161 66.9206C64.2528 69.9716 55.9463 70.3948 48.3975 68.1509C38.0537 65.0704 29.7275 57.3444 25.8891 47.2565C23.1334 40.0227 22.9169 31.8638 25.2789 24.4922C29.629 10.8514 41.9413 1.30475 56.2316 0.487871Z" fill="#4169E1"/>
<path d="M36.9509 32.4939C37.0887 33.1238 37.1675 33.7635 37.3052 34.4033C37.3938 34.787 37.5119 34.6985 37.7087 34.5312C38.0926 34.2162 38.4568 33.8718 38.88 33.6159C38.998 33.6356 39.0669 33.734 39.126 33.8226C40.248 35.2891 41.734 36.1846 43.4958 36.6668C44.3028 36.8933 45.1393 37.0409 45.9759 37.1295C45.7102 36.8342 45.4937 36.5094 45.3263 36.1453C45.0409 35.5154 45.1393 34.9544 45.6216 34.4524C46.2023 33.8423 46.9601 33.5864 47.7376 33.3895C49.3615 32.9664 51.0149 32.9269 52.6782 33.0451C54.0167 33.1337 55.3356 33.36 56.6347 33.7242C57.7173 34.0292 58.7704 34.3835 59.725 34.9938C59.8628 35.102 59.9514 35.2496 60.0793 35.3579C61.3096 36.6767 62.028 38.2317 62.0773 40.0328C62.1068 41.2728 61.7623 42.4638 61.1423 43.5562C60.0203 45.5246 58.3767 46.9615 56.4181 48.0539C54.4301 49.1661 52.2353 49.855 49.9619 50.0912C45.907 50.5341 42.1375 49.6483 38.6831 47.493C35.8093 45.7018 33.5949 43.2511 31.7938 40.4167C30.9572 39.0683 30.219 37.6609 29.5793 36.2043C29.5006 36.0272 29.4809 35.8303 29.4022 35.6827C29.4514 35.8599 29.5498 36.0469 29.3628 36.2339C29.3038 35.4957 29.3727 34.7674 29.412 34.0391C29.5104 32.0215 29.8254 30.0236 30.347 28.0848C32.7189 19.3157 39.0767 12.1802 47.5211 8.81436C50.0603 7.80063 52.7274 7.17075 55.4439 6.9247C59.7349 6.53102 63.8882 7.09202 67.943 8.52893C67.3229 9.70008 63.8095 12.8299 61.0734 14.6505C60.9947 13.8633 60.8175 13.0857 60.5419 12.3377C60.5321 12.1409 60.7092 12.0818 60.8175 11.9835C61.3883 11.4913 61.9591 11.0091 62.53 10.5269C62.589 10.4776 62.6481 10.4284 62.6973 10.3792C62.7662 10.3103 62.8745 10.2513 62.8449 10.143C62.8252 10.0347 62.6973 10.0347 62.5989 10.0151C62.3331 9.95597 62.0674 9.9265 61.7918 9.91665C61.4179 9.87724 61.0438 9.78866 60.6698 9.77881C60.3746 9.75919 60.0892 9.69031 59.8037 9.70993C59.6561 9.70993 59.5085 9.70008 59.3609 9.68046C59.1149 9.60173 58.859 9.64106 58.6129 9.64106C58.4653 9.64106 58.3177 9.6312 58.1602 9.64106C57.7271 9.66076 57.3039 9.59188 56.8709 9.67061C56.7626 9.69031 56.6642 9.70008 56.556 9.70008C56.428 9.70008 56.3099 9.70993 56.182 9.70008C56.0245 9.68046 55.8572 9.70008 55.6997 9.74934C55.247 9.78866 54.7942 9.82807 54.3513 9.9068C53.8101 10.0249 53.2589 10.0445 52.7274 10.1824C52.2353 10.3103 51.7334 10.3792 51.2512 10.5465C50.6114 10.7236 49.9718 10.9205 49.3418 11.1371C48.4266 11.5012 47.4916 11.8358 46.6156 12.3082C44.6374 13.2728 42.7872 14.4931 41.1337 15.9398C39.5984 17.2685 38.2205 18.7645 37.0296 20.4081C36.4391 21.2348 35.888 22.091 35.4057 22.9867C35.0908 23.5673 34.7955 24.1578 34.52 24.7582C34.3231 25.2208 34.0869 25.6735 33.9295 26.1558C33.7326 26.638 33.5752 27.1301 33.4177 27.632C33.2307 28.1339 33.1224 28.6556 32.9847 29.1575C32.9255 29.3544 32.8862 29.5611 32.837 29.7677C32.7779 30.0137 32.7386 30.2599 32.6894 30.5059C32.6106 30.9192 32.5418 31.3424 32.4827 31.7656C32.4039 32.1987 32.3547 32.6317 32.3252 33.0746C32.2563 33.36 32.3056 33.6651 32.2563 33.9604C32.1776 34.3245 32.2268 34.6985 32.2071 35.0626C32.1973 35.3185 32.1874 35.5744 32.1973 35.8303C32.1973 35.9386 32.1481 36.0862 32.2563 36.1355C32.3843 36.1945 32.4729 36.0567 32.5713 35.9878C32.8862 35.7319 33.1913 35.4662 33.4964 35.2005C34.5298 34.3147 35.573 33.4387 36.6064 32.553C36.695 32.4939 36.7934 32.2971 36.9509 32.4939Z" fill="white"/>
<path d="M55.8995 33.1856C54.07 32.7534 52.1781 32.5719 50.2949 32.6726C48.9766 32.7425 47.6209 32.9235 46.3445 33.53C46.1775 33.6081 46.02 33.6978 45.8725 33.7997C45.3252 34.1654 44.9476 34.6346 44.8514 35.2034C44.7654 35.7119 44.9179 36.2195 45.2355 36.6972C45.0351 36.6641 44.835 36.6247 44.6297 36.5843C44.6018 36.5787 44.5739 36.5733 44.5458 36.5678C43.1017 36.2809 41.7768 35.7899 40.648 34.8832L40.6467 34.8821C40.177 34.5079 39.7648 34.1139 39.4395 33.6495C39.5026 33.6065 39.559 33.5744 39.6284 33.5349C39.666 33.5134 39.7074 33.4898 39.7559 33.4611C40.0041 33.3556 40.2382 33.2305 40.4558 33.1122C40.478 33.1002 40.4999 33.0882 40.5217 33.0763C40.7281 32.964 40.9198 32.8597 41.1184 32.7686C43.1692 31.825 45.3662 31.2465 47.6124 31.0344L47.6135 31.0343C48.5337 30.9453 49.4191 30.8603 50.3092 30.8981L50.3104 30.8982C52.9883 31.0049 55.647 31.4706 58.199 32.2761L58.2015 32.2768C58.5924 32.3976 58.9693 32.5249 59.3583 32.6562C59.6371 32.7505 59.9223 32.8468 60.2233 32.9443L60.7886 33.1274V32.5333C60.7886 32.2207 60.6184 31.9794 60.5561 31.8912C60.5489 31.8809 60.5431 31.8727 60.5392 31.8666C60.3421 31.5293 60.1218 31.2027 59.8852 30.8902C59.8934 30.8921 59.9017 30.8941 59.9099 30.8961L59.9185 30.8983L59.9272 30.9C59.9329 30.9011 59.9397 30.9029 59.9707 30.9115L59.9742 30.9125C59.9994 30.9194 60.0481 30.9327 60.1004 30.9405C60.1988 30.9552 60.4522 30.9695 60.6277 30.7429C60.7012 30.6502 60.7525 30.5297 60.7499 30.3906C60.7475 30.259 60.6974 30.1584 60.6607 30.0993C60.6247 30.0413 60.5831 29.9949 60.5635 29.9731C60.5477 29.9554 60.5405 29.9476 60.5373 29.944C60.1832 29.4187 59.7796 28.944 59.3465 28.5034C63.1053 28.9866 66.5147 30.3176 69.4891 32.6471C73.4364 35.7452 75.9784 39.7325 77.059 44.6512C77.4043 46.2826 77.51 47.9633 77.3851 49.6258L77.385 49.6267C77.174 52.5134 76.265 55.1705 74.5647 57.5313C74.5361 57.5691 74.5114 57.5967 74.4781 57.634C74.455 57.6598 74.4276 57.6904 74.3918 57.7323C74.3254 57.8103 74.243 57.9149 74.1796 58.0486C73.9007 58.4549 73.5205 58.7556 73.0896 59.0964C72.9857 59.1786 72.8788 59.2631 72.7697 59.352C69.9409 61.6533 66.6234 62.8608 63.0257 63.4232L63.0246 63.4234C60.2204 63.8698 57.3677 63.9182 54.5537 63.5689C51.0266 63.1367 47.6218 62.0345 44.5215 60.3309C45.0179 60.5086 45.5221 60.6663 46.0328 60.8031L46.0387 60.8047C46.8165 61.0016 47.595 61.1599 48.393 61.2796C48.5348 61.3252 48.6684 61.332 48.7555 61.3355C48.7768 61.3363 48.7954 61.337 48.8121 61.3376C48.8891 61.3404 48.9216 61.3416 48.9544 61.3489L49.0007 61.3592H49.0272L49.0612 61.3705L49.1046 61.3758C50.9499 61.5988 52.7858 61.4659 54.586 61.1458C58.548 60.4436 62.0863 58.7864 65.1012 56.1034C67.161 54.2846 68.8082 52.1167 69.684 49.4278C70.5633 46.7289 70.4412 44.0847 69.2008 41.4806L68.6586 40.3427L68.3886 41.574C68.1635 42.6003 67.6306 43.4609 66.9217 44.2742C66.315 44.9532 65.6192 45.5484 64.852 46.0363C65.0226 45.385 65.1416 44.7231 65.2148 44.056L65.2152 44.0525C65.5763 40.4928 64.1899 37.7013 61.3709 35.6204C60.9047 35.2758 60.428 34.9714 59.9317 34.6976C58.6574 33.9384 57.2813 33.5137 55.8995 33.1856Z" fill="white" stroke="#4169E1" stroke-width="0.864198"/>
<path d="M48.7584 60.0954L48.7302 60.0821L48.581 60.0674C47.6493 59.9751 46.7214 59.7809 45.806 59.5006L45.8047 59.5003C44.0713 58.9727 42.4344 58.2104 40.9204 57.2136C40.809 57.1403 40.7091 57.0614 40.5787 56.9584C40.5351 56.9241 40.4882 56.887 40.4363 56.8466C40.2499 56.7012 40.0088 56.5212 39.7217 56.3812L39.6112 56.3273C39.5918 56.3078 39.5657 56.2819 39.5368 56.255C39.4905 56.212 39.4242 56.1541 39.3386 56.0973C35.5168 52.683 32.903 48.4976 31.4 43.5982L31.3997 43.5973C31.0166 42.3536 30.7245 41.0844 30.5273 39.8005C31.7544 41.947 33.2392 43.9327 35.088 45.6804C37.8741 48.3128 41.1484 50.0967 45.0121 50.7183C49.5105 51.4489 53.7496 50.6644 57.6358 48.2252C59.5902 46.9985 61.2389 45.3905 62.2023 43.1498L62.2034 43.1473C62.3416 42.8231 62.4574 42.5011 62.5513 42.1814C62.5297 43.1767 62.288 44.163 61.8504 45.0708L61.2527 46.3103H62.6288C62.9153 46.3103 63.1971 46.2215 63.4344 46.0423C63.4981 46.005 63.5615 45.9669 63.6243 45.9282C63.5719 46.123 63.5158 46.3172 63.4562 46.5108L62.8169 48.5886L64.7083 47.5168C65.3312 47.1638 65.9382 46.7665 66.5171 46.3139L66.5209 46.311C66.6029 46.2461 66.6818 46.1792 66.7575 46.1122C67.028 47.9577 66.5794 49.7147 65.615 51.4402C64.2292 53.9067 62.1849 55.7694 59.748 57.302C57.7949 58.5286 55.6541 59.4055 53.4003 59.8959L53.3931 59.8975C52.0479 60.2024 50.6676 60.2895 49.2939 60.1584C49.0532 60.0795 48.8424 60.0909 48.7584 60.0954Z" fill="white"/>
<path d="M39.6773 56.3922C39.6773 56.3924 39.6759 56.3911 39.6727 56.3883M48.7584 60.0954L48.7302 60.0821L48.581 60.0674C47.6493 59.9751 46.7214 59.7809 45.806 59.5006L45.8047 59.5003C44.0713 58.9727 42.4344 58.2104 40.9204 57.2136C40.809 57.1403 40.7091 57.0614 40.5787 56.9584C40.5351 56.9241 40.4882 56.887 40.4363 56.8466C40.2499 56.7012 40.0088 56.5212 39.7217 56.3812L39.6112 56.3273C39.5918 56.3078 39.5657 56.2819 39.5368 56.255C39.4905 56.212 39.4242 56.1541 39.3386 56.0973C35.5168 52.683 32.903 48.4976 31.4 43.5982L31.3997 43.5973C31.0166 42.3536 30.7245 41.0844 30.5273 39.8005C31.7544 41.947 33.2392 43.9327 35.088 45.6804C37.8741 48.3128 41.1484 50.0967 45.0121 50.7183C49.5105 51.4489 53.7496 50.6644 57.6358 48.2252C59.5902 46.9985 61.2389 45.3905 62.2023 43.1498L62.2034 43.1473C62.3416 42.8231 62.4574 42.5011 62.5513 42.1814C62.5297 43.1767 62.288 44.163 61.8504 45.0708L61.2527 46.3103H62.6288C62.9153 46.3103 63.1971 46.2215 63.4344 46.0423C63.4981 46.005 63.5615 45.9669 63.6243 45.9282C63.5719 46.123 63.5158 46.3172 63.4562 46.5108L62.8169 48.5886L64.7083 47.5168C65.3312 47.1638 65.9382 46.7665 66.5171 46.3139L66.5209 46.311C66.6029 46.2461 66.6818 46.1792 66.7575 46.1122C67.028 47.9577 66.5794 49.7147 65.615 51.4402C64.2292 53.9067 62.1849 55.7694 59.748 57.302C57.7949 58.5286 55.6541 59.4055 53.4003 59.8959L53.3931 59.8975C52.0479 60.2024 50.6676 60.2895 49.2939 60.1584C49.0532 60.0795 48.8424 60.0909 48.7584 60.0954Z" stroke="#4169E1" stroke-width="1.7284"/>
<path d="M78.9421 16.4866C84.8449 22.9762 87.3727 31.7892 85.8973 40.3466C85.5748 38.2826 84.9494 36.2741 84.0407 34.3835L84.0405 34.383C83.2275 32.6969 82.2037 31.1207 80.9888 29.695C80.1694 28.7253 79.2634 27.8656 78.3129 27.0595C79.7797 27.2873 81.2176 27.661 82.6159 28.1753C83.0203 28.3259 83.411 28.503 83.7802 28.7153L83.7912 28.7216L83.8025 28.7273C83.9139 28.783 84.0263 28.8464 84.1399 28.9178C84.1454 28.9233 84.1518 28.9296 84.159 28.9362C84.1877 28.9625 84.2418 29.0069 84.3211 29.0373C84.4073 29.0702 84.5007 29.078 84.5923 29.0597L85.2654 28.9251L84.9503 28.5058L84.9804 28.4306L84.8308 28.2354C83.6384 26.6794 82.1902 25.3845 80.7056 24.1771L80.7049 24.1765C78.9181 22.729 76.9712 21.4909 74.8941 20.4921C72.0217 19.076 68.9393 18.1475 65.7567 17.7568C67.4639 16.2565 68.8488 14.5022 69.8482 12.4375C70.1729 11.7677 70.4462 11.0689 70.6686 10.3612L70.6686 10.3612L70.6702 10.3559C70.6783 10.3292 70.6859 10.3025 70.6925 10.2791L70.6935 10.2755C70.6957 10.2679 70.6978 10.2606 70.6998 10.2536C73.8115 11.8006 76.6025 13.9131 78.942 16.4865L78.9421 16.4866ZM84.1144 28.8911L84.1162 28.893C84.1136 28.8903 84.1129 28.8895 84.1144 28.8911Z" fill="white" stroke="white" stroke-width="0.864198"/>
<path d="M74.5467 58.2601C74.5467 57.9747 74.773 57.8073 74.9207 57.6007C76.2691 55.6815 77.0859 53.5557 77.5091 51.2527C77.7748 49.8256 77.7945 48.3887 77.706 46.9616C77.5583 44.7669 76.9973 42.6509 76.1116 40.6235C75.462 39.1373 74.6451 37.73 73.6806 36.4308C72.6472 35.0628 71.4465 33.8128 70.1179 32.7302C68.0708 31.0374 65.7086 29.7679 63.1695 28.9805C61.8211 28.5474 60.4236 28.262 59.0162 28.1242C58.7603 28.1045 58.5143 28.0357 58.2485 28.0554C57.3529 27.396 56.4376 26.7562 55.4141 26.2937L55.4239 26.1953C55.7881 26.1953 56.162 26.2051 56.5262 26.1953C61.6834 26.1067 66.4468 27.3664 70.6001 30.506C74.901 33.7636 77.5977 38.0646 78.6015 43.3791C79.4578 47.9064 78.7984 52.1876 76.2789 56.1146C75.7867 56.9118 75.2455 57.6499 74.5467 58.2601Z" fill="white"/>
<path d="M70.6951 9.73998L70.6982 9.73012L70.6999 9.71984C70.7196 9.59177 70.7384 9.48028 70.7657 9.37995C71.2777 7.49908 71.5547 5.55939 71.5866 3.60961C71.5902 3.59969 71.593 3.58876 71.5949 3.57692C71.6047 3.54149 71.6024 3.50389 71.5877 3.46963C71.5699 3.42807 71.5379 3.39995 71.5057 3.38384L71.456 3.35901L71.4038 3.37781C71.3225 3.40705 71.2593 3.45115 71.2123 3.50829C71.166 3.56444 71.1409 3.62662 71.1256 3.68414C71.1111 3.73841 71.104 3.79434 71.0982 3.84018L71.0976 3.84468C71.0914 3.89405 71.0863 3.93204 71.0772 3.96529C70.236 6.67372 68.8375 9.19665 66.9892 11.3579L66.953 11.4003L66.9588 11.4558C66.965 11.515 66.9817 11.5756 67.0227 11.6229C67.068 11.6749 67.126 11.6921 67.1744 11.6946C67.2175 11.697 67.2592 11.6879 67.2848 11.6822C67.2917 11.6806 67.2978 11.6792 67.3033 11.678C67.3236 11.6734 67.3352 11.6708 67.3466 11.6696L67.3535 11.6687C67.5705 11.6353 67.7812 11.5628 67.9835 11.4933C68.0328 11.4762 68.0816 11.4595 68.1299 11.4434C68.3001 11.387 68.47 11.3376 68.6494 11.3128C68.5041 11.5086 68.3747 11.6793 68.2454 11.8446L68.2448 11.8452C66.2991 14.3678 63.9171 16.3195 60.9422 17.5007C60.7401 17.5659 60.5953 17.7398 60.5459 17.9422C60.1469 19.1858 59.5563 20.2952 58.6127 21.2004L58.6107 21.2023C58.6059 21.2072 58.6021 21.2103 58.5959 21.2157C58.5911 21.2196 58.585 21.2248 58.5758 21.2329C58.56 21.2468 58.5348 21.2699 58.515 21.3015C58.4932 21.3363 58.4782 21.3813 58.4835 21.4344C58.4885 21.4842 58.5106 21.5285 58.5386 21.567L58.59 21.6377L58.6748 21.6166C58.6926 21.6121 58.7129 21.6076 58.7354 21.6026C58.7569 21.5978 58.7813 21.5924 58.8027 21.587L58.8106 21.585L58.8181 21.5821C60.5295 20.9193 62.1715 20.0687 63.7045 19.0598C63.8598 18.9564 64.0114 18.8406 64.1592 18.7278C64.212 18.6875 64.2643 18.6476 64.3162 18.6087C64.5166 18.4584 64.7157 18.319 64.9313 18.2113L64.95 18.2019L64.9649 18.187C65.0349 18.117 65.0975 18.0548 65.1676 18.0021L65.1715 17.9991C66.4904 16.9281 67.6408 15.6686 68.583 14.2603C69.5268 12.8595 70.1809 11.3317 70.6951 9.73998Z" fill="white" stroke="#4169E1" stroke-width="0.259259"/>
<path d="M58.9 30.2308C59.5102 30.9 60.0417 31.6479 60.4845 32.4452C60.5239 32.5239 60.6322 32.6125 60.5338 32.7011C60.455 32.7699 60.3763 32.6814 60.2975 32.6518C58.2996 31.9038 56.2427 31.3429 54.1365 30.9787C53.0736 30.7917 52.0008 30.713 50.928 30.6342C49.9636 30.5752 48.9892 30.5851 48.0247 30.6737C45.8201 30.8507 43.6746 31.3232 41.6274 32.209C40.9976 32.4845 40.3579 32.7305 39.7673 33.0947C39.6985 33.1341 39.6197 33.203 39.541 33.1046C41.3125 31.8547 43.2809 30.9098 45.3673 30.3095C48.2412 29.4532 51.1642 29.2465 54.1464 29.4729C55.662 29.591 57.1678 29.8273 58.6441 30.1619C58.7425 30.1716 58.8213 30.2012 58.9 30.2308Z" fill="white"/>
<path d="M58.161 9.54248H58.6039C58.8401 9.64091 59.1059 9.51293 59.3421 9.61136H59.785C59.8244 9.82793 59.6472 9.91651 59.5291 10.0149C57.482 11.747 55.4545 13.4891 53.4074 15.2114C52.7283 15.7822 52.0591 16.353 51.3899 16.9239C51.2816 16.9928 51.2029 17.0912 51.1536 17.1994C50.2679 17.5341 49.4412 17.9474 48.7916 18.6659C48.4865 19.0104 48.2798 19.404 48.0633 19.7977C47.4531 20.1914 46.9413 20.713 46.3901 21.1756C44.9335 22.396 43.4966 23.6459 42.04 24.8565C41.922 24.9548 41.8334 25.1025 41.6956 25.1813C41.4495 24.8072 41.4988 24.3939 41.5578 23.9904C41.7448 23.6852 42.0302 23.4982 42.2861 23.2719C43.7034 22.0712 45.1107 20.8705 46.5181 19.6698C47.896 18.4986 49.264 17.3274 50.6418 16.166C52.2264 14.8276 53.8011 13.4792 55.3857 12.1309C56.2616 11.3829 57.1375 10.6251 58.0331 9.8968C58.1709 9.80822 58.2595 9.71964 58.161 9.54248Z" fill="white"/>
<path d="M75.0243 25.461C75.467 25.7176 75.8946 25.9937 76.3236 26.2708C76.5507 26.4173 76.7781 26.5643 77.0085 26.7086L77.0401 26.7284H77.0773C77.4642 26.7284 77.8428 26.7917 78.237 26.8576C78.3507 26.8766 78.4658 26.8959 78.5827 26.9138C80.4623 27.2173 82.2901 27.7358 84.0087 28.5658L84.051 28.5862L84.0965 28.5748L84.102 28.5734C84.1263 28.5674 84.1568 28.5598 84.1808 28.55C84.2018 28.5415 84.274 28.5092 84.2847 28.4233C84.2891 28.388 84.2802 28.3589 84.2732 28.3414C84.2659 28.3234 84.2564 28.3075 84.2485 28.2953C84.2337 28.2725 84.2125 28.245 84.1903 28.2162L84.1875 28.2125L84.1784 28.2008L84.167 28.1914C82.2901 26.6503 80.2551 25.3069 78.1015 24.1906L78.0961 24.1879C77.9709 24.1301 77.8477 24.0673 77.7218 24.0031L77.7207 24.0026C77.5959 23.939 77.4686 23.874 77.3383 23.814L77.3367 23.8132C77.3242 23.8076 77.3095 23.7988 77.2839 23.7834L77.2796 23.7809C77.2552 23.7663 77.2214 23.7462 77.185 23.7315C77.1486 23.7168 77.0982 23.7025 77.0416 23.7106C76.9804 23.7192 76.9284 23.7515 76.8884 23.8003C76.8487 23.849 76.828 23.9048 76.8298 23.9643C76.8315 24.019 76.8519 24.0643 76.8685 24.0952C76.8785 24.1138 76.8939 24.1385 76.9048 24.1557C76.9092 24.1626 76.9128 24.1683 76.9149 24.1719C76.9208 24.1818 76.9248 24.189 76.9274 24.1948C76.9287 24.1976 76.9295 24.1996 76.9299 24.2011C76.9304 24.2025 76.9305 24.2032 76.9305 24.2031L76.9335 24.2181L76.9399 24.232C77.0145 24.3936 77.1097 24.5449 77.2023 24.6918C77.225 24.7279 77.2477 24.7638 77.2697 24.7995C77.3263 24.891 77.3811 24.9836 77.431 25.0814C75.9935 24.3575 74.4967 23.7877 72.9486 23.3638C72.0568 23.116 70.9664 22.8961 70.0051 22.7552C69.5242 22.6848 69.074 22.6338 68.6958 22.6093C68.3211 22.5849 68.0065 22.5856 67.8025 22.6231L67.3613 22.7044L67.7778 22.8709L67.7787 22.8714C67.8276 22.8908 67.8798 22.9117 67.9424 22.9326L67.9524 22.9359L67.9628 22.9377C70.4565 23.3386 72.8429 24.1991 75.0243 25.461ZM75.0892 25.3489C72.9683 24.122 70.6543 23.2718 68.2361 22.8519L84.0272 28.4308C82.3061 27.6049 80.4787 27.0887 78.6028 26.7858C78.4898 26.7684 78.3772 26.7495 78.2648 26.7308C77.8688 26.6645 77.4761 26.5987 77.0773 26.5987C76.8501 26.4564 76.6241 26.3104 76.3977 26.1643C75.9669 25.8861 75.5344 25.6069 75.0892 25.3489Z" fill="white"/>
<path d="M75.0892 25.3489L75.0243 25.461M75.0892 25.3489C72.9683 24.122 70.6543 23.2718 68.2361 22.8519L84.0272 28.4308C82.3061 27.6049 80.4787 27.0887 78.6028 26.7858C78.4898 26.7684 78.3772 26.7495 78.2648 26.7308C77.8688 26.6645 77.4761 26.5987 77.0773 26.5987C76.8501 26.4564 76.6241 26.3104 76.3977 26.1643C75.9669 25.8861 75.5344 25.6069 75.0892 25.3489ZM75.0243 25.461C75.467 25.7176 75.8946 25.9937 76.3236 26.2708C76.5507 26.4173 76.7781 26.5643 77.0085 26.7086L77.0401 26.7284H77.0773C77.4642 26.7284 77.8428 26.7917 78.237 26.8576C78.3507 26.8766 78.4658 26.8959 78.5827 26.9138C80.4623 27.2173 82.2901 27.7358 84.0087 28.5658L84.051 28.5862L84.0965 28.5748L84.102 28.5734C84.1263 28.5674 84.1568 28.5598 84.1808 28.55C84.2018 28.5415 84.274 28.5092 84.2847 28.4233C84.2891 28.388 84.2802 28.3589 84.2732 28.3414C84.2659 28.3234 84.2564 28.3075 84.2485 28.2953C84.2337 28.2725 84.2125 28.245 84.1903 28.2162L84.1875 28.2125L84.1784 28.2008L84.167 28.1914C82.2901 26.6503 80.2551 25.3069 78.1015 24.1906L78.0961 24.1879C77.9709 24.1301 77.8477 24.0673 77.7218 24.0031L77.7207 24.0026C77.5959 23.939 77.4686 23.874 77.3383 23.814L77.3367 23.8132C77.3242 23.8076 77.3095 23.7988 77.2839 23.7834L77.2796 23.7809C77.2552 23.7663 77.2214 23.7462 77.185 23.7315C77.1486 23.7168 77.0982 23.7025 77.0416 23.7106C76.9804 23.7192 76.9284 23.7515 76.8884 23.8003C76.8487 23.849 76.828 23.9048 76.8298 23.9643C76.8315 24.019 76.8519 24.0643 76.8685 24.0952C76.8785 24.1138 76.8939 24.1385 76.9048 24.1557C76.9092 24.1626 76.9128 24.1683 76.9149 24.1719C76.9208 24.1818 76.9248 24.189 76.9274 24.1948C76.9287 24.1976 76.9295 24.1996 76.9299 24.2011C76.9304 24.2025 76.9305 24.2032 76.9305 24.2031L76.9335 24.2181L76.9399 24.232C77.0145 24.3936 77.1097 24.5449 77.2023 24.6918C77.225 24.7279 77.2477 24.7638 77.2697 24.7995C77.3263 24.891 77.3811 24.9836 77.431 25.0814C75.9935 24.3575 74.4967 23.7877 72.9486 23.3638C72.0568 23.116 70.9664 22.8961 70.0051 22.7552C69.5242 22.6848 69.074 22.6338 68.6958 22.6093C68.3211 22.5849 68.0065 22.5856 67.8025 22.6231L67.3613 22.7044L67.7778 22.8709L67.7787 22.8714C67.8276 22.8908 67.8798 22.9117 67.9424 22.9326L67.9524 22.9359L67.9628 22.9377C70.4565 23.3386 72.8429 24.1991 75.0243 25.461Z" stroke="white" stroke-width="0.259259"/>
<path d="M58.1599 9.54261C58.209 9.65081 58.3469 9.57208 58.4158 9.69021C58.0024 10.0445 57.5891 10.4087 57.1757 10.7629C56.4178 11.4027 55.66 12.0424 54.9022 12.6822C53.8295 13.5876 52.7566 14.5029 51.6741 15.4083C50.9261 16.0383 50.1978 16.6878 49.4498 17.3275C48.5444 18.0951 47.629 18.853 46.7334 19.6207C46.015 20.2308 45.3064 20.8509 44.5879 21.4611C43.8301 22.1009 43.0723 22.7405 42.3145 23.3803L41.5566 24.02L41.7731 23.0555C41.655 22.7405 41.9109 22.6028 42.0782 22.4551C42.7671 21.8843 43.4462 21.2938 44.1253 20.7131C45.7197 19.3648 47.3042 18.0066 48.8986 16.6582C50.2666 15.4969 51.6347 14.3356 53.0027 13.1742C54.2724 12.0916 55.5518 11.0188 56.8115 9.91655C56.91 9.82797 57.0969 9.72953 56.8214 9.62134C57.2642 9.46388 57.717 9.58193 58.1599 9.54261Z" fill="white"/>
<path d="M56.8314 9.62148C56.9298 9.64119 57.048 9.58208 57.1562 9.67066C56.9003 10.0545 56.5165 10.3006 56.172 10.5959C55.2075 11.4423 54.2233 12.269 53.2489 13.0956C52.3534 13.8535 51.4479 14.6015 50.5523 15.3593C49.6566 16.1171 48.7611 16.9045 47.8556 17.6722C46.9502 18.4398 46.0545 19.178 45.1589 19.9358C44.2633 20.6936 43.3677 21.4711 42.4622 22.2486C42.1965 22.4848 41.8324 22.6423 41.7635 23.0458C41.291 23.1049 41.0352 23.4985 40.6907 23.7544C40.1396 24.1481 39.7164 24.6895 39.2145 25.1323C38.7027 25.4964 38.2499 25.9295 37.7775 26.333C36.3603 27.5337 34.9528 28.7443 33.5356 29.9351C33.3388 30.1024 33.1616 30.2993 32.9451 30.4371C32.8467 30.4961 32.7581 30.6142 32.6204 30.5158C32.6105 30.2599 32.6597 30.004 32.768 29.7777C33.4766 29.3249 34.0671 28.7246 34.7068 28.1931C36.4686 26.7169 38.2105 25.2209 39.9624 23.7348C41.7142 22.2486 43.4366 20.7723 45.1786 19.2961C46.8813 17.8493 48.5839 16.4026 50.2866 14.9558C52.0285 13.4795 53.7706 12.0032 55.5028 10.5171C55.8472 10.2218 56.2113 9.94625 56.5362 9.63134L56.8314 9.62148Z" fill="white"/>
<path d="M60.671 9.69057C61.0744 9.68072 61.4583 9.789 61.852 9.83818C61.9602 10.0744 61.7536 10.163 61.6355 10.2712C61.1434 10.7043 60.6316 11.1079 60.1493 11.5507C60.1002 11.4818 60.0411 11.4129 59.9919 11.344C59.8836 11.1866 59.8049 11.2259 59.736 11.3735C59.1553 12.6235 58.1613 13.4896 57.0688 14.2573C55.8485 15.1135 54.5296 15.8319 53.1419 16.4028C53.0632 16.265 53.0632 16.2551 53.1911 16.1272C53.4569 15.8516 53.762 15.6253 54.0474 15.3792C56.1437 13.5978 58.24 11.8263 60.3265 10.0252C60.4446 9.92676 60.5529 9.80871 60.671 9.69057Z" fill="white"/>
<path d="M60.6701 9.6903C60.6602 9.80844 60.5913 9.92649 60.4929 9.99545C59.1446 11.1371 57.7962 12.2886 56.4479 13.4302C55.4145 14.3062 54.391 15.192 53.3576 16.0777C53.269 16.1564 53.0918 16.2155 53.141 16.4025C52.4915 16.7076 51.8222 16.9832 51.1431 17.2095C50.9168 17.1505 51.1037 17.0619 51.1431 17.0225C51.5466 16.6682 51.9501 16.3139 52.3636 15.9695C53.1115 15.3297 53.8693 14.69 54.6272 14.0503C55.3751 13.4204 56.1232 12.7905 56.8613 12.1606C57.5994 11.5308 58.3473 10.891 59.0855 10.2513C59.3217 10.0446 59.617 9.88717 59.7745 9.60172C60.0795 9.58202 60.3748 9.68045 60.6701 9.6903Z" fill="#4169E1"/>
<path d="M55.4349 18.5677C56.2124 18.1839 57.0292 17.8591 57.7083 17.2981C57.8462 17.2883 57.8363 17.3768 57.7969 17.4654C57.1671 20.0637 55.1987 21.7761 52.5315 22.0223C52.0197 22.0714 51.508 22.1304 50.9863 22.0813C51.0552 21.8943 51.2324 21.9041 51.38 21.8647C51.9607 21.7073 52.5315 21.5399 53.0728 21.2644C54.0767 20.7428 54.8148 19.9751 55.238 18.922C55.2676 18.7843 55.3364 18.6563 55.4349 18.5677Z" fill="white"/>
<path d="M52.8605 19.709C53.6369 19.3521 54.4304 19.0436 55.2406 18.769C54.8927 19.8432 54.1642 20.6046 53.1662 21.1711C52.5687 21.5076 51.9123 21.6895 51.2373 21.8764C51.1833 21.8915 51.1292 21.9064 51.0749 21.9215C50.9719 21.4815 51.1445 21.0995 51.433 20.7235C51.7971 20.2568 52.305 19.9624 52.8605 19.709Z" fill="white" stroke="#4169E1" stroke-width="0.259259"/>
<path d="M32.6209 30.5061C33.0539 30.3486 33.3393 29.9746 33.6837 29.6892C34.7959 28.7739 35.8883 27.8389 36.9808 26.9138C37.5615 26.4217 38.1224 25.9296 38.6933 25.4277C38.8508 25.2899 38.9885 25.1423 39.215 25.1226C38.6244 25.8607 38.0634 26.6186 37.6402 27.4748C36.5084 28.4294 35.3765 29.3939 34.2546 30.3585C33.733 30.8014 33.2015 31.2344 32.6897 31.6969C32.611 31.7658 32.5224 31.8544 32.4043 31.756C32.424 31.3426 32.4929 30.9194 32.6209 30.5061Z" fill="#4169E1"/>
<path d="M36.9523 32.494C36.6078 32.5236 36.4504 32.8287 36.2142 33.0157C35.2398 33.803 34.3048 34.61 33.36 35.427C33.0451 35.7025 32.74 35.978 32.4054 36.2339C32.1888 36.4012 32.1003 36.3324 32.1101 36.0765C32.1101 35.7714 32.1101 35.4663 32.1101 35.1514C32.4546 34.7773 32.8581 34.492 33.2419 34.1671C34.3442 33.2321 35.4268 32.2873 36.5488 31.372C36.6472 31.2933 36.726 31.1457 36.8933 31.2441L36.9523 32.494Z" fill="#4169E1"/>
<path d="M41.6953 25.2016C41.7052 25.0736 41.774 24.9653 41.8823 24.8964C42.7681 24.1484 43.6538 23.4005 44.5396 22.6525C45.2679 22.0423 45.9864 21.4124 46.7147 20.7923C47.0985 20.4676 47.4726 20.133 47.8465 19.8082C47.9154 19.7492 47.9843 19.6999 48.0532 19.8082C47.9745 20.1428 47.8761 20.4774 47.8859 20.8317C47.4922 21.2648 47.01 21.6093 46.5671 21.9931C45.1892 23.1741 43.8114 24.3453 42.4335 25.5165C42.3744 25.5656 42.3351 25.6248 42.2858 25.6838C42.0201 25.6346 41.7937 25.4574 41.6953 25.2016Z" fill="white"/>
<path d="M32.3959 31.7661C32.7109 31.6677 32.8979 31.3921 33.1439 31.1953C34.4431 30.1225 35.7126 29.03 37.0019 27.9376C37.2087 27.7703 37.3464 27.5144 37.6515 27.4849C37.4153 28.0655 37.2185 28.656 37.061 29.2564C36.8346 29.2368 36.7165 29.4139 36.5689 29.5418C35.2304 30.6934 33.8821 31.8251 32.5435 32.9668C32.4648 33.0357 32.3861 33.1341 32.2582 33.0947C32.2385 32.6421 32.2877 32.1991 32.3959 31.7661Z" fill="#4169E1"/>
<path d="M42.2851 25.6835C42.1965 25.5162 42.3442 25.467 42.4327 25.3981C43.5646 24.4336 44.6964 23.4691 45.8282 22.5145C46.4679 21.9731 47.1076 21.4318 47.7572 20.8906C47.7965 20.8709 47.8458 20.8512 47.895 20.8413C47.895 21.1465 47.9442 21.4417 48.0327 21.7271C47.6489 22.1798 47.1569 22.5145 46.714 22.8983C45.72 23.7545 44.7259 24.6009 43.7122 25.4473C43.6433 25.4966 43.5843 25.5654 43.5646 25.6442C43.1414 25.8016 42.7182 25.8607 42.2851 25.6835Z" fill="#4169E1"/>
<path d="M36.8729 31.2543C36.4596 31.4904 36.125 31.8349 35.7608 32.14C34.7964 32.9273 33.8515 33.7344 32.9166 34.5513C32.6607 34.7777 32.4244 35.0237 32.0996 35.1713C32.139 34.7776 32.0209 34.3741 32.1685 33.9903C33.6251 32.7502 35.0817 31.5101 36.5482 30.27C36.6466 30.1814 36.7549 30.083 36.9025 30.152L36.8729 31.2543Z" fill="#4169E1"/>
<path d="M36.9117 30.1422C36.4394 30.3882 36.085 30.7819 35.6815 31.1166C34.7269 31.9039 33.8017 32.7109 32.8568 33.4983C32.6502 33.6754 32.5026 33.951 32.1876 33.9805C32.227 33.6853 32.1089 33.3801 32.2664 33.0948C33.1817 32.3074 34.1068 31.5201 35.0319 30.7425C35.652 30.2111 36.2818 29.6895 36.9117 29.158C37.1086 28.9907 37.0593 29.1777 37.0692 29.2663C37.0003 29.5517 36.9609 29.847 36.9117 30.1422Z" fill="#4169E1"/>
<path d="M43.5655 25.6542C43.4277 25.5558 43.5261 25.4869 43.595 25.418C44.4611 24.6897 45.337 23.9614 46.2031 23.2331C46.7444 22.7804 47.2759 22.3178 47.8171 21.8553C47.8763 21.7863 47.9451 21.747 48.0337 21.7273L48.2502 22.1702C48.0829 22.4359 47.8073 22.5934 47.6105 22.8394C46.5475 24.0204 45.3468 25.0145 43.8411 25.5853C43.7525 25.6148 43.6639 25.6345 43.5655 25.6542Z" fill="white"/>
<path d="M60.1484 11.5602C60.2863 11.1469 60.7193 11.0189 60.9752 10.7237C61.2508 10.4087 61.6936 10.2709 61.8609 9.83789C62.1858 9.83789 62.4908 9.92647 62.7959 9.97564C63.0616 10.0249 63.0814 10.143 62.8943 10.3103C62.4908 10.6646 62.0874 11.0288 61.6839 11.3732C61.3 11.698 60.9161 12.0228 60.5323 12.3475C60.3946 12.0819 60.2666 11.8161 60.1484 11.5602Z" fill="#4169E1"/>
<path d="M41.922 28.3905C41.991 28.5578 41.7941 28.6366 41.8138 28.7842C41.7154 28.3314 41.4693 28.1641 41.0166 28.2527C40.5344 28.361 40.1013 28.607 39.7765 28.981C39.688 29.0795 39.5797 29.168 39.4813 29.2566C39.4025 29.1582 39.4813 29.0696 39.5108 28.981C39.7076 28.3413 40.1406 27.8886 40.682 27.5244C40.8001 27.4358 40.9379 27.3768 41.0855 27.3374C41.7154 27.1898 42.0598 27.4949 41.9713 28.1346C41.9811 28.2232 41.9614 28.3118 41.922 28.3905Z" fill="#4169E1"/>
<path d="M41.9206 28.3904C41.9206 28.292 41.9305 28.1935 41.9305 28.0951C41.9403 27.4554 41.5761 27.2094 40.9758 27.4849C40.2868 27.7999 39.8538 28.3608 39.5487 29.0399C39.4798 29.0498 39.4405 29.0301 39.4602 28.9514C39.6766 28.1444 40.0998 27.4849 40.7986 27.0125C40.9758 26.8944 41.1727 26.8255 41.3694 26.7862C41.6943 26.7172 42.019 26.9141 42.0978 27.2389C42.2061 27.6227 42.1469 28.0459 41.9206 28.3904Z" fill="#4169E1"/>
<path d="M47.61 22.8396C47.4821 22.7412 47.6001 22.7019 47.6591 22.6526C47.8659 22.505 47.984 22.2491 48.2399 22.1704C48.5745 22.7019 49.1059 22.9381 49.6669 23.1349C49.7752 23.1743 49.8933 23.2038 50.0803 23.253C49.224 23.4794 48.4859 23.3908 47.8068 22.9282C47.7576 22.8692 47.6887 22.8396 47.61 22.8396Z" fill="white"/>
<path d="M78.0313 24.2957C77.7557 24.2663 77.5589 24.0792 77.3128 23.9907C77.2145 23.9513 77.1259 23.8332 77.0275 23.9119C76.9487 23.9808 77.0766 24.0792 77.0471 24.1777C76.8995 24.0497 76.8404 23.8528 76.7617 23.6659C77.2046 23.8431 77.6377 24.0201 78.0313 24.2957Z" fill="#4169E1"/>
<path d="M84.0645 28.4486C84.1433 28.3993 84.0645 28.3403 84.0743 28.2812L84.4975 28.5174L84.7239 28.8127C84.4483 28.734 84.2613 28.5765 84.0645 28.4486Z" fill="#4169E1"/>
<path d="M67.1074 22.6233C67.3043 22.5937 67.5109 22.6134 67.6979 22.6626C67.4617 22.8004 67.3043 22.7807 67.1074 22.6233Z" fill="#4169E1"/>
<path d="M38.8223 56.7837C39.0487 56.8231 39.1569 57.0494 39.3439 57.1479L39.334 57.2364C39.1274 57.138 38.9503 56.9806 38.8223 56.7837Z" fill="#4169E1"/>
<path d="M85.6973 42.6807L85.8252 42.7594C85.8449 42.907 85.776 43.035 85.6973 43.2121V42.6807Z" fill="#4169E1"/>
<path d="M67.0885 11.4614C67.1378 11.5697 67.2558 11.5303 67.3346 11.5599L66.9409 11.7173C66.9114 11.55 67.0098 11.5106 67.0885 11.4614Z" fill="#4169E1"/>
<path d="M39.4717 28.9507L39.5603 29.0393C39.5407 29.1081 39.5111 29.1869 39.4914 29.2557L39.334 29.4625C39.3734 29.2164 39.3832 29.0688 39.4717 28.9507Z" fill="#4169E1"/>
<path d="M57.7956 17.4554C57.7759 17.3962 57.7858 17.3175 57.707 17.288C57.7267 17.2289 57.7956 17.1502 57.8252 17.1798C57.9137 17.2683 57.8743 17.3668 57.7956 17.4554Z" fill="#4169E1"/>
<path d="M32.916 29.1777C33.0144 28.6463 33.1227 28.1148 33.3589 27.6227C34.225 27.0125 34.9927 26.2842 35.7997 25.6052C37.1973 24.4241 38.5948 23.243 39.9825 22.0522C41.2522 20.9696 42.5217 19.887 43.8012 18.8044C45.1791 17.6332 46.5569 16.462 47.9347 15.2909C49.1847 14.2279 50.4444 13.1649 51.6943 12.0922C52.5703 11.3443 53.4659 10.6061 54.3221 9.83839C54.7847 9.73019 55.2473 9.67108 55.7197 9.69079C55.7591 9.65147 55.8181 9.65147 55.8673 9.67108C55.9756 9.84824 55.8378 9.94668 55.7295 10.0451C54.5387 11.049 53.3577 12.0627 52.1668 13.0765C50.8972 14.1492 49.6374 15.2219 48.3678 16.3046C47.1966 17.2986 46.0353 18.2926 44.8641 19.2867C43.4469 20.4972 42.0198 21.6979 40.5927 22.9084C38.8212 24.4044 37.0595 25.9201 35.2879 27.4161C34.599 27.9967 33.9297 28.5872 33.231 29.1482C33.1719 29.2171 33.0539 29.4435 32.916 29.1777Z" fill="#4169E1"/>
<path d="M54.3226 9.83789C54.1947 10.2512 53.801 10.4087 53.5157 10.6646C52.5807 11.4914 51.6162 12.2885 50.6713 13.0956C49.6084 13.9911 48.5356 14.8868 47.4728 15.7922C46.5475 16.5796 45.6421 17.3768 44.717 18.1641C43.8213 18.9219 42.9159 19.67 42.0203 20.4376C41.1247 21.2053 40.2389 21.973 39.3433 22.7308C38.4477 23.4886 37.5521 24.2464 36.6466 25.0042C35.9085 25.6341 35.1802 26.264 34.442 26.8939C34.1468 27.1498 33.8417 27.3958 33.5366 27.6418C33.4677 27.6911 33.4086 27.7206 33.3496 27.6418C33.4579 27.1301 33.6252 26.6281 33.8614 26.1656C34.5405 25.7326 35.1113 25.1715 35.7215 24.6597C37.1191 23.4787 38.5166 22.2977 39.9043 21.1069C41.3412 19.8766 42.7879 18.6464 44.2249 17.426C45.4158 16.4123 46.6067 15.4084 47.7877 14.3947C49.3329 13.0857 50.8682 11.757 52.4232 10.458C52.5413 10.3792 52.6299 10.2709 52.6791 10.1528C53.2204 9.93632 53.7814 9.94617 54.3226 9.83789Z" fill="white"/>
<path d="M52.6987 10.1333C52.925 10.1923 52.738 10.2809 52.6987 10.3203C52.2852 10.6943 51.862 11.0683 51.4291 11.4324C50.681 12.0623 49.9331 12.6922 49.1851 13.3221C48.0927 14.2374 47.0002 15.1625 45.9077 16.0876C45.0122 16.8454 44.1264 17.623 43.2308 18.3808C42.3056 19.1681 41.3805 19.9457 40.4553 20.7232C39.5598 21.481 38.674 22.2487 37.7783 23.0163C36.8827 23.7741 35.9871 24.532 35.0915 25.2898C34.7667 25.5654 34.4419 25.841 34.1073 26.1165C34.0384 26.1657 33.9695 26.2937 33.8711 26.1559C33.9695 25.6539 34.2353 25.211 34.4616 24.7584C35.6722 23.725 36.8926 22.6916 38.1129 21.6483C39.3629 20.5756 40.6226 19.5126 41.8725 18.4496C43.0732 17.4261 44.2641 16.4124 45.4648 15.3987C46.7246 14.326 47.9942 13.2433 49.254 12.1706C49.9035 11.6194 50.5433 11.0387 51.2224 10.4975C51.685 10.2809 52.1967 10.2219 52.6987 10.1333Z" fill="white"/>
<path d="M51.2217 10.498C50.7492 11.1082 50.1194 11.5315 49.5485 12.0334C48.8006 12.6829 48.0428 13.3227 47.2849 13.9624C46.5468 14.5824 45.8086 15.2024 45.0705 15.8323C44.3323 16.4622 43.6041 17.092 42.8659 17.7121C42.1278 18.342 41.3699 18.9718 40.622 19.6018C39.8936 20.2218 39.1752 20.8418 38.4469 21.4619C37.5218 22.2492 36.5966 23.0268 35.6715 23.8043C35.3467 24.0798 35.0121 24.3554 34.6873 24.631C34.6282 24.69 34.5495 24.7294 34.4609 24.7392C34.6971 24.1192 34.9924 23.5287 35.3467 22.9677C37.0297 21.5997 38.6733 20.1726 40.3267 18.7652C42.2459 17.1315 44.165 15.5174 46.0744 13.8738C47.1471 12.9487 48.2691 12.0628 49.3123 11.0886C49.9226 10.8425 50.5623 10.6457 51.2217 10.498Z" fill="#4169E1"/>
<path d="M49.3035 11.0979C49.3822 11.2258 49.2444 11.2652 49.1854 11.3242C48.3684 12.0427 47.5417 12.7514 46.7151 13.4599C45.9867 14.08 45.2584 14.6902 44.5301 15.3103C43.6247 16.0779 42.7193 16.8456 41.8138 17.6034C41.0756 18.2332 40.3473 18.8631 39.6092 19.4832C38.6841 20.2706 37.7589 21.048 36.8437 21.8255C36.4598 22.1503 36.076 22.485 35.702 22.8098C35.6035 22.9082 35.4756 22.9672 35.3477 22.9869C35.8004 22.0716 36.3515 21.2056 36.9716 20.4083C37.5424 19.9851 38.064 19.5028 38.6053 19.0502C40.0127 17.8593 41.4103 16.6684 42.8078 15.4776C43.8904 14.5524 44.973 13.6272 46.0557 12.712C46.223 12.5742 46.4296 12.4758 46.5576 12.2888C47.4237 11.7474 48.3685 11.4325 49.3035 11.0979Z" fill="white"/>
<path d="M64.8741 44.019C64.1359 44.6292 63.3978 45.2493 62.4136 45.6725C62.699 45.1016 62.9155 44.5012 63.0631 43.8812C63.6438 41.3223 63.1025 38.9898 61.5967 36.8738C61.2227 36.3522 60.7207 35.9487 60.2779 35.4861C60.209 35.4073 60.1302 35.3188 60.0023 35.3778C59.8645 35.3089 59.8055 35.181 59.707 35.0826C59.7661 35.0038 59.835 35.0432 59.9039 35.0826C61.6853 36.0963 63.1714 37.4052 64.0867 39.285C64.5296 40.2102 64.8052 41.2141 64.8938 42.2376C64.9528 42.8281 64.9429 43.4285 64.8741 44.019Z" fill="white"/>
<path d="M32.9172 29.1774C33.2124 29.2857 33.3109 28.9904 33.4585 28.8723C34.9545 27.6322 36.4307 26.3725 37.907 25.1029C39.3046 23.912 40.6825 22.7113 42.08 21.5204C43.635 20.2016 45.1999 18.8926 46.7647 17.5738C48.1623 16.383 49.55 15.1823 50.9475 13.9914C52.4534 12.712 53.9591 11.4227 55.4748 10.1334C55.6322 10.0054 55.8488 9.9365 55.8783 9.69046C55.9669 9.61173 56.085 9.70031 56.1736 9.62158H56.5476C56.4393 10.0152 56.0554 10.1531 55.7898 10.3892C55.0221 11.0782 54.2249 11.7277 53.4474 12.3871C52.5518 13.145 51.6463 13.9028 50.7507 14.6606C50.0224 15.2807 49.304 15.9007 48.5756 16.5207C47.5029 17.4261 46.4202 18.3317 45.3573 19.2469C44.629 19.867 43.9106 20.4871 43.1822 21.107C42.2571 21.8944 41.332 22.6719 40.4069 23.4494C39.6785 24.0695 38.9601 24.6895 38.2318 25.3095C37.4838 25.9394 36.7359 26.5693 35.9879 27.1992C35.2398 27.8291 34.5017 28.4786 33.7538 29.1085C33.4979 29.325 33.2223 29.5416 32.9565 29.7581C32.8975 29.8072 32.8384 29.8467 32.7695 29.7581C32.7695 29.5711 32.8188 29.3644 32.9172 29.1774Z" fill="white"/>
<path d="M46.5666 12.269C46.5075 12.6234 46.163 12.7119 45.9465 12.9087C45.1887 13.5878 44.4112 14.2276 43.6337 14.887C42.7282 15.6546 41.8227 16.4124 40.9173 17.1801C40.189 17.8002 39.4706 18.4202 38.7422 19.0402C38.2108 19.493 37.6892 19.9457 37.1577 20.3984C37.0987 20.4476 37.0396 20.487 36.9707 20.3984C37.3546 19.8079 37.7876 19.2469 38.26 18.7154C39.9922 16.6979 41.9704 14.946 44.234 13.5386C44.9918 13.076 45.7398 12.5938 46.5666 12.269Z" fill="white"/>
<path d="M59.3416 9.62147C59.0956 9.59191 58.8397 9.7002 58.6035 9.55251C58.8496 9.58206 59.1054 9.47378 59.3416 9.62147Z" fill="#4169E1"/>
<path d="M56.1636 9.62133C56.0849 9.72961 55.9667 9.68035 55.8683 9.69021H55.7207C55.8585 9.5623 56.016 9.64103 56.1636 9.62133Z" fill="#4169E1"/>
<path d="M49.0762 60.9965C51.4875 61.1048 53.8889 60.721 56.1426 59.8843C58.3374 59.0872 60.3845 57.9357 62.2052 56.4692C63.9867 55.0224 65.522 53.3691 66.5456 51.2924C67.0967 50.1803 67.4411 48.9795 67.5494 47.7494C67.6479 46.6372 67.4608 45.5841 67.1557 44.5409C67.1853 44.285 67.4214 44.1669 67.5593 43.9898C68.0907 43.291 68.4746 42.543 68.6419 41.6769C68.6714 41.5588 68.7107 41.4505 68.76 41.3423C69.0946 42.0115 69.3604 42.7103 69.5473 43.4287C69.8032 44.4424 69.9509 45.4758 69.8721 46.5191C69.7343 48.33 69.193 50.0917 68.2875 51.6664C67.3821 53.2608 66.2207 54.6189 64.8823 55.8394C63.7012 56.8924 62.4021 57.8078 61.0045 58.5459C59.3216 59.4611 57.5304 60.1402 55.6604 60.5831C54.4991 60.8587 53.3082 61.026 52.1174 61.0949C51.5366 61.1245 50.9658 61.1736 50.395 61.1442C49.9718 61.1048 49.5191 61.1343 49.0762 60.9965Z" fill="#4169E1"/>
</g>
</g>
<defs>
<clipPath id="clip0_184_2752">
<rect width="115" height="70" fill="white" transform="translate(0.720703)"/>
</clipPath>
<clipPath id="clip1_184_2752">
<rect width="69.1358" height="70" fill="white" transform="translate(23.6523)"/>
</clipPath>
</defs>
</svg>
