<svg width="116" height="102" viewBox="0 0 116 102" fill="none" xmlns="http://www.w3.org/2000/svg">
<g clip-path="url(#clip0_184_2965)">
<g clip-path="url(#clip1_184_2965)">
<g clip-path="url(#clip2_184_2965)">
<mask id="mask0_184_2965" style="mask-type:luminance" maskUnits="userSpaceOnUse" x="23" y="0" width="70" height="70">
<path d="M92.7881 0.62207H23.6523V69.7579H92.7881V0.62207Z" fill="white"/>
</mask>
<g mask="url(#mask0_184_2965)">
<path d="M73.1328 41.2132V23.8676H76.2957V41.2132H73.1328Z" stroke="#4169E1" stroke-width="0.432099"/>
<path d="M31.3165 46.7233H23.6523V28.9456H31.0005C34.556 28.9456 36.6499 30.8814 36.6499 33.9233C36.6499 35.8986 35.3067 37.1629 34.398 37.5974C35.5042 38.111 36.9264 39.2172 36.9264 41.5875C36.9264 44.906 34.5955 46.6838 31.3165 46.6838V46.7233ZM30.7239 32.0665H27.2079V36.1752H30.7239C32.2252 36.1752 33.0943 35.3455 33.0943 34.1209C33.0943 32.8962 32.2252 32.0665 30.7239 32.0665ZM30.961 39.2961H27.2474V43.6813H30.961C32.5807 43.6813 33.3708 42.6936 33.3708 41.469C33.3708 40.2838 32.5807 39.2961 31.0005 39.2961H30.961Z" fill="#4169E1"/>
<path d="M47.791 39.4148V46.7234H44.2355V39.4148L38.7441 28.9457H42.6552L46.0527 36.0963L49.4108 28.9457H53.2824L47.791 39.4148Z" fill="#4169E1"/>
<path d="M63.4337 46.7233H55.7695V28.9456H63.1176C66.6732 28.9456 68.767 30.8814 68.767 33.9233C68.767 35.8986 67.4238 37.1629 66.5151 37.5974C67.6213 38.111 69.0435 39.2172 69.0435 41.5875C69.0435 44.906 66.7127 46.6838 63.4337 46.6838V46.7233ZM62.8411 32.0665H59.3646V36.1752H62.8411C64.3423 36.1752 65.2114 35.3455 65.2114 34.1209C65.2114 32.8962 64.3423 32.0665 62.8411 32.0665ZM63.0781 39.2961H59.3646V43.6813H63.0781C64.6979 43.6813 65.4879 42.6936 65.4879 41.469C65.4879 40.2838 64.6979 39.2961 63.0781 39.2961Z" fill="#4169E1"/>
<path d="M88.0096 32.0271V46.7234H84.454V32.0271H79.6738V28.9457H92.7898V32.0271H88.0096Z" fill="#4169E1"/>
</g>
</g>
</g>
</g>
<defs>
<clipPath id="clip0_184_2965">
<rect width="115" height="70" fill="white" transform="translate(0.720703 0.189941)"/>
</clipPath>
<clipPath id="clip1_184_2965">
<rect width="115" height="70" fill="white" transform="translate(0.720703 0.189941)"/>
</clipPath>
<clipPath id="clip2_184_2965">
<rect width="69.1358" height="70" fill="white" transform="translate(23.6523 0.189941)"/>
</clipPath>
</defs>
</svg>
