<svg width="116" height="102" viewBox="0 0 116 102" fill="none" xmlns="http://www.w3.org/2000/svg">
<g clip-path="url(#clip0_184_3030)">
<g clip-path="url(#clip1_184_3030)">
<g clip-path="url(#clip2_184_3030)">
<path d="M23.9802 45.936C23.4316 36.3077 27.538 25.3024 35.7482 17.0484C54.083 -1.38522 91.8472 1.36611 92.1216 1.36611C92.1216 1.64041 64.2078 42.0847 31.3674 45.659C29.1784 45.936 26.4436 45.936 23.9802 45.936Z" fill="#4169E1"/>
<path d="M28.084 58.3156C28.9042 59.6899 29.9987 61.3413 31.3675 62.4413C42.5868 73.7208 62.8391 71.5209 76.796 57.7642C94.8592 39.6076 92.396 1.0918 92.396 1.0918C92.396 1.3661 72.418 46.2103 40.6721 55.8386C36.5684 57.4899 32.1904 58.0413 28.084 58.3156Z" fill="#4169E1"/>
</g>
</g>
</g>
<defs>
<clipPath id="clip0_184_3030">
<rect width="115" height="70" fill="white" transform="translate(0.720703 0.379883)"/>
</clipPath>
<clipPath id="clip1_184_3030">
<rect width="115" height="70" fill="white" transform="translate(0.720703 0.379883)"/>
</clipPath>
<clipPath id="clip2_184_3030">
<rect width="69.0909" height="70" fill="white" transform="translate(23.6758 0.379883)"/>
</clipPath>
</defs>
</svg>
