<svg width="116" height="102" viewBox="0 0 116 102" fill="none" xmlns="http://www.w3.org/2000/svg">
<g clip-path="url(#clip0_184_3036)">
<g clip-path="url(#clip1_184_3036)">
<g clip-path="url(#clip2_184_3036)">
<path d="M58.2203 0.812012L28.2734 18.096V52.6639L58.2203 69.9478L88.1672 52.6639V18.096L58.2203 0.812012ZM58.2203 0.812012L28.2734 18.096V52.6639L58.2203 69.9478L88.1672 52.6639V18.096L58.2203 0.812012Z" fill="#4169E1"/>
<path d="M70.0426 56.4442H65.781L60.6816 51.7623V49.3619L65.9635 44.3206V36.3395L72.8661 31.8374L80.7282 37.7775L70.0426 56.4442ZM52.3991 43.8421L53.179 36.3395L50.5988 29.6168H65.8419L63.3198 36.3395L64.0416 43.8421H58.1595H52.3991ZM55.8808 51.7623L50.7786 56.5023H46.4562L35.7125 37.7775L43.6354 31.8955L50.596 36.3368V44.3178L55.878 49.3592L55.8808 51.7623ZM46.3981 15.7564H69.9845L72.8052 27.7584H43.6382L46.3981 15.7564ZM58.2203 0.812012L28.2734 18.096V52.6639L58.2203 69.9478L88.1672 52.6639V18.096L58.2203 0.812012Z" fill="#4169E1"/>
</g>
</g>
</g>
<defs>
<clipPath id="clip0_184_3036">
<rect width="115" height="70" fill="white" transform="translate(0.720703 0.379883)"/>
</clipPath>
<clipPath id="clip1_184_3036">
<rect width="115" height="70" fill="white" transform="translate(0.720703 0.379883)"/>
</clipPath>
<clipPath id="clip2_184_3036">
<rect width="69.1358" height="70" fill="white" transform="translate(23.6523 0.379883)"/>
</clipPath>
</defs>
</svg>
