<svg width="116" height="102" viewBox="0 0 116 102" fill="none" xmlns="http://www.w3.org/2000/svg">
<g clip-path="url(#clip0_184_2978)">
<g clip-path="url(#clip1_184_2978)">
<g clip-path="url(#clip2_184_2978)">
<path fill-rule="evenodd" clip-rule="evenodd" d="M92.7881 35.19C92.7881 54.2813 77.3116 69.7579 58.2202 69.7579C39.1289 69.7579 23.6523 54.2813 23.6523 35.19C23.6523 16.0986 39.1289 0.62207 58.2202 0.62207C77.3116 0.62207 92.7881 16.0986 92.7881 35.19ZM62.2768 28.8446L56.1105 47.5796L64.1629 47.5755L66.778 39.6087H75.8176H75.993C78.3609 39.5949 81.0202 38.054 82.7668 35.6792C83.319 34.933 83.762 34.112 84.0827 33.2408L84.1323 33.111C84.1444 33.0788 84.1557 33.0484 84.1664 33.0182C84.1718 33.0032 84.177 32.9882 84.182 32.973L85.3446 29.4328C86.5417 25.7738 84.8089 22.7983 81.4786 22.7983H63.1246L65.2468 29.811L62.2768 28.8446ZM73.0271 35.472H68.138L70.9381 26.9433H75.8286C77.0492 26.9433 77.6858 28.0355 77.2439 29.3803L76.0427 33.0351C75.6036 34.3785 74.2505 35.472 73.0271 35.472ZM34.3212 47.5216C34.528 47.5522 34.7364 47.5712 34.9453 47.5782L51.2834 47.5796L57.4526 28.8488L53.8198 29.8152L60.5481 22.8025H51.3663L44.5897 43.4374H40.5759C40.3144 43.4445 40.0557 43.3821 39.8261 43.2566C39.1123 42.8825 38.8596 41.9973 39.1855 41.0019L45.164 22.8025H37.0454L31.1552 40.7202C31.1552 40.7202 31.0337 41.1137 31.0088 41.2049C30.7134 42.2542 30.6153 43.3311 30.8514 44.404C30.8981 44.6165 30.9595 44.8254 31.0351 45.0295C31.1814 45.4308 31.3897 45.8067 31.6523 46.1437C32.0872 46.6974 32.6616 47.0274 33.3091 47.2718C33.6349 47.3962 33.9749 47.4802 34.3212 47.5216Z" fill="#4169E1"/>
</g>
</g>
</g>
<defs>
<clipPath id="clip0_184_2978">
<rect width="115" height="70" fill="white" transform="translate(0.720703 0.189941)"/>
</clipPath>
<clipPath id="clip1_184_2978">
<rect width="115" height="70" fill="white" transform="translate(0.720703 0.189941)"/>
</clipPath>
<clipPath id="clip2_184_2978">
<rect width="69.1358" height="70" fill="white" transform="translate(23.6523 0.189941)"/>
</clipPath>
</defs>
</svg>
