<svg width="116" height="102" viewBox="0 0 116 102" fill="none" xmlns="http://www.w3.org/2000/svg">
<g clip-path="url(#clip0_184_2997)">
<g clip-path="url(#clip1_184_2997)">
<g clip-path="url(#clip2_184_2997)">
<path fill-rule="evenodd" clip-rule="evenodd" d="M36.2914 11.6145C35.2111 5.9972 39.5321 0.812012 45.1494 0.812012C50.1185 0.812012 54.2235 4.91695 54.2235 9.88609V21.1207C55.5198 21.1207 56.8161 20.9046 58.1124 20.9046C59.4087 20.9046 60.4889 20.9046 61.7852 21.1207V9.88609C61.7852 4.91695 65.8901 0.812012 70.8593 0.812012C76.4766 0.812012 80.7976 5.9972 79.9334 11.6145L77.5568 24.7935C85.9827 28.4663 92.4642 34.9478 92.4642 42.9416V47.9108C92.4642 54.6083 88.1432 60.2256 81.8778 63.8984C75.6124 67.7873 67.4025 69.9478 58.1124 69.9478C48.8222 69.9478 40.6124 67.7873 34.3469 63.8984C28.2976 60.2256 23.9766 54.6083 23.9766 47.9108V42.9416C23.9766 34.9478 30.242 28.4663 38.6679 24.7935L36.2914 11.6145ZM74.3161 26.5219L77.1247 10.9663C77.7729 7.07744 74.9642 3.4046 70.8593 3.4046C67.4025 3.4046 64.5938 6.21325 64.5938 9.67004V23.9293C63.7296 23.7132 62.6494 23.7132 61.7852 23.7132C60.4889 23.7132 59.4087 23.4972 58.1124 23.4972C56.8161 23.4972 55.5198 23.4972 54.2235 23.7132C53.3593 23.7132 52.279 23.9293 51.4148 23.9293V9.88609C51.4148 6.4293 48.6062 3.62065 45.1494 3.62065C41.2605 3.62065 38.2358 7.29349 39.1 11.1824L41.9087 26.7379C32.8346 30.1947 26.7852 36.2441 26.7852 43.1577V48.1268C26.7852 58.7132 40.8284 67.3552 58.1124 67.3552C75.3963 67.3552 89.4395 58.7132 89.4395 48.1268V43.1577C89.6556 36.0281 83.6062 29.9787 74.3161 26.5219Z" fill="#4169E1"/>
<path d="M77.5492 11.259L77.5501 11.2533C78.2405 7.11157 75.025 3.18848 70.8585 3.18848C67.1631 3.18848 64.161 6.19058 64.161 9.88601V23.6679C62.159 23.4688 60.1369 23.2811 58.1116 23.2811C55.8864 23.2811 53.8504 23.4686 51.8461 23.6679V9.88601C51.8461 6.19058 48.844 3.18848 45.1486 3.18848C40.9883 3.18848 37.7556 7.1107 38.6761 11.2704L41.6307 26.4651C32.6836 29.9661 26.5684 36.0597 26.5684 43.1576C26.5684 48.6578 30.2145 53.5827 35.9564 57.1099C41.7059 60.6417 49.6187 62.8181 58.3276 62.8181C67.0366 62.8181 74.9493 60.6417 80.6988 57.1099C86.4408 53.5827 90.0869 48.6578 90.0869 43.1576C90.0869 36.0533 83.751 29.961 74.804 26.4633L77.5492 11.259Z" stroke="#4169E1" stroke-width="0.864198"/>
<path d="M49.4702 41.6453C49.4702 44.4539 47.9579 46.8305 46.0134 46.8305C44.069 46.8305 42.5566 44.4539 42.5566 41.6453C42.5566 38.8366 44.069 36.4601 46.0134 36.4601C47.9579 36.4601 49.4702 38.8366 49.4702 41.6453Z" fill="#4169E1"/>
<path d="M73.4526 41.6451C73.4526 44.4538 71.9403 46.8303 69.9959 46.8303C68.0514 46.8303 66.5391 44.4538 66.5391 41.6451C66.5391 38.8365 68.0514 36.46 69.9959 36.46C71.9403 36.46 73.4526 38.8365 73.4526 41.6451Z" fill="#4169E1"/>
</g>
</g>
</g>
<defs>
<clipPath id="clip0_184_2997">
<rect width="115" height="70" fill="white" transform="translate(0.720703 0.379883)"/>
</clipPath>
<clipPath id="clip1_184_2997">
<rect width="115" height="70" fill="white" transform="translate(0.720703 0.379883)"/>
</clipPath>
<clipPath id="clip2_184_2997">
<rect width="69.1358" height="70" fill="white" transform="translate(23.6523 0.379883)"/>
</clipPath>
</defs>
</svg>
