<svg width="116" height="102" viewBox="0 0 116 102" fill="none" xmlns="http://www.w3.org/2000/svg">
<g clip-path="url(#clip0_184_3042)">
<g clip-path="url(#clip1_184_3042)">
<g clip-path="url(#clip2_184_3042)">
<path fill-rule="evenodd" clip-rule="evenodd" d="M92.7881 35.3799C92.7881 54.4712 77.3116 69.9478 58.2202 69.9478C39.1289 69.9478 23.6523 54.4712 23.6523 35.3799C23.6523 16.2886 39.1289 0.812012 58.2202 0.812012C77.3116 0.812012 92.7881 16.2886 92.7881 35.3799ZM40.9481 39.6809C40.9472 39.8771 40.9461 40.0735 40.9461 40.2698L40.9441 40.2691C40.9481 41.4729 40.9481 42.6753 40.9366 43.8906C40.9336 44.2595 40.9776 44.6273 41.0677 44.985C41.3343 45.9964 42.2519 46.7864 43.2072 46.8579C44.5946 46.9599 45.5122 45.9181 45.7303 44.9627C45.8521 44.4302 45.8513 43.8908 45.8506 43.3513C45.8505 43.3081 45.8505 43.2648 45.8505 43.2216C45.8477 41.2411 45.8464 39.2607 45.8464 37.2802C45.8464 36.7853 45.9409 36.3215 46.2265 35.9076C46.824 35.0427 47.6214 34.535 48.6969 34.7119C49.7535 34.8847 50.4381 35.5389 50.7541 36.5659C50.8931 37.0135 50.9121 37.48 50.9121 37.9425C50.9184 40.0296 50.9198 42.1168 50.9161 44.2039C50.9132 44.593 50.9818 44.9793 51.1187 45.3436C51.4718 46.2705 52.2502 46.8478 53.1718 46.8781C53.6352 46.9014 54.0947 46.7824 54.4886 46.5371C54.8825 46.2917 55.192 45.9318 55.3755 45.5055C55.6051 44.9945 55.6726 44.449 55.6726 43.8926C55.6699 42.4563 55.6708 41.0181 55.6717 39.5803C55.6722 38.8616 55.6726 38.1429 55.6726 37.4247C55.6726 36.6989 55.8867 36.0636 56.3795 35.518C57.3834 34.4006 58.9403 34.3669 59.9747 35.4539C60.4737 35.9696 60.7483 36.6619 60.7383 37.3794C60.7409 38.8343 60.7401 40.2888 60.7392 41.7435C60.7387 42.47 60.7383 43.1965 60.7383 43.923C60.7349 44.2554 60.76 44.5874 60.8132 44.9155C60.9106 45.4864 61.2174 46.0005 61.6736 46.3571C62.1299 46.7139 62.7027 46.8877 63.2802 46.8444C64.5347 46.758 65.4684 45.8175 65.4798 44.588C65.4901 43.1552 65.49 41.724 65.49 40.2924C65.49 39.5559 65.49 38.8193 65.4913 38.0823C65.4913 37.8 65.4995 37.5185 65.5218 37.2363C65.5778 36.4842 65.8411 35.83 66.4204 35.3148C67.4547 34.4007 68.8685 34.4385 69.79 35.4275C70.3167 35.9974 70.557 36.682 70.557 37.453V43.3532C70.5569 43.8292 70.5946 44.3044 70.6698 44.7744C70.7764 45.4772 71.0749 46.0639 71.6825 46.4623C73.0382 47.3609 74.8882 46.6236 75.3283 45.0033C75.4411 44.586 75.456 44.1607 75.4634 43.736C75.4706 43.287 75.4735 42.8368 75.4765 42.3862C75.4801 41.8586 75.4835 41.3305 75.4937 40.8031C75.5242 38.9904 75.5134 37.1816 75.2913 35.3803C75.1029 33.7503 74.7007 32.1521 74.0949 30.6272C72.7823 27.3818 70.5975 24.8547 67.6869 22.9446C64.7162 20.9968 61.4283 20.1245 57.8972 20.0982C57.0661 20.0908 56.2465 20.192 55.4302 20.3163C53.8699 20.5577 52.3533 21.0265 50.9289 21.7077C47.7037 23.2275 45.1429 25.4947 43.3268 28.5782C42.2437 30.4139 41.5814 32.3988 41.2169 34.5013C41.0034 35.7543 40.9113 37.0249 40.9421 38.2956C40.953 38.7575 40.9506 39.2191 40.9481 39.6809Z" fill="#4169E1"/>
</g>
</g>
</g>
<defs>
<clipPath id="clip0_184_3042">
<rect width="115" height="70" fill="white" transform="translate(0.720703 0.379883)"/>
</clipPath>
<clipPath id="clip1_184_3042">
<rect width="115" height="70" fill="white" transform="translate(0.720703 0.379883)"/>
</clipPath>
<clipPath id="clip2_184_3042">
<rect width="69.1358" height="70" fill="white" transform="translate(23.6523 0.379883)"/>
</clipPath>
</defs>
</svg>
