<svg width="116" height="102" viewBox="0 0 116 102" fill="none" xmlns="http://www.w3.org/2000/svg">
<g clip-path="url(#clip0_184_2733)">
<g clip-path="url(#clip1_184_2733)">
<mask id="mask0_184_2733" style="mask-type:luminance" maskUnits="userSpaceOnUse" x="23" y="0" width="70" height="70">
<path d="M92.7881 0.432129H23.6523V69.5679H92.7881V0.432129Z" fill="white"/>
</mask>
<g mask="url(#mask0_184_2733)">
<path d="M30.6185 34.9998L27.1368 38.3571L23.6523 34.9998L27.134 31.6426L30.6185 34.9998ZM39.053 26.8695L44.9987 32.5994L48.4804 29.2422L39.053 20.1854L29.6257 29.2699L33.1101 32.6271L39.053 26.8695ZM50.9416 31.6426L47.4599 34.9998L50.9416 38.3571L54.4233 34.9998L50.9416 31.6426ZM39.053 43.1302L33.1074 37.4002L29.6257 40.7298L39.053 49.817L48.4804 40.7298L44.9987 37.3726L39.053 43.1302ZM39.053 38.3267L42.5375 34.9722L39.0558 31.615L35.5714 34.9722L39.053 38.3267ZM57.7833 43.1302V40.6994H60.0039V43.1302H57.7833ZM77.2962 36.1862C77.2962 40.9317 74.4755 43.3902 70.272 43.3902C66.099 43.3902 63.2478 40.9317 63.2478 36.33V26.8695H65.1394V36.2166C65.1394 39.7177 67.0613 41.6867 70.3024 41.6867C73.4246 41.6867 75.377 39.8642 75.377 36.3328V26.8695H77.2685V36.1862H77.2962ZM87.2932 34.1038C91.0459 34.8837 92.7881 36.2166 92.7881 38.7332C92.7881 41.5401 90.3878 43.3625 87.025 43.3625C84.3536 43.3625 82.1606 42.4942 80.1197 40.7575L81.2922 39.3969C83.0621 40.9317 84.7435 41.6839 87.0858 41.6839C89.3369 41.6839 90.8385 40.5556 90.8385 38.9074C90.8385 37.3726 89.9978 36.507 86.4553 35.7825C82.5809 34.9722 80.7806 33.7554 80.7806 31.0646C80.7806 28.4596 83.123 26.6095 86.3336 26.6095C88.7949 26.6095 90.5371 27.276 92.2489 28.6062L91.1372 30.0248C89.5775 28.7804 88.015 28.2605 86.2728 28.2605C84.0826 28.2605 82.6694 29.4192 82.6694 30.8932C82.7303 32.4833 83.571 33.3516 87.2932 34.1038Z" fill="#4169E1"/>
</g>
</g>
</g>
<defs>
<clipPath id="clip0_184_2733">
<rect width="115" height="70" fill="white" transform="translate(0.720703)"/>
</clipPath>
<clipPath id="clip1_184_2733">
<rect width="69.1358" height="70" fill="white" transform="translate(23.6523)"/>
</clipPath>
</defs>
</svg>
