<svg width="23" height="23" viewBox="0 0 23 23" fill="none" xmlns="http://www.w3.org/2000/svg">
<path d="M11.1051 0C19.6122 0 21.4616 5.6591 21.4616 8.87702C21.4616 11.3088 19.4287 12.9457 16.997 12.9457H5.21311C2.78137 12.9457 0.748535 11.3088 0.748535 8.87702C0.748535 5.6591 2.59791 0 11.1051 0Z" fill="#FFB300"/>
<path d="M22.1916 13.0775C21.9841 11.5268 20.1995 10.3863 20.0644 8.82765C20.0346 8.48426 20.0069 8.10656 19.983 7.69407C19.798 4.92 15.9513 7.13926 11.1059 7.13926C6.26056 7.13926 2.41385 4.92 2.22892 7.69407C2.205 8.10656 2.17723 8.48426 2.14746 8.82765C2.01234 10.3863 0.227787 11.5268 0.0202871 13.0775C-0.228014 14.933 1.90459 17.0368 3.03356 18.5301C4.78944 20.8528 8.31152 22.1932 11.1059 22.1932C13.9003 22.1932 17.4224 20.8528 19.1783 18.5301C20.3073 17.0368 22.4399 14.933 22.1916 13.0775Z" fill="#FFDD67"/>
<path d="M15.7284 14.7947C17.0562 14.7947 18.1326 13.7183 18.1326 12.3905C18.1326 11.0627 17.0562 9.98633 15.7284 9.98633C14.4006 9.98633 13.3242 11.0627 13.3242 12.3905C13.3242 13.7183 14.4006 14.7947 15.7284 14.7947Z" fill="white"/>
<path d="M15.7284 14.0554C16.6477 14.0554 17.3928 13.3102 17.3928 12.391C17.3928 11.4718 16.6477 10.7266 15.7284 10.7266C14.8092 10.7266 14.064 11.4718 14.064 12.391C14.064 13.3102 14.8092 14.0554 15.7284 14.0554Z" fill="#664E27"/>
<path d="M15.7284 12.9456C16.0348 12.9456 16.2832 12.6972 16.2832 12.3908C16.2832 12.0843 16.0348 11.8359 15.7284 11.8359C15.422 11.8359 15.1736 12.0843 15.1736 12.3908C15.1736 12.6972 15.422 12.9456 15.7284 12.9456Z" fill="#666666"/>
<path d="M6.48158 14.7947C7.80938 14.7947 8.88578 13.7183 8.88578 12.3905C8.88578 11.0627 7.80938 9.98633 6.48158 9.98633C5.15379 9.98633 4.07739 11.0627 4.07739 12.3905C4.07739 13.7183 5.15379 14.7947 6.48158 14.7947Z" fill="white"/>
<path d="M6.48158 14.0554C7.40082 14.0554 8.14602 13.3102 8.14602 12.391C8.14602 11.4718 7.40082 10.7266 6.48158 10.7266C5.56233 10.7266 4.81714 11.4718 4.81714 12.391C4.81714 13.3102 5.56233 14.0554 6.48158 14.0554Z" fill="#664E27"/>
<path d="M6.48157 12.9456C6.78799 12.9456 7.03639 12.6972 7.03639 12.3908C7.03639 12.0843 6.78799 11.8359 6.48157 11.8359C6.17516 11.8359 5.92676 12.0843 5.92676 12.3908C5.92676 12.6972 6.17516 12.9456 6.48157 12.9456Z" fill="#666666"/>
<path d="M14.1031 17.051C12.1798 18.3826 10.0345 18.3826 8.11114 17.051C7.88921 16.9031 7.66729 17.162 7.81524 17.4209C8.40704 18.3826 9.59064 19.2333 11.1071 19.2333C12.6236 19.2333 13.8072 18.3826 14.399 17.4209C14.547 17.162 14.3251 16.9031 14.1031 17.051Z" fill="#937237"/>
</svg>
