<svg width="23" height="23" viewBox="0 0 23 23" fill="none" xmlns="http://www.w3.org/2000/svg">
<path d="M18.7387 16.2751C18.7387 20.4741 15.3379 20.4741 11.1042 20.4741C6.87055 20.4741 3.46973 20.4741 3.46973 16.2751C3.46973 12.0761 6.90525 5.20508 11.1042 5.20508C15.3032 5.20508 18.7387 12.0414 18.7387 16.2751Z" fill="#DBB471"/>
<path opacity="0.5" d="M18.7378 16.2748C18.7378 15.4974 15.6069 14.7719 14.8632 14.9983C14.6646 15.0588 14.4526 15.1143 14.2265 15.1643C9.54168 16.1707 11.9708 17.4894 10.1316 17.6629C8.88218 17.7739 5.96659 17.3963 4.4243 16.0322C4.14051 15.7812 3.43408 15.9306 3.43408 16.3095C3.46878 20.4738 6.90431 20.4738 11.1033 20.4738C15.3023 20.4738 18.7378 20.4738 18.7378 16.2748Z" fill="#89664C"/>
<path d="M11.8896 19.0618C11.8296 19.0781 11.7676 19.0864 11.7054 19.0864C11.3164 19.0864 11.001 19.4017 11.001 19.7908V19.9551C11.001 20.275 11.1767 20.5689 11.4584 20.7204L12.8984 21.4946C13.7492 21.952 14.7479 22.0487 15.6707 21.7631L20.8633 20.1559C21.2513 20.0358 21.5158 19.677 21.5158 19.2709C21.5158 18.9417 21.341 18.6372 21.0568 18.4711L19.9713 17.8367C19.2499 17.4151 18.3895 17.3008 17.5831 17.5193L11.8896 19.0618Z" fill="#699635"/>
<path d="M14.6337 17.8462C13.0567 18.1715 12.0491 19.4967 13.4226 20.337C13.7338 20.5273 14.4872 20.8131 14.8491 20.7674C15.7861 20.6491 17.8004 20.2825 19.9754 19.1844C20.6816 18.8279 21.0672 18.0809 20.4222 17.6228C19.7758 17.1636 18.1314 16.6317 17.4139 16.9692C16.771 17.2718 15.8718 17.5909 14.6337 17.8462Z" fill="#83BF4F"/>
<path d="M9.4665 19.0383C9.51805 19.0474 9.57046 19.0508 9.62277 19.0484C10.0048 19.0311 10.332 19.3193 10.3629 19.7005L10.3715 19.8066C10.3962 20.1108 10.25 20.4034 9.99214 20.5665L8.60979 21.4404C7.82959 21.9336 6.88703 22.1011 5.98468 21.9068L0.766206 20.7832C0.393522 20.703 0.116249 20.3898 0.081735 20.0101C0.0532593 19.6969 0.195774 19.3926 0.454635 19.214L1.4822 18.5048C2.13397 18.055 2.93681 17.8803 3.71658 18.0186L9.4665 19.0383Z" fill="#699635"/>
<path d="M6.68593 18.1112C8.21614 18.2924 9.25878 19.5037 7.99774 20.3893C7.72106 20.5835 7.0423 20.8957 6.70453 20.8812C5.80584 20.8425 3.83252 20.6578 1.62826 19.8175C0.906531 19.5424 0.48073 18.8194 1.07536 18.3264C1.65329 17.8473 3.14803 17.2144 3.85162 17.4762C4.50745 17.7202 5.42586 17.962 6.68593 18.1112Z" fill="#83BF4F"/>
<path d="M8.17796 18.642C8.28127 18.6396 8.37374 18.6241 8.3893 18.7262V18.7262C8.40886 18.8546 8.60389 19.0934 8.50434 19.1768L7.67898 19.8683C7.56067 19.9674 7.40709 20.0123 7.2535 20.0276C7.21057 20.0319 7.16419 20.0384 7.11633 20.0481C6.69413 20.1335 6.25265 20.4395 5.82679 20.3748C4.85643 20.2272 3.10496 19.9069 1.73226 19.3567C1.59131 19.3003 1.49906 19.1948 1.55932 19.0554V19.0554C1.62203 18.9103 1.48452 18.5793 1.60198 18.4736C1.69338 18.3913 1.79258 18.2929 1.87641 18.1884C1.99743 18.0376 2.18648 17.9296 2.37394 17.8822C2.45301 17.8623 2.53557 17.829 2.60816 17.7745C2.75015 17.6679 2.86644 17.5893 3.029 17.6607C3.67028 17.9426 5.48863 18.7061 8.17796 18.642Z" stroke="#699635" strokeWidth="0.911843" stroke-miterlimit="10"/>
<path d="M3.0529 19.121C3.41704 19.121 3.71224 18.919 3.71224 18.6699C3.71224 18.4207 3.41704 18.2188 3.0529 18.2188C2.68875 18.2188 2.39355 18.4207 2.39355 18.6699C2.39355 18.919 2.68875 19.121 3.0529 19.121Z" fill="#699635"/>
<path d="M5.3872 17.9086C5.74698 17.9968 6.28872 18.4802 6.03502 18.7501C5.65186 19.1578 5.06562 19.7364 4.2605 20.4109C4.13506 20.516 4.06895 20.6769 4.08703 20.8395C4.12377 21.1702 3.82325 21.4382 3.49892 21.3641L3.36699 21.3339C3.11794 21.277 2.93555 21.0637 2.91798 20.8089L2.90543 20.6269C2.8882 20.3771 2.98525 20.1333 3.16564 19.9596C3.53058 19.6083 4.16586 18.9765 4.60881 18.4253C4.82758 18.1531 5.04801 17.8254 5.3872 17.9086ZM15.5109 17.6296C15.0268 17.7595 14.8268 18.2495 15.1801 18.6051C15.5403 18.9677 16.1184 19.4603 17.0379 20.073C17.1876 20.1728 17.2796 20.3403 17.2796 20.5202C17.2796 20.8769 17.6248 21.1319 17.9658 21.027L18.1553 20.9686C18.4393 20.8813 18.633 20.6189 18.633 20.3219V20.2106C18.633 19.941 18.502 19.6887 18.2866 19.5266C17.841 19.1911 17.0464 18.5632 16.3923 17.8878C16.1638 17.6519 15.8281 17.5445 15.5109 17.6296Z" fill="#F9F3D9"/>
<path d="M12.7212 16.7408C12.6611 16.7548 12.5995 16.7604 12.5379 16.7576C12.1672 16.7408 11.8526 17.027 11.8345 17.3977L11.8234 17.627C11.8076 17.9505 11.966 18.2577 12.2387 18.4323L13.5459 19.2695C14.3994 19.8161 15.4443 19.9758 16.4221 19.7092L21.4407 18.3404C21.8555 18.2273 22.1473 17.8561 22.1592 17.4263C22.1683 17.0982 22.0118 16.7875 21.7428 16.5995L20.787 15.9318C20.0573 15.422 19.1454 15.2461 18.2784 15.4478L12.7212 16.7408Z" fill="#699635"/>
<path d="M15.5483 15.6043C13.9454 15.875 12.8331 17.1544 14.1533 18.1029C14.4669 18.3281 15.2304 18.6707 15.6151 18.6379C16.5632 18.5571 18.545 18.2714 20.7084 17.2616C21.4097 16.9343 21.8558 16.2628 21.2548 15.7752C20.6194 15.2597 18.8992 14.5791 18.1439 14.8936C17.5178 15.1542 16.6725 15.4144 15.5483 15.6043Z" fill="#83BF4F"/>
<path d="M13.8491 16.2626C13.7245 16.2691 13.6087 16.2741 13.592 16.3977V16.3977C13.5733 16.5361 13.3584 16.7926 13.4682 16.879L14.3789 17.5945C14.546 17.7258 14.7648 17.7673 14.9772 17.7594C15.0291 17.7575 15.0843 17.7578 15.1407 17.7616C15.5721 17.7908 16.0385 18.0288 16.4618 17.9407C17.4431 17.7363 19.2304 17.3237 20.4185 16.8124C20.5861 16.7403 20.6524 16.5789 20.5979 16.4048V16.4048C20.5527 16.2602 20.7 15.9653 20.5874 15.8639C20.4302 15.7223 20.2245 15.5277 20.0717 15.3502C19.997 15.2635 20.0057 15.1917 19.8934 15.2139V15.2139C19.642 15.2634 18.6062 15.2648 18.3732 15.3713C17.6443 15.7045 16.2528 16.1368 13.8491 16.2626Z" stroke="#699635" strokeWidth="0.911843" stroke-miterlimit="10"/>
<path d="M16.2422 17.1437C16.1034 17.3172 15.6523 17.3866 15.2705 17.2825C14.8888 17.1784 14.7153 16.9355 14.8541 16.7619C14.9929 16.5884 15.4441 16.519 15.8258 16.6231C16.2075 16.7272 16.381 16.9355 16.2422 17.1437Z" fill="#699635"/>
<path d="M16.7229 15.3718C16.373 15.4737 15.8271 15.9645 16.0718 16.2345C16.4654 16.6688 17.0844 17.3027 17.9423 18.0419C18.0724 18.1541 18.1464 18.319 18.1407 18.4907C18.1281 18.8707 18.4894 19.1529 18.8551 19.0484L18.908 19.0333C19.1592 18.9615 19.3352 18.7356 19.3434 18.4745L19.3512 18.2225C19.3596 17.955 19.2545 17.697 19.0651 17.508C18.6903 17.134 18.0405 16.4676 17.5712 15.8893C17.3429 15.6079 17.0708 15.2705 16.7229 15.3718Z" fill="#F9F3D9"/>
<path d="M15.9635 0.694046C15.9635 2.81088 13.222 6.24641 11.1051 6.24641C8.98831 6.24641 6.24683 3.15791 6.24683 1.04107C6.24683 -1.07577 6.55915 1.04107 8.67599 1.04107C8.98831 1.04107 10.4458 0 11.1051 0C11.5563 0 12.8403 1.04107 13.5343 1.04107C15.3735 1.04107 15.9635 -0.902259 15.9635 0.694046Z" fill="#DBB471"/>
<path d="M10.481 4.61543C10.2728 4.75424 9.26642 4.65013 8.9541 4.89304C8.53767 5.20537 9.12761 5.93411 8.71119 6.38524C7.87833 7.2181 7.21899 8.15506 7.4272 8.67559C7.77422 9.57785 8.43357 7.00988 9.02351 7.98155C9.61344 8.95321 9.50934 7.3222 10.4116 8.15506C11.3139 8.98791 10.5504 6.66286 11.418 7.66923C12.2855 8.67559 12.3202 9.82077 12.9449 9.82077C13.6736 9.82077 12.1814 7.07929 13.1531 7.73863C14.1247 8.39797 15.2005 8.15506 14.2288 7.14869C13.9165 6.83637 13.5001 6.28114 13.0143 5.7953C12.8408 5.62179 12.9796 4.71953 12.8061 4.58072C12.5978 4.40721 12.0773 4.96245 11.8691 4.85834C11.8447 4.84613 11.8221 4.83594 11.8013 4.82761C11.2257 4.59796 10.9966 4.2717 10.481 4.61543Z" fill="#89664C"/>
<path d="M6.49069 6.66276C7.84408 5.37877 10.3079 6.10752 11.7654 6.73216C13.1882 7.3568 14.0558 5.37877 13.1535 4.37241C12.633 3.78247 11.8001 4.47651 11.4878 4.89294C11.1408 5.30937 10.8632 5.7605 10.4815 6.17692C9.92622 6.80157 8.57283 6.28103 8.98926 5.41347C9.44039 4.51122 11.349 5.55228 11.9737 5.7258C13.1882 6.07282 14.4722 6.21163 15.6868 5.7605C16.1032 5.62169 15.9297 4.92764 15.5133 5.10115C14.1599 5.58699 12.8065 5.27467 11.5225 4.85824C10.8632 4.65002 9.82211 4.09479 9.12807 4.40711C7.15004 5.34407 8.98926 8.01615 10.655 6.97508C11.0367 6.73216 11.2796 6.35044 11.5572 6.00341C11.7307 5.7952 12.5983 4.47651 12.8065 5.13586C12.9106 5.48288 12.8065 6.10752 12.4248 6.21163C12.1819 6.31573 11.696 5.96871 11.4531 5.89931C11.002 5.7258 10.5509 5.58699 10.065 5.48288C8.78104 5.20526 7.04593 5.27467 6.03956 6.21163C5.69254 6.48925 6.17837 6.97508 6.49069 6.66276Z" fill="#E8E8E8"/>
<path d="M14.2376 1.98921C14.5488 1.73331 13.9381 1.04107 13.5352 1.04107C12.8411 1.04107 11.5572 0 11.106 0C10.4467 0 8.98918 1.04107 8.67686 1.04107C7.91954 1.04107 7.16916 1.65443 7.70348 2.19113C7.83932 2.32759 7.98988 2.45537 8.15633 2.56797C9.02389 3.12321 8.91978 2.46386 9.37091 1.83922C9.82204 1.21458 10.1344 0.902259 10.9325 2.46386C11.3489 3.33142 12.1471 0.104107 12.7717 1.14518C13.3938 2.18198 13.8009 2.34836 14.2376 1.98921Z" fill="#89664C"/>
<path d="M18.5491 18.0887C18.3363 18.1519 18.1784 18.3397 18.171 18.5616C18.1601 18.8894 18.4718 19.1328 18.7872 19.0427L18.9418 18.9985C19.193 18.9268 19.369 18.7008 19.3772 18.4397L19.3982 17.7676C19.3982 17.7942 18.9685 17.9641 18.5491 18.0887ZM17.6264 20.1627C17.4231 20.2267 17.2814 20.4131 17.2814 20.6262C17.2814 20.9474 17.5921 21.1769 17.8991 21.0824L18.1571 21.0031C18.441 20.9157 18.6348 20.6534 18.6348 20.3563V20.1891C18.6348 19.9496 18.5074 19.8472 18.2839 19.9333C18.1279 19.9934 17.9133 20.0724 17.6264 20.1627ZM3.72872 20.4751C3.92462 20.5191 4.07442 20.6802 4.09581 20.8799C4.12917 21.1912 3.84603 21.4428 3.54079 21.373L3.36987 21.3339C3.12015 21.2769 2.93727 21.063 2.91964 20.8074L2.91858 20.792C2.89681 20.4764 3.10581 20.3187 3.41199 20.3984C3.50727 20.4232 3.61338 20.4492 3.72872 20.4751Z" fill="#DBB471"/>
</svg>
