<svg width="23" height="23" viewBox="0 0 23 23" fill="none" xmlns="http://www.w3.org/2000/svg">
<path d="M5.53377 0C1.95526 0 0 2.32418 0 5.42309V6.7143C0 9.77052 2.47755 12.2481 5.53377 12.2481C8.58998 12.2481 11.0675 9.77052 11.0675 6.7143V5.42309C11.0675 4.008 10.7816 3.03771 10.3866 2.37245C9.53975 0.946092 7.19258 0 5.53377 0Z" fill="#FFB300"/>
<path d="M11.0681 12.1009V16.6017C11.0681 19.6579 13.5457 22.1354 16.6019 22.1354C19.6581 22.1354 22.1356 19.6579 22.1356 16.6017V12.1009C22.1356 9.96116 11.0681 9.96116 11.0681 12.1009Z" fill="#01579B"/>
<path d="M0 12.1009V16.6017C0 19.6579 2.47755 22.1354 5.53377 22.1354C8.58998 22.1354 11.0675 19.6579 11.0675 16.6017V12.1009C11.0675 9.96116 0 9.96116 0 12.1009Z" fill="#C2185B"/>
<path d="M2.23356 9.59263C1.61857 8.75217 0.813721 7.57044 0.813721 6.52902C0.813721 6.24478 0.868791 6.02858 0.946294 5.86505C1.14704 5.44147 1.68268 5.40207 2.14124 5.30495C2.7267 5.18096 3.36386 4.92479 3.98372 4.61559C5.8053 3.70693 7.92305 4.69319 9.84924 5.35169C9.92159 5.37642 10.0014 5.3907 10.0706 5.42329C10.2499 5.50776 10.59 5.76827 10.59 6.52902C10.59 7.58213 9.74968 8.7655 9.12991 9.61693C8.28841 10.773 6.75608 11.657 5.68343 11.657C4.65472 11.657 3.08816 10.7606 2.23356 9.59263Z" fill="#FFDD67"/>
<path d="M3.72422 7.56269C4.17246 7.56269 4.53584 7.19932 4.53584 6.75107C4.53584 6.30283 4.17246 5.93945 3.72422 5.93945C3.27597 5.93945 2.9126 6.30283 2.9126 6.75107C2.9126 7.19932 3.27597 7.56269 3.72422 7.56269Z" fill="#937237"/>
<path d="M7.7081 7.56269C8.15635 7.56269 8.51972 7.19932 8.51972 6.75107C8.51972 6.30283 8.15635 5.93945 7.7081 5.93945C7.25986 5.93945 6.89648 6.30283 6.89648 6.75107C6.89648 7.19932 7.25986 7.56269 7.7081 7.56269Z" fill="#937237"/>
<path d="M7.04292 9.29645C6.19441 9.96051 5.23522 9.96051 4.38671 9.29645C4.27604 9.22267 4.20225 9.37024 4.27604 9.48091C4.53428 9.96051 5.05077 10.3663 5.71482 10.3663C6.37887 10.3663 6.89535 9.96051 7.1536 9.48091C7.22738 9.33335 7.1536 9.18578 7.04292 9.29645Z" fill="#937237"/>
<path d="M11.032 5.29855C11.028 5.52574 11.0852 5.74977 11.1925 5.95007C11.4326 6.39822 11.8998 6.67793 12.4082 6.67793H20.3439C20.8882 6.67793 21.3757 6.34142 21.5687 5.83256C21.625 5.68413 21.6543 5.52523 21.6527 5.3665C21.614 1.63056 20.6424 0.0735343 16.4521 0.0374115C12.2284 -0.0341772 11.0956 1.59598 11.032 5.29855Z" fill="#FFB300"/>
<path d="M21.8409 5.65683C21.5597 5.454 21.3333 5.83499 21.141 6.12349C21.0523 6.30087 20.8435 6.17945 20.8516 5.9813C20.8581 5.82233 20.8589 5.6317 20.8459 5.42254C20.5876 1.84404 20.4032 3.54106 16.4557 3.54106C12.5083 3.54106 12.287 1.80715 12.0656 5.38565C12.053 5.60029 12.0533 5.78901 12.0592 5.9444C12.0667 6.1406 11.8583 6.2622 11.7705 6.08659C11.5749 5.79321 11.3492 5.38842 11.0763 5.61179C10.9021 5.75445 10.7744 6.0511 10.7744 6.60308C10.7744 7.70387 11.9232 8.73273 12.6254 9.58046C13.6793 10.8527 15.5081 11.6204 16.4926 11.6204C17.4482 11.6204 19.2824 10.8373 20.346 9.57352C21.0552 8.73091 22.2109 7.7044 22.2109 6.60308C22.1726 6.06756 22.0253 5.78984 21.8409 5.65683Z" fill="#FFDD67"/>
<path d="M14.3829 7.56269C14.8312 7.56269 15.1945 7.19932 15.1945 6.75107C15.1945 6.30283 14.8312 5.93945 14.3829 5.93945C13.9347 5.93945 13.5713 6.30283 13.5713 6.75107C13.5713 7.19932 13.9347 7.56269 14.3829 7.56269Z" fill="#937237"/>
<path d="M18.4408 7.56269C18.889 7.56269 19.2524 7.19932 19.2524 6.75107C19.2524 6.30283 18.889 5.93945 18.4408 5.93945C17.9925 5.93945 17.6292 6.30283 17.6292 6.75107C17.6292 7.19932 17.9925 7.56269 18.4408 7.56269Z" fill="#937237"/>
<path d="M17.7407 9.29645C16.8922 9.96051 15.933 9.96051 15.0845 9.29645C14.9738 9.22267 14.9 9.37024 14.9738 9.48091C15.232 9.96051 15.7485 10.3663 16.4126 10.3663C17.0766 10.3663 17.5931 9.96051 17.8514 9.48091C17.9251 9.33335 17.8514 9.18578 17.7407 9.29645Z" fill="#937237"/>
<path d="M12.0959 19.8627C14.6294 20.1237 13.6139 22.1347 11.067 22.1347C8.52019 22.1347 7.50472 20.1237 10.0382 19.8627C10.7137 19.7931 11.4203 19.7931 12.0959 19.8627Z" fill="#29B6F6"/>
<path d="M11.0686 12.543C8.59682 12.543 7.04736 13.9449 7.04736 15.6788V16.8593C7.04736 18.2243 8.11714 18.2243 8.11722 18.2243C8.11723 18.2243 8.11723 18.2243 8.11723 18.2243H14.1675C14.1675 18.2243 14.1675 18.2243 14.1675 18.2243C14.1676 18.2243 15.0898 18.2242 15.0898 16.8593V15.6788C15.0898 13.9449 13.4665 12.543 11.0686 12.543Z" fill="#FFB300"/>
<path d="M6.83537 17.7565C6.8634 17.2309 7.451 16.7519 7.4976 16.2276L7.56284 15.4937C7.56284 14.4238 9.22297 15.2723 11.0676 15.2723C12.9121 15.2723 14.5723 14.4238 14.5723 15.4937L14.6357 16.2072C14.6833 16.743 15.2974 17.2194 15.3274 17.7565C15.3594 18.3291 14.7335 18.9419 14.4279 19.4273C13.7853 20.4479 12.2146 21.0274 11.0676 21.0274C9.91338 21.0274 8.33041 20.4407 7.69545 19.4083C7.40144 18.9303 6.80548 18.3169 6.83537 17.7565Z" fill="#FFDD67"/>
<path d="M9.29809 18.2988C9.66483 18.2988 9.96214 18.0015 9.96214 17.6348C9.96214 17.268 9.66483 16.9707 9.29809 16.9707C8.93134 16.9707 8.63403 17.268 8.63403 17.6348C8.63403 18.0015 8.93134 18.2988 9.29809 18.2988Z" fill="#937237"/>
<path d="M12.8403 18.2988C13.2071 18.2988 13.5044 18.0015 13.5044 17.6348C13.5044 17.268 13.2071 16.9707 12.8403 16.9707C12.4736 16.9707 12.1763 17.268 12.1763 17.6348C12.1763 18.0015 12.4736 18.2988 12.8403 18.2988Z" fill="#937237"/>
<path d="M9.92443 19.3325C10.5857 19.8284 11.3358 19.8799 12.0155 19.4869C12.1767 19.3937 12.4626 19.3251 12.3593 19.4801C12.1379 19.8859 11.6583 20.2179 11.105 20.2179C10.6434 20.2179 10.272 19.9923 10.0262 19.7175C9.89524 19.5711 9.76103 19.2236 9.92443 19.3325Z" fill="#937237"/>
</svg>
