<svg width="23" height="17" viewBox="0 0 23 17" fill="none" xmlns="http://www.w3.org/2000/svg">
<path d="M18.9637 9.54975C19.6302 9.22749 20.0344 8.53297 19.9854 7.79427L19.8171 5.25478C19.7289 3.92517 18.2589 3.16583 17.1236 3.86344C16.7576 4.08836 16.3219 4.17245 15.8978 4.10343C14.8883 3.9391 14.4422 3.86376 13.4515 3.39936C12.3345 2.87028 10.5904 3.23127 9.36261 3.37304C8.37034 3.48762 7.26131 3.72704 6.57346 3.90845C6.16676 4.01571 5.60545 3.98896 5.22774 3.8039C4.0275 3.21582 2.58064 3.96084 2.46316 5.29224L2.11728 9.21232C2.08967 9.52522 2.29373 9.81173 2.59847 9.88792C2.81986 9.94326 2.9957 10.1123 3.06793 10.3288C3.07955 10.3636 3.09135 10.3987 3.10307 10.4333C3.19408 10.7023 3.12635 10.9929 3.02621 11.2586C2.88206 11.641 2.94211 12.0179 3.11951 12.3023C3.39033 12.7366 4.21435 13.6444 4.58774 13.9944C4.67529 14.0765 4.77526 14.1426 4.88316 14.1886C5.23014 14.3365 5.89411 14.7417 6.15955 15.0097C6.46044 15.3135 7.55644 16.1232 7.91754 16.3522C8.15406 16.5021 8.44461 16.5512 8.72396 16.4545C9.04398 16.3437 9.41329 16.2568 9.70368 16.431C10.0686 16.65 10.4103 16.8228 10.7168 16.9249C10.9487 17.0243 11.1872 17.028 11.4038 16.9596C11.87 16.8125 13.3342 16.0886 13.7103 15.7762C14.0658 15.4808 15.0681 14.766 15.4218 14.4685C15.4339 14.4583 15.4457 14.4479 15.4574 14.4373C15.8302 14.0978 16.9336 12.6872 17.0953 12.2096C17.1687 11.9926 17.192 11.7461 17.1487 11.4952C17.0671 11.0213 17.1493 10.427 17.5823 10.2177L18.9637 9.54975Z" fill="#FFDD67"/>
<path d="M5.3357 11.4778C5.43196 11.0789 5.06576 11.3916 4.86039 11.7469C4.82378 11.8103 4.78082 11.8733 4.73106 11.9355L4.47237 12.2311C4.38922 12.3351 4.30606 12.4186 4.22291 12.4849C4.08844 12.5921 4.08771 12.7967 4.2502 12.7404C4.29418 12.7251 4.33235 12.686 4.35036 12.6431C4.39171 12.5445 4.45701 12.4313 4.54628 12.342L4.80497 12.0464C4.91336 11.9109 5.04163 11.7952 5.16062 11.7141C5.23782 11.6614 5.31378 11.5687 5.3357 11.4778ZM9.67648 15.2152C9.79235 14.8168 9.39457 15.1522 9.20262 15.5201L8.98089 15.8527C8.87001 16.056 8.9754 16.3427 9.12637 16.1672C9.19339 16.0892 9.25621 15.9971 9.31349 15.8897L9.53522 15.5571C9.59771 15.4404 9.64423 15.3261 9.67648 15.2152ZM6.02448 13.4506L6.5715 12.5959C6.60024 12.551 6.61423 12.4934 6.60582 12.4407C6.56223 12.1678 6.34567 12.3969 6.32106 12.6722C6.30037 12.9035 6.20942 13.1456 6.02448 13.3767L5.7658 13.6724C5.73162 13.7151 5.69744 13.7544 5.6632 13.7904C5.5043 13.9577 5.51332 14.2108 5.7139 14.0968C5.76432 14.0681 5.8086 14.0099 5.82261 13.9536C5.86352 13.7893 5.93081 13.6068 6.02448 13.4506ZM8.56561 13.3541C8.71762 12.9504 8.32555 13.2346 8.09397 13.5985L7.39182 14.7071C7.29544 14.8586 7.38958 15.1232 7.51848 14.9983C7.59135 14.9276 7.66061 14.8433 7.72442 14.7441L8.42656 13.6354C8.48467 13.541 8.53065 13.4469 8.56561 13.3541ZM12.7258 12.9383C12.6485 12.8495 12.6654 12.6935 12.7821 12.6772C12.9033 12.6604 12.9973 12.5002 12.8861 12.4491C12.7379 12.3811 12.5774 12.3527 12.4134 12.3423C12.0779 12.3209 12.0312 12.749 12.3658 12.716C12.4668 12.7061 12.4541 12.7585 12.5162 12.8387L13.3046 13.8572C13.3744 13.9443 13.4323 14.0328 13.4793 14.1217C13.7457 14.6253 14.1645 15.1673 14.0775 14.6043C14.0635 14.5133 14.0121 14.4134 13.9513 14.3442C13.7093 14.0685 13.0563 13.3182 12.7258 12.9383ZM13.685 10.8607C13.5656 10.7321 13.4506 10.5592 13.6239 10.5319C13.8346 10.4986 14.0668 10.2615 13.8546 10.2402C13.713 10.2259 13.5667 10.2262 13.4211 10.2264C13.1474 10.2267 13.0293 10.5128 13.299 10.5595C13.3538 10.5691 13.3612 10.5907 13.3977 10.6327L15.0415 12.5268C15.0651 12.5537 15.0874 12.5808 15.1085 12.608C15.5352 13.1577 15.994 13.7081 15.7825 13.0452C15.7351 12.8967 15.5919 12.7492 15.4708 12.651C15.0277 12.2917 14.1335 11.344 13.685 10.8607Z" fill="#EBA352"/>
<path d="M11.7423 14.8606C11.8879 14.8384 11.9774 14.6613 11.835 14.6236C11.7055 14.5893 11.5728 14.576 11.4429 14.5715C11.1592 14.5617 11.0042 14.8983 11.2881 14.9027C11.301 14.9029 11.3135 14.9029 11.3255 14.9028C11.4292 14.9017 11.5277 14.9446 11.5757 15.0365C11.6116 15.1052 11.6411 15.1739 11.6649 15.2422C11.8588 15.8003 12.1745 16.394 12.1734 15.8031C12.1732 15.6829 12.1147 15.5459 12.04 15.4517C11.9453 15.3323 11.8132 15.1634 11.7189 15.0426C11.6584 14.9651 11.6451 14.8755 11.7423 14.8606ZM19.2206 9.48319C19.2408 9.43274 18.919 9.22684 18.8767 9.26094C18.4166 9.63181 17.7149 10.0494 16.675 10.3597C16.6248 10.3747 16.5699 10.3583 16.5365 10.3179C16.2647 9.98961 15.801 9.45666 15.2477 8.92377C15.0454 8.72895 15.1593 8.30353 15.3901 8.14353C15.6156 7.98723 15.5664 7.77444 15.2967 7.82441C15.1492 7.85173 14.9951 7.89408 14.8542 7.9453C14.4121 8.10004 13.6261 7.73904 13.0659 7.42396C12.6365 7.18248 12.1445 7.05704 11.6561 7.1213C11.237 7.17644 10.8549 7.37871 10.4964 7.6027C9.41689 8.27721 7.85312 8.4631 7.75885 7.20619C7.68494 6.17145 9.9392 5.46931 10.6413 4.80411C11.5283 3.95415 12.3043 2.88245 13.7456 3.62155C14.9281 4.21283 15.4085 4.17588 17.0346 4.47152C17.1108 4.48677 17.1836 4.50483 17.2535 4.52606C17.4408 4.58301 17.5789 4.39329 17.4007 4.31212C17.2554 4.24592 17.2764 4.02704 17.4208 3.95896L19.4085 3.02189C19.4942 2.9815 19.551 2.89752 19.5565 2.80295C19.5686 2.59819 19.3491 2.46143 19.1706 2.5625L17.007 3.78767C16.6898 3.96725 16.3208 4.0337 15.9602 3.98056C14.9506 3.83175 14.4303 3.76331 13.4499 3.28896C13.4251 3.27653 13.4004 3.26465 13.3759 3.25329C12.3597 2.78285 10.9954 2.75039 9.90224 2.99332C9.01629 3.27809 7.66979 3.34613 6.37304 3.73094C6.15923 3.79438 6.17797 4.09326 6.40084 4.10145C6.42415 4.1023 6.43983 4.09844 6.46215 4.09169C7.89326 3.65907 9.39034 3.69345 10.087 3.43678C10.6328 3.25484 10.7986 4.05443 10.3924 4.46181C10.3891 4.46505 10.3859 4.46828 10.3827 4.47152C9.68051 5.13671 7.53712 6.09754 7.68494 7.31706C7.75475 7.87554 8.48394 9.29123 10.8379 7.98295C11.1268 7.82236 11.4397 7.70162 11.7676 7.65931C12.1904 7.60475 12.6202 7.67166 12.9861 7.89056C13.7453 8.34482 15.147 9.30513 16.4802 10.8647C16.5289 10.9203 16.5726 10.9762 16.6116 11.0322C16.9467 11.513 17.3912 12.0705 17.2885 11.4935C17.2234 11.1278 17.2155 10.5765 17.5423 10.4001L19.2014 9.50468C19.2102 9.49998 19.2169 9.49238 19.2206 9.48319Z" fill="#EBA352"/>
<path d="M18.3375 3.07929C18.6575 2.89265 19.0659 3.078 19.1361 3.4417L20.1232 8.55669C20.1751 8.82594 20.0345 9.09544 19.7839 9.20681C19.4746 9.34429 19.1139 9.19324 19.0123 8.87034C18.5491 7.39884 18.013 4.92946 18.084 3.48146C18.0923 3.31255 18.1914 3.16449 18.3375 3.07929Z" fill="#3B946F"/>
<path d="M3.33085 10.7602C3.35062 10.7339 3.3549 10.6991 3.34277 10.6684C3.2385 10.4048 3.15969 10.1004 3.11358 9.90049C3.08155 9.76162 3.00086 9.63787 2.88301 9.55773L2.53018 9.3178C2.35514 9.19878 2.11642 9.30953 2.09426 9.52003C2.07989 9.65656 2.16661 9.78337 2.29906 9.81948L2.62012 9.90705C2.78323 9.95153 2.91029 10.0775 2.96463 10.2376C3.0318 10.4355 3.10218 10.6074 3.1835 10.7531C3.21479 10.8092 3.29231 10.8116 3.33085 10.7602Z" fill="#EBA352"/>
<path d="M1.98355 9.76177C1.7283 9.69796 1.57697 9.43508 1.64996 9.18231L3.27715 3.54741C3.39294 3.14644 3.8666 2.97555 4.21172 3.21023C4.35446 3.3073 4.45167 3.45921 4.4407 3.63148C4.3583 4.92459 3.0772 8.5189 2.41596 9.60329C2.32622 9.75047 2.15078 9.80358 1.98355 9.76177Z" fill="#3B946F"/>
<path d="M18.958 2.66077C18.6623 2.84554 19.734 9.23877 20.1775 9.05399C21.3627 8.52375 22.21 7.34933 22.21 6.05088V4.46391C22.21 2.34552 20.7795 1.57925 18.958 2.66077ZM3.45151 2.6548C2.01656 1.65555 0 2.61435 0 4.36294V7.87969C0 8.77058 0.644603 9.52993 1.51516 9.71918C1.95099 9.81976 3.42092 4.11117 3.60721 2.96802C3.62845 2.83768 3.55989 2.73027 3.45151 2.6548Z" fill="#47B892"/>
</svg>
