<svg width="24" height="23" viewBox="0 0 24 23" fill="none" xmlns="http://www.w3.org/2000/svg">
<path d="M23.1643 19.0694C23.5929 15.8793 22.8595 12.0991 22.8595 8.88028C22.8595 4.81015 19.8624 0 12.1291 0C4.39588 0 1.39879 4.81015 1.39879 8.88028C1.39879 12.0905 0.653339 15.8657 1.03908 19.0526C1.10797 19.6217 1.27048 20.1653 1.54679 20.6466C1.77459 21.0321 2.95673 21.8824 4.18536 22.1244C6.90674 22.6605 9.33758 19.2036 12.1113 19.2036C14.8689 19.2036 17.2775 22.6152 19.99 22.1182C21.2309 21.8908 22.4251 21.036 22.6375 20.6466C22.9199 20.1701 23.0886 19.6324 23.1643 19.0694Z" fill="#FFB300"/>
<path d="M12.1293 1.48047C11.7675 1.48047 11.412 1.49256 11.0633 1.51615C9.18429 1.6433 10.246 2.5905 12.1293 2.5905C13.5792 2.5905 14.619 1.61178 13.1723 1.51489C12.8324 1.49213 12.4845 1.48047 12.1293 1.48047Z" fill="#C28FEF"/>
<path d="M20.7414 17.3458C21.4837 16.0631 23.2122 14.6181 23.2122 13.136C23.2122 12.4512 22.8241 11.7663 22.0479 11.5449C21.7493 11.4597 21.4916 11.2193 21.4916 10.9088C21.4916 10.604 21.2504 10.3537 20.9459 10.3387C19.4499 10.2651 15.144 9.969 11.3811 8.89335C9.8675 8.4607 4.19975 10.8563 2.74782 11.4645C2.57973 11.5349 2.63641 11.465 2.45562 11.488C2.24984 11.5142 2.06605 11.5697 1.90426 11.6481C-0.339197 12.7356 2.82804 17.0307 4.58948 18.7951C6.07703 20.2852 8.51318 21.4613 12.0933 21.4613C16.7823 21.4613 19.5273 19.4438 20.7414 17.3458Z" fill="#FFDD67"/>
<path d="M16.7518 15.1695C18.08 15.1695 19.1568 14.0927 19.1568 12.7644C19.1568 11.4362 18.08 10.3594 16.7518 10.3594C15.4235 10.3594 14.3467 11.4362 14.3467 12.7644C14.3467 14.0927 15.4235 15.1695 16.7518 15.1695Z" fill="white"/>
<path d="M7.50151 15.1695C8.8298 15.1695 9.90658 14.0927 9.90658 12.7644C9.90658 11.4362 8.8298 10.3594 7.50151 10.3594C6.17322 10.3594 5.09644 11.4362 5.09644 12.7644C5.09644 14.0927 6.17322 15.1695 7.50151 15.1695Z" fill="white"/>
<path d="M16.7544 14.4297C17.674 14.4297 18.4195 13.6842 18.4195 12.7647C18.4195 11.8451 17.674 11.0996 16.7544 11.0996C15.8348 11.0996 15.0894 11.8451 15.0894 12.7647C15.0894 13.6842 15.8348 14.4297 16.7544 14.4297Z" fill="#664E27"/>
<path d="M16.7545 13.321C17.061 13.321 17.3095 13.0725 17.3095 12.766C17.3095 12.4594 17.061 12.2109 16.7545 12.2109C16.448 12.2109 16.1995 12.4594 16.1995 12.766C16.1995 13.0725 16.448 13.321 16.7545 13.321Z" fill="#231F20"/>
<path d="M7.50416 14.4297C8.42375 14.4297 9.16921 13.6842 9.16921 12.7647C9.16921 11.8451 8.42375 11.0996 7.50416 11.0996C6.58458 11.0996 5.83911 11.8451 5.83911 12.7647C5.83911 13.6842 6.58458 14.4297 7.50416 14.4297Z" fill="#664E27"/>
<path d="M7.50399 13.321C7.81052 13.321 8.05901 13.0725 8.05901 12.766C8.05901 12.4594 7.81052 12.2109 7.50399 12.2109C7.19746 12.2109 6.94897 12.4594 6.94897 12.766C6.94897 13.0725 7.19746 13.321 7.50399 13.321Z" fill="#231F20"/>
<path d="M15.1257 17.0569C13.2017 18.3889 11.0556 18.3889 9.13153 17.0569C8.90952 16.9089 8.68752 17.1679 8.83552 17.4269C9.42754 18.3889 10.6116 19.24 12.1286 19.24C13.6457 19.24 14.8297 18.3889 15.4217 17.4269C15.5697 17.1679 15.3477 16.9089 15.1257 17.0569Z" fill="#937237"/>
</svg>
