<svg width="23" height="23" viewBox="0 0 23 23" fill="none" xmlns="http://www.w3.org/2000/svg">
<path d="M11.105 22.21C17.2381 22.21 22.21 17.2381 22.21 11.105C22.21 4.97188 17.2381 0 11.105 0C4.97188 0 0 4.97188 0 11.105C0 17.2381 4.97188 22.21 11.105 22.21Z" fill="#FFDD67"/>
<path d="M6.84888 10.9575C7.87107 10.9575 8.69971 10.1289 8.69971 9.10669C8.69971 8.08451 7.87107 7.25586 6.84888 7.25586C5.82669 7.25586 4.99805 8.08451 4.99805 9.10669C4.99805 10.1289 5.82669 10.9575 6.84888 10.9575Z" fill="#664E27"/>
<path d="M15.3613 10.9575C16.3835 10.9575 17.2122 10.1289 17.2122 9.10669C17.2122 8.08451 16.3835 7.25586 15.3613 7.25586C14.3391 7.25586 13.5105 8.08451 13.5105 9.10669C13.5105 10.1289 14.3391 10.9575 15.3613 10.9575Z" fill="#664E27"/>
<path d="M15.7686 14.1786C12.7702 16.2886 9.43873 16.2516 6.44038 14.1786C6.07021 13.9195 5.77408 14.3637 5.99618 14.7709C6.9216 16.2516 8.73541 17.6212 11.1045 17.6212C13.4735 17.6212 15.2874 16.2886 16.2128 14.7709C16.4349 14.3637 16.1387 13.9195 15.7686 14.1786Z" fill="#664E27"/>
</svg>
