<svg width="23" height="22" viewBox="0 0 23 22" fill="none" xmlns="http://www.w3.org/2000/svg">
<path d="M14.587 0C14.1248 0 13.6425 0 13.1803 0C13.1012 0 13.0264 0.00380544 12.9558 0.0109377C12.0234 0.10513 10.7371 1.06191 10.7371 1.99901C10.7371 2.59131 11.2183 3.03554 11.7736 3.03554C11.9037 3.03554 12.0281 3.01296 12.1425 2.97001C12.4556 2.85245 12.8088 2.73939 13.1433 2.73939C13.6055 2.73939 14.0877 2.73939 14.55 2.73939C15.3274 2.73939 15.9567 2.11007 15.9567 1.36969C15.9567 0.629319 15.3274 0 14.587 0ZM18.3999 3.66486C17.9377 3.66486 17.4555 3.66486 16.9932 3.66486C16.9041 3.66486 16.8205 3.66987 16.7421 3.67919C15.8128 3.78974 14.55 4.76506 14.55 5.70089C14.55 6.29319 15.0312 6.73741 15.5865 6.73741C15.7166 6.73741 15.8411 6.71483 15.9555 6.67188C16.2686 6.55432 16.6217 6.44126 16.9562 6.44126C17.4184 6.44126 17.9007 6.44126 18.3629 6.44126C19.1403 6.44126 19.7696 5.81194 19.7696 5.07157C19.7696 4.29417 19.1773 3.66486 18.3999 3.66486Z" fill="#E8E8E8"/>
<path d="M15.7376 5.55177C14.6942 5.52628 14.2176 6.71771 14.2176 7.76145V15.9363C14.2176 16.703 14.8392 17.3246 15.6058 17.3246C16.3725 17.3246 16.994 16.703 16.994 15.9363V7.51366C16.994 6.61355 16.6375 5.57375 15.7376 5.55177ZM11.5212 1.73828C10.5032 1.73666 10.0715 2.88537 10.0715 3.90343V12.1234C10.0715 12.8901 10.6931 13.5116 11.4597 13.5116C12.2264 13.5116 12.8479 12.8901 12.8479 12.1234V3.74529C12.8479 2.81891 12.4476 1.73976 11.5212 1.73828Z" fill="white"/>
<path d="M11.4959 2.42774C10.4873 2.42941 10.0715 3.57745 10.0715 4.58611V12.8261C10.0715 13.5928 10.6931 14.2143 11.4597 14.2143C12.2264 14.2143 12.8479 13.5928 12.8479 12.8261V4.48065C12.8479 3.53341 12.4432 2.42617 11.4959 2.42774Z" fill="#ED4C5C"/>
<path d="M11.5212 3.10742C10.5032 3.1058 10.0715 4.25451 10.0715 5.27257V13.4926C10.0715 14.2592 10.6931 14.8808 11.4597 14.8808C12.2264 14.8808 12.8479 14.2592 12.8479 13.4926V5.11443C12.8479 4.18805 12.4476 3.10891 11.5212 3.10742Z" fill="white"/>
<path d="M15.7113 6.23281C14.6879 6.21236 14.2148 7.3727 14.2148 8.39631V16.6031C14.2148 17.3698 14.8364 17.9913 15.603 17.9913C16.3697 17.9913 16.9912 17.3698 16.9912 16.6031V8.19885C16.9912 7.28925 16.6208 6.25098 15.7113 6.23281Z" fill="#ED4C5C"/>
<path d="M15.7349 6.92243C14.6914 6.89695 14.2148 8.08838 14.2148 9.13211V17.307C14.2148 18.0737 14.8364 18.6952 15.603 18.6952C16.3697 18.6952 16.9912 18.0737 16.9912 17.307V8.88432C16.9912 7.98421 16.6347 6.94441 15.7349 6.92243Z" fill="white"/>
<path d="M20.9896 13.7018C20.9896 15.4981 19.5334 16.9543 17.7371 16.9543H9.6555C6.14252 16.9543 3.29468 14.1065 3.29468 10.5935V8.45613C3.29468 8.13768 3.42118 7.83228 3.64636 7.6071L3.71045 7.54301C3.89459 7.35887 3.99803 7.10913 3.99803 6.84871V6.65333C3.99803 6.40893 4.13344 6.18465 4.34971 6.07082L4.38454 6.0525C4.57939 5.94994 4.70139 5.74787 4.70139 5.52767C4.70139 5.29488 4.83757 5.08362 5.04959 4.9875L6.58047 4.29351C7.16515 4.02845 7.81602 3.94535 8.44855 4.05498L10.297 4.37538C12.0805 4.68453 13.735 5.50771 15.0573 6.74388L19.9583 11.3258C20.6162 11.9409 20.9896 12.8012 20.9896 13.7018Z" fill="#94989B"/>
<path d="M12.8206 4.84961C12.5274 4.84961 12.2897 5.08729 12.2897 5.38048V5.87801C12.2897 6.07742 12.1512 6.25008 11.9565 6.29334C11.7619 6.3366 11.6234 6.50926 11.6234 6.70867V7.27239C11.6234 7.4614 11.4596 7.60878 11.2717 7.589C11.0837 7.56921 10.92 7.71659 10.92 7.9056V8.66254C10.92 8.84654 10.7708 8.99571 10.5868 8.99571C10.4028 8.99571 10.2537 9.14487 10.2537 9.32888V10.0094C10.2537 10.3874 10.464 10.734 10.7992 10.9086L18.2342 14.7799C19.4888 15.4332 20.9891 14.5229 20.9891 13.1084C20.9891 12.5866 20.7727 12.0881 20.3915 11.7317L13.1831 4.99268C13.0848 4.90075 12.9552 4.84961 12.8206 4.84961Z" fill="#94989B"/>
<path d="M3.96897 10.0201C3.04502 8.99666 1.48428 8.57293 0.607264 9.63689C0.572605 9.67894 0.538569 9.72211 0.505284 9.76643C0.0749778 10.3394 0.101103 11.1048 0.365447 11.7709C0.706274 12.6296 1.30735 13.9428 2.25814 15.4007C2.80679 16.2419 4.84945 15.852 4.84945 14.8476V11.492C4.84945 11.1724 4.73088 10.8641 4.51669 10.6268L3.96897 10.0201Z" fill="white"/>
<path d="M9.4076 9.35883C9.56901 9.36212 9.69814 9.49391 9.69814 9.65535C9.69814 9.86827 9.48043 10.0118 9.28472 9.92796C8.98518 9.79958 9.08178 9.35218 9.4076 9.35883ZM10.1064 7.95805C10.2694 7.95805 10.4015 8.09015 10.4015 8.25312C10.4015 8.4306 10.2459 8.56792 10.0698 8.54591L5.36694 7.95805H10.1064ZM10.8098 6.58835C10.9727 6.58835 11.1048 6.72046 11.1048 6.88342C11.1048 7.06091 10.9493 7.19823 10.7732 7.17621L6.0703 6.58835H10.8098ZM11.5131 5.18164C11.6761 5.18164 11.8082 5.31375 11.8082 5.47671C11.8082 5.65419 11.6526 5.79152 11.4765 5.7695L6.77366 5.18164H11.5131Z" fill="#3E4347"/>
<path d="M4.94704 4.45363C4.80259 4.49023 4.70142 4.62022 4.70142 4.76924C4.70142 4.97978 4.89824 5.13496 5.10297 5.08582L7.21775 4.57827C7.37028 4.54167 7.47782 4.40526 7.47782 4.2484C7.47782 4.02726 7.26964 3.86524 7.05527 3.91955L4.94704 4.45363Z" fill="white"/>
<path d="M7.86938 3.8621C7.66156 3.83578 7.47778 3.99775 7.47778 4.20723C7.47778 4.38332 7.60937 4.53165 7.78422 4.55263L12.6593 5.13764C12.8568 5.16134 13.0306 5.00714 13.0306 4.80824C13.0306 4.64114 12.9063 4.50011 12.7405 4.47911L7.86938 3.8621Z" fill="#E8E8E8"/>
<path d="M13.1073 5.25234C13.0584 5.2075 13.0305 5.14417 13.0305 5.07779C13.0305 4.86822 13.2828 4.762 13.4327 4.90843L20.9688 12.2693C20.9821 12.2823 20.9895 12.3 20.9895 12.3185C20.9895 12.3783 20.9185 12.4095 20.8744 12.3692L13.1073 5.25234Z" fill="#D0D0D0"/>
<path d="M4.25377 5.81984C4.10252 5.85816 3.99658 5.99428 3.99658 6.15031C3.99658 6.37254 4.20579 6.53535 4.42121 6.48078L6.5158 5.95015C6.66705 5.91183 6.77299 5.77572 6.77299 5.61968C6.77299 5.39746 6.56378 5.23464 6.34836 5.28921L4.25377 5.81984Z" fill="white"/>
<path d="M7.16568 5.23139C6.95726 5.20499 6.77295 5.36742 6.77295 5.57751C6.77295 5.75325 6.90365 5.90155 7.078 5.92364L11.933 6.53861C12.1414 6.56501 12.3258 6.40257 12.3258 6.19248C12.3258 6.01675 12.1951 5.86844 12.0207 5.84636L7.16568 5.23139Z" fill="#E8E8E8"/>
<path d="M12.4253 6.66952C12.3625 6.61931 12.3259 6.54325 12.3259 6.46282C12.3259 6.23662 12.5914 6.11471 12.7629 6.2621L20.9629 13.3057C20.979 13.3195 20.9883 13.3397 20.9883 13.361C20.9883 13.4221 20.9176 13.4561 20.8699 13.4179L12.4253 6.66952Z" fill="#D0D0D0"/>
<path d="M3.55524 7.19376C3.40271 7.23037 3.29517 7.36678 3.29517 7.52364C3.29517 7.74478 3.50335 7.9068 3.71772 7.85249L5.82595 7.31841C5.9704 7.28181 6.07157 7.15182 6.07157 7.0028C6.07157 6.79226 5.87475 6.63708 5.67002 6.68622L3.55524 7.19376Z" fill="white"/>
<path d="M6.44282 6.6344C6.24534 6.6107 6.07153 6.7649 6.07153 6.96379C6.07153 7.1309 6.19582 7.27192 6.3616 7.29292L11.2327 7.90994C11.4406 7.93626 11.6243 7.77429 11.6243 7.56481C11.6243 7.38871 11.4928 7.24039 11.3179 7.21941L6.44282 6.6344Z" fill="#E8E8E8"/>
<path d="M11.7424 8.04215C11.6685 7.99016 11.6245 7.90545 11.6245 7.81508C11.6245 7.58558 11.8872 7.45518 12.07 7.59392L20.96 14.3405C20.9791 14.355 20.9903 14.3775 20.9903 14.4014C20.9903 14.4633 20.9205 14.4995 20.8699 14.4639L11.7424 8.04215Z" fill="#D0D0D0"/>
<path d="M2.84777 8.59719C2.69651 8.6355 2.59058 8.77162 2.59058 8.92765C2.59058 9.14988 2.79978 9.3127 3.0152 9.25812L5.10979 8.7275C5.26105 8.68918 5.36698 8.55306 5.36698 8.39703C5.36698 8.1748 5.15778 8.01198 4.94235 8.06656L2.84777 8.59719Z" fill="white"/>
<path d="M5.75968 8.00873C5.55125 7.98233 5.36694 8.14477 5.36694 8.35486C5.36694 8.53059 5.49765 8.6789 5.67199 8.70098L10.527 9.31595C10.7354 9.34235 10.9198 9.17991 10.9198 8.96983C10.9198 8.79409 10.789 8.64578 10.6147 8.6237L5.75968 8.00873Z" fill="#E8E8E8"/>
<path d="M11.057 9.45029C10.9716 9.39756 10.9197 9.30438 10.9197 9.20404C10.9197 8.97264 11.1778 8.8348 11.3701 8.96348L20.9535 15.3759C20.9755 15.3907 20.9888 15.4155 20.9888 15.442C20.9888 15.5043 20.9204 15.5424 20.8674 15.5097L11.057 9.45029Z" fill="#D0D0D0"/>
<path d="M20.4464 12.7399C20.5288 12.8104 20.656 12.7519 20.656 12.6434C20.656 12.607 20.6404 12.5724 20.6131 12.5483L13.0045 5.82028C12.8707 5.70199 12.66 5.79697 12.66 5.97554C12.66 6.03607 12.6864 6.09357 12.7324 6.13294L20.4464 12.7399ZM20.4053 13.7572C20.4931 13.8236 20.619 13.761 20.619 13.6509C20.619 13.6098 20.6 13.5709 20.5675 13.5457L12.2856 7.10422C12.1517 7.00006 11.9566 7.09549 11.9566 7.26515C11.9566 7.32902 11.9865 7.38921 12.0375 7.42774L20.4053 13.7572ZM20.4638 14.8995C20.5456 14.9548 20.656 14.8962 20.656 14.7975C20.656 14.7572 20.6364 14.7196 20.6034 14.6965L11.6229 8.41369C11.4828 8.31565 11.2903 8.41591 11.2903 8.58694C11.2903 8.65716 11.3251 8.7228 11.3833 8.76212L20.4638 14.8995ZM10.8745 9.90494C10.7473 9.8301 10.5869 9.92183 10.5869 10.0694C10.5869 10.1378 10.6235 10.201 10.6828 10.235L20.463 15.8442C20.5489 15.8935 20.656 15.8315 20.656 15.7325C20.656 15.6868 20.6318 15.6445 20.5925 15.6214L10.8745 9.90494Z" fill="#3E4347"/>
<path d="M8.61462 9.63035C5.03821 8.17777 1.93968 10.9817 3.22023 14.6232C4.49056 18.261 7.96969 21.4717 11.8229 21.4717H17.6004C19.0718 21.4717 20.3869 20.2953 21.2484 19.1025C22.1168 17.9 21.4626 16.4716 20.1948 15.7015C17.544 14.0914 12.7391 11.3055 8.61462 9.63035Z" fill="#D0D0D0"/>
<path d="M20.8414 16.7535C20.8414 16.6497 20.7823 16.5548 20.6891 16.509L10.0663 11.2835C9.76031 11.133 9.40259 11.3557 9.40259 11.6967C9.40259 11.8774 9.50836 12.0415 9.67301 12.1161L20.4564 17.0018C20.6368 17.0835 20.8414 16.9516 20.8414 16.7535Z" fill="#3E4347"/>
<path d="M20.3037 15.7704C20.2526 15.7704 20.2111 15.8118 20.2111 15.8629V16.6033C20.2111 16.6544 20.2526 16.6958 20.3037 16.6958C20.3548 16.6958 20.3962 16.6544 20.3962 16.6033V15.8629C20.3962 15.8118 20.3548 15.7704 20.3037 15.7704ZM17.8604 14.3266C17.8093 14.3266 17.7679 14.3681 17.7679 14.4192V15.3817C17.7679 15.4328 17.8093 15.4742 17.8604 15.4742C17.9116 15.4742 17.953 15.4328 17.953 15.3817V14.4192C17.953 14.3681 17.9116 14.3266 17.8604 14.3266ZM15.2691 12.8089C15.218 12.8089 15.1766 12.8503 15.1766 12.9014V14.3452C15.1766 14.3963 15.218 14.4377 15.2691 14.4377C15.3202 14.4377 15.3617 14.3963 15.3617 14.3452V12.9014C15.3617 12.8503 15.3202 12.8089 15.2691 12.8089ZM12.2891 11.3281C12.2482 11.3281 12.2151 11.3613 12.2151 11.4022V13.2531C12.2151 13.294 12.2482 13.3271 12.2891 13.3271C12.33 13.3271 12.3632 13.294 12.3632 13.2531V11.4022C12.3632 11.3613 12.33 11.3281 12.2891 11.3281Z" fill="#E8E8E8"/>
<path d="M20.4344 16.6961C20.5824 16.9182 20.2493 16.9552 19.731 16.8442C19.2127 16.6961 18.6575 16.437 18.5094 16.2149C18.3613 15.9927 18.6945 15.9557 19.2127 16.0668C19.731 16.2149 20.2863 16.474 20.4344 16.6961ZM18.0281 15.5855C18.1762 15.8447 17.843 15.9187 17.2507 15.8077C16.6584 15.6596 16.0661 15.3264 15.9181 15.1043C15.77 14.8452 16.1032 14.7711 16.6955 14.8822C17.2878 15.0303 17.8801 15.3264 18.0281 15.5855ZM15.3998 14.3639C15.5849 14.6231 15.2147 14.7341 14.5854 14.586C13.9561 14.475 13.2897 14.1418 13.1417 13.9197C12.9566 13.6606 13.3268 13.5495 13.9561 13.6976C14.5484 13.8086 15.2147 14.1418 15.3998 14.3639ZM12.5123 13.1793C12.7345 13.4755 12.3273 13.6236 11.5869 13.4755C10.8465 13.3644 10.1061 13.0313 9.88402 12.7351C9.66191 12.439 10.0691 12.2909 10.8095 12.4389C11.5128 12.55 12.2902 12.8832 12.5123 13.1793Z" fill="#ED4C5C"/>
<path d="M10.0704 10.2168C10.0295 10.2168 9.99634 10.2499 9.99634 10.2908V12.512C9.99634 12.5528 10.0295 12.586 10.0704 12.586C10.1113 12.586 10.1444 12.5528 10.1444 12.512V10.2908C10.1444 10.2499 10.1113 10.2168 10.0704 10.2168ZM13.217 11.8456C13.1761 11.8456 13.1429 11.8788 13.1429 11.9197V13.6966C13.1429 13.7374 13.1761 13.7706 13.217 13.7706C13.2579 13.7706 13.291 13.7374 13.291 13.6966V11.9197C13.291 11.8788 13.2579 11.8456 13.217 11.8456ZM16.1229 13.2894C16.0718 13.2894 16.0304 13.3308 16.0304 13.3819V14.8626C16.0304 14.9138 16.0718 14.9552 16.1229 14.9552C16.1741 14.9552 16.2155 14.9138 16.2155 14.8626V13.3819C16.2155 13.3308 16.1741 13.2894 16.1229 13.2894ZM18.6772 14.8071C18.6261 14.8071 18.5847 14.8486 18.5847 14.8997V15.9732C18.5847 16.0243 18.6261 16.0658 18.6772 16.0658C18.7283 16.0658 18.7698 16.0243 18.7698 15.9732V14.8997C18.7698 14.8486 18.7283 14.8071 18.6772 14.8071Z" fill="#E8E8E8"/>
<path d="M1.90686 4.75725C1.66836 4.77046 1.49367 4.65082 1.71176 4.55338C1.74163 4.54003 1.77347 4.52731 1.80741 4.51534C1.88067 4.48951 1.94201 4.43542 1.98405 4.37009C2.00511 4.33736 2.03255 4.29958 2.06738 4.26013C2.21758 4.09 2.33726 4.28934 2.23526 4.49207C2.17779 4.60631 2.0719 4.75333 1.94404 4.75586C1.93193 4.7561 1.91952 4.75655 1.90686 4.75725ZM2.20208 1.88202C1.98538 1.74361 1.77905 1.5395 2.03452 1.56865C2.12221 1.57866 2.33802 1.59514 2.4182 1.55825C2.43907 1.54865 2.4624 1.53892 2.48802 1.52969C2.73325 1.44137 2.68352 1.69451 2.48203 1.85985C2.41 1.91895 2.32288 1.96478 2.24638 1.91158C2.23261 1.90201 2.21783 1.89208 2.20208 1.88202Z" fill="#94989B"/>
</svg>
