<svg width="142" height="71" viewBox="0 0 142 71" fill="none" xmlns="http://www.w3.org/2000/svg">
<g filter="url(#filter0_d_2795_4824)">
<path d="M11.2827 33.115C11.3768 33.0183 11.7324 32.605 12.0636 32.265C14.0055 30.1267 19.0713 26.6267 21.7227 25.5583C22.1253 25.3867 23.1434 25.0233 23.6873 25C24.2085 25 24.7053 25.12 25.1794 25.3633C25.7704 25.7033 26.2445 26.2383 26.5043 26.87C26.6715 27.3083 26.9313 28.62 26.9313 28.6433C27.1911 30.0783 27.334 32.41 27.334 34.9867C27.334 37.4417 27.1911 39.6783 26.9784 41.135C26.9541 41.1583 26.6943 42.7883 26.4101 43.3467C25.8889 44.3667 24.8709 45 23.7815 45L23.6873 45C22.9778 44.975 21.4856 44.3417 21.4856 44.3183C18.9771 43.2483 14.0283 39.92 12.0393 37.7083C12.0393 37.7083 11.4791 37.14 11.2356 36.785C10.8557 36.275 10.6673 35.6433 10.6673 35.0117C10.6673 34.3067 10.88 33.65 11.2827 33.115Z" fill="white"/>
<rect x="21" y="10" width="111" height="51" rx="20" fill="white"/>
<path d="M42.624 30.328V31.864H38.912V34.568H42.496V36.104H38.912V41H37.28V30.328H42.624ZM44.1951 41V34.264H45.7631V34.872C45.9391 34.664 46.1951 34.44 46.4191 34.312C46.7231 34.136 47.0271 34.088 47.3791 34.088C47.7631 34.088 48.1791 34.152 48.6111 34.408L47.9711 35.832C47.6191 35.608 47.3311 35.592 47.1711 35.592C46.8351 35.592 46.4991 35.64 46.1951 35.96C45.7631 36.424 45.7631 37.064 45.7631 37.512V41H44.1951ZM49.5076 34.264H51.0756V41H49.5076V34.264ZM49.2836 31.48C49.2836 30.904 49.7156 30.472 50.2916 30.472C50.8676 30.472 51.2996 30.904 51.2996 31.48C51.2996 32.056 50.8676 32.488 50.2916 32.488C49.7156 32.488 49.2836 32.056 49.2836 31.48ZM57.7745 38.728L59.0865 39.464C58.7985 39.976 58.3825 40.424 57.9505 40.696C57.4065 41.048 56.6865 41.208 55.9665 41.208C55.0705 41.208 54.3345 40.984 53.6945 40.344C53.0545 39.704 52.7025 38.776 52.7025 37.768C52.7025 36.728 53.0705 35.72 53.7745 35C54.3345 34.44 55.0705 34.088 56.0305 34.088C57.1025 34.088 57.7905 34.552 58.1905 34.968C59.0545 35.864 59.1345 37.112 59.1345 37.816V38.008H54.3025C54.3345 38.488 54.5425 39.032 54.8785 39.368C55.2465 39.736 55.6945 39.8 56.0785 39.8C56.5105 39.8 56.8305 39.704 57.1505 39.464C57.4225 39.256 57.6305 38.984 57.7745 38.728ZM54.4145 36.728H57.5345C57.4705 36.36 57.2945 36.04 57.0545 35.816C56.8465 35.624 56.5105 35.432 55.9985 35.432C55.4545 35.432 55.1025 35.656 54.8945 35.864C54.6705 36.072 54.4945 36.392 54.4145 36.728ZM60.7573 41V34.264H62.3253V34.888C62.9973 34.136 63.7653 34.088 64.1493 34.088C65.3973 34.088 65.9253 34.712 66.1333 35C66.3893 35.368 66.5493 35.832 66.5493 36.872V41H64.9813V37.256C64.9813 35.544 64.3413 35.496 63.7493 35.496C63.0453 35.496 62.3253 35.592 62.3253 37.768V41H60.7573ZM73.4669 35.048V29.336H75.0349V41H73.4669V40.296C72.7789 41.096 71.9309 41.208 71.4509 41.208C69.3709 41.208 68.1869 39.48 68.1869 37.624C68.1869 35.432 69.6909 34.088 71.4669 34.088C71.9629 34.088 72.8269 34.216 73.4669 35.048ZM71.6589 35.496C70.5229 35.496 69.7869 36.456 69.7869 37.656C69.7869 38.824 70.5229 39.8 71.6589 39.8C72.6509 39.8 73.5629 39.08 73.5629 37.672C73.5629 36.2 72.6509 35.496 71.6589 35.496ZM81.1353 35.272L79.9673 36.04C79.8073 35.784 79.5033 35.464 79.0073 35.464C78.7833 35.464 78.6233 35.544 78.5273 35.64C78.4473 35.72 78.3832 35.848 78.3832 35.992C78.3832 36.168 78.4633 36.28 78.6073 36.376C78.7033 36.44 78.7993 36.472 79.1353 36.648L79.9353 37.048C80.2873 37.224 80.6233 37.4 80.8793 37.672C81.2473 38.04 81.3753 38.456 81.3753 38.92C81.3753 39.528 81.1513 40.056 80.7833 40.456C80.2552 41.032 79.5993 41.208 78.8953 41.208C78.4633 41.208 77.9193 41.144 77.4393 40.776C77.0553 40.488 76.7353 40.024 76.5753 39.544L77.8553 38.936C77.9353 39.16 78.0793 39.448 78.2233 39.576C78.3193 39.672 78.5433 39.832 78.9113 39.832C79.1513 39.832 79.4073 39.752 79.5513 39.608C79.6793 39.48 79.7753 39.272 79.7753 39.08C79.7753 38.888 79.7113 38.728 79.5673 38.568C79.3753 38.376 79.1513 38.264 78.8953 38.152L78.3193 37.88C78.0153 37.736 77.6473 37.56 77.3913 37.304C77.0393 36.968 76.9113 36.6 76.9113 36.168C76.9113 35.624 77.1193 35.096 77.4713 34.728C77.7753 34.408 78.2873 34.088 79.1193 34.088C79.5993 34.088 79.9833 34.184 80.3673 34.44C80.5913 34.584 80.8953 34.84 81.1353 35.272ZM88.1553 41H86.4913L88.7313 29.528L92.4433 37.816L96.1873 29.528L98.2033 41H96.5393L95.4513 34.568L92.3473 41.496L89.2753 34.552L88.1553 41ZM105.076 35.048V34.264H106.644V41H105.076V40.296C104.388 41.096 103.54 41.208 103.06 41.208C100.98 41.208 99.7963 39.48 99.7963 37.624C99.7963 35.432 101.3 34.088 103.076 34.088C103.572 34.088 104.436 34.216 105.076 35.048ZM103.268 35.496C102.132 35.496 101.396 36.456 101.396 37.656C101.396 38.824 102.132 39.8 103.268 39.8C104.26 39.8 105.172 39.08 105.172 37.672C105.172 36.2 104.26 35.496 103.268 35.496ZM110.201 40.216V44.664H108.633V34.264H110.201V35C110.777 34.312 111.529 34.088 112.201 34.088C113.977 34.088 115.481 35.448 115.481 37.592C115.481 39.864 113.817 41.208 112.217 41.208C111.849 41.208 110.905 41.08 110.201 40.216ZM112.009 35.496C111.017 35.496 110.105 36.2 110.105 37.672C110.105 39.08 111.017 39.8 112.009 39.8C113.145 39.8 113.881 38.824 113.881 37.656C113.881 36.456 113.145 35.496 112.009 35.496Z" fill="#7F4DEA"/>
</g>
<defs>
<filter id="filter0_d_2795_4824" x="0.667236" y="0" width="141.333" height="71" filterUnits="userSpaceOnUse" color-interpolation-filters="sRGB">
<feFlood flood-opacity="0" result="BackgroundImageFix"/>
<feColorMatrix in="SourceAlpha" type="matrix" values="0 0 0 0 0 0 0 0 0 0 0 0 0 0 0 0 0 0 127 0" result="hardAlpha"/>
<feOffset/>
<feGaussianBlur stdDeviation="5"/>
<feComposite in2="hardAlpha" operator="out"/>
<feColorMatrix type="matrix" values="0 0 0 0 0 0 0 0 0 0 0 0 0 0 0 0 0 0 0.2 0"/>
<feBlend mode="normal" in2="BackgroundImageFix" result="effect1_dropShadow_2795_4824"/>
<feBlend mode="normal" in="SourceGraphic" in2="effect1_dropShadow_2795_4824" result="shape"/>
</filter>
</defs>
</svg>
