<svg width="111" height="71" viewBox="0 0 111 71" fill="none" xmlns="http://www.w3.org/2000/svg">
<g filter="url(#filter0_d_2795_4832)">
<path d="M11.2827 33.115C11.3768 33.0183 11.7324 32.605 12.0636 32.265C14.0055 30.1267 19.0713 26.6267 21.7227 25.5583C22.1253 25.3867 23.1434 25.0233 23.6873 25C24.2085 25 24.7053 25.12 25.1794 25.3633C25.7704 25.7033 26.2445 26.2383 26.5043 26.87C26.6715 27.3083 26.9313 28.62 26.9313 28.6433C27.1911 30.0783 27.334 32.41 27.334 34.9867C27.334 37.4417 27.1911 39.6783 26.9784 41.135C26.9541 41.1583 26.6943 42.7883 26.4101 43.3467C25.8889 44.3667 24.8709 45 23.7815 45L23.6873 45C22.9778 44.975 21.4856 44.3417 21.4856 44.3183C18.9771 43.2483 14.0283 39.92 12.0393 37.7083C12.0393 37.7083 11.4791 37.14 11.2356 36.785C10.8557 36.275 10.6673 35.6433 10.6673 35.0117C10.6673 34.3067 10.88 33.65 11.2827 33.115Z" fill="white"/>
<rect x="21" y="10" width="80" height="51" rx="20" fill="white"/>
<path d="M38.912 30.328V34.552H43.488V30.328H45.12V41H43.488V36.088H38.912V41H37.28V30.328H38.912ZM50.6463 34.088C52.6783 34.088 54.2463 35.56 54.2463 37.64C54.2463 39.704 52.6783 41.208 50.6463 41.208C48.6143 41.208 47.0463 39.704 47.0463 37.64C47.0463 35.56 48.6143 34.088 50.6463 34.088ZM50.6463 39.8C51.8783 39.8 52.6463 38.952 52.6463 37.656C52.6463 36.12 51.6383 35.496 50.6463 35.496C49.6543 35.496 48.6463 36.12 48.6463 37.656C48.6463 38.952 49.4143 39.8 50.6463 39.8ZM58.6986 35.704H57.4986V41H55.9306V35.704H55.2746V34.264H55.9306V31.8H57.4986V34.264H58.6986V35.704ZM63.8696 35.272L62.7016 36.04C62.5416 35.784 62.2376 35.464 61.7416 35.464C61.5176 35.464 61.3576 35.544 61.2616 35.64C61.1816 35.72 61.1176 35.848 61.1176 35.992C61.1176 36.168 61.1976 36.28 61.3416 36.376C61.4376 36.44 61.5336 36.472 61.8696 36.648L62.6696 37.048C63.0216 37.224 63.3576 37.4 63.6136 37.672C63.9816 38.04 64.1096 38.456 64.1096 38.92C64.1096 39.528 63.8856 40.056 63.5176 40.456C62.9896 41.032 62.3336 41.208 61.6296 41.208C61.1976 41.208 60.6536 41.144 60.1736 40.776C59.7896 40.488 59.4696 40.024 59.3096 39.544L60.5896 38.936C60.6696 39.16 60.8136 39.448 60.9576 39.576C61.0536 39.672 61.2776 39.832 61.6456 39.832C61.8856 39.832 62.1416 39.752 62.2856 39.608C62.4136 39.48 62.5096 39.272 62.5096 39.08C62.5096 38.888 62.4456 38.728 62.3016 38.568C62.1096 38.376 61.8856 38.264 61.6296 38.152L61.0536 37.88C60.7496 37.736 60.3816 37.56 60.1256 37.304C59.7736 36.968 59.6456 36.6 59.6456 36.168C59.6456 35.624 59.8536 35.096 60.2056 34.728C60.5096 34.408 61.0216 34.088 61.8536 34.088C62.3336 34.088 62.7176 34.184 63.1016 34.44C63.3256 34.584 63.6296 34.84 63.8696 35.272ZM67.0913 40.216V44.664H65.5233V34.264H67.0913V35C67.6673 34.312 68.4193 34.088 69.0913 34.088C70.8673 34.088 72.3713 35.448 72.3713 37.592C72.3713 39.864 70.7073 41.208 69.1073 41.208C68.7393 41.208 67.7953 41.08 67.0913 40.216ZM68.8993 35.496C67.9073 35.496 66.9953 36.2 66.9953 37.672C66.9953 39.08 67.9073 39.8 68.8993 39.8C70.0353 39.8 70.7713 38.824 70.7713 37.656C70.7713 36.456 70.0353 35.496 68.8993 35.496ZM77.2556 34.088C79.2876 34.088 80.8556 35.56 80.8556 37.64C80.8556 39.704 79.2876 41.208 77.2556 41.208C75.2236 41.208 73.6556 39.704 73.6556 37.64C73.6556 35.56 75.2236 34.088 77.2556 34.088ZM77.2556 39.8C78.4876 39.8 79.2556 38.952 79.2556 37.656C79.2556 36.12 78.2476 35.496 77.2556 35.496C76.2636 35.496 75.2556 36.12 75.2556 37.656C75.2556 38.952 76.0236 39.8 77.2556 39.8ZM85.308 35.704H84.108V41H82.54V35.704H81.884V34.264H82.54V31.8H84.108V34.264H85.308V35.704Z" fill="#7F4DEA"/>
</g>
<defs>
<filter id="filter0_d_2795_4832" x="0.667236" y="0" width="110.333" height="71" filterUnits="userSpaceOnUse" color-interpolation-filters="sRGB">
<feFlood flood-opacity="0" result="BackgroundImageFix"/>
<feColorMatrix in="SourceAlpha" type="matrix" values="0 0 0 0 0 0 0 0 0 0 0 0 0 0 0 0 0 0 127 0" result="hardAlpha"/>
<feOffset/>
<feGaussianBlur stdDeviation="5"/>
<feComposite in2="hardAlpha" operator="out"/>
<feColorMatrix type="matrix" values="0 0 0 0 0 0 0 0 0 0 0 0 0 0 0 0 0 0 0.2 0"/>
<feBlend mode="normal" in2="BackgroundImageFix" result="effect1_dropShadow_2795_4832"/>
<feBlend mode="normal" in="SourceGraphic" in2="effect1_dropShadow_2795_4832" result="shape"/>
</filter>
</defs>
</svg>
