<svg width="235" height="71" viewBox="0 0 235 71" fill="none" xmlns="http://www.w3.org/2000/svg">
<g filter="url(#filter0_d_2795_4841)">
<path d="M11.2827 33.115C11.3768 33.0183 11.7324 32.605 12.0636 32.265C14.0055 30.1267 19.0713 26.6267 21.7227 25.5583C22.1253 25.3867 23.1434 25.0233 23.6873 25C24.2085 25 24.7053 25.12 25.1794 25.3633C25.7704 25.7033 26.2445 26.2383 26.5043 26.87C26.6715 27.3083 26.9313 28.62 26.9313 28.6433C27.1911 30.0783 27.334 32.41 27.334 34.9867C27.334 37.4417 27.1911 39.6783 26.9784 41.135C26.9541 41.1583 26.6943 42.7883 26.4101 43.3467C25.8889 44.3667 24.8709 45 23.7815 45L23.6873 45C22.9778 44.975 21.4856 44.3417 21.4856 44.3183C18.9771 43.2483 14.0283 39.92 12.0393 37.7083C12.0393 37.7083 11.4791 37.14 11.2356 36.785C10.8557 36.275 10.6673 35.6433 10.6673 35.0117C10.6673 34.3067 10.88 33.65 11.2827 33.115Z" fill="white"/>
<rect x="21" y="10" width="204" height="51" rx="20" fill="white"/>
<path d="M37.28 30.328H39.632C40.288 30.328 41.2 30.392 41.968 30.904C42.864 31.496 43.296 32.52 43.296 33.496C43.296 34.12 43.136 35.08 42.256 35.832C41.408 36.552 40.432 36.664 39.648 36.664H38.912V41H37.28V30.328ZM38.912 31.832V35.16H39.648C41.056 35.16 41.728 34.472 41.728 33.48C41.728 32.888 41.488 31.832 39.632 31.832H38.912ZM49.2433 38.728L50.5553 39.464C50.2673 39.976 49.8513 40.424 49.4193 40.696C48.8753 41.048 48.1553 41.208 47.4353 41.208C46.5393 41.208 45.8033 40.984 45.1633 40.344C44.5233 39.704 44.1713 38.776 44.1713 37.768C44.1713 36.728 44.5393 35.72 45.2433 35C45.8033 34.44 46.5393 34.088 47.4993 34.088C48.5713 34.088 49.2593 34.552 49.6593 34.968C50.5233 35.864 50.6033 37.112 50.6033 37.816V38.008H45.7713C45.8033 38.488 46.0113 39.032 46.3473 39.368C46.7153 39.736 47.1633 39.8 47.5473 39.8C47.9793 39.8 48.2993 39.704 48.6193 39.464C48.8913 39.256 49.0993 38.984 49.2433 38.728ZM45.8832 36.728H49.0033C48.9393 36.36 48.7633 36.04 48.5233 35.816C48.3153 35.624 47.9793 35.432 47.4673 35.432C46.9233 35.432 46.5713 35.656 46.3633 35.864C46.1393 36.072 45.9633 36.392 45.8832 36.728ZM52.242 41V34.264H53.81V34.872C53.986 34.664 54.242 34.44 54.466 34.312C54.77 34.136 55.074 34.088 55.426 34.088C55.81 34.088 56.226 34.152 56.658 34.408L56.018 35.832C55.666 35.608 55.378 35.592 55.218 35.592C54.882 35.592 54.546 35.64 54.242 35.96C53.81 36.424 53.81 37.064 53.81 37.512V41H52.242ZM61.354 35.272L60.186 36.04C60.026 35.784 59.722 35.464 59.226 35.464C59.002 35.464 58.842 35.544 58.746 35.64C58.666 35.72 58.602 35.848 58.602 35.992C58.602 36.168 58.682 36.28 58.826 36.376C58.922 36.44 59.018 36.472 59.354 36.648L60.154 37.048C60.506 37.224 60.842 37.4 61.098 37.672C61.466 38.04 61.594 38.456 61.594 38.92C61.594 39.528 61.37 40.056 61.002 40.456C60.474 41.032 59.818 41.208 59.114 41.208C58.682 41.208 58.138 41.144 57.658 40.776C57.274 40.488 56.954 40.024 56.794 39.544L58.074 38.936C58.154 39.16 58.298 39.448 58.442 39.576C58.538 39.672 58.762 39.832 59.13 39.832C59.37 39.832 59.626 39.752 59.77 39.608C59.898 39.48 59.994 39.272 59.994 39.08C59.994 38.888 59.93 38.728 59.786 38.568C59.594 38.376 59.37 38.264 59.114 38.152L58.538 37.88C58.234 37.736 57.866 37.56 57.61 37.304C57.258 36.968 57.13 36.6 57.13 36.168C57.13 35.624 57.338 35.096 57.69 34.728C57.994 34.408 58.506 34.088 59.338 34.088C59.818 34.088 60.202 34.184 60.586 34.44C60.81 34.584 61.114 34.84 61.354 35.272ZM66.2556 34.088C68.2876 34.088 69.8556 35.56 69.8556 37.64C69.8556 39.704 68.2876 41.208 66.2556 41.208C64.2236 41.208 62.6556 39.704 62.6556 37.64C62.6556 35.56 64.2236 34.088 66.2556 34.088ZM66.2556 39.8C67.4876 39.8 68.2556 38.952 68.2556 37.656C68.2556 36.12 67.2476 35.496 66.2556 35.496C65.2636 35.496 64.2556 36.12 64.2556 37.656C64.2556 38.952 65.0236 39.8 66.2556 39.8ZM71.476 41V34.264H73.044V34.888C73.716 34.136 74.484 34.088 74.868 34.088C76.116 34.088 76.644 34.712 76.852 35C77.108 35.368 77.268 35.832 77.268 36.872V41H75.7V37.256C75.7 35.544 75.06 35.496 74.468 35.496C73.764 35.496 73.044 35.592 73.044 37.768V41H71.476ZM84.1856 35.048V34.264H85.7536V41H84.1856V40.296C83.4976 41.096 82.6496 41.208 82.1696 41.208C80.0896 41.208 78.9056 39.48 78.9056 37.624C78.9056 35.432 80.4096 34.088 82.1856 34.088C82.6816 34.088 83.5456 34.216 84.1856 35.048ZM82.3776 35.496C81.2416 35.496 80.5056 36.456 80.5056 37.656C80.5056 38.824 81.2416 39.8 82.3776 39.8C83.3696 39.8 84.2816 39.08 84.2816 37.672C84.2816 36.2 83.3696 35.496 82.3776 35.496ZM87.742 29.336H89.31V41H87.742V29.336ZM95.3113 30.328H97.2153C98.5113 30.328 99.3433 30.488 100.031 30.952C101.199 31.736 101.295 33 101.295 33.464C101.295 35 100.351 36.12 98.9273 36.44L102.255 41H100.287L97.2313 36.632H96.9433V41H95.3113V30.328ZM96.9433 31.832V35.224H97.4553C97.9033 35.224 99.7273 35.176 99.7273 33.48C99.7273 31.976 98.3033 31.832 97.5033 31.832H96.9433ZM108.29 38.728L109.602 39.464C109.314 39.976 108.898 40.424 108.466 40.696C107.922 41.048 107.202 41.208 106.482 41.208C105.586 41.208 104.85 40.984 104.21 40.344C103.57 39.704 103.218 38.776 103.218 37.768C103.218 36.728 103.586 35.72 104.29 35C104.85 34.44 105.586 34.088 106.546 34.088C107.618 34.088 108.306 34.552 108.706 34.968C109.57 35.864 109.65 37.112 109.65 37.816V38.008H104.818C104.85 38.488 105.058 39.032 105.394 39.368C105.762 39.736 106.21 39.8 106.594 39.8C107.026 39.8 107.346 39.704 107.666 39.464C107.938 39.256 108.146 38.984 108.29 38.728ZM104.93 36.728H108.05C107.986 36.36 107.81 36.04 107.57 35.816C107.362 35.624 107.026 35.432 106.514 35.432C105.97 35.432 105.618 35.656 105.41 35.864C105.186 36.072 105.01 36.392 104.93 36.728ZM116.505 34.568V36.328C115.785 35.624 115.081 35.496 114.601 35.496C113.865 35.496 113.401 35.8 113.113 36.088C112.825 36.376 112.537 36.888 112.537 37.64C112.537 38.424 112.841 38.952 113.145 39.256C113.497 39.592 113.993 39.8 114.569 39.8C115.209 39.8 115.961 39.544 116.505 38.936V40.68C116.121 40.92 115.497 41.208 114.457 41.208C113.337 41.208 112.537 40.888 111.897 40.216C111.417 39.72 110.937 38.92 110.937 37.688C110.937 36.424 111.465 35.576 111.961 35.08C112.489 34.552 113.337 34.088 114.665 34.088C115.177 34.088 115.785 34.168 116.505 34.568ZM121.256 34.088C123.288 34.088 124.856 35.56 124.856 37.64C124.856 39.704 123.288 41.208 121.256 41.208C119.224 41.208 117.656 39.704 117.656 37.64C117.656 35.56 119.224 34.088 121.256 34.088ZM121.256 39.8C122.488 39.8 123.256 38.952 123.256 37.656C123.256 36.12 122.248 35.496 121.256 35.496C120.264 35.496 119.256 36.12 119.256 37.656C119.256 38.952 120.024 39.8 121.256 39.8ZM126.492 41V34.264H128.06V34.888C128.588 34.248 129.212 34.088 129.724 34.088C130.428 34.088 131.084 34.424 131.468 35.08C132.028 34.28 132.876 34.088 133.468 34.088C134.284 34.088 135.004 34.472 135.388 35.144C135.516 35.368 135.74 35.864 135.74 36.84V41H134.172V37.288C134.172 36.536 134.092 36.232 134.028 36.088C133.932 35.832 133.692 35.496 133.132 35.496C132.748 35.496 132.412 35.704 132.204 35.992C131.932 36.376 131.9 36.952 131.9 37.528V41H130.332V37.288C130.332 36.536 130.252 36.232 130.188 36.088C130.092 35.832 129.852 35.496 129.292 35.496C128.908 35.496 128.572 35.704 128.364 35.992C128.092 36.376 128.06 36.952 128.06 37.528V41H126.492ZM137.726 41V34.264H139.294V34.888C139.822 34.248 140.446 34.088 140.958 34.088C141.662 34.088 142.318 34.424 142.702 35.08C143.262 34.28 144.11 34.088 144.702 34.088C145.518 34.088 146.238 34.472 146.622 35.144C146.75 35.368 146.974 35.864 146.974 36.84V41H145.406V37.288C145.406 36.536 145.326 36.232 145.262 36.088C145.166 35.832 144.926 35.496 144.366 35.496C143.982 35.496 143.646 35.704 143.438 35.992C143.166 36.376 143.134 36.952 143.134 37.528V41H141.566V37.288C141.566 36.536 141.486 36.232 141.422 36.088C141.326 35.832 141.086 35.496 140.526 35.496C140.142 35.496 139.806 35.704 139.598 35.992C139.326 36.376 139.294 36.952 139.294 37.528V41H137.726ZM153.681 38.728L154.993 39.464C154.705 39.976 154.289 40.424 153.857 40.696C153.313 41.048 152.593 41.208 151.873 41.208C150.977 41.208 150.241 40.984 149.601 40.344C148.961 39.704 148.609 38.776 148.609 37.768C148.609 36.728 148.977 35.72 149.681 35C150.241 34.44 150.977 34.088 151.937 34.088C153.009 34.088 153.697 34.552 154.097 34.968C154.961 35.864 155.041 37.112 155.041 37.816V38.008H150.209C150.241 38.488 150.449 39.032 150.785 39.368C151.153 39.736 151.601 39.8 151.985 39.8C152.417 39.8 152.737 39.704 153.057 39.464C153.329 39.256 153.537 38.984 153.681 38.728ZM150.321 36.728H153.441C153.377 36.36 153.201 36.04 152.961 35.816C152.753 35.624 152.417 35.432 151.905 35.432C151.361 35.432 151.009 35.656 150.801 35.864C150.577 36.072 150.401 36.392 150.321 36.728ZM156.664 41V34.264H158.232V34.888C158.904 34.136 159.672 34.088 160.056 34.088C161.304 34.088 161.832 34.712 162.04 35C162.296 35.368 162.456 35.832 162.456 36.872V41H160.888V37.256C160.888 35.544 160.248 35.496 159.656 35.496C158.952 35.496 158.232 35.592 158.232 37.768V41H156.664ZM169.373 35.048V29.336H170.941V41H169.373V40.296C168.685 41.096 167.837 41.208 167.357 41.208C165.277 41.208 164.093 39.48 164.093 37.624C164.093 35.432 165.597 34.088 167.373 34.088C167.869 34.088 168.733 34.216 169.373 35.048ZM167.565 35.496C166.429 35.496 165.693 36.456 165.693 37.656C165.693 38.824 166.429 39.8 167.565 39.8C168.557 39.8 169.469 39.08 169.469 37.672C169.469 36.2 168.557 35.496 167.565 35.496ZM177.858 35.048V34.264H179.426V41H177.858V40.296C177.17 41.096 176.322 41.208 175.842 41.208C173.762 41.208 172.578 39.48 172.578 37.624C172.578 35.432 174.082 34.088 175.858 34.088C176.354 34.088 177.218 34.216 177.858 35.048ZM176.049 35.496C174.914 35.496 174.178 36.456 174.178 37.656C174.178 38.824 174.914 39.8 176.049 39.8C177.042 39.8 177.954 39.08 177.954 37.672C177.954 36.2 177.042 35.496 176.049 35.496ZM184.23 35.704H183.03V41H181.462V35.704H180.806V34.264H181.462V31.8H183.03V34.264H184.23V35.704ZM185.289 34.264H186.857V41H185.289V34.264ZM185.065 31.48C185.065 30.904 185.497 30.472 186.073 30.472C186.649 30.472 187.081 30.904 187.081 31.48C187.081 32.056 186.649 32.488 186.073 32.488C185.497 32.488 185.065 32.056 185.065 31.48ZM192.084 34.088C194.116 34.088 195.684 35.56 195.684 37.64C195.684 39.704 194.116 41.208 192.084 41.208C190.052 41.208 188.484 39.704 188.484 37.64C188.484 35.56 190.052 34.088 192.084 34.088ZM192.084 39.8C193.316 39.8 194.084 38.952 194.084 37.656C194.084 36.12 193.076 35.496 192.084 35.496C191.092 35.496 190.084 36.12 190.084 37.656C190.084 38.952 190.852 39.8 192.084 39.8ZM197.304 41V34.264H198.872V34.888C199.544 34.136 200.312 34.088 200.696 34.088C201.944 34.088 202.472 34.712 202.68 35C202.936 35.368 203.096 35.832 203.096 36.872V41H201.528V37.256C201.528 35.544 200.888 35.496 200.296 35.496C199.592 35.496 198.872 35.592 198.872 37.768V41H197.304ZM209.198 35.272L208.03 36.04C207.87 35.784 207.566 35.464 207.07 35.464C206.846 35.464 206.686 35.544 206.59 35.64C206.51 35.72 206.446 35.848 206.446 35.992C206.446 36.168 206.526 36.28 206.67 36.376C206.766 36.44 206.862 36.472 207.198 36.648L207.998 37.048C208.35 37.224 208.686 37.4 208.942 37.672C209.31 38.04 209.438 38.456 209.438 38.92C209.438 39.528 209.214 40.056 208.846 40.456C208.318 41.032 207.662 41.208 206.958 41.208C206.526 41.208 205.982 41.144 205.502 40.776C205.118 40.488 204.798 40.024 204.638 39.544L205.918 38.936C205.998 39.16 206.142 39.448 206.286 39.576C206.382 39.672 206.606 39.832 206.974 39.832C207.214 39.832 207.47 39.752 207.614 39.608C207.742 39.48 207.838 39.272 207.838 39.08C207.838 38.888 207.774 38.728 207.63 38.568C207.438 38.376 207.214 38.264 206.958 38.152L206.382 37.88C206.078 37.736 205.71 37.56 205.454 37.304C205.102 36.968 204.974 36.6 204.974 36.168C204.974 35.624 205.182 35.096 205.534 34.728C205.838 34.408 206.35 34.088 207.182 34.088C207.662 34.088 208.046 34.184 208.43 34.44C208.654 34.584 208.958 34.84 209.198 35.272Z" fill="#7F4DEA"/>
</g>
<defs>
<filter id="filter0_d_2795_4841" x="0.667236" y="0" width="234.333" height="71" filterUnits="userSpaceOnUse" color-interpolation-filters="sRGB">
<feFlood flood-opacity="0" result="BackgroundImageFix"/>
<feColorMatrix in="SourceAlpha" type="matrix" values="0 0 0 0 0 0 0 0 0 0 0 0 0 0 0 0 0 0 127 0" result="hardAlpha"/>
<feOffset/>
<feGaussianBlur stdDeviation="5"/>
<feComposite in2="hardAlpha" operator="out"/>
<feColorMatrix type="matrix" values="0 0 0 0 0 0 0 0 0 0 0 0 0 0 0 0 0 0 0.2 0"/>
<feBlend mode="normal" in2="BackgroundImageFix" result="effect1_dropShadow_2795_4841"/>
<feBlend mode="normal" in="SourceGraphic" in2="effect1_dropShadow_2795_4841" result="shape"/>
</filter>
</defs>
</svg>
