<svg width="95" height="71" viewBox="0 0 95 71" fill="none" xmlns="http://www.w3.org/2000/svg">
<g filter="url(#filter0_d_2795_4837)">
<path d="M11.2827 33.115C11.3768 33.0183 11.7324 32.605 12.0636 32.265C14.0055 30.1267 19.0713 26.6267 21.7227 25.5583C22.1253 25.3867 23.1434 25.0233 23.6873 25C24.2085 25 24.7053 25.12 25.1794 25.3633C25.7704 25.7033 26.2445 26.2383 26.5043 26.87C26.6715 27.3083 26.9313 28.62 26.9313 28.6433C27.1911 30.0783 27.334 32.41 27.334 34.9867C27.334 37.4417 27.1911 39.6783 26.9784 41.135C26.9541 41.1583 26.6943 42.7883 26.4101 43.3467C25.8889 44.3667 24.8709 45 23.7815 45L23.6873 45C22.9778 44.975 21.4856 44.3417 21.4856 44.3183C18.9771 43.2483 14.0283 39.92 12.0393 37.7083C12.0393 37.7083 11.4791 37.14 11.2356 36.785C10.8557 36.275 10.6673 35.6433 10.6673 35.0117C10.6673 34.3067 10.88 33.65 11.2827 33.115Z" fill="white"/>
<rect x="21" y="10" width="64" height="51" rx="20" fill="white"/>
<path d="M37.28 30.328H39.632C40.288 30.328 41.2 30.392 41.968 30.904C42.864 31.496 43.296 32.52 43.296 33.496C43.296 34.12 43.136 35.08 42.256 35.832C41.408 36.552 40.432 36.664 39.648 36.664H38.912V41H37.28V30.328ZM38.912 31.832V35.16H39.648C41.056 35.16 41.728 34.472 41.728 33.48C41.728 32.888 41.488 31.832 39.632 31.832H38.912ZM50.0075 30.136C53.2075 30.136 55.5595 32.536 55.5595 35.672C55.5595 38.808 53.2075 41.208 50.0075 41.208C46.8075 41.208 44.4555 38.808 44.4555 35.672C44.4555 32.536 46.8075 30.136 50.0075 30.136ZM50.0075 39.704C52.2955 39.704 53.9275 38.04 53.9275 35.672C53.9275 33.304 52.2955 31.64 50.0075 31.64C47.7195 31.64 46.0875 33.304 46.0875 35.672C46.0875 38.04 47.7195 39.704 50.0075 39.704ZM57.6081 30.328H59.2401V41H57.6081V30.328ZM61.3156 33.848L62.9476 29.784L64.3556 30.328L62.3716 34.28L61.3156 33.848ZM69.2446 35.272L68.0766 36.04C67.9166 35.784 67.6126 35.464 67.1166 35.464C66.8926 35.464 66.7326 35.544 66.6366 35.64C66.5566 35.72 66.4926 35.848 66.4926 35.992C66.4926 36.168 66.5726 36.28 66.7166 36.376C66.8126 36.44 66.9086 36.472 67.2446 36.648L68.0446 37.048C68.3966 37.224 68.7326 37.4 68.9886 37.672C69.3566 38.04 69.4846 38.456 69.4846 38.92C69.4846 39.528 69.2606 40.056 68.8926 40.456C68.3646 41.032 67.7086 41.208 67.0046 41.208C66.5726 41.208 66.0286 41.144 65.5486 40.776C65.1646 40.488 64.8446 40.024 64.6846 39.544L65.9646 38.936C66.0446 39.16 66.1886 39.448 66.3326 39.576C66.4286 39.672 66.6526 39.832 67.0206 39.832C67.2606 39.832 67.5166 39.752 67.6606 39.608C67.7886 39.48 67.8846 39.272 67.8846 39.08C67.8846 38.888 67.8206 38.728 67.6766 38.568C67.4846 38.376 67.2606 38.264 67.0046 38.152L66.4286 37.88C66.1246 37.736 65.7566 37.56 65.5006 37.304C65.1486 36.968 65.0206 36.6 65.0206 36.168C65.0206 35.624 65.2286 35.096 65.5806 34.728C65.8846 34.408 66.3966 34.088 67.2286 34.088C67.7086 34.088 68.0926 34.184 68.4766 34.44C68.7006 34.584 69.0046 34.84 69.2446 35.272Z" fill="#7F4DEA"/>
</g>
<defs>
<filter id="filter0_d_2795_4837" x="0.667236" y="0" width="94.3328" height="71" filterUnits="userSpaceOnUse" color-interpolation-filters="sRGB">
<feFlood flood-opacity="0" result="BackgroundImageFix"/>
<feColorMatrix in="SourceAlpha" type="matrix" values="0 0 0 0 0 0 0 0 0 0 0 0 0 0 0 0 0 0 127 0" result="hardAlpha"/>
<feOffset/>
<feGaussianBlur stdDeviation="5"/>
<feComposite in2="hardAlpha" operator="out"/>
<feColorMatrix type="matrix" values="0 0 0 0 0 0 0 0 0 0 0 0 0 0 0 0 0 0 0.2 0"/>
<feBlend mode="normal" in2="BackgroundImageFix" result="effect1_dropShadow_2795_4837"/>
<feBlend mode="normal" in="SourceGraphic" in2="effect1_dropShadow_2795_4837" result="shape"/>
</filter>
</defs>
</svg>
