<svg width="117" height="71" viewBox="0 0 117 71" fill="none" xmlns="http://www.w3.org/2000/svg">
<g filter="url(#filter0_d_2795_4828)">
<path d="M11.2827 33.115C11.3768 33.0183 11.7324 32.605 12.0636 32.265C14.0055 30.1267 19.0713 26.6267 21.7227 25.5583C22.1253 25.3867 23.1434 25.0233 23.6873 25C24.2085 25 24.7053 25.12 25.1794 25.3633C25.7704 25.7033 26.2445 26.2383 26.5043 26.87C26.6715 27.3083 26.9313 28.62 26.9313 28.6433C27.1911 30.0783 27.334 32.41 27.334 34.9867C27.334 37.4417 27.1911 39.6783 26.9784 41.135C26.9541 41.1583 26.6943 42.7883 26.4101 43.3467C25.8889 44.3667 24.8709 45 23.7815 45L23.6873 45C22.9778 44.975 21.4856 44.3417 21.4856 44.3183C18.9771 43.2483 14.0283 39.92 12.0393 37.7083C12.0393 37.7083 11.4791 37.14 11.2356 36.785C10.8557 36.275 10.6673 35.6433 10.6673 35.0117C10.6673 34.3067 10.88 33.65 11.2827 33.115Z" fill="white"/>
<rect x="21" y="10" width="86" height="51" rx="20" fill="white"/>
<path d="M36.064 30.328H37.824L40.64 37.464L43.52 29.816L46.304 37.464L49.216 30.328H50.976L46.208 41.688L43.424 34.12L40.608 41.688L36.064 30.328ZM56.2745 38.728L57.5865 39.464C57.2985 39.976 56.8825 40.424 56.4505 40.696C55.9065 41.048 55.1865 41.208 54.4665 41.208C53.5705 41.208 52.8345 40.984 52.1945 40.344C51.5545 39.704 51.2025 38.776 51.2025 37.768C51.2025 36.728 51.5705 35.72 52.2745 35C52.8345 34.44 53.5705 34.088 54.5305 34.088C55.6025 34.088 56.2905 34.552 56.6905 34.968C57.5545 35.864 57.6345 37.112 57.6345 37.816V38.008H52.8025C52.8345 38.488 53.0425 39.032 53.3785 39.368C53.7465 39.736 54.1945 39.8 54.5785 39.8C55.0105 39.8 55.3305 39.704 55.6505 39.464C55.9225 39.256 56.1305 38.984 56.2745 38.728ZM52.9145 36.728H56.0345C55.9705 36.36 55.7945 36.04 55.5545 35.816C55.3465 35.624 55.0105 35.432 54.4985 35.432C53.9545 35.432 53.6025 35.656 53.3945 35.864C53.1705 36.072 52.9945 36.392 52.9145 36.728ZM64.2013 35.048V34.264H65.7693V41H64.2013V40.296C63.5133 41.096 62.6653 41.208 62.1853 41.208C60.1053 41.208 58.9213 39.48 58.9213 37.624C58.9213 35.432 60.4253 34.088 62.2013 34.088C62.6973 34.088 63.5613 34.216 64.2013 35.048ZM62.3932 35.496C61.2573 35.496 60.5213 36.456 60.5213 37.656C60.5213 38.824 61.2573 39.8 62.3932 39.8C63.3853 39.8 64.2973 39.08 64.2973 37.672C64.2973 36.2 63.3853 35.496 62.3932 35.496ZM70.5736 35.704H69.3736V41H67.8056V35.704H67.1496V34.264H67.8056V31.8H69.3736V34.264H70.5736V35.704ZM71.6326 41V29.336H73.2006V34.84C73.8726 34.152 74.6086 34.088 75.0086 34.088C76.2406 34.088 76.8006 34.728 76.9926 35C77.4086 35.608 77.4246 36.392 77.4246 36.872V41H75.8566V37.016C75.8566 36.616 75.8566 36.184 75.5526 35.848C75.3766 35.656 75.0726 35.496 74.6726 35.496C74.1446 35.496 73.7286 35.752 73.5206 36.056C73.2966 36.376 73.2006 36.888 73.2006 37.752V41H71.6326ZM83.962 38.728L85.274 39.464C84.986 39.976 84.57 40.424 84.138 40.696C83.594 41.048 82.874 41.208 82.154 41.208C81.258 41.208 80.522 40.984 79.882 40.344C79.242 39.704 78.89 38.776 78.89 37.768C78.89 36.728 79.258 35.72 79.962 35C80.522 34.44 81.258 34.088 82.218 34.088C83.29 34.088 83.978 34.552 84.378 34.968C85.242 35.864 85.322 37.112 85.322 37.816V38.008H80.49C80.522 38.488 80.73 39.032 81.066 39.368C81.434 39.736 81.882 39.8 82.266 39.8C82.698 39.8 83.018 39.704 83.338 39.464C83.61 39.256 83.818 38.984 83.962 38.728ZM80.602 36.728H83.722C83.658 36.36 83.482 36.04 83.242 35.816C83.034 35.624 82.698 35.432 82.186 35.432C81.642 35.432 81.29 35.656 81.082 35.864C80.858 36.072 80.682 36.392 80.602 36.728ZM86.9608 41V34.264H88.5288V34.872C88.7048 34.664 88.9608 34.44 89.1848 34.312C89.4888 34.136 89.7928 34.088 90.1448 34.088C90.5288 34.088 90.9448 34.152 91.3768 34.408L90.7368 35.832C90.3848 35.608 90.0968 35.592 89.9368 35.592C89.6008 35.592 89.2648 35.64 88.9608 35.96C88.5288 36.424 88.5288 37.064 88.5288 37.512V41H86.9608Z" fill="#7F4DEA"/>
</g>
<defs>
<filter id="filter0_d_2795_4828" x="0.667236" y="0" width="116.333" height="71" filterUnits="userSpaceOnUse" color-interpolation-filters="sRGB">
<feFlood flood-opacity="0" result="BackgroundImageFix"/>
<feColorMatrix in="SourceAlpha" type="matrix" values="0 0 0 0 0 0 0 0 0 0 0 0 0 0 0 0 0 0 127 0" result="hardAlpha"/>
<feOffset/>
<feGaussianBlur stdDeviation="5"/>
<feComposite in2="hardAlpha" operator="out"/>
<feColorMatrix type="matrix" values="0 0 0 0 0 0 0 0 0 0 0 0 0 0 0 0 0 0 0.2 0"/>
<feBlend mode="normal" in2="BackgroundImageFix" result="effect1_dropShadow_2795_4828"/>
<feBlend mode="normal" in="SourceGraphic" in2="effect1_dropShadow_2795_4828" result="shape"/>
</filter>
</defs>
</svg>
