<svg width="44" height="44" viewBox="0 0 44 44" fill="none" xmlns="http://www.w3.org/2000/svg">
<path d="M24.8265 29.9621V32.5446C25.6215 33.006 26.5376 33.2578 27.5001 33.2578C30.0438 33.2578 32.1802 31.4626 32.7036 29.0727C31.1025 29.8513 29.3331 30.2612 27.5001 30.2612C26.5891 30.2612 25.6936 30.1598 24.8265 29.9621Z" fill="white"/>
<path d="M36.2166 26.4774C35.961 26.7529 35.6867 27.0184 35.4062 27.2663C35.7269 31.8447 32.122 35.8564 27.5 35.836C26.5779 35.836 25.6747 35.6719 24.8265 35.3651V37.584C24.8265 39.7161 23.0914 41.4512 20.9593 41.4512H11.2853C11.2673 41.8559 11.2578 42.2736 11.2578 42.711C11.2578 43.4226 11.8216 44.0001 12.5159 44.0001H42.4841C43.1784 44.0001 43.7422 43.4226 43.7422 42.711C43.7422 33.8053 39.288 28.8415 36.2166 26.4774Z" fill="white"/>
<path d="M39.658 26.0851C39.8255 26.1581 40.0001 26.1925 40.1719 26.1925C40.6694 26.1925 41.1432 25.9028 41.3545 25.4176C42.1926 23.4939 42.6108 21.4319 42.5986 19.305C43.4891 18.5491 44.003 17.4402 44.0002 16.2673C44.0002 14.0638 42.2076 12.2712 40.0041 12.2712H39.4335V18.3289C39.4335 18.9829 39.3811 19.63 39.2779 20.2633H39.9907C39.8947 21.6961 39.5601 23.0803 38.9906 24.3886C38.7065 25.0414 39.0053 25.801 39.658 26.0851Z" fill="white"/>
<path d="M14.9973 20.2633H15.7217C15.6186 19.63 15.5662 18.9829 15.5662 18.3289V12.2712H14.9973C12.7938 12.2712 11.0012 14.0638 11.0012 16.2673C11.0012 17.3363 11.4171 18.3401 12.1708 19.0912C12.9245 19.8474 13.9282 20.2633 14.9973 20.2633Z" fill="white"/>
<path d="M36.8552 18.3287V12.271H31.2478C29.9183 12.2659 28.6293 11.9101 27.5009 11.2578C26.3734 11.9101 25.0861 12.2659 23.7583 12.271H18.1449V18.3287C18.1449 18.908 18.1973 19.4786 18.2996 20.0363H20.9593C23.0915 20.0363 24.8265 21.7714 24.8265 23.9035V27.2963C25.6833 27.5516 26.5814 27.683 27.5001 27.683C29.9991 27.683 32.3486 26.7102 34.1155 24.9434C35.8824 23.1765 36.8552 20.827 36.8552 18.3287ZM23.2891 17.3594C22.5776 17.3594 22.0001 16.7827 22.0001 16.0703C22.0001 15.3588 22.5776 14.7812 23.2891 14.7812C24.0007 14.7812 24.5782 15.3588 24.5782 16.0703C24.5782 16.7827 24.0007 17.3594 23.2891 17.3594ZM31.754 17.3594C31.0424 17.3594 30.4649 16.7827 30.4649 16.0703C30.4649 15.3588 31.0424 14.7812 31.754 14.7812C32.4655 14.7812 33.043 15.3588 33.043 16.0703C33.043 16.7827 32.4655 17.3594 31.754 17.3594Z" fill="white"/>
<path d="M22.2484 37.5838V23.9035C22.2484 23.1919 21.6709 22.6144 20.9593 22.6144H1.28906C0.5775 22.6144 0 23.1919 0 23.9035V42.7109C0 43.2067 0.284453 43.6579 0.730469 43.8728C1.17502 44.0862 1.70612 44.0283 2.0943 43.7172L8.14688 38.8729H20.9593C21.6709 38.8729 22.2484 38.2954 22.2484 37.5838ZM5.96836 32.0074C5.2568 32.0074 4.6793 31.4299 4.6793 30.7183C4.6793 30.0059 5.2568 29.4292 5.96836 29.4292C6.67992 29.4292 7.25742 30.0059 7.25742 30.7183C7.25742 31.4299 6.67992 32.0074 5.96836 32.0074ZM11.1246 32.0074C10.413 32.0074 9.83555 31.4299 9.83555 30.7183C9.83555 30.0059 10.413 29.4292 11.1246 29.4292C11.8362 29.4292 12.4137 30.0059 12.4137 30.7183C12.4137 31.4299 11.8362 32.0074 11.1246 32.0074ZM16.2809 32.0074C15.5693 32.0074 14.9918 31.4299 14.9918 30.7183C14.9918 30.0059 15.5693 29.4292 16.2809 29.4292C16.9924 29.4292 17.5699 30.0059 17.5699 30.7183C17.5699 31.4299 16.9924 32.0074 16.2809 32.0074Z" fill="#FFD700"/>
<path d="M17.5398 9.69289H23.7491C25.245 9.68722 26.5889 9.01364 27.5006 7.95575C28.4131 9.01364 29.7586 9.68722 31.2577 9.69289H37.4613C38.1341 9.69289 38.6801 9.1477 38.6801 8.47412V6.8634C38.6802 3.07948 35.6006 0 31.8159 0H23.1852C19.4004 0 16.321 3.07948 16.321 6.8634V8.47412C16.321 9.1477 16.867 9.69289 17.5398 9.69289Z" fill="white"/>
</svg>
