<svg width="1431" height="624" viewBox="0 0 1431 624" fill="none" xmlns="http://www.w3.org/2000/svg">
<path d="M1426 0H1427.5V623H1426V0Z" fill="#112121" fill-opacity="0.12"/>
<path d="M1422 623H1431V624H1422V623Z" fill="#112121" fill-opacity="0.12"/>
<path d="M1408 0H1409.5V623H1408V0Z" fill="#112121" fill-opacity="0.12"/>
<path d="M1404 623H1413V624H1404V623Z" fill="#112121" fill-opacity="0.12"/>
<path d="M1390 0H1391.5V623H1390V0Z" fill="#112121" fill-opacity="0.12"/>
<path d="M1386 623H1395V624H1386V623Z" fill="#112121" fill-opacity="0.12"/>
<path d="M1372 0H1373.5V623H1372V0Z" fill="#112121" fill-opacity="0.12"/>
<path d="M1368 623H1377V624H1368V623Z" fill="#112121" fill-opacity="0.12"/>
<path d="M1354 0H1355.5V623H1354V0Z" fill="#112121" fill-opacity="0.12"/>
<path d="M1350 623H1359V624H1350V623Z" fill="#112121" fill-opacity="0.12"/>
<path d="M1336 0H1337.5V623H1336V0Z" fill="#112121" fill-opacity="0.12"/>
<path d="M1332 623H1341V624H1332V623Z" fill="#112121" fill-opacity="0.12"/>
<path d="M1318 0H1319.5V623H1318V0Z" fill="#112121" fill-opacity="0.12"/>
<path d="M1314 623H1323V624H1314V623Z" fill="#112121" fill-opacity="0.12"/>
<path d="M1300 0H1301.5V623H1300V0Z" fill="#112121" fill-opacity="0.12"/>
<path d="M1296 623H1305V624H1296V623Z" fill="#112121" fill-opacity="0.12"/>
<path d="M1282 0H1283.5V623H1282V0Z" fill="#112121" fill-opacity="0.12"/>
<path d="M1278 623H1287V624H1278V623Z" fill="#112121" fill-opacity="0.12"/>
<path d="M1264 0H1265.5V623H1264V0Z" fill="#112121" fill-opacity="0.12"/>
<path d="M1260 623H1269V624H1260V623Z" fill="#112121" fill-opacity="0.12"/>
<path d="M1246 0H1247.5V623H1246V0Z" fill="#112121" fill-opacity="0.12"/>
<path d="M1242 623H1251V624H1242V623Z" fill="#112121" fill-opacity="0.12"/>
<path d="M1228 0H1229.5V623H1228V0Z" fill="#112121" fill-opacity="0.12"/>
<path d="M1224 623H1233V624H1224V623Z" fill="#112121" fill-opacity="0.12"/>
<path d="M1210 0H1211.5V623H1210V0Z" fill="#112121" fill-opacity="0.12"/>
<path d="M1206 623H1215V624H1206V623Z" fill="#112121" fill-opacity="0.12"/>
<path d="M1192 0H1193.5V623H1192V0Z" fill="#112121" fill-opacity="0.12"/>
<path d="M1188 623H1197V624H1188V623Z" fill="#112121" fill-opacity="0.12"/>
<path d="M1174 0H1175.5V623H1174V0Z" fill="#112121" fill-opacity="0.12"/>
<path d="M1170 623H1179V624H1170V623Z" fill="#112121" fill-opacity="0.12"/>
<path d="M1156 0H1157.5V623H1156V0Z" fill="#112121" fill-opacity="0.12"/>
<path d="M1152 623H1161V624H1152V623Z" fill="#112121" fill-opacity="0.12"/>
<path d="M1138 0H1139.5V623H1138V0Z" fill="#112121" fill-opacity="0.12"/>
<path d="M1134 623H1143V624H1134V623Z" fill="#112121" fill-opacity="0.12"/>
<path d="M1120 0H1121.5V623H1120V0Z" fill="#112121" fill-opacity="0.12"/>
<path d="M1116 623H1125V624H1116V623Z" fill="#112121" fill-opacity="0.12"/>
<path d="M1102 0H1103.5V623H1102V0Z" fill="#112121" fill-opacity="0.12"/>
<path d="M1098 623H1107V624H1098V623Z" fill="#112121" fill-opacity="0.12"/>
<path d="M1084 0H1085.5V623H1084V0Z" fill="#112121" fill-opacity="0.12"/>
<path d="M1080 623H1089V624H1080V623Z" fill="#112121" fill-opacity="0.12"/>
<path d="M1066 0H1067.5V623H1066V0Z" fill="#112121" fill-opacity="0.12"/>
<path d="M1062 623H1071V624H1062V623Z" fill="#112121" fill-opacity="0.12"/>
<path d="M1048 0H1049.5V623H1048V0Z" fill="#112121" fill-opacity="0.12"/>
<path d="M1044 623H1053V624H1044V623Z" fill="#112121" fill-opacity="0.12"/>
<path d="M1030 0H1031.5V623H1030V0Z" fill="#112121" fill-opacity="0.12"/>
<path d="M1026 623H1035V624H1026V623Z" fill="#112121" fill-opacity="0.12"/>
<path d="M1012 0H1013.5V623H1012V0Z" fill="#112121" fill-opacity="0.12"/>
<path d="M1008 623H1017V624H1008V623Z" fill="#112121" fill-opacity="0.12"/>
<path d="M994 0H995.5V623H994V0Z" fill="#112121" fill-opacity="0.12"/>
<path d="M990 623H999V624H990V623Z" fill="#112121" fill-opacity="0.12"/>
<path d="M976 0H977.5V623H976V0Z" fill="#112121" fill-opacity="0.12"/>
<path d="M972 623H981V624H972V623Z" fill="#112121" fill-opacity="0.12"/>
<path d="M958 0H959.5V623H958V0Z" fill="#112121" fill-opacity="0.12"/>
<path d="M954 623H963V624H954V623Z" fill="#112121" fill-opacity="0.12"/>
<path d="M940 0H941.5V623H940V0Z" fill="#112121" fill-opacity="0.12"/>
<path d="M936 623H945V624H936V623Z" fill="#112121" fill-opacity="0.12"/>
<path d="M922 0H923.5V623H922V0Z" fill="#112121" fill-opacity="0.12"/>
<path d="M918 623H927V624H918V623Z" fill="#112121" fill-opacity="0.12"/>
<path d="M904 0H905.5V623H904V0Z" fill="#112121" fill-opacity="0.12"/>
<path d="M900 623H909V624H900V623Z" fill="#112121" fill-opacity="0.12"/>
<path d="M886 0H887.5V623H886V0Z" fill="#112121" fill-opacity="0.12"/>
<path d="M882 623H891V624H882V623Z" fill="#112121" fill-opacity="0.12"/>
<path d="M868 0H869.5V623H868V0Z" fill="#112121" fill-opacity="0.12"/>
<path d="M864 623H873V624H864V623Z" fill="#112121" fill-opacity="0.12"/>
<path d="M850 0H851.5V623H850V0Z" fill="#112121" fill-opacity="0.12"/>
<path d="M846 623H855V624H846V623Z" fill="#112121" fill-opacity="0.12"/>
<path d="M832 0H833.5V623H832V0Z" fill="#112121" fill-opacity="0.12"/>
<path d="M828 623H837V624H828V623Z" fill="#112121" fill-opacity="0.12"/>
<path d="M814 0H815.5V623H814V0Z" fill="#112121" fill-opacity="0.12"/>
<path d="M810 623H819V624H810V623Z" fill="#112121" fill-opacity="0.12"/>
<path d="M796 0H797.5V623H796V0Z" fill="#112121" fill-opacity="0.12"/>
<path d="M792 623H801V624H792V623Z" fill="#112121" fill-opacity="0.12"/>
<path d="M778 0H779.5V623H778V0Z" fill="#112121" fill-opacity="0.12"/>
<path d="M774 623H783V624H774V623Z" fill="#112121" fill-opacity="0.12"/>
<path d="M760 0H761.5V623H760V0Z" fill="#112121" fill-opacity="0.12"/>
<path d="M756 623H765V624H756V623Z" fill="#112121" fill-opacity="0.12"/>
<path d="M742 0H743.5V623H742V0Z" fill="#112121" fill-opacity="0.12"/>
<path d="M738 623H747V624H738V623Z" fill="#112121" fill-opacity="0.12"/>
<path d="M724 0H725.5V623H724V0Z" fill="#112121" fill-opacity="0.12"/>
<path d="M720 623H729V624H720V623Z" fill="#112121" fill-opacity="0.12"/>
<path d="M706 0H707.5V623H706V0Z" fill="#112121" fill-opacity="0.12"/>
<path d="M702 623H711V624H702V623Z" fill="#112121" fill-opacity="0.12"/>
<path d="M688 0H689.5V623H688V0Z" fill="#112121" fill-opacity="0.12"/>
<path d="M684 623H693V624H684V623Z" fill="#112121" fill-opacity="0.12"/>
<path d="M670 0H671.5V623H670V0Z" fill="#112121" fill-opacity="0.12"/>
<path d="M666 623H675V624H666V623Z" fill="#112121" fill-opacity="0.12"/>
<path d="M652 0H653.5V623H652V0Z" fill="#112121" fill-opacity="0.12"/>
<path d="M648 623H657V624H648V623Z" fill="#112121" fill-opacity="0.12"/>
<path d="M634 0H635.5V623H634V0Z" fill="#112121" fill-opacity="0.12"/>
<path d="M630 623H639V624H630V623Z" fill="#112121" fill-opacity="0.12"/>
<path d="M616 0H617.5V623H616V0Z" fill="#112121" fill-opacity="0.12"/>
<path d="M612 623H621V624H612V623Z" fill="#112121" fill-opacity="0.12"/>
<path d="M598 0H599.5V623H598V0Z" fill="#112121" fill-opacity="0.12"/>
<path d="M594 623H603V624H594V623Z" fill="#112121" fill-opacity="0.12"/>
<path d="M580 0H581.5V623H580V0Z" fill="#112121" fill-opacity="0.12"/>
<path d="M576 623H585V624H576V623Z" fill="#112121" fill-opacity="0.12"/>
<path d="M562 0H563.5V623H562V0Z" fill="#112121" fill-opacity="0.12"/>
<path d="M558 623H567V624H558V623Z" fill="#112121" fill-opacity="0.12"/>
<path d="M544 0H545.5V623H544V0Z" fill="#112121" fill-opacity="0.12"/>
<path d="M540 623H549V624H540V623Z" fill="#112121" fill-opacity="0.12"/>
<path d="M526 0H527.5V623H526V0Z" fill="#112121" fill-opacity="0.12"/>
<path d="M522 623H531V624H522V623Z" fill="#112121" fill-opacity="0.12"/>
<path d="M508 0H509.5V623H508V0Z" fill="#112121" fill-opacity="0.12"/>
<path d="M504 623H513V624H504V623Z" fill="#112121" fill-opacity="0.12"/>
<path d="M490 0H491.5V623H490V0Z" fill="#112121" fill-opacity="0.12"/>
<path d="M486 623H495V624H486V623Z" fill="#112121" fill-opacity="0.12"/>
<path d="M472 0H473.5V623H472V0Z" fill="#112121" fill-opacity="0.12"/>
<path d="M468 623H477V624H468V623Z" fill="#112121" fill-opacity="0.12"/>
<path d="M454 0H455.5V623H454V0Z" fill="#112121" fill-opacity="0.12"/>
<path d="M450 623H459V624H450V623Z" fill="#112121" fill-opacity="0.12"/>
<path d="M436 0H437.5V623H436V0Z" fill="#112121" fill-opacity="0.12"/>
<path d="M432 623H441V624H432V623Z" fill="#112121" fill-opacity="0.12"/>
<path d="M418 0H419.5V623H418V0Z" fill="#112121" fill-opacity="0.12"/>
<path d="M414 623H423V624H414V623Z" fill="#112121" fill-opacity="0.12"/>
<path d="M400 0H401.5V623H400V0Z" fill="#112121" fill-opacity="0.12"/>
<path d="M396 623H405V624H396V623Z" fill="#112121" fill-opacity="0.12"/>
<path d="M382 0H383.5V623H382V0Z" fill="#112121" fill-opacity="0.12"/>
<path d="M378 623H387V624H378V623Z" fill="#112121" fill-opacity="0.12"/>
<path d="M364 0H365.5V623H364V0Z" fill="#112121" fill-opacity="0.12"/>
<path d="M360 623H369V624H360V623Z" fill="#112121" fill-opacity="0.12"/>
<path d="M346 0H347.5V623H346V0Z" fill="#112121" fill-opacity="0.12"/>
<path d="M342 623H351V624H342V623Z" fill="#112121" fill-opacity="0.12"/>
<path d="M328 0H329.5V623H328V0Z" fill="#112121" fill-opacity="0.12"/>
<path d="M324 623H333V624H324V623Z" fill="#112121" fill-opacity="0.12"/>
<path d="M310 0H311.5V623H310V0Z" fill="#112121" fill-opacity="0.12"/>
<path d="M306 623H315V624H306V623Z" fill="#112121" fill-opacity="0.12"/>
<path d="M292 0H293.5V623H292V0Z" fill="#112121" fill-opacity="0.12"/>
<path d="M288 623H297V624H288V623Z" fill="#112121" fill-opacity="0.12"/>
<path d="M274 0H275.5V623H274V0Z" fill="#112121" fill-opacity="0.12"/>
<path d="M270 623H279V624H270V623Z" fill="#112121" fill-opacity="0.12"/>
<path d="M256 0H257.5V623H256V0Z" fill="#112121" fill-opacity="0.12"/>
<path d="M252 623H261V624H252V623Z" fill="#112121" fill-opacity="0.12"/>
<path d="M238 0H239.5V623H238V0Z" fill="#112121" fill-opacity="0.12"/>
<path d="M234 623H243V624H234V623Z" fill="#112121" fill-opacity="0.12"/>
<path d="M220 0H221.5V623H220V0Z" fill="#112121" fill-opacity="0.12"/>
<path d="M216 623H225V624H216V623Z" fill="#112121" fill-opacity="0.12"/>
<path d="M202 0H203.5V623H202V0Z" fill="#112121" fill-opacity="0.12"/>
<path d="M198 623H207V624H198V623Z" fill="#112121" fill-opacity="0.12"/>
<path d="M184 0H185.5V623H184V0Z" fill="#112121" fill-opacity="0.12"/>
<path d="M180 623H189V624H180V623Z" fill="#112121" fill-opacity="0.12"/>
<path d="M166 0H167.5V623H166V0Z" fill="#112121" fill-opacity="0.12"/>
<path d="M162 623H171V624H162V623Z" fill="#112121" fill-opacity="0.12"/>
<path d="M148 0H149.5V623H148V0Z" fill="#112121" fill-opacity="0.12"/>
<path d="M144 623H153V624H144V623Z" fill="#112121" fill-opacity="0.12"/>
<path d="M130 0H131.5V623H130V0Z" fill="#112121" fill-opacity="0.12"/>
<path d="M126 623H135V624H126V623Z" fill="#112121" fill-opacity="0.12"/>
<path d="M112 0H113.5V623H112V0Z" fill="#112121" fill-opacity="0.12"/>
<path d="M108 623H117V624H108V623Z" fill="#112121" fill-opacity="0.12"/>
<path d="M94 0H95.5V623H94V0Z" fill="#112121" fill-opacity="0.12"/>
<path d="M90 623H99V624H90V623Z" fill="#112121" fill-opacity="0.12"/>
<path d="M76 0H77.5V623H76V0Z" fill="#112121" fill-opacity="0.12"/>
<path d="M72 623H81V624H72V623Z" fill="#112121" fill-opacity="0.12"/>
<path d="M58 0H59.5V623H58V0Z" fill="#112121" fill-opacity="0.12"/>
<path d="M54 623H63V624H54V623Z" fill="#112121" fill-opacity="0.12"/>
<path d="M40 0H41.5V623H40V0Z" fill="#112121" fill-opacity="0.12"/>
<path d="M36 623H45V624H36V623Z" fill="#112121" fill-opacity="0.12"/>
<path d="M22 0H23.5V623H22V0Z" fill="#112121" fill-opacity="0.12"/>
<path d="M18 623H27V624H18V623Z" fill="#112121" fill-opacity="0.12"/>
<path d="M4 0H5.5V623H4V0Z" fill="#112121" fill-opacity="0.12"/>
<path d="M0 623H9V624H0V623Z" fill="#112121" fill-opacity="0.12"/>
</svg>
