<svg width="314" height="446" viewBox="0 0 314 446" fill="none" xmlns="http://www.w3.org/2000/svg">
<path d="M287.589 79H294.436V139H287.589V79Z" fill="#112121" fill-opacity="0.4"/>
<path d="M287.589 232H294.436V394H287.589V232Z" fill="#112121" fill-opacity="0.4"/>
<path d="M307.153 280H314V345H307.153V280Z" fill="#112121" fill-opacity="0.4"/>
<path d="M269.981 47H276.829V139H269.981V47Z" fill="#112121" fill-opacity="0.4"/>
<path d="M269.981 214H276.829V412H269.981V214Z" fill="#112121" fill-opacity="0.4"/>
<path d="M251.396 29H258.243V139H251.396V29Z" fill="#112121" fill-opacity="0.4"/>
<path d="M251.396 202H258.243V425H251.396V202Z" fill="#112121" fill-opacity="0.4"/>
<path d="M232.81 17H239.657V139H232.81V17Z" fill="#112121" fill-opacity="0.4"/>
<path d="M232.81 192H239.657V433H232.81V192Z" fill="#112121" fill-opacity="0.4"/>
<path d="M214.224 10H221.072V139H214.224V10Z" fill="#112121" fill-opacity="0.4"/>
<path d="M214.224 185H221.072V439H214.224V185Z" fill="#112121" fill-opacity="0.4"/>
<path d="M195.639 5H201.508V95H195.639V5Z" fill="#112121" fill-opacity="0.4"/>
<path d="M196.617 180H202.486V280H196.617V180Z" fill="#112121" fill-opacity="0.4"/>
<path d="M179.009 2H184.879V80H179.009V2Z" fill="#112121" fill-opacity="0.4"/>
<path d="M179.009 176H184.879V271H179.009V176Z" fill="#112121" fill-opacity="0.4"/>
<path d="M161.402 0H167.271V76H161.402V0Z" fill="#112121" fill-opacity="0.4"/>
<path d="M161.402 370H167.271V446H161.402V370Z" fill="#112121" fill-opacity="0.4"/>
<path d="M179.988 368H185.857V445H179.988V368Z" fill="#112121" fill-opacity="0.4"/>
<path d="M197.595 362H203.464V443H197.595V362Z" fill="#112121" fill-opacity="0.4"/>
<path d="M161.402 171H167.271V265H161.402V171Z" fill="#112121" fill-opacity="0.4"/>
<path d="M143.794 0H149.664V76H143.794V0Z" fill="#112121" fill-opacity="0.4"/>
<path d="M143.794 370H149.664V446H143.794V370Z" fill="#112121" fill-opacity="0.4"/>
<path d="M143.794 167H149.664V260H143.794V167Z" fill="#112121" fill-opacity="0.4"/>
<path d="M126.187 1H132.056V78H126.187V1Z" fill="#112121" fill-opacity="0.4"/>
<path d="M126.187 367H132.056V445H126.187V367Z" fill="#112121" fill-opacity="0.4"/>
<path d="M126.187 168H132.056V254H126.187V168Z" fill="#112121" fill-opacity="0.4"/>
<path d="M108.579 4H114.449V87H108.579V4Z" fill="#112121" fill-opacity="0.4"/>
<path d="M108.579 359H114.449V443H108.579V359Z" fill="#112121" fill-opacity="0.4"/>
<path d="M108.579 150H114.449V249H108.579V150Z" fill="#112121" fill-opacity="0.4"/>
<path d="M90.972 13H96.8411V241H90.972V13Z" fill="#112121" fill-opacity="0.4"/>
<path d="M90.972 295H96.8411V441H90.972V295Z" fill="#112121" fill-opacity="0.4"/>
<path d="M72.3863 14H78.2555V235H72.3863V14Z" fill="#112121" fill-opacity="0.4"/>
<path d="M72.3863 295H78.2555V437H72.3863V295Z" fill="#112121" fill-opacity="0.4"/>
<path d="M53.8006 24H59.6698V225H53.8006V24Z" fill="#112121" fill-opacity="0.4"/>
<path d="M53.8006 295H59.6698V427H53.8006V295Z" fill="#112121" fill-opacity="0.4"/>
<path d="M35.215 39H41.0841V210H35.215V39Z" fill="#112121" fill-opacity="0.4"/>
<path d="M35.215 295H41.0841V415H35.215V295Z" fill="#112121" fill-opacity="0.4"/>
<path d="M17.6075 63H23.4766V188H17.6075V63Z" fill="#112121" fill-opacity="0.4"/>
<path d="M17.6075 295H23.4766V397H17.6075V295Z" fill="#112121" fill-opacity="0.4"/>
<path d="M0 295H5.86916V370H0V295Z" fill="#112121" fill-opacity="0.4"/>
<path d="M0 95H6.84735V160H0V95Z" fill="#112121" fill-opacity="0.4"/>
</svg>
