<svg width="382" height="344" viewBox="0 0 382 344" fill="none" xmlns="http://www.w3.org/2000/svg">
<mask id="mask0_86_685" style="mask-type:luminance" maskUnits="userSpaceOnUse" x="-28" y="-21" width="438" height="328">
<path d="M-27.2812 -20.7339H409.225V306.642H-27.2812V-20.7339Z" fill="white"/>
</mask>
<g mask="url(#mask0_86_685)">
<mask id="mask1_86_685" style="mask-type:luminance" maskUnits="userSpaceOnUse" x="4" y="-21" width="374" height="329">
<path d="M4.63867 -20.7339V306.642L377.579 307.733V-19.6426L4.63867 -20.7339Z" fill="white"/>
</mask>
<g mask="url(#mask1_86_685)">
<path d="M-172.555 -46.1055L-90.0943 162.151L19.8747 112.721L61.4596 184.03L141.757 112.906L196.098 172.219L273.202 86.7797L357.325 144.697L433.713 85.7638L515.079 45.2868L578.509 -46.1055V96.7121L515.079 186.263L439.17 113.341L357.325 178.813L273.318 118.516L196.098 207.294L141.757 143.982L61.4596 214.927L19.8747 150.739L-54.0618 181.801L-172.555 96.7121V-46.1055Z" fill="#C0D0FF"/>
<path d="M-54.0625 181.801L19.8736 150.739L-54.0625 181.801Z" fill="#7BB7B0"/>
<path d="M-54.0625 181.801L19.8736 150.739" stroke="#4169E1" stroke-width="4.36501"/>
<path d="M19.875 150.739L61.4596 214.927L19.875 150.739Z" fill="#7BB7B0"/>
<path d="M19.875 150.739L61.4596 214.927" stroke="#4169E1" stroke-width="4.36501"/>
<path d="M61.459 214.927L141.756 143.982L61.459 214.927Z" fill="#7BB7B0"/>
<path d="M61.459 214.927L141.756 143.982" stroke="#4169E1" stroke-width="4.36501"/>
<path d="M141.758 143.982L196.098 207.294L141.758 143.982Z" fill="#7BB7B0"/>
<path d="M141.758 143.982L196.098 207.294" stroke="#4169E1" stroke-width="4.36501"/>
<path d="M196.098 207.294L273.317 118.516L196.098 207.294Z" fill="#7BB7B0"/>
<path d="M196.098 207.294L273.317 118.516" stroke="#4169E1" stroke-width="4.36501"/>
<path d="M273.318 118.516L357.325 178.813L273.318 118.516Z" fill="#7BB7B0"/>
<path d="M273.318 118.516L357.325 178.813" stroke="#4169E1" stroke-width="4.36501"/>
<path d="M357.324 178.813L439.169 113.341L357.324 178.813Z" fill="#7BB7B0"/>
<path d="M357.324 178.813L439.169 113.341" stroke="#4169E1" stroke-width="4.36501"/>
<path d="M357.324 144.697L433.712 85.7637L357.324 144.697Z" fill="#7BB7B0"/>
<path d="M357.324 144.697L433.712 85.7637" stroke="#FFD700" stroke-width="4.36501"/>
<path d="M273.203 86.7798L357.325 144.697L273.203 86.7798Z" fill="#7BB7B0"/>
<path d="M273.203 86.7798L357.325 144.697" stroke="#FFD700" stroke-width="4.36501"/>
<path d="M196.098 172.219L273.202 86.7798L196.098 172.219Z" fill="#7BB7B0"/>
<path d="M196.098 172.219L273.202 86.7798" stroke="#FFD700" stroke-width="4.36501"/>
<path d="M141.758 112.906L196.098 172.219L141.758 112.906Z" fill="#7BB7B0"/>
<path d="M141.758 112.906L196.098 172.219" stroke="#FFD700" stroke-width="4.36501"/>
<path d="M61.459 184.03L141.756 112.906L61.459 184.03Z" fill="#7BB7B0"/>
<path d="M61.459 184.03L141.756 112.906" stroke="#FFD700" stroke-width="4.36501"/>
<path d="M19.875 112.721L61.4596 184.03L19.875 112.721Z" fill="#7BB7B0"/>
<path d="M19.875 112.721L61.4596 184.03" stroke="#FFD700" stroke-width="4.36501"/>
<path d="M-90.0938 162.151L19.8747 112.721L-90.0938 162.151Z" fill="#7BB7B0"/>
<path d="M-90.0938 162.151L19.8747 112.721" stroke="#FFD700" stroke-width="4.36501"/>
<path d="M19.8737 106.173C23.4902 106.173 26.4213 109.104 26.4213 112.721C26.4213 116.337 23.4902 119.268 19.8737 119.268C16.2573 119.268 13.3262 116.337 13.3262 112.721C13.3262 109.104 16.2573 106.173 19.8737 106.173Z" fill="#FFD700"/>
<path d="M61.4597 177.482C65.0761 177.482 68.0072 180.413 68.0072 184.03C68.0072 187.646 65.0761 190.577 61.4597 190.577C57.8432 190.577 54.9121 187.646 54.9121 184.03C54.9121 180.413 57.8432 177.482 61.4597 177.482Z" fill="#FFD700"/>
<path d="M141.757 106.359C145.373 106.359 148.304 109.29 148.304 112.906C148.304 116.523 145.373 119.454 141.757 119.454C138.14 119.454 135.209 116.523 135.209 112.906C135.209 109.29 138.14 106.359 141.757 106.359Z" fill="#FFD700"/>
<path d="M196.098 165.671C199.715 165.671 202.646 168.602 202.646 172.219C202.646 175.835 199.715 178.766 196.098 178.766C192.482 178.766 189.551 175.835 189.551 172.219C189.551 168.602 192.482 165.671 196.098 165.671Z" fill="#FFD700"/>
<path d="M273.202 80.2322C276.818 80.2322 279.749 83.1633 279.749 86.7797C279.749 90.3961 276.818 93.3272 273.202 93.3272C269.585 93.3272 266.654 90.3961 266.654 86.7797C266.654 83.1633 269.585 80.2322 273.202 80.2322Z" fill="#FFD700"/>
<path d="M357.325 138.149C360.941 138.149 363.872 141.08 363.872 144.696C363.872 148.313 360.941 151.244 357.325 151.244C353.708 151.244 350.777 148.313 350.777 144.696C350.777 141.08 353.708 138.149 357.325 138.149Z" fill="#FFD700"/>
<path d="M19.8737 144.191C23.4902 144.191 26.4213 147.123 26.4213 150.739C26.4213 154.355 23.4902 157.286 19.8737 157.286C16.2573 157.286 13.3262 154.355 13.3262 150.739C13.3262 147.123 16.2573 144.191 19.8737 144.191Z" fill="#4169E1"/>
<path d="M61.4597 208.38C65.0761 208.38 68.0072 211.311 68.0072 214.927C68.0072 218.544 65.0761 221.475 61.4597 221.475C57.8432 221.475 54.9121 218.544 54.9121 214.927C54.9121 211.311 57.8432 208.38 61.4597 208.38Z" fill="#4169E1"/>
<path d="M141.757 137.434C145.373 137.434 148.304 140.365 148.304 143.982C148.304 147.598 145.373 150.529 141.757 150.529C138.14 150.529 135.209 147.598 135.209 143.982C135.209 140.365 138.14 137.434 141.757 137.434Z" fill="#4169E1"/>
<path d="M196.098 200.747C199.715 200.747 202.646 203.678 202.646 207.294C202.646 210.91 199.715 213.842 196.098 213.842C192.482 213.842 189.551 210.91 189.551 207.294C189.551 203.678 192.482 200.747 196.098 200.747Z" fill="#4169E1"/>
<path d="M273.317 111.969C276.934 111.969 279.865 114.9 279.865 118.516C279.865 122.133 276.934 125.064 273.317 125.064C269.701 125.064 266.77 122.133 266.77 118.516C266.77 114.9 269.701 111.969 273.317 111.969Z" fill="#4169E1"/>
<path d="M357.325 172.266C360.941 172.266 363.872 175.197 363.872 178.813C363.872 182.43 360.941 185.361 357.325 185.361C353.708 185.361 350.777 182.43 350.777 178.813C350.777 175.197 353.708 172.266 357.325 172.266Z" fill="#4169E1"/>
</g>
</g>
<g opacity="0.1">
<path d="M3.82031 7.63867H4.91156V278.269H3.82031V7.63867Z" fill="#4169E1"/>
<path d="M24.5547 7.63867H25.6459V278.269H24.5547V7.63867Z" fill="#4169E1"/>
<path d="M45.2891 7.63867H46.3803V278.269H45.2891V7.63867Z" fill="#4169E1"/>
<path d="M66.0215 7.63867H67.1127V278.269H66.0215V7.63867Z" fill="#4169E1"/>
<path d="M86.7559 7.63867H87.8471V278.269H86.7559V7.63867Z" fill="#4169E1"/>
<path d="M107.492 7.63867H108.583V278.269H107.492V7.63867Z" fill="#4169E1"/>
<path d="M128.225 7.63867H129.316V278.269H128.225V7.63867Z" fill="#4169E1"/>
<path d="M148.959 7.63867H150.05V278.269H148.959V7.63867Z" fill="#4169E1"/>
<path d="M169.693 7.63867H170.785V278.269H169.693V7.63867Z" fill="#4169E1"/>
<path d="M190.428 7.63867H191.519V278.269H190.428V7.63867Z" fill="#4169E1"/>
<path d="M211.162 7.63867H212.253V278.269H211.162V7.63867Z" fill="#4169E1"/>
<path d="M231.896 7.63867H232.988V278.269H231.896V7.63867Z" fill="#4169E1"/>
<path d="M252.629 7.63867H253.72V278.269H252.629V7.63867Z" fill="#4169E1"/>
<path d="M273.363 7.63867H274.455V278.269H273.363V7.63867Z" fill="#4169E1"/>
<path d="M294.098 7.63867H295.189V278.269H294.098V7.63867Z" fill="#4169E1"/>
<path d="M314.832 7.63867H315.923V278.269H314.832V7.63867Z" fill="#4169E1"/>
<path d="M335.564 7.63867H336.656V278.269H335.564V7.63867Z" fill="#4169E1"/>
<path d="M356.299 7.63867H357.39V278.269H356.299V7.63867Z" fill="#4169E1"/>
<path d="M377.033 7.63867H378.124V278.269H377.033V7.63867Z" fill="#4169E1"/>
</g>
<path d="M21.8258 16.3687H55.6548C60.476 16.3687 64.3849 20.2775 64.3849 25.0987V36.0112C64.3849 40.8323 60.476 44.7412 55.6548 44.7412H21.8258C17.0046 44.7412 13.0957 40.8323 13.0957 36.0112V25.0987C13.0957 20.2775 17.0046 16.3687 21.8258 16.3687Z" fill="#FFD700"/>
<path d="M22.6289 37.1023L27.413 24.0073H29.7527L34.5367 37.1023H32.2844L31.1669 33.7849H25.894L24.7765 37.1023H22.6289ZM26.4701 32.1262H30.6257L28.6352 26.1898H28.4781L26.4701 32.1262ZM39.7246 37.2769C37.0183 37.2769 35.7087 36.2468 35.6738 34.0992H37.5421C37.6119 35.2865 38.2405 35.7754 39.6897 35.7754C41.1039 35.7754 41.8023 35.3389 41.8023 34.4833C41.8023 33.8373 41.4357 33.523 40.3706 33.2786L38.3627 32.8421C36.7738 32.4929 35.9881 31.6548 35.9881 30.2755C35.9881 28.4945 37.3151 27.4993 39.6897 27.4993C42.0642 27.4993 43.4261 28.5295 43.4261 30.4501H41.5754C41.4531 29.4549 40.8944 29.0009 39.742 29.0009C38.5897 29.0009 37.9436 29.4374 37.9436 30.1882C37.9436 30.7818 38.3278 31.1136 39.2532 31.3231L41.4182 31.7945C43.0246 32.1437 43.7579 32.9818 43.7579 34.3786C43.7579 36.2992 42.396 37.2769 39.7246 37.2769ZM51.7415 37.1023L48.2844 33.0865H47.6209V37.1023H45.7003V24.0073H47.6209V31.5326H48.3193L51.6019 27.6739H53.8891L49.8384 32.3532L54.1336 37.1023H51.7415Z" fill="#675700"/>
<path d="M81.6246 16.3687H142.735C147.556 16.3687 151.465 20.2775 151.465 25.0987V36.0112C151.465 40.8323 147.556 44.7412 142.735 44.7412H81.6246C76.8034 44.7412 72.8945 40.8323 72.8945 36.0112V25.0987C72.8945 20.2775 76.8034 16.3687 81.6246 16.3687Z" fill="#4169E1"/>
<path d="M87.7542 37.277C84.2621 37.277 82.551 35.8103 82.5685 32.8421H84.6463C84.7161 34.8326 85.5716 35.5834 87.7716 35.5834C89.8843 35.5834 90.8621 34.9199 90.8621 33.4532C90.8621 32.3358 90.2859 31.8295 88.5573 31.4453L86.1304 30.9215C84.0875 30.4676 83.0225 29.2803 83.0225 27.4819C83.0225 25.1772 84.7336 23.8328 87.7018 23.8328C90.8097 23.8328 92.5382 25.3343 92.5033 27.9533H90.4605C90.443 26.2946 89.57 25.5264 87.7018 25.5264C85.9907 25.5264 85.1002 26.1375 85.1002 27.3597C85.1002 28.3549 85.7113 28.8962 87.178 29.2104L89.7097 29.7517C91.8922 30.2231 92.9224 31.3755 92.9224 33.331C92.9224 35.9151 91.124 37.277 87.7542 37.277ZM94.8724 40.5944V27.674H96.6883V29.0533C97.2296 28.0581 98.3296 27.4994 99.7438 27.4994C102.223 27.4994 103.725 29.2105 103.725 32.3358C103.725 35.4611 102.223 37.277 99.674 37.277C98.3819 37.277 97.3343 36.8056 96.7931 35.9326V40.5944H94.8724ZM96.7581 32.3882C96.7581 34.658 97.5788 35.6532 99.2724 35.6532C100.984 35.6532 101.769 34.6231 101.769 32.3533C101.769 30.1358 100.984 29.1231 99.2724 29.1231C97.5613 29.1231 96.7581 30.1708 96.7581 32.3882ZM105.687 37.1024V27.674H107.59V29.2803C107.887 28.4946 108.603 27.5343 110.139 27.5343H111.047V29.2628H110.209C108.533 29.2628 107.607 30.3628 107.607 31.8644V37.1024H105.687ZM116.336 37.277C113.456 37.277 112.006 35.6008 112.006 32.3882C112.006 29.1581 113.456 27.4994 116.354 27.4994C119.2 27.4994 120.719 29.0359 120.719 31.8469V32.7898H113.875C113.962 34.885 114.66 35.758 116.354 35.758C117.628 35.758 118.449 35.2691 118.711 34.2215H120.579C120.405 36.1072 118.763 37.277 116.336 37.277ZM113.909 31.4628H118.886C118.816 29.7692 117.995 29.0009 116.389 29.0009C114.8 29.0009 114.084 29.7343 113.909 31.4628ZM125.607 37.277C123.564 37.277 122.342 36.2992 122.342 34.5881C122.342 32.9294 123.459 31.8818 125.415 31.7072L128.68 31.3755V30.7819C128.68 29.5422 128.051 29.0009 126.619 29.0009C125.257 29.0009 124.681 29.4724 124.577 30.6946H122.708C122.761 28.5993 124.123 27.4994 126.619 27.4994C129.134 27.4994 130.565 28.5993 130.565 30.5549V37.1024H128.767V35.7929C128.156 36.7532 127.056 37.277 125.607 37.277ZM124.28 34.4135C124.28 35.3215 124.943 35.7754 126.113 35.7754C127.754 35.7754 128.68 34.8675 128.68 33.3485V32.6675L125.973 32.9644C124.838 33.104 124.28 33.5755 124.28 34.4135ZM139.513 37.1024V35.6881C138.989 36.7008 137.871 37.277 136.44 37.277C133.978 37.277 132.459 35.5659 132.459 32.4406C132.459 29.3152 133.96 27.4994 136.509 27.4994C137.819 27.4994 138.884 27.9882 139.408 28.8612V24.0074H141.328V37.1024H139.513ZM134.414 32.4231C134.414 34.6405 135.217 35.6532 136.911 35.6532C138.622 35.6532 139.425 34.6056 139.425 32.3882C139.425 30.1184 138.605 29.1231 136.911 29.1231C135.217 29.1231 134.414 30.1533 134.414 32.4231Z" fill="#0A2540"/>
<path d="M169.252 16.3687H197.624C202.446 16.3687 206.354 20.2775 206.354 25.0987V36.0112C206.354 40.8323 202.446 44.7412 197.624 44.7412H169.252C164.43 44.7412 160.521 40.8323 160.521 36.0112V25.0987C160.521 20.2775 164.43 16.3687 169.252 16.3687Z" fill="#1D9ADD"/>
<path d="M170.822 37.1023V24.0073H177.021C179.413 24.0073 180.705 25.247 180.705 27.3422C180.705 28.8438 180.041 29.8914 178.976 30.066V30.1882C180.338 30.4152 181.124 31.6024 181.124 33.4532C181.124 35.8801 179.709 37.1023 177.108 37.1023H170.822ZM172.883 35.496H176.41C178.417 35.496 179.029 35.0071 179.029 33.331C179.029 31.7072 178.417 31.1659 176.41 31.1659H172.883V35.496ZM172.883 29.5771H175.99C178.033 29.5771 178.627 29.1057 178.627 27.6041C178.627 26.0501 178.051 25.6136 176.025 25.6136H172.883V29.5771ZM183.096 37.1023V27.6739H185.016V37.1023H183.096ZM183.096 26.0327V24.0073H185.016V26.0327H183.096ZM194.031 37.1023V35.6881C193.507 36.7008 192.39 37.2769 190.958 37.2769C188.496 37.2769 186.977 35.5659 186.977 32.4405C186.977 29.3152 188.479 27.4993 191.028 27.4993C192.338 27.4993 193.403 27.9882 193.926 28.8612V24.0073H195.847V37.1023H194.031ZM188.933 32.4231C188.933 34.6405 189.736 35.6532 191.43 35.6532C193.141 35.6532 193.944 34.6056 193.944 32.3881C193.944 30.1183 193.123 29.1231 191.43 29.1231C189.736 29.1231 188.933 30.1533 188.933 32.4231Z" fill="#0A2540"/>
<path d="M13.1656 306.213H89.5538C94.375 306.213 98.2839 310.122 98.2839 314.943V334.585C98.2839 339.406 94.375 343.315 89.5538 343.315H13.1656C8.34444 343.315 4.43555 339.406 4.43555 334.585V314.943C4.43555 310.122 8.34444 306.213 13.1656 306.213Z" fill="#4169E1"/>
<path d="M19.2676 330.22H23.9731C25.8981 330.22 26.9981 329.166 26.9981 327.043C26.9981 325.393 26.3411 324.384 25.3786 324.232V324.125C26.1883 324.002 26.662 323.025 26.662 321.726C26.662 319.877 25.6842 318.762 23.8814 318.762H19.2676V330.22ZM20.6731 329.059V324.919H23.5453C25.0731 324.919 25.562 325.408 25.562 326.997C25.562 328.586 25.0425 329.059 23.4995 329.059H20.6731ZM20.6731 323.758V319.923H23.2092C24.737 319.923 25.2564 320.336 25.2564 321.833C25.2564 323.33 24.737 323.758 23.1939 323.758H20.6731ZM30.7356 330.22H38.1453V328.998H32.1412V325.056H37.4883V323.819H32.1412V319.984H38.0231V318.762H30.7356V330.22ZM42.0356 330.22H43.4412V325.148H48.9869V323.911H43.4412V319.984H49.5064V318.762H42.0356V330.22ZM56.8647 329.136C55.0161 329.136 54.1912 328.036 54.1912 324.812V324.201C54.1912 320.947 55.0161 319.847 56.8647 319.847C58.7286 319.847 59.5383 320.932 59.5383 324.201V324.812C59.5383 328.051 58.7286 329.136 56.8647 329.136ZM52.7551 324.965C52.7551 328.845 54.1759 330.373 56.8647 330.373C59.5536 330.373 60.9744 328.845 60.9744 324.965V324.048C60.9744 320.137 59.5689 318.609 56.8647 318.609C54.1759 318.609 52.7551 320.152 52.7551 324.048V324.965ZM64.3759 330.205H65.7967V325.316H68.6383C70.1203 325.316 70.655 325.82 70.655 327.363C70.655 327.898 70.6856 329.579 70.7925 330.22H72.2133C72.1216 329.716 72.0453 328.356 72.0453 327.394C72.0453 325.82 71.6175 324.904 70.548 324.644V324.537C71.5258 324.338 72.0605 323.559 72.0605 322.093V321.634C72.0605 319.664 71.0828 318.762 69.28 318.762H64.3759V330.205ZM65.7967 324.17V319.923H68.7758C70.1508 319.923 70.655 320.32 70.655 321.894V322.215C70.655 323.834 70.1203 324.17 68.6231 324.17H65.7967ZM75.9356 330.22H83.3453V328.998H77.3411V325.056H82.6883V323.819H77.3411V319.984H83.223V318.762H75.9356V330.22Z" fill="#0A2540"/>
<path d="M292.529 306.158H368.917C373.738 306.158 377.647 310.067 377.647 314.888V334.531C377.647 339.352 373.738 343.261 368.917 343.261H292.529C287.708 343.261 283.799 339.352 283.799 334.531V314.888C283.799 310.067 287.708 306.158 292.529 306.158Z" fill="#4169E1"/>
<path d="M303.898 330.166H305.365L306.328 326.988H310.575L311.522 330.166H313.065L309.276 318.708H307.703L303.898 330.166ZM306.694 325.766L308.405 320.113H308.528L310.208 325.766H306.694ZM316.237 330.166H317.643V325.094H323.189V323.856H317.643V319.93H323.708V318.708H316.237V330.166ZM330.364 330.166H331.784V319.93H335.191V318.708H326.957V319.93H330.364V330.166ZM338.837 330.166H346.247V328.943H340.243V325.002H345.59V323.764H340.243V319.93H346.125V318.708H338.837V330.166ZM349.878 330.15H351.298V325.262H354.14C355.622 325.262 356.157 325.766 356.157 327.309C356.157 327.843 356.187 329.524 356.294 330.166H357.715C357.623 329.662 357.547 328.302 357.547 327.339C357.547 325.766 357.119 324.849 356.05 324.589V324.482C357.028 324.284 357.562 323.505 357.562 322.038V321.58C357.562 319.609 356.584 318.708 354.782 318.708H349.878V330.15ZM351.298 324.116V319.869H354.278C355.653 319.869 356.157 320.266 356.157 321.839V322.16C356.157 323.78 355.622 324.116 354.125 324.116H351.298Z" fill="white"/>
</svg>
