<svg width="44" height="44" viewBox="0 0 44 44" fill="none" xmlns="http://www.w3.org/2000/svg">
<path d="M34.9765 25.8672C30.0444 25.8672 25.953 29.9813 25.953 34.8906C25.953 39.8656 30.0015 44 34.9765 44C39.9515 44 43.9999 39.8656 43.9999 34.8906C43.9999 29.9156 39.9515 25.8672 34.9765 25.8672ZM35.621 33.6015L32.2306 29.0828C33.0668 28.6854 33.9909 28.4453 34.9765 28.4453C38.0888 28.4453 40.6924 30.6633 41.2913 33.6015H35.621Z" fill="#FFD700"/>
<path d="M10.3124 23.2891H7.73428V25.8672H10.3124V23.2891Z" fill="white"/>
<path d="M10.3124 33.6015H7.73428V36.1797H10.3124V33.6015Z" fill="white"/>
<path d="M10.3124 12.9766H7.73428V15.5547H10.3124V12.9766Z" fill="white"/>
<path d="M35.1325 4.86458L31.4869 1.133C30.7568 0.402875 29.785 0 28.7527 0H28.5311V7.82031H36.2655V7.59876C36.2655 6.56648 35.8626 5.5947 35.1325 4.86458Z" fill="white"/>
<path d="M27.2422 10.3985C26.5303 10.3985 25.9531 9.8213 25.9531 9.10939V1.79485e-05H1.28906C0.577156 1.79485e-05 0 0.577002 0 1.28908V42.7109C0 43.4228 0.577156 44 1.28906 44H27.7745C26.1041 42.6636 24.8195 40.8102 24.0876 38.7578H16.7578C16.0453 38.7578 15.4687 38.1813 15.4687 37.4688C15.4687 36.7562 16.0453 36.1797 16.7578 36.1797H23.5053C23.457 35.7509 23.375 35.332 23.375 34.8906C23.375 28.4932 28.5791 23.2891 34.9765 23.2891C35.4179 23.2891 35.8368 23.3711 36.2656 23.4193V10.3985H27.2422ZM23.375 11.6875C23.375 12.4 22.7984 12.9766 22.0859 12.9766H16.7578C16.0453 12.9766 15.4687 12.4 15.4687 11.6875C15.4687 10.975 16.0453 10.3985 16.7578 10.3985H22.0859C22.7984 10.3985 23.375 10.975 23.375 11.6875ZM12.8906 37.4688C12.8906 38.1813 12.3141 38.7578 11.6016 38.7578H6.44531C5.7328 38.7578 5.15625 38.1813 5.15625 37.4688V32.3125C5.15625 31.6 5.7328 31.0234 6.44531 31.0234H11.6016C12.3141 31.0234 12.8906 31.6 12.8906 32.3125V37.4688ZM12.8906 27.1563C12.8906 27.8688 12.3141 28.4453 11.6016 28.4453H6.44531C5.7328 28.4453 5.15625 27.8688 5.15625 27.1563V22C5.15625 21.2875 5.7328 20.7109 6.44531 20.7109H11.6016C12.3141 20.7109 12.8906 21.2875 12.8906 22V27.1563ZM12.8906 16.8438C12.8906 17.5563 12.3141 18.1328 11.6016 18.1328H6.44531C5.7328 18.1328 5.15625 17.5563 5.15625 16.8438V11.6875C5.15625 10.975 5.7328 10.3985 6.44531 10.3985H11.6016C12.3141 10.3985 12.8906 10.975 12.8906 11.6875V16.8438ZM6.44531 7.82033C5.7328 7.82033 5.15625 7.24377 5.15625 6.53127C5.15625 5.81876 5.7328 5.2422 6.44531 5.2422H16.7578C17.4703 5.2422 18.0469 5.81876 18.0469 6.53127C18.0469 7.24377 17.4703 7.82033 16.7578 7.82033H6.44531ZM22.0859 33.6016H16.7578C16.0453 33.6016 15.4687 33.025 15.4687 32.3125C15.4687 31.6 16.0453 31.0234 16.7578 31.0234H22.0859C22.7984 31.0234 23.375 31.6 23.375 32.3125C23.375 33.025 22.7984 33.6016 22.0859 33.6016ZM24.6641 28.4453H16.7578C16.0453 28.4453 15.4687 27.8688 15.4687 27.1563C15.4687 26.4438 16.0453 25.8672 16.7578 25.8672H24.6641C25.3766 25.8672 25.9531 26.4438 25.9531 27.1563C25.9531 27.8688 25.3766 28.4453 24.6641 28.4453ZM15.4687 22C15.4687 21.2875 16.0453 20.7109 16.7578 20.7109H22.0859C22.7984 20.7109 23.375 21.2875 23.375 22C23.375 22.7125 22.7984 23.2891 22.0859 23.2891H16.7578C16.0453 23.2891 15.4687 22.7125 15.4687 22ZM29.8203 18.1328H16.7578C16.0453 18.1328 15.4687 17.5563 15.4687 16.8438C15.4687 16.1313 16.0453 15.5547 16.7578 15.5547H29.8203C30.5328 15.5547 31.1094 16.1313 31.1094 16.8438C31.1094 17.5563 30.5328 18.1328 29.8203 18.1328Z" fill="white"/>
</svg>
