<svg width="61" height="66" viewBox="0 0 61 66" fill="none" xmlns="http://www.w3.org/2000/svg">
<path d="M28.3649 0.282959C29.455 0.282959 30.5567 0.282959 31.6468 0.282959C32.6665 0.422473 33.698 0.523937 34.706 0.7015C41.094 1.84297 46.6146 4.86154 51.1975 9.82061C55.8859 14.9065 58.7224 21.0324 59.6718 28.1603C59.8007 29.0989 59.8945 30.0374 60.0117 30.976C60.0117 32.1555 60.0117 33.3477 60.0117 34.5272C59.9766 34.7301 59.9179 34.9331 59.9062 35.136C59.5663 40.3487 58.1715 45.2063 55.6046 49.62C50.6349 58.1557 43.5437 63.267 34.3075 64.8397C33.4284 64.9919 32.5376 65.0934 31.6468 65.2075C30.5567 65.2075 29.455 65.2075 28.3649 65.2075C28.2008 65.1695 28.025 65.106 27.8609 65.0934C22.774 64.7129 18.0621 63.0641 13.8191 60.0328C6.25904 54.6425 1.74643 47.0961 0.33991 37.3936C0.199258 36.455 0.11721 35.4911 0 34.5272C0 33.3477 0 32.1555 0 30.976C0.0351631 30.773 0.0937683 30.5701 0.105489 30.3672C0.328189 26.892 1.00801 23.5056 2.30904 20.3222C6.86853 9.26256 14.6513 2.66737 25.7042 0.650768C26.5833 0.485888 27.4741 0.40979 28.3649 0.282959ZM22.481 46.5634C22.4458 46.8424 22.4341 46.982 22.4223 47.1215C22.3051 48.7322 22.27 50.343 22.8443 51.8649C24.1219 55.264 25.9621 58.2318 28.5525 60.6416C29.3729 61.4026 30.6505 61.4026 31.471 60.6416C33.8269 58.4601 35.5382 55.7586 36.8392 52.7401C37.4136 51.4084 37.6949 50.0259 37.648 48.5673C37.6363 47.9332 37.648 47.2864 37.648 46.6142C41.6449 48.2376 46.0051 48.8971 49.6152 51.6113C58.4997 41.0209 58.8631 23.7339 48.5251 12.6109C38.1637 1.46248 21.4143 1.58931 11.2991 12.8011C0.996288 24.2286 1.75816 41.4141 10.4083 51.6113C14.0184 48.8844 18.3786 48.2376 22.481 46.5634Z" fill="white"/>
<path d="M18.4603 26.9934C18.3431 25.5602 18.2024 24.1397 18.1321 22.7192C18.05 21.045 18.2024 19.3962 18.683 17.7855C19.2925 15.7562 20.4646 14.1962 22.0586 12.9786C24.8248 10.8859 27.9426 10.2517 31.2362 10.5054C33.6742 10.683 35.9363 11.4439 37.9641 12.9913C40.4021 14.843 41.6914 17.4177 41.8086 20.6011C41.8906 22.7192 41.7148 24.8499 41.6445 27.0187C42.7463 27.4119 43.1448 27.97 43.1096 29.4539C43.0627 31.2168 42.5236 32.7895 41.3397 34.0832C41.1522 34.2861 41.0116 34.5525 40.9061 34.8188C39.8746 37.1525 38.726 39.3974 37.085 41.3125C35.2214 43.494 32.9709 44.8638 30.1696 44.9145C27.1925 44.9779 24.8248 43.5701 22.8674 41.2491C21.2733 39.3593 20.1247 37.1525 19.1167 34.8568C18.9643 34.5271 18.7533 34.21 18.5306 33.931C17.3702 32.5232 16.8193 30.8617 16.9248 28.9973C16.9951 27.7036 17.4054 27.247 18.4603 26.9934ZM39.9567 24.3045C38.6908 24.1904 37.6242 24.1143 36.5576 23.9875C32.2677 23.5182 28.3763 22.0723 25.2468 18.6986C25.1061 18.5464 24.7896 18.4703 24.5787 18.5084C23.0666 18.7747 22.0235 19.8147 21.0741 21.045C20.0778 22.3387 19.9957 23.7972 20.195 25.3446C20.3943 26.8792 20.6638 28.4139 20.8983 29.9485C20.6638 29.4666 20.488 28.9465 20.1833 28.5153C19.9723 28.2109 19.4566 27.7924 19.3159 27.8812C18.976 28.0968 18.5892 28.5407 18.5423 28.9465C18.39 30.3671 18.8002 31.6354 19.6675 32.7515C20.0075 33.1954 20.3474 33.6646 20.5818 34.1846C21.4491 36.1632 22.3751 38.1164 23.5824 39.9047C26.5947 44.3691 33.4984 44.3438 36.4755 39.8413C37.6945 37.9896 38.6556 35.9983 39.523 33.9437C39.6636 33.6266 39.8043 33.2715 40.0504 33.0432C40.8943 32.2441 41.3046 31.2168 41.4687 30.0627C41.539 29.5807 41.5273 29.0226 41.3866 28.5661C41.0936 27.6402 40.4372 27.5641 39.9215 28.3631C39.605 28.8578 39.3706 29.4031 39.1362 29.8724C39.3941 28.0714 39.6754 26.207 39.9567 24.3045Z" fill="white"/>
<path d="M32.948 48.4659C32.8659 48.5928 32.8073 48.7577 32.7018 48.8718C32.2682 49.3538 31.8579 49.8738 31.3774 50.2923C31.014 50.6094 30.9906 50.863 31.1664 51.2943C31.729 52.6894 32.2447 54.0972 32.7956 55.4924C32.948 55.8602 32.9714 56.1772 32.6784 56.4563C31.8814 57.268 31.0961 58.0797 30.2873 58.8661C30.1818 58.9675 29.8536 58.9929 29.7481 58.9041C28.9159 58.1178 28.1072 57.306 27.2984 56.4816C27.0171 56.2026 27.0406 55.8728 27.193 55.505C27.7673 54.0719 28.2947 52.626 28.8691 51.1928C29.0097 50.825 28.9394 50.6474 28.6698 50.4065C28.1775 49.9372 27.7204 49.4045 27.2633 48.8972C26.982 48.5928 27.0757 48.3264 27.3219 48.0347C27.9314 47.3372 28.576 46.7791 29.5489 46.9693C29.9708 47.0454 30.4045 47.0201 30.8382 46.982C31.8228 46.8806 32.2916 47.6415 32.8425 48.2884C32.9011 48.3138 32.9128 48.3772 32.948 48.4659Z" fill="white"/>
</svg>
