<svg width="72" height="72" viewBox="0 0 72 72" fill="none" xmlns="http://www.w3.org/2000/svg">
<g clip-path="url(#clip0_143_93)">
<path d="M69.8906 67.7812H2.10938C0.944437 67.7812 0 68.7257 0 69.8906C0 71.0556 0.944437 72 2.10938 72H69.8906C71.0556 72 72 71.0556 72 69.8906C72 68.7257 71.0556 67.7812 69.8906 67.7812Z" fill="white"/>
<path d="M6.46875 50.625C5.30381 50.625 4.35938 51.5694 4.35938 52.7344V61.4531C4.35938 62.6181 5.30381 63.5625 6.46875 63.5625H14.9062C16.0712 63.5625 17.0156 62.6181 17.0156 61.4531V52.7344C17.0156 51.5694 16.0712 50.625 14.9062 50.625H6.46875Z" fill="white"/>
<path d="M23.3438 63.5625H31.7812C32.9462 63.5625 33.8906 62.6181 33.8906 61.4531V45.7031C33.8906 44.5382 32.9462 43.5938 31.7812 43.5938H23.3438C22.1788 43.5938 21.2344 44.5382 21.2344 45.7031V61.4531C21.2344 62.6181 22.1788 63.5625 23.3438 63.5625Z" fill="white"/>
<path d="M40.2188 47.8125C39.0538 47.8125 38.1094 48.7569 38.1094 49.9219V61.4531C38.1094 62.6181 39.0538 63.5625 40.2188 63.5625H48.6562C49.8212 63.5625 50.7656 62.6181 50.7656 61.4531V49.9219C50.7656 48.7569 49.8212 47.8125 48.6562 47.8125H40.2188Z" fill="white"/>
<path d="M54.9844 35.8594V61.4531C54.9844 62.6181 55.9288 63.5625 57.0938 63.5625H65.5312C66.6962 63.5625 67.6406 62.6181 67.6406 61.4531V35.8594C67.6406 34.6944 66.6962 33.75 65.5312 33.75H57.0938C55.9288 33.75 54.9844 34.6944 54.9844 35.8594Z" fill="white"/>
<path d="M16.875 33.75C26.1948 33.75 33.75 26.1948 33.75 16.875C33.75 7.55522 26.1948 0 16.875 0C7.55522 0 0 7.55522 0 16.875C0 26.1948 7.55522 33.75 16.875 33.75ZM16.875 28.125C15.7101 28.125 14.7656 27.1806 14.7656 26.0156C14.7656 24.8507 15.7101 23.9062 16.875 23.9062C18.0399 23.9062 18.9844 24.8507 18.9844 26.0156C18.9844 27.1806 18.0399 28.125 16.875 28.125ZM10.6078 11.0738C11.0502 7.90327 13.8047 5.56186 17.0045 5.62627C20.3046 5.69278 23.0234 8.32514 23.1945 11.6193C23.2855 13.3726 22.671 15.0382 21.4642 16.3094C20.7726 17.0378 19.918 17.5856 18.9844 17.9167V19.6875C18.9844 20.8524 18.0399 21.7969 16.875 21.7969C15.7101 21.7969 14.7656 20.8524 14.7656 19.6875V16.1719C14.7656 15.0069 15.7101 14.0625 16.875 14.0625C17.4585 14.0625 18.0018 13.8288 18.4047 13.4045C18.807 12.9807 19.0118 12.4244 18.9816 11.838C18.9256 10.7603 18.0006 9.86583 16.9197 9.84403C16.9052 9.84389 16.8906 9.84375 16.8764 9.84375C15.8258 9.84375 14.9313 10.6158 14.7862 11.6563C14.7725 11.7532 14.7656 11.8534 14.7656 11.9531C14.7656 13.1181 13.8212 14.0625 12.6562 14.0625C11.4913 14.0625 10.5469 13.1181 10.5469 11.9531C10.5469 11.6595 10.5674 11.3638 10.6078 11.0738Z" fill="#FFD700"/>
<path d="M30.5863 32.8916C29.2529 34.0347 27.7755 35.0141 26.1855 35.7995L43.7285 42.0649C44.6204 42.3835 45.6151 42.0686 46.1612 41.2949L60.1151 21.5268L60.7007 24.8479C60.9029 25.9952 61.9971 26.7613 63.1443 26.5589C64.2915 26.3566 65.0575 25.2625 64.8553 24.1153L63.3901 15.8059C63.1879 14.6587 62.0939 13.8926 60.9465 14.0949L52.6371 15.5601C51.4899 15.7624 50.7238 16.8565 50.9261 18.0037C51.1285 19.1509 52.2225 19.9171 53.3698 19.7147L56.6369 19.1386L43.6384 37.553L30.5863 32.8916Z" fill="white"/>
<path d="M16.875 37.9688C16.3435 37.9688 15.8167 37.9485 15.295 37.9097L9.36989 42.6497C8.46019 43.3775 8.31267 44.7048 9.04041 45.6145C9.76814 46.5242 11.0955 46.6718 12.0052 45.944L23.176 37.0074C21.1855 37.6317 19.0689 37.9688 16.875 37.9688Z" fill="white"/>
</g>
<defs>
<clipPath id="clip0_143_93">
<rect width="72" height="72" fill="white"/>
</clipPath>
</defs>
</svg>
