<svg width="1440" height="1010" viewBox="0 0 1440 1010" fill="none" xmlns="http://www.w3.org/2000/svg">
<path d="M571.719 0.580078V1009.42" stroke="#0A2540" stroke-opacity="0.3" stroke-width="2" stroke-miterlimit="10"/>
<path d="M654.562 172.6V837.4" stroke="#0A2540" stroke-opacity="0.3" stroke-width="2" stroke-miterlimit="10"/>
<path d="M644.898 155.36V854.64" stroke="#0A2540" stroke-opacity="0.3" stroke-width="2" stroke-miterlimit="10"/>
<path d="M633.998 130.06V879.94" stroke="#0A2540" stroke-opacity="0.3" stroke-width="2" stroke-miterlimit="10"/>
<path d="M621.611 104.46V905.54" stroke="#0A2540" stroke-opacity="0.3" stroke-width="2" stroke-miterlimit="10"/>
<path d="M607.414 75.1001V934.9" stroke="#0A2540" stroke-opacity="0.3" stroke-width="2" stroke-miterlimit="10"/>
<path d="M590.975 41.1001V968.9" stroke="#0A2540" stroke-opacity="0.3" stroke-width="2" stroke-miterlimit="10"/>
<path d="M868.281 0.580078V1009.42" stroke="#0A2540" stroke-opacity="0.3" stroke-width="2" stroke-miterlimit="10"/>
<path d="M785.438 172.6V837.4" stroke="#0A2540" stroke-opacity="0.3" stroke-width="2" stroke-miterlimit="10"/>
<path d="M795.104 155.36V854.64" stroke="#0A2540" stroke-opacity="0.3" stroke-width="2" stroke-miterlimit="10"/>
<path d="M806 130.06V879.94" stroke="#0A2540" stroke-opacity="0.3" stroke-width="2" stroke-miterlimit="10"/>
<path d="M818.391 104.46V905.54" stroke="#0A2540" stroke-opacity="0.3" stroke-width="2" stroke-miterlimit="10"/>
<path d="M832.588 75.1001V934.9" stroke="#0A2540" stroke-opacity="0.3" stroke-width="2" stroke-miterlimit="10"/>
<path d="M849.025 41.1001V968.9" stroke="#0A2540" stroke-opacity="0.3" stroke-width="2" stroke-miterlimit="10"/>
<path d="M275.414 0.580078V1009.42" stroke="#0A2540" stroke-opacity="0.3" stroke-width="2" stroke-miterlimit="10"/>
<path d="M448.631 172.6V837.4" stroke="#0A2540" stroke-opacity="0.3" stroke-width="2" stroke-miterlimit="10"/>
<path d="M428.424 155.36V854.64" stroke="#0A2540" stroke-opacity="0.3" stroke-width="2" stroke-miterlimit="10"/>
<path d="M405.641 130.06V879.94" stroke="#0A2540" stroke-opacity="0.3" stroke-width="2" stroke-miterlimit="10"/>
<path d="M379.736 104.46V905.54" stroke="#0A2540" stroke-opacity="0.3" stroke-width="2" stroke-miterlimit="10"/>
<path d="M350.051 75.1001V934.9" stroke="#0A2540" stroke-opacity="0.3" stroke-width="2" stroke-miterlimit="10"/>
<path d="M315.678 41.1001V968.9" stroke="#0A2540" stroke-opacity="0.3" stroke-width="2" stroke-miterlimit="10"/>
<path d="M1164.58 0.580078V1009.42" stroke="#0A2540" stroke-opacity="0.3" stroke-width="2" stroke-miterlimit="10"/>
<path d="M991.365 172.6V837.4" stroke="#0A2540" stroke-opacity="0.3" stroke-width="2" stroke-miterlimit="10"/>
<path d="M1011.57 155.36V854.64" stroke="#0A2540" stroke-opacity="0.3" stroke-width="2" stroke-miterlimit="10"/>
<path d="M1034.36 130.06V879.94" stroke="#0A2540" stroke-opacity="0.3" stroke-width="2" stroke-miterlimit="10"/>
<path d="M1060.26 104.46V905.54" stroke="#0A2540" stroke-opacity="0.3" stroke-width="2" stroke-miterlimit="10"/>
<path d="M1089.95 75.1001V934.9" stroke="#0A2540" stroke-opacity="0.3" stroke-width="2" stroke-miterlimit="10"/>
<path d="M1124.32 41.1001V968.9" stroke="#0A2540" stroke-opacity="0.3" stroke-width="2" stroke-miterlimit="10"/>
<path d="M126.213 172.6V837.4" stroke="#0A2540" stroke-opacity="0.3" stroke-width="2" stroke-miterlimit="10"/>
<path d="M94.584 155.36V854.64" stroke="#0A2540" stroke-opacity="0.3" stroke-width="2" stroke-miterlimit="10"/>
<path d="M58.9277 130.06V879.94" stroke="#0A2540" stroke-opacity="0.3" stroke-width="2" stroke-miterlimit="10"/>
<path d="M18.377 104.46V905.54" stroke="#0A2540" stroke-opacity="0.3" stroke-width="2" stroke-miterlimit="10"/>
<path d="M1313.78 172.6V837.4" stroke="#0A2540" stroke-opacity="0.3" stroke-width="2" stroke-miterlimit="10"/>
<path d="M1345.4 155.36V854.64" stroke="#0A2540" stroke-opacity="0.3" stroke-width="2" stroke-miterlimit="10"/>
<path d="M1381.08 130.06V879.94" stroke="#0A2540" stroke-opacity="0.3" stroke-width="2" stroke-miterlimit="10"/>
<path d="M1421.62 104.46V905.54" stroke="#0A2540" stroke-opacity="0.3" stroke-width="2" stroke-miterlimit="10"/>
</svg>
