<svg width="1500" height="852" viewBox="0 0 1500 852" fill="none" xmlns="http://www.w3.org/2000/svg">
<g clipPath="url(#clip0_361_4247)">
<rect width="1500" height="852" fill="white"/>
<path opacity="0.114286" d="M-42.0134 675.767C-46.2661 568.025 24.7071 334.685 342.622 263.267C660.536 191.849 768.39 27.7145 782.578 -45.4253" stroke="#8B37C9" stroke-opacity="0.3"/>
<path opacity="0.171429" d="M-43.4627 673.907C-36.5968 566.505 58.0777 339.796 381.849 292.173C705.62 244.551 829.873 89.3382 851.527 17.6846" stroke="#8B37C9" stroke-opacity="0.3"/>
<path opacity="0.228571" d="M-45.3471 671.802C-27.465 565.53 90.0635 347.103 417.121 323.577C744.178 300.051 883.781 154.881 912.701 85.2373" stroke="#8B37C9" stroke-opacity="0.3"/>
<path opacity="0.285714" d="M-47.646 669.4C-18.9307 565.033 120.439 356.468 448.195 357.148C775.95 357.829 929.745 223.74 965.674 156.611" stroke="#8B37C9" stroke-opacity="0.3"/>
<path opacity="0.342857" d="M-50.32 666.689C-11.0331 564.985 149.007 367.779 474.875 392.584C800.742 417.39 967.471 295.329 1010.1 231.198" stroke="#8B37C9" stroke-opacity="0.3"/>
<path opacity="0.4" d="M-53.3346 663.638C-3.81456 565.332 175.579 380.887 496.996 429.546C818.412 478.205 996.725 369.023 1045.7 308.349" stroke="#8B37C9" stroke-opacity="0.3"/>
<path opacity="0.457143" d="M-56.6722 660.22C2.66903 566.021 199.962 395.635 514.407 467.689C828.851 539.744 1017.32 444.185 1072.25 387.398" stroke="#8B37C9" stroke-opacity="0.3"/>
<path opacity="0.514286" d="M-60.2621 656.418C8.41807 566.996 222.032 411.855 527.047 506.663C832.061 601.471 1029.19 520.173 1089.63 467.673" stroke="#8B37C9" stroke-opacity="0.3"/>
<path opacity="0.571429" d="M-64.0825 652.206C13.3882 568.197 241.632 429.365 534.84 546.107C828.049 662.85 1032.28 596.338 1097.75 548.489" stroke="#8B37C9" stroke-opacity="0.3"/>
<path opacity="0.628571" d="M-68.09 647.582C17.5605 569.578 258.643 447.99 537.77 585.678C816.897 723.365 1026.64 672.048 1096.62 629.178" stroke="#8B37C9" stroke-opacity="0.3"/>
<path opacity="0.685714" d="M-72.2324 642.534C20.9304 571.078 272.978 467.536 535.865 625.017C798.753 782.498 1012.37 746.665 1086.32 709.063" stroke="#8B37C9" stroke-opacity="0.3"/>
<path opacity="0.742857" d="M-76.4718 637.035C23.4836 572.622 284.55 487.788 529.175 663.757C773.8 839.726 989.654 819.548 1067 787.463" stroke="#8B37C9" stroke-opacity="0.3"/>
<path opacity="0.8" d="M-81.2969 631.105C24.7303 574.109 292.931 508.424 517.516 701.657C742.101 894.889 958.627 890.411 1038.82 864.018" stroke="#8B37C9" stroke-opacity="0.3"/>
</g>
<defs>
<clipPath id="clip0_361_4247">
<rect width="1500" height="852" fill="white"/>
</clipPath>
</defs>
</svg>
