<svg width="120" height="120" viewBox="0 0 120 120" fill="none" xmlns="http://www.w3.org/2000/svg">
<circle cx="60" cy="60" r="60" fill="url(#paint0_linear_2106_21063)"/>
<path d="M75.4356 63.77C75.2473 63.9633 74.5361 64.79 73.8737 65.47C69.9899 69.7467 59.8584 76.7467 54.5556 78.8833C53.7503 79.2267 51.7142 79.9533 50.6264 80C49.584 80 48.5904 79.76 47.6421 79.2733C46.4601 78.5933 45.5119 77.5233 44.9924 76.26C44.6579 75.3833 44.1383 72.76 44.1383 72.7133C43.6188 69.8433 43.333 65.18 43.333 60.0267C43.333 55.1167 43.6188 50.6433 44.0442 47.73C44.0929 47.6833 44.6124 44.4233 45.1807 43.3067C46.2231 41.2667 48.2591 40 50.4381 40H50.6264C52.0455 40.05 55.0297 41.3167 55.0297 41.3633C60.0468 43.5033 69.9445 50.16 73.9224 54.5833C73.9224 54.5833 75.0427 55.72 75.5298 56.43C76.2897 57.45 76.6663 58.7133 76.6663 59.9767C76.6663 61.3867 76.2409 62.7 75.4356 63.77Z" fill="white"/>
<defs>
<linearGradient id="paint0_linear_2106_21063" x1="60" y1="0" x2="60" y2="120" gradientUnits="userSpaceOnUse">
<stop stop-color="#3792F0"/>
<stop offset="1" stop-color="#7B51EA"/>
</linearGradient>
</defs>
</svg>
