<svg width="1500" height="1162" viewBox="0 0 1500 1162" fill="none" xmlns="http://www.w3.org/2000/svg">
<g clipPath="url(#clip0_361_4140)">
<rect width="1500" height="1162" fill="white"/>
<path d="M0 540.686C112.32 496.464 369.852 411.526 501.416 425.543C665.871 443.065 1156.26 563.722 1212.14 556.706C1268.01 549.69 1398.44 510.148 1602 440.061" stroke="url(#paint0_linear_361_4140)" strokeWidth="113" strokeLinecap="round"/>
<g opacity="0.5">
<g opacity="0.4">
<path d="M1392.63 1117.92C1393.27 1119.7 1392.13 1122.11 1390.35 1122.74C1388.58 1123.37 1386.17 1122.23 1385.53 1120.45C1384.9 1118.67 1386.04 1116.26 1387.81 1115.63C1389.59 1115 1392 1116.14 1392.63 1117.92Z" fill="url(#paint1_linear_361_4140)"/>
<path d="M1502.61 966.478C1501.35 962.922 1496.53 960.632 1495.39 963.042C1491.84 964.308 1490.7 966.718 1491.97 970.274L1451.92 992.571C1447.61 986.093 1440.39 982.657 1433.29 985.188L1397.53 901.75C1401.08 900.485 1401.59 896.296 1400.96 894.519C1399.69 890.963 1395.5 890.451 1393.1 889.306C1389.55 890.571 1387.27 895.392 1389.68 896.537C1390.94 900.093 1395.13 900.605 1397.53 901.75L1433.29 985.188C1426.19 987.719 1423.41 996.729 1425.94 1003.84C1429.11 1012.73 1438.11 1015.53 1445.21 1013C1454.08 1009.84 1456.87 1000.83 1454.33 993.716L1453.7 991.938L1493.74 969.641C1495.01 973.197 1499.19 973.709 1502.74 972.444C1502.74 972.444 1503.88 970.033 1502.61 966.478ZM1430.38 988.232L1432.91 995.343C1429.36 996.608 1428.86 1000.8 1429.49 1002.57C1430.76 1006.13 1435.58 1008.42 1439.12 1007.15C1442.67 1005.89 1443.18 1001.7 1442.55 999.923L1449.01 995.614L1449.64 997.392C1452.18 1004.5 1447.62 1014.15 1440.52 1016.68C1433.42 1019.21 1424.42 1016.41 1423.03 1006.88C1420.49 999.772 1423.91 992.54 1430.38 988.232ZM1448.37 993.837L1441.91 998.145C1440.64 994.59 1436.46 994.077 1434.69 994.71L1432.15 987.599C1437.47 985.701 1444.7 989.136 1448.37 993.837Z" fill="url(#paint2_linear_361_4140)"/>
<path d="M1482.72 1011.65C1486.27 1010.38 1489.31 1013.3 1490.58 1016.86C1491.22 1018.64 1490.08 1021.05 1490.08 1021.05L1541.41 1052.84C1543.19 1052.21 1542.55 1050.43 1544.33 1049.79C1547.87 1048.53 1552.69 1050.82 1553.96 1054.38C1555.23 1057.93 1552.31 1060.97 1549.4 1064.02C1545.85 1065.28 1541.03 1062.99 1541.54 1058.8C1540.91 1057.03 1540.27 1055.25 1542.05 1054.62L1490.71 1022.82C1490.71 1022.82 1489.57 1025.24 1487.8 1025.87C1484.25 1027.13 1479.43 1024.84 1478.16 1021.29C1478.04 1015.32 1479.18 1012.91 1482.72 1011.65Z" fill="url(#paint3_linear_361_4140)"/>
<path d="M1996.35 786.387C1993.18 777.498 1983.55 772.918 1976.45 775.449C1967.58 778.612 1963.02 788.255 1966.19 797.144C1966.83 798.922 1968.1 802.477 1970.5 803.623L1820.86 967.208C1818.45 966.063 1816.04 964.918 1814.27 965.551L1812.49 966.184L1755.58 924.358C1756.08 920.17 1756.59 915.981 1757.1 911.793C1753.93 902.904 1744.29 898.323 1735.42 901.487C1726.55 904.651 1721.99 914.293 1725.16 923.182C1725.16 923.182 1725.16 923.182 1725.79 924.96L1639.11 967.897C1637.21 962.563 1629.99 959.128 1622.89 961.659C1621.11 962.292 1617.57 963.557 1616.43 965.968L1518.95 894.521C1523.01 889.067 1524.65 882.468 1522.12 875.357C1518.31 864.69 1506.27 858.964 1495.62 862.761C1484.98 866.557 1479.28 878.61 1483.08 889.277C1486.89 899.944 1498.93 905.67 1509.57 901.873C1513.12 900.608 1516.04 897.564 1518.95 894.521L1616.43 965.968C1613.51 969.011 1613.01 973.199 1614.27 976.755C1616.81 983.866 1624.03 987.302 1631.13 984.771C1638.23 982.24 1641.65 975.008 1639.11 967.897C1639.11 967.897 1639.11 967.897 1638.48 966.119L1725.16 923.182C1727.06 928.516 1731.88 930.806 1736.06 931.318L1726.44 1010.9L1724.67 1011.53C1721.12 1012.8 1719.98 1015.21 1721.25 1018.76L1609.98 1054.44C1607.44 1047.33 1600.22 1043.89 1593.12 1046.42C1586.02 1048.95 1582.6 1056.18 1585.14 1063.3C1587.68 1070.41 1594.9 1073.84 1602 1071.31L1609.24 1186.96L1607.47 1187.59C1600.37 1190.12 1596.95 1197.35 1599.49 1204.47C1602.02 1211.58 1609.25 1215.01 1616.35 1212.48C1618.12 1211.85 1621.67 1210.58 1622.81 1208.17L1672.37 1240.6C1671.23 1243.01 1670.72 1247.2 1671.36 1248.97C1673.26 1254.31 1680.48 1257.74 1685.81 1255.84C1691.13 1253.95 1693.41 1249.13 1692.14 1245.57L1715.33 1243.31C1715.33 1243.31 1715.33 1243.31 1715.97 1245.09C1717.87 1250.42 1723.32 1254.49 1728.64 1252.59C1733.97 1250.69 1738.02 1245.24 1736.12 1239.91C1734.22 1234.57 1729.4 1232.28 1725.85 1233.55L1722.17 1200.79L1723.94 1200.16C1729.27 1198.26 1733.32 1192.81 1730.79 1185.7C1728.88 1180.36 1724.07 1178.07 1716.34 1178.83C1712.79 1180.09 1710.51 1184.91 1710 1189.1L1624.33 1195.61L1623.69 1193.83C1622.42 1190.27 1620.02 1189.13 1617.61 1187.98L1682.86 1090.57L1724.31 1105.85C1723.8 1110.03 1723.29 1114.22 1724.56 1117.78C1727.73 1126.67 1738 1133.03 1748.64 1129.23C1757.52 1126.07 1762.71 1118.2 1761.32 1108.68L1843.19 1091.51C1843.82 1093.28 1843.82 1093.28 1844.45 1095.06C1846.36 1100.39 1851.81 1104.46 1855.99 1104.98L1852.32 1128.33C1850.54 1128.96 1848.77 1129.59 1846.36 1128.45C1841.04 1130.35 1836.98 1135.8 1838.89 1141.13C1840.79 1146.47 1846.24 1150.54 1853.33 1148C1856.88 1146.74 1858.02 1144.33 1859.16 1141.92L1883.75 1149.18C1882.61 1151.59 1883.25 1153.37 1883.88 1155.15C1885.78 1160.48 1891.23 1164.55 1896.56 1162.65C1901.88 1160.75 1905.93 1155.3 1904.03 1149.96C1902.13 1144.63 1896.68 1140.56 1891.36 1142.46C1891.36 1142.46 1891.36 1142.46 1889.58 1143.09L1867.27 1102.96C1871.96 1099.28 1874.87 1096.24 1875.38 1092.05L1951.55 1114.98C1951.55 1114.98 1952.19 1116.76 1951.04 1119.17C1952.31 1122.73 1956.5 1123.24 1960.68 1123.75C1964.23 1122.48 1966.51 1117.66 1965.24 1114.11C1964.6 1112.33 1962.2 1111.19 1961.56 1109.41L1967.01 1085.42C1969.42 1086.57 1971.19 1085.93 1972.96 1085.3C1978.29 1083.4 1982.34 1077.95 1979.81 1070.84C1977.9 1065.5 1970.68 1062.07 1965.36 1063.97C1961.81 1065.23 1958.89 1068.28 1957.75 1070.69L1935.7 1070.54C1935.7 1070.54 1935.7 1070.54 1935.07 1068.76C1934.43 1066.98 1932.02 1065.83 1930.25 1066.47C1928.48 1067.1 1927.34 1069.51 1927.97 1071.29C1928.6 1073.07 1931.01 1074.21 1932.79 1073.58C1934.56 1072.95 1934.56 1072.95 1935.7 1070.54L1954.84 1073.73C1955.47 1075.51 1954.33 1077.92 1954.33 1077.92C1955.6 1081.47 1958.64 1084.4 1962.83 1084.91L1959.15 1108.26C1957.38 1108.89 1957.38 1108.89 1955.61 1109.53C1953.83 1110.16 1952.06 1110.79 1950.92 1113.2L1874.74 1090.27C1874.11 1088.49 1875.25 1086.08 1873.98 1082.53C1872.71 1078.97 1869.04 1074.27 1864.85 1073.76L1978.36 808.836C1980.77 809.981 1984.32 808.715 1986.09 808.083C1994.96 804.919 1999.53 795.277 1996.35 786.387ZM1852.94 1074C1851.17 1074.63 1851.17 1074.63 1849.39 1075.26L1799.57 1002.85L1812.11 976.338C1814.52 977.483 1816.93 978.628 1818.7 977.996L1852.94 1074ZM1843.06 1085.54L1697.3 1069.38L1718.08 1037.93C1729.36 1035.91 1738.87 1034.52 1748.37 1033.14L1844.2 1083.13C1842.42 1083.76 1843.06 1085.54 1843.06 1085.54ZM1735.06 1023.86L1747.74 1031.36C1738.23 1032.74 1728.73 1034.13 1719.22 1035.52L1724.42 1027.65C1726.83 1028.8 1728.6 1028.16 1730.38 1027.53C1732.15 1026.9 1733.92 1026.27 1735.06 1023.86ZM1695.53 1070.02L1611.88 1059.77C1611.25 1057.99 1611.25 1057.99 1610.61 1056.21C1631.4 1052.81 1676.51 1044.74 1715.68 1036.78L1695.53 1070.02ZM1695.53 1070.02L1684 1088.16L1610.74 1062.18L1695.53 1070.02ZM1609.98 1054.44L1720.74 1022.95C1721.38 1024.73 1721.38 1024.73 1723.78 1025.87L1717.45 1036.15C1676.51 1044.74 1630.76 1051.03 1609.98 1054.44ZM1734.43 1022.08L1781.58 1025.3C1773.85 1026.06 1760.79 1028.71 1747.74 1031.36L1734.43 1022.08ZM1796.41 1022.02C1795.77 1020.24 1795.14 1018.46 1793.36 1019.1L1800.2 1004.63L1850.03 1077.04C1848.25 1077.67 1847.11 1080.09 1845.97 1082.5L1752.56 1033.65C1765.61 1031 1776.89 1028.98 1784.62 1028.23C1785.89 1031.78 1790.7 1034.07 1791.84 1031.66C1794.76 1028.62 1797.67 1025.57 1796.41 1022.02ZM1855.99 1104.98C1858.4 1106.12 1861.94 1104.85 1863.72 1104.22L1865.49 1103.59L1887.17 1141.95C1885.4 1142.58 1884.26 1144.99 1883.12 1147.4L1858.53 1140.14C1860.3 1139.51 1859.67 1137.73 1858.4 1134.17C1857.13 1130.62 1854.09 1127.7 1851.68 1126.55L1855.99 1104.98ZM1726.08 1105.21L1735.71 1109.79C1736.35 1111.57 1734.57 1112.2 1735.21 1113.98C1736.48 1117.54 1738.88 1118.68 1743.07 1119.19C1746.62 1117.93 1747.76 1115.52 1748.26 1111.33L1759.54 1109.31C1760.3 1117.06 1755.74 1126.7 1748.64 1129.23C1739.77 1132.39 1730.14 1127.81 1726.97 1118.92C1725.07 1113.59 1725.57 1109.4 1726.08 1105.21ZM1758.91 1107.53L1749.4 1108.92C1748.13 1105.36 1745.09 1102.44 1742.18 1105.48C1740.4 1106.12 1738.63 1106.75 1737.49 1109.16L1727.86 1104.58C1730.14 1099.76 1733.05 1096.72 1738.37 1094.82C1745.47 1092.29 1755.1 1096.87 1758.91 1107.53C1758.27 1105.76 1760.05 1105.12 1758.91 1107.53ZM1684 1088.16L1696.16 1071.8L1842.55 1089.73L1843.19 1091.51L1761.32 1108.68L1760.68 1106.9C1757.51 1098.01 1747.24 1091.65 1736.6 1095.45C1731.28 1097.35 1726.59 1101.02 1726.08 1105.21L1684 1088.16ZM1691.51 1243.79C1690.87 1242.01 1690.87 1242.01 1690.87 1242.01C1690.24 1240.24 1689.61 1238.46 1687.2 1237.31L1715.58 1199.14C1717.99 1200.28 1720.4 1201.43 1722.17 1200.79L1724.58 1229.99L1722.81 1230.62C1717.49 1232.52 1715.21 1237.34 1716.47 1240.9L1691.51 1243.79ZM1622.17 1206.4C1623.31 1203.98 1624.45 1201.57 1623.82 1199.8L1709.49 1193.29L1710.13 1195.07C1710.76 1196.85 1711.4 1198.62 1713.81 1199.77L1685.42 1237.95C1683.01 1236.8 1678.83 1236.29 1677.06 1236.92C1675.28 1237.55 1673.51 1238.19 1672.37 1240.6L1622.17 1206.4ZM1611.02 1186.33L1603.77 1070.68C1607.32 1069.41 1610.23 1066.37 1610.74 1062.18L1682.23 1088.79L1616.97 1186.21C1615.2 1186.84 1612.79 1185.69 1611.02 1186.33ZM1739.1 934.241C1741.51 935.386 1743.29 934.754 1745.06 934.121C1746.83 933.488 1746.83 933.488 1748.61 932.855L1797.8 1003.49L1790.95 1017.95C1789.18 1018.58 1788.55 1016.81 1786.77 1017.44C1785 1018.07 1782.08 1021.11 1782.72 1022.89L1733.8 1020.3C1733.8 1020.3 1733.8 1020.3 1733.16 1018.52C1732.53 1016.74 1729.49 1013.82 1727.71 1014.45L1739.1 934.241ZM1810.72 966.816C1808.94 967.449 1808.44 971.637 1809.07 973.415L1809.7 975.193L1797.16 1001.71L1747.97 931.078C1749.75 930.445 1750.89 928.034 1752.03 925.624L1810.72 966.816ZM1970.5 803.623C1972.91 804.768 1975.32 805.913 1977.73 807.058L1864.85 1073.76C1862.45 1072.61 1858.26 1072.1 1854.71 1073.37L1820.48 977.363C1824.03 976.098 1824.53 971.909 1823.9 970.131L1823.26 968.353L1870.53 949.492C1872.44 954.825 1879.66 958.26 1886.76 955.729C1893.85 953.199 1897.28 945.967 1894.74 938.855C1892.2 931.744 1884.98 928.309 1877.88 930.84C1870.78 933.371 1867.36 940.602 1869.9 947.714L1824.4 965.943L1970.5 803.623Z" fill="url(#paint4_linear_361_4140)"/>
<path d="M1456.27 1195.42C1453.86 1194.28 1452.09 1194.91 1450.32 1195.54C1446.77 1196.81 1445.63 1199.22 1445.12 1203.41C1446.39 1206.96 1449.43 1209.89 1454.75 1207.99C1458.3 1206.72 1458.81 1202.53 1458.18 1200.76C1458.68 1196.57 1456.91 1197.2 1456.27 1195.42L1508.6 1134.68C1511.65 1137.6 1518.24 1139.26 1522.42 1139.77L1533.08 1192.08C1529.53 1193.35 1527.25 1198.17 1527.88 1199.94C1529.15 1203.5 1533.97 1205.79 1537.51 1204.52C1541.06 1203.26 1543.34 1198.44 1542.08 1194.88C1541.44 1193.1 1538.4 1190.18 1536.62 1190.81L1525.97 1138.5L1527.74 1137.87C1536.61 1134.71 1542.95 1124.43 1539.78 1115.54C1536.61 1106.65 1526.98 1102.07 1517.47 1103.46C1508.6 1106.62 1504.04 1116.27 1505.43 1125.79C1506.07 1127.57 1507.34 1131.12 1509.74 1132.27L1456.27 1195.42ZM1523.56 1137.36L1522.16 1127.84C1525.71 1126.57 1526.22 1122.38 1524.95 1118.83C1523.68 1115.27 1519.5 1114.76 1517.73 1115.39C1514.18 1116.66 1511.9 1121.48 1512.53 1123.26C1513.17 1125.03 1513.17 1125.03 1513.17 1125.03L1507.34 1131.12C1504.93 1129.98 1504.29 1128.2 1503.03 1124.64C1499.86 1115.75 1504.42 1106.11 1513.29 1102.95C1522.16 1099.78 1531.79 1104.36 1534.96 1113.25C1538.13 1122.14 1533.57 1131.78 1524.7 1134.95C1525.33 1136.73 1523.56 1137.36 1523.56 1137.36ZM1509.74 1132.27L1515.57 1126.18C1517.98 1127.32 1517.98 1127.32 1520.39 1128.47L1521.79 1137.99C1517.6 1137.48 1513.42 1136.97 1509.74 1132.27Z" fill="url(#paint5_linear_361_4140)"/>
<path d="M1328.08 858.387C1336.32 881.499 1361.04 894.728 1385.87 885.87C1408.94 877.644 1422.12 852.905 1413.87 829.794C1411.97 824.46 1410.7 820.904 1407.66 817.982L1454.55 781.221C1460.13 791.255 1473.31 794.57 1483.95 790.774C1496.37 786.345 1503.21 771.881 1498.78 759.436C1494.34 746.992 1479.89 740.121 1467.47 744.55C1460.37 747.081 1455.68 750.757 1454.04 757.356L1401.18 738.13C1400.55 736.352 1402.32 735.72 1401.69 733.942C1400.42 730.386 1395.6 728.096 1392.69 731.139C1389.14 732.405 1388.63 736.593 1387.49 739.004C1388.76 742.559 1393.58 744.85 1394.72 742.439C1396.49 741.806 1398.27 741.174 1397.63 739.396L1450.49 758.621C1448.21 763.443 1446.56 770.042 1449.1 777.153C1449.73 778.931 1450.37 780.709 1451 782.486L1404.11 819.247C1393.08 805.145 1372.68 798.395 1354.94 804.722C1332.38 808.759 1319.83 835.275 1328.08 858.387ZM1451.63 756.211L1463.04 760.159C1461.89 762.569 1462.53 764.347 1463.16 766.125L1463.8 767.903L1452.65 775.888C1452.01 774.11 1451.38 772.332 1451.38 772.332C1450.11 768.776 1449.35 761.032 1451.63 756.211ZM1453.91 779.443L1465.06 771.458C1468.11 774.381 1472.92 776.671 1476.47 775.406C1481.79 773.508 1485.85 768.054 1483.95 762.72C1482.05 757.387 1476.59 753.319 1469.5 755.85C1465.95 757.115 1464.81 759.526 1463.67 761.936L1452.26 757.989C1454.54 753.168 1458.6 747.714 1465.69 745.183C1478.11 740.754 1492.56 747.624 1497 760.069C1501.44 772.514 1494.6 786.977 1482.18 791.407C1472.67 792.792 1460.63 787.067 1453.91 779.443ZM1329.85 857.754C1321.61 834.643 1334.78 809.904 1356.08 802.311C1373.82 795.984 1394.22 802.734 1405.25 816.836L1387.64 829.13C1383.33 822.651 1372.55 820.482 1365.46 823.013C1354.81 826.809 1349.11 838.862 1352.92 849.529C1356.72 860.196 1368.76 865.921 1379.41 862.125C1390.05 858.328 1395.75 846.276 1391.95 835.609C1391.31 833.831 1390.68 832.053 1388.27 830.908L1405.25 816.836C1408.3 819.759 1410.2 825.093 1411.47 828.649C1419.71 851.76 1408.31 875.866 1385.24 884.092C1362.18 892.317 1337.46 879.089 1329.85 857.754Z" fill="url(#paint6_linear_361_4140)"/>
</g>
</g>
</g>
<defs>
<linearGradient id="paint0_linear_361_4140" x1="0" y1="490.5" x2="1602" y2="490.5" gradientUnits="userSpaceOnUse">
<stop stop-color="#FE4582" stop-opacity="0.2"/>
<stop offset="1" stop-color="#844DE6" stop-opacity="0.3"/>
<stop offset="1.0001" stop-color="#999999" stop-opacity="0.4"/>
</linearGradient>
<linearGradient id="paint1_linear_361_4140" x1="1280.89" y1="964.687" x2="1676.99" y2="1531.77" gradientUnits="userSpaceOnUse">
<stop stop-color="#248FFF"/>
<stop offset="0.5" stop-color="#8B37C9"/>
<stop offset="1" stop-color="#24FFFF"/>
</linearGradient>
<linearGradient id="paint2_linear_361_4140" x1="1392.14" y1="886.074" x2="1789.76" y2="1455.34" gradientUnits="userSpaceOnUse">
<stop stop-color="#248FFF"/>
<stop offset="0.5" stop-color="#8B37C9"/>
<stop offset="1" stop-color="#24FFFF"/>
</linearGradient>
<linearGradient id="paint3_linear_361_4140" x1="1405.35" y1="876.99" x2="1802.77" y2="1445.98" gradientUnits="userSpaceOnUse">
<stop stop-color="#248FFF"/>
<stop offset="0.5" stop-color="#8B37C9"/>
<stop offset="1" stop-color="#24FFFF"/>
</linearGradient>
<linearGradient id="paint4_linear_361_4140" x1="1614.4" y1="730.87" x2="2011.89" y2="1299.96" gradientUnits="userSpaceOnUse">
<stop stop-color="#248FFF"/>
<stop offset="0.5" stop-color="#8B37C9"/>
<stop offset="1" stop-color="#24FFFF"/>
</linearGradient>
<linearGradient id="paint5_linear_361_4140" x1="1331.32" y1="928.645" x2="1728.77" y2="1497.66" gradientUnits="userSpaceOnUse">
<stop stop-color="#248FFF"/>
<stop offset="0.5" stop-color="#8B37C9"/>
<stop offset="1" stop-color="#24FFFF"/>
</linearGradient>
<linearGradient id="paint6_linear_361_4140" x1="1442.96" y1="850.661" x2="1840.69" y2="1420.1" gradientUnits="userSpaceOnUse">
<stop stop-color="#248FFF"/>
<stop offset="0.5" stop-color="#8B37C9"/>
<stop offset="1" stop-color="#24FFFF"/>
</linearGradient>
<clipPath id="clip0_361_4140">
<rect width="1500" height="1162" fill="white"/>
</clipPath>
</defs>
</svg>
